<svg width="36" height="36" viewBox="0 0 36 36" fill="none" xmlns="http://www.w3.org/2000/svg">
<circle cx="18" cy="18" r="18" fill="#A7B5CB"/>
<path fill-rule="evenodd" clip-rule="evenodd" d="M23.1253 7.24201C23.3563 7.37688 23.4319 7.59184 23.4319 7.84473C23.4277 8.82679 23.4319 9.81306 23.4319 10.7951C23.4319 11.2798 23.2597 11.4484 22.7725 11.4568C22.1214 11.4653 21.4703 11.4653 20.8193 11.4653C20.6723 11.4653 20.5253 11.4906 20.3824 11.5243C19.9414 11.6297 19.6684 11.9373 19.6138 12.3925C19.5214 13.206 19.5928 14.0195 19.5718 14.8329C19.5676 14.9973 19.681 14.9847 19.786 14.9847C20.7227 14.9847 21.6636 14.9847 22.6003 14.9847C22.6717 14.9847 22.7389 14.9847 22.8103 14.9847C23.0749 14.9931 23.2219 15.1195 23.2765 15.3809C23.2933 15.4694 23.3017 15.5621 23.3017 15.6506C23.3017 16.6917 23.3017 17.7285 23.3017 18.7696C23.3017 19.2965 23.1337 19.465 22.6087 19.465C21.6846 19.4693 20.7605 19.4735 19.8364 19.4608C19.6222 19.4566 19.5676 19.5283 19.5676 19.739C19.576 22.5503 19.5718 25.3574 19.5718 28.1687C19.5718 28.253 19.576 28.3373 19.5676 28.4216C19.5382 28.6703 19.3659 28.8346 19.1181 28.8346C17.8916 28.8388 16.6693 28.8388 15.4428 28.8346C15.2159 28.8346 15.0647 28.6998 15.0101 28.4764C14.9765 28.3457 14.9765 28.2108 14.9765 28.0802C14.9765 25.3195 14.9765 22.5587 14.9765 19.798C14.9765 19.4693 14.9765 19.465 14.6363 19.465C13.9348 19.465 13.2375 19.465 12.5361 19.465C12.4647 19.465 12.3975 19.465 12.3261 19.4608C11.9018 19.4355 11.738 19.2669 11.7338 18.837C11.7296 18.3439 11.7338 17.855 11.7338 17.3618C11.7338 16.7718 11.7296 16.1817 11.7338 15.5916C11.738 15.149 11.906 14.9805 12.3429 14.9805C13.1409 14.9805 13.939 14.9762 14.7371 14.9847C14.9261 14.9847 14.9765 14.9214 14.9765 14.7402C14.9681 14.0574 14.9639 13.3788 14.9765 12.696C14.9933 11.8362 15.0857 10.989 15.4218 10.184C16.0686 8.64133 17.2237 7.7225 18.8367 7.35581C19.0467 7.30945 19.2609 7.27573 19.4752 7.23779C20.6891 7.24201 21.9072 7.24201 23.1253 7.24201Z" fill="white"/>
</svg>
