<svg width="36" height="36" viewBox="0 0 36 36" fill="none" xmlns="http://www.w3.org/2000/svg">
<circle cx="18" cy="18" r="18" fill="#A7B5CB"/>
<path fill-rule="evenodd" clip-rule="evenodd" d="M20.1907 7.22458C19.5622 7.24329 18.9668 7.26101 18.4261 7.23005C17.7427 7.23005 17.1065 7.22706 16.5009 7.22421C15.3729 7.2189 14.3509 7.2141 13.3268 7.23005C10.1299 7.2889 7.26149 10.104 7.22716 13.2575C7.19284 16.3963 7.18794 19.535 7.23207 22.6738C7.2811 25.9156 10.1005 28.7208 13.3415 28.765C16.455 28.8091 19.5735 28.814 22.687 28.765C25.8447 28.7159 28.6837 25.9303 28.7523 22.7719C28.821 19.6135 28.8112 16.4502 28.7523 13.2869C28.6984 10.3983 26.4331 7.83819 23.5647 7.35266C22.4148 7.1584 21.2552 7.19291 20.1907 7.22458ZM13.6063 9.33892H18.0339C18.4803 9.33892 18.9271 9.33706 19.3741 9.3352H19.3741H19.3742H19.3742H19.3742C20.3806 9.33102 21.3879 9.32684 22.3928 9.34382C24.8935 9.38305 26.6096 11.0554 26.6488 13.5665C26.693 16.563 26.693 19.5645 26.6488 22.561C26.6145 24.8906 24.8837 26.6218 22.5546 26.6561C19.5147 26.7003 16.4697 26.7003 13.4248 26.6561C11.1252 26.6218 9.39439 24.9151 9.35517 22.6199C9.30614 19.5301 9.30614 16.4355 9.35027 13.3458C9.37968 11.1535 11.1252 9.45172 13.3317 9.34872C13.4199 9.34382 13.5131 9.33892 13.6063 9.33892ZM23.9128 18.0932C23.9275 14.822 21.2455 12.0902 18.0093 12.0853C14.7879 12.0804 12.0764 14.7778 12.0813 17.9853C12.0863 21.2221 14.7585 23.9097 17.975 23.9195C21.1572 23.9293 23.8981 21.2417 23.9128 18.0932ZM21.7946 18.0833C21.7799 20.202 20.1374 21.8057 17.9848 21.8008C15.7784 21.8008 14.1799 20.1677 14.1995 17.9215C14.2094 15.7979 15.847 14.1991 18.0045 14.204C20.206 14.2089 21.8143 15.847 21.7946 18.0833ZM23.751 13.1692C24.2561 13.1692 24.6826 12.7621 24.6875 12.2668C24.6925 11.7813 24.2708 11.335 23.7854 11.3105C23.2999 11.2908 22.839 11.7077 22.8194 12.1932C22.7949 12.7327 23.2117 13.1692 23.751 13.1692Z" fill="white"/>
</svg>
