<svg width="36" height="36" viewBox="0 0 36 36" fill="none" xmlns="http://www.w3.org/2000/svg">
<circle cx="18" cy="18" r="18" fill="#A7B5CB"/>
<path fill-rule="evenodd" clip-rule="evenodd" d="M19.3745 16.508C19.6895 16.0788 20.008 15.7153 20.3957 15.4142C21.133 14.8361 21.9811 14.5488 22.9053 14.4726C23.7845 14.4 24.643 14.4969 25.4703 14.8084C26.7372 15.2861 27.6165 16.1792 28.1634 17.4046C28.5095 18.18 28.6757 18.9969 28.7449 19.838C28.7761 20.1876 28.7726 20.5338 28.7726 20.88C28.7726 23.4173 28.7726 25.9546 28.7726 28.4919C28.7726 28.7376 28.7726 28.7376 28.5338 28.7376C27.0972 28.7376 25.6642 28.7376 24.2276 28.7376C24.0026 28.7376 24.0026 28.7376 24.0026 28.5092C24.0026 26.0723 24.0026 23.6353 24.0026 21.1984C24.0026 20.6792 23.9438 20.1669 23.7707 19.6719C23.4142 18.6403 22.6734 18.218 21.6418 18.263C20.3403 18.3219 19.6515 19.3292 19.4472 20.1253C19.3711 20.423 19.3711 20.7311 19.3711 21.0357C19.3676 23.5211 19.3676 26.0065 19.3676 28.4884C19.3676 28.7342 19.3676 28.7342 19.1288 28.7342C17.6992 28.7342 16.2695 28.7342 14.8399 28.7342C14.6011 28.7342 14.6011 28.7342 14.6011 28.5023C14.6045 26.7403 14.5942 24.9784 14.6149 23.2165C14.6392 21.0184 14.6253 18.8169 14.6288 16.6188C14.6288 16.0719 14.6115 15.5215 14.6045 14.9746C14.6011 14.7738 14.608 14.7669 14.8018 14.7669C16.2626 14.7669 17.7234 14.7669 19.1842 14.7634C19.3261 14.7634 19.378 14.805 19.3745 14.9538C19.3676 15.4592 19.3745 15.9611 19.3745 16.508Z" fill="white"/>
<path fill-rule="evenodd" clip-rule="evenodd" d="M12.2716 21.78C12.2716 24.0231 12.2716 26.2627 12.2716 28.5058C12.2716 28.7412 12.2716 28.7412 12.0431 28.7412C10.5997 28.7412 9.15275 28.7412 7.70929 28.7412C7.49121 28.7412 7.49121 28.7377 7.49121 28.5196C7.49121 24.0162 7.49121 19.5127 7.49121 15.0058C7.49121 14.7738 7.49467 14.7704 7.73352 14.7704C9.1666 14.7704 10.6031 14.7704 12.0362 14.7704C12.2681 14.7704 12.2751 14.7773 12.2751 15.0092C12.2716 17.2662 12.2716 19.5231 12.2716 21.78Z" fill="white"/>
<path fill-rule="evenodd" clip-rule="evenodd" d="M7.22804 10.5992C7.2315 9.34961 8.09343 8.36307 9.35689 8.17961C10.0907 8.07576 10.8038 8.13114 11.4442 8.54307C12.3027 9.10038 12.6557 9.92422 12.545 10.9177C12.4273 11.9735 11.8007 12.6519 10.7934 12.96C10.1807 13.1504 9.55419 13.1469 8.9415 12.9496C7.86496 12.6104 7.22458 11.7277 7.22804 10.5992Z" fill="white"/>
</svg>
