<svg width="36" height="36" viewBox="0 0 36 36" fill="none" xmlns="http://www.w3.org/2000/svg">
<circle cx="18" cy="18" r="18" fill="#A7B5CB"/>
<path fill-rule="evenodd" clip-rule="evenodd" d="M28.796 11.0859C28.796 11.1147 28.796 11.1393 28.796 11.168C28.7622 11.205 28.7243 11.2337 28.6947 11.2748C28.1547 12.0263 27.5093 12.6792 26.7541 13.2295C26.6275 13.3198 26.6107 13.4348 26.6149 13.5703C26.6571 14.9008 26.463 16.2026 26.058 17.4715C25.2227 20.075 23.7335 22.2474 21.468 23.8735C18.7343 25.8323 15.6377 26.4565 12.3091 26.0746C10.8832 25.9103 9.52473 25.4833 8.25066 24.8344C7.89629 24.6538 7.55035 24.4608 7.2002 24.2719C7.2002 24.2431 7.2002 24.2185 7.2002 24.1897C7.43645 24.2103 7.6727 24.2472 7.91316 24.2554C9.25051 24.2842 10.5457 24.0706 11.7733 23.5532C12.3808 23.2945 12.9588 22.9865 13.4904 22.5964C13.5283 22.5677 13.5958 22.5512 13.5832 22.4979C13.5663 22.4321 13.4904 22.4527 13.4397 22.4445C13.3132 22.4321 13.1866 22.4239 13.0643 22.3993C11.4274 22.0749 10.301 21.155 9.67238 19.6521C9.58801 19.4467 9.6091 19.4221 9.82848 19.4549C10.3685 19.5289 10.9043 19.496 11.4654 19.3728C11.3979 19.3523 11.3599 19.3359 11.3177 19.3235C9.44879 18.8308 8.11145 17.1841 8.03973 15.2951C8.03129 15.0856 8.06504 15.061 8.26332 15.1513C8.30973 15.1719 8.35191 15.1924 8.3941 15.2129C8.87504 15.4224 9.37707 15.5538 9.90863 15.5784C9.9002 15.5168 9.85379 15.5004 9.82426 15.4758C8.1241 14.1822 7.60098 12.0058 8.54598 10.1127C8.69363 9.8129 8.69785 9.8129 8.92566 10.0675C10.5457 11.899 12.5454 13.1638 14.9247 13.8578C15.7811 14.1083 16.6586 14.2643 17.553 14.3177C17.7682 14.33 17.8019 14.2849 17.7639 14.0754C17.6669 13.5498 17.6711 13.0242 17.7977 12.5068C18.1943 10.8765 19.1983 9.7472 20.8394 9.25442C22.4763 8.76164 23.9655 9.1189 25.2354 10.2523C25.3577 10.3632 25.4632 10.396 25.6277 10.3591C26.463 10.1702 27.2519 9.8786 27.9986 9.47206C28.0577 9.43921 28.1252 9.36529 28.1843 9.42278C28.2391 9.47206 28.1758 9.55008 28.1547 9.61168C27.986 10.0675 27.7329 10.474 27.4164 10.8477C27.138 11.1804 26.8005 11.4514 26.4166 11.7224C26.771 11.6814 27.0747 11.6115 27.3827 11.5458C27.8679 11.4309 28.3235 11.2296 28.796 11.0859Z" fill="white"/>
</svg>
