<svg width="36" height="36" viewBox="0 0 36 36" fill="none" xmlns="http://www.w3.org/2000/svg">
<circle cx="18" cy="18" r="18" fill="#A7B5CB"/>
<path fill-rule="evenodd" clip-rule="evenodd" d="M18.0406 10.8112C18.8036 10.8112 19.5666 10.7999 20.3296 10.8149C21.3801 10.8336 22.4269 10.8635 23.4774 10.9197C24.292 10.9645 25.1066 11.0207 25.9139 11.1329C26.7285 11.2451 27.4104 11.5855 27.9043 12.2738C28.1586 12.6292 28.3061 13.0332 28.3946 13.4597C28.5604 14.249 28.6305 15.0495 28.6931 15.8538C28.789 17.0845 28.7963 18.319 28.7668 19.5535C28.7374 20.758 28.6599 21.9626 28.4498 23.1522C28.3614 23.6422 28.2361 24.121 27.9485 24.54C27.4952 25.1984 26.8685 25.5762 26.0945 25.7109C25.2541 25.8568 24.4026 25.9129 23.5511 25.9615C22.5559 26.0176 21.5607 26.0513 20.5655 26.0738C18.9141 26.1112 17.2628 26.0999 15.6115 26.085C14.8374 26.0775 14.0597 26.0476 13.2856 26.0102C12.2093 25.9615 11.1367 25.9092 10.0714 25.7446C9.58486 25.6698 9.1278 25.5276 8.72234 25.2358C8.13626 24.8131 7.7824 24.237 7.62391 23.5263C7.46172 22.7968 7.388 22.0561 7.32165 21.3117C7.20739 19.9949 7.19633 18.6744 7.22582 17.3539C7.2553 16.1493 7.32903 14.9448 7.54281 13.7552C7.63128 13.2539 7.76029 12.7676 8.05517 12.3449C8.50855 11.694 9.13517 11.3199 9.90554 11.1853C10.746 11.0394 11.5974 10.9832 12.4489 10.9346C13.4404 10.8822 14.4283 10.8486 15.4198 10.8224C16.2934 10.8037 17.167 10.8149 18.0406 10.8112ZM15.8511 18.4387C15.8511 19.4487 15.8511 20.4588 15.8511 21.4725C15.8511 21.6783 15.8511 21.6783 16.0317 21.5735C17.7567 20.571 19.4818 19.5685 21.2032 18.5659C21.2585 18.5322 21.358 18.521 21.3506 18.4499C21.3469 18.3864 21.2511 18.3676 21.1958 18.334C19.4634 17.3165 17.7309 16.3027 15.9985 15.2889C15.8585 15.2066 15.8511 15.2104 15.8511 15.3825C15.8474 16.4 15.8511 17.4212 15.8511 18.4387Z" fill="white"/>
</svg>
