<svg width="180" height="180" viewBox="0 0 180 180" fill="none" xmlns="http://www.w3.org/2000/svg">
<path d="M80.6966 158.873C66.0351 144.609 65.8014 122.531 69.6096 103.351C70.2414 100.149 70.4491 96.6956 72.4398 94.1251C74.4304 91.5545 78.3251 90.2044 80.9822 92.0306C83.1892 93.5452 83.7778 96.4965 84.7385 99.0151C86.0194 102.365 88.2524 105.333 91.1085 107.462C92.9866 108.864 95.4187 109.929 97.6257 109.141C100.655 108.06 101.607 104.277 102.118 101.075C103.061 95.1031 103.996 89.1225 104.939 83.1506C105.441 79.9482 105.969 76.6767 107.466 73.7946C108.964 70.9211 111.621 68.4544 114.806 68.0996C117.991 67.7447 121.47 70.1162 121.6 73.3618C121.652 74.712 121.167 76.0189 121.037 77.3604C120.908 78.7019 121.288 80.2771 122.491 80.857C123.712 81.4455 125.14 80.7445 126.248 79.9655C130.082 77.2739 133.007 73.4743 135.785 69.6748C138.564 65.8753 141.29 61.9719 144.864 58.934C148.439 55.8961 153.043 53.7843 157.674 54.2776C162.304 54.7709 166.727 58.3974 167.151 63.0884C167.575 67.7967 164.191 71.9424 160.729 75.1274C155.588 79.853 149.772 83.8257 143.523 86.8809C142.398 87.4348 141.177 88.0233 140.598 89.1485C139.55 91.1737 141.229 93.6231 143.22 94.6703C145.479 95.8561 148.11 96.0292 150.559 96.7389C153.009 97.4399 155.536 98.9892 156.09 101.499C156.869 104.987 153.563 107.973 150.508 109.773C144.38 113.391 137.638 115.936 130.67 117.268C128.178 117.744 125.573 118.099 123.4 119.441C121.228 120.782 119.609 123.474 120.388 125.915C121.167 128.364 123.997 129.567 126.533 129.515C129.078 129.463 131.501 128.485 134.003 127.983C138.676 127.04 144.311 128.278 146.509 132.544C147.954 135.349 147.548 138.854 146.119 141.684C144.691 144.514 142.372 146.765 139.966 148.807C131.553 155.93 121.436 161.114 110.651 162.984C99.85 164.836 90.2344 164.248 80.6966 158.873Z" fill="#B2CAF2"/>
<path d="M78.1001 173.136C80.0475 165.606 83.2065 156.856 87.6552 147.604C92.0865 138.334 97.7901 128.58 104.1 118.575C105.683 116.082 107.259 113.616 108.799 111.184C110.348 108.76 111.88 106.363 113.534 104.104C116.814 99.5774 120.302 95.4749 123.746 91.6841C127.182 87.8932 130.584 84.4139 133.786 81.1942C136.997 77.9746 140.052 75.0319 142.943 72.4614C148.716 67.3117 153.857 63.7112 157.492 61.383C159.31 60.2146 160.738 59.3491 161.724 58.7865C162.192 58.5182 162.564 58.3019 162.841 58.1461C163.092 58.0076 163.23 57.9384 163.23 57.947C163.239 57.9557 163.118 58.0422 162.867 58.198C162.598 58.3711 162.235 58.5961 161.776 58.8904C160.816 59.4962 159.396 60.3877 157.605 61.5821C154.021 63.9622 148.932 67.6059 143.211 72.7816C140.347 75.3608 137.317 78.3121 134.124 81.5491C130.939 84.7861 127.555 88.2653 124.136 92.0649C120.717 95.8557 117.246 99.9495 113.992 104.459C112.356 106.7 110.833 109.089 109.284 111.513C107.743 113.945 106.177 116.403 104.584 118.895C98.2748 128.892 92.5712 138.611 88.1225 147.846C83.6566 157.064 80.4802 165.762 78.4809 173.248" fill="#263238"/>
<path d="M113.707 104.104C113.663 104.104 113.637 103.602 113.62 102.685C113.594 101.776 113.603 100.452 113.646 98.8161C113.715 95.5532 113.966 91.0526 114.261 86.0846C114.555 81.1167 114.737 76.6247 114.763 73.3705C114.78 71.7433 114.771 70.4278 114.763 69.519C114.754 68.6103 114.771 68.0996 114.814 68.0996C114.858 68.0996 114.918 68.6016 114.996 69.5104C115.083 70.4191 115.143 71.7433 115.187 73.3705C115.273 76.6334 115.161 81.1513 114.866 86.1192C114.563 91.0179 114.287 95.4493 114.079 98.8334C113.992 100.365 113.923 101.655 113.862 102.685C113.802 103.602 113.75 104.113 113.707 104.104Z" fill="#263238"/>
<path d="M156.142 103.153C156.133 103.196 155.536 103.161 154.472 103.083C153.398 103.005 151.849 102.884 149.928 102.789C146.094 102.581 140.779 102.477 134.911 102.616C129.043 102.763 123.738 103.127 119.912 103.499C117.999 103.672 116.45 103.854 115.377 103.975C114.304 104.096 113.715 104.148 113.707 104.105C113.698 104.061 114.287 103.94 115.342 103.741C116.407 103.551 117.948 103.308 119.86 103.075C123.686 102.59 129.009 102.157 134.894 102.01C140.779 101.872 146.111 102.045 149.945 102.365C151.866 102.512 153.416 102.694 154.48 102.85C155.562 103.005 156.142 103.109 156.142 103.153Z" fill="#263238"/>
<path d="M88.2785 146.92C88.2612 146.929 88.192 146.738 88.0795 146.375C87.9583 145.942 87.8025 145.414 87.6208 144.773C87.2313 143.38 86.712 141.346 86.1061 138.819C84.8945 133.773 83.4318 126.762 81.9258 118.999C80.4198 111.227 79.0264 104.208 77.9186 99.1531C77.3733 96.6951 76.9232 94.6699 76.5857 93.1639C76.4472 92.5148 76.326 91.9695 76.2308 91.5281C76.1529 91.156 76.127 90.9569 76.1443 90.9482C76.1616 90.9482 76.2308 91.13 76.3434 91.4935C76.4645 91.9263 76.6203 92.4542 76.8021 93.0947C77.1915 94.4881 77.7108 96.522 78.3167 99.0493C79.5284 104.095 80.9911 111.106 82.497 118.878C84.003 126.641 85.3964 133.66 86.4956 138.724C87.0409 141.182 87.4909 143.207 87.8285 144.713C87.967 145.362 88.0881 145.907 88.1833 146.349C88.2699 146.721 88.3045 146.92 88.2785 146.92Z" fill="#263238"/>
<path d="M145.877 138.248C145.877 138.265 145.678 138.317 145.297 138.386C144.847 138.455 144.293 138.551 143.618 138.654C142.069 138.888 139.983 139.208 137.447 139.598C132.237 140.394 125.053 141.571 117.117 142.887C109.18 144.202 101.979 145.319 96.7514 146.003C94.1376 146.349 92.0171 146.6 90.5544 146.756C89.8794 146.816 89.3168 146.868 88.8667 146.92C88.4773 146.946 88.2782 146.955 88.2695 146.937C88.2695 146.92 88.4686 146.868 88.8494 146.799C89.2995 146.73 89.8534 146.634 90.5285 146.53C92.0777 146.297 94.1549 145.977 96.6995 145.587C101.91 144.791 109.093 143.614 117.03 142.298C124.967 140.983 132.168 139.866 137.395 139.182C140.009 138.836 142.129 138.585 143.592 138.429C144.267 138.369 144.83 138.308 145.28 138.265C145.678 138.23 145.877 138.23 145.877 138.248Z" fill="#263238"/>
<path d="M50.9761 40.487C51.1286 38.3294 49.2055 35.3627 47.4348 33.6507C45.6525 31.9387 44.5502 29.6287 45.4766 26.1812C46.1919 23.5194 47.8804 23.7187 48.5488 22.1474C49.0413 20.9865 48.8303 19.6615 48.9358 18.4068C49.2876 14.0916 54.0249 10.7145 58.2228 11.7933C59.4072 7.68916 63.2299 4.48794 67.4747 4.05407C71.7196 3.60848 76.1168 5.9537 78.122 9.72949C80.5493 8.4748 83.5981 8.50998 85.9785 9.84675C88.3589 11.1835 90.0122 13.7398 90.2116 16.472C92.5685 14.7717 96.1919 15.4284 98.0681 17.6563C99.9442 19.8843 100.05 23.3083 98.6309 25.8529C97.212 28.3974 94.4682 30.0508 91.5835 30.4964C88.6989 30.942 85.7322 30.2619 83.1173 28.9603C80.5141 27.6587 78.2393 25.7708 76.1755 23.7187" fill="#263238"/>
<path d="M70.1479 175.243C98.1831 175.243 120.91 153.046 120.91 125.665C120.91 98.2837 98.1831 76.0869 70.1479 76.0869C42.1127 76.0869 19.3857 98.2837 19.3857 125.665C19.3857 153.046 42.1127 175.243 70.1479 175.243Z" fill="#E0E0E0"/>
<path d="M121.11 125.7L115.493 111.301L95.3594 123.953L113.3 151.627C113.3 151.615 120.606 142.14 121.11 125.7Z" fill="#EB996E"/>
<path d="M65.5286 94.509C72.7636 94.5207 78.7321 88.9039 79.0956 81.7393C79.3888 75.7707 79.6468 70.0249 79.6468 70.0249C79.6468 70.0249 90.7279 69.2275 91.7481 58.3926C92.7683 47.5577 92.909 22.5226 92.909 22.5226C80.6904 16.1084 65.9273 16.7533 54.3184 24.1994L53.2631 24.8795L51.985 80.9184C51.8911 88.3879 57.977 94.4972 65.5286 94.509Z" fill="#FFBE9D"/>
<path d="M71.8842 39.1854C72.7167 39.4551 73.174 40.358 72.8926 41.1789C72.6112 42.0114 71.7083 42.457 70.8757 42.1756C70.0432 41.9059 69.5859 41.003 69.8673 40.1821C70.1487 39.3496 71.0399 38.904 71.8842 39.1854Z" fill="#263238"/>
<path d="M74.9213 39.7483C74.7336 39.9242 73.7135 39.0448 72.2008 38.951C70.6882 38.8337 69.5507 39.5607 69.3983 39.3614C69.3162 39.2676 69.5156 38.9392 70.008 38.6109C70.5005 38.2826 71.3214 37.9894 72.2594 38.0481C73.1975 38.1184 73.9715 38.5288 74.4053 38.9275C74.8626 39.3145 75.0033 39.6662 74.9213 39.7483Z" fill="#263238"/>
<path d="M88.4174 39.1849C89.2499 39.4546 89.7073 40.3575 89.4258 41.1784C89.1444 42.0109 88.2415 42.4565 87.4089 42.1751C86.5764 41.9054 86.1191 41.0025 86.4005 40.1817C86.6702 39.3491 87.5731 38.9035 88.4174 39.1849Z" fill="#263238"/>
<path d="M91.6542 39.7713C91.4666 39.9472 90.4464 39.0677 88.9337 38.9739C87.4211 38.8566 86.2836 39.5837 86.1312 39.3843C86.0491 39.2905 86.2485 38.9622 86.741 38.6339C87.2335 38.3055 88.0543 38.0124 88.9924 38.071C89.9305 38.1414 90.7044 38.5518 91.1382 38.9505C91.5956 39.3491 91.7363 39.7009 91.6542 39.7713Z" fill="#263238"/>
<path d="M80.2686 51.4857C80.2686 51.3685 81.2184 51.2512 82.7428 51.1691C83.1414 51.1574 83.458 51.0988 83.505 50.8877C83.5988 50.6532 83.4815 50.231 83.3173 49.7503C83.0125 48.7301 82.6959 47.6982 82.3792 46.6194C81.0894 42.1635 80.2217 38.505 80.4562 38.4346C80.679 38.3643 81.9219 41.929 83.2118 46.3849C83.5167 47.4754 83.8098 48.5073 84.0913 49.5275C84.1968 49.9965 84.4313 50.5359 84.1733 51.1691C84.0326 51.4857 83.7043 51.6968 83.4463 51.7437C83.1766 51.8023 82.9538 51.7789 82.7662 51.7789C81.2184 51.7085 80.2686 51.603 80.2686 51.4857Z" fill="#263238"/>
<path d="M79.6698 69.8724C79.6698 69.8724 72.7163 69.8724 65.7393 64.7012C65.7393 64.7012 68.4714 72.7804 79.4705 72.6749L79.6698 69.8724Z" fill="#EB996E"/>
<path d="M52.9934 40.7799C53.0052 39.9004 52.325 39.1499 51.4456 39.103C49.4052 39.0092 46.0399 39.748 45.6177 45.3296C45.0197 53.3033 52.8058 51.4623 52.8293 51.2395C52.8644 51.0636 52.9465 43.8873 52.9934 40.7799Z" fill="#FFBE9D"/>
<path d="M51.1172 48.0616C51.082 48.0382 50.9648 48.1437 50.7303 48.2375C50.4957 48.3196 50.0853 48.3665 49.6866 48.1789C48.8658 47.8037 48.2443 46.42 48.3147 44.9777C48.3499 44.2507 48.5492 43.5705 48.8541 43.0194C49.1472 42.4566 49.5577 42.0696 49.9915 42.0344C50.4254 41.9641 50.7068 42.2455 50.7889 42.48C50.8827 42.7145 50.8123 42.867 50.8592 42.8787C50.8827 42.9022 51.0469 42.7614 51 42.4214C50.9765 42.2572 50.8944 42.0696 50.7185 41.8937C50.5426 41.7178 50.2612 41.624 49.9563 41.6357C49.3349 41.6357 48.7368 42.1517 48.3968 42.7614C48.0333 43.3712 47.787 44.1334 47.7401 44.9425C47.6698 46.549 48.385 48.1203 49.5225 48.5424C50.0736 48.73 50.5661 48.601 50.8241 48.4251C51.0938 48.261 51.1524 48.0851 51.1172 48.0616Z" fill="#EB996E"/>
<path d="M67.7801 35.4912C68.1788 36.0071 69.5625 35.7608 71.3683 35.6905C73.1624 35.5498 74.5695 35.6201 74.8978 35.0573C75.2731 34.4827 73.5259 33.1459 71.2158 33.3453C68.8823 33.4391 67.3345 34.9635 67.7801 35.4912Z" fill="#263238"/>
<path d="M85.3342 34.9639C85.557 35.6557 86.8703 35.8668 88.3361 35.8551C89.8018 35.8199 91.1151 35.5854 91.3145 34.8818C91.5256 34.2017 90.1888 33.2167 88.3009 33.2519C86.4247 33.2753 85.1114 34.2955 85.3342 34.9639Z" fill="#263238"/>
<path d="M94.4333 25.9466C94.4333 25.9466 87.8667 29.1244 79.3066 24.8561C73.6898 22.0535 67.1584 20.6816 65.7161 21.819C64.2738 22.9447 63.9689 28.7257 58.4107 30.4142C58.4107 30.4142 58.7977 41.4485 54.3887 41.0498C49.9914 40.6511 52.7353 23.5662 52.7353 23.5662L63.4999 18.3129L75.2377 16.0967L86.3071 17.6562L94.8671 20.0015L94.4333 25.9466Z" fill="#263238"/>
<path d="M20.7935 89.795C32.2967 77.9634 52.5359 79.265 52.5359 79.265L69.316 91.2725L78.8258 80.1913C78.8258 80.1913 88.8282 81.2936 98.1973 86.1834L98.8422 86.3827L98.8305 86.5117C106.194 90.5103 116.607 100.091 126.539 109.389L114.661 120.412L101.516 132.079C101.516 132.079 101.563 132.161 101.539 132.314C101.399 133.017 103.368 149.082 105.385 161.277C93.4131 172.71 78.1457 177.6 61.2015 174.621C55.8193 173.683 53.2161 172.37 48.2442 171.057C40.8802 169.122 35.5449 162.743 34.8882 155.156C33.997 144.931 33.3052 132.267 33.3052 132.267" fill="#455A64"/>
<path d="M89.3438 82.255C89.379 82.2433 89.637 82.9117 90.0709 84.1429C90.5047 85.3742 91.091 87.1565 91.7829 89.3728C93.1666 93.8052 94.9372 99.9849 96.6023 106.88C98.2674 113.775 99.5104 120.083 100.308 124.657C100.706 126.943 101 128.808 101.175 130.086C101.351 131.376 101.433 132.091 101.398 132.091C101.351 132.103 101.199 131.399 100.941 130.121C100.671 128.749 100.319 126.931 99.8856 124.727C98.9827 120.177 97.6694 113.892 96.016 107.009C94.3509 100.126 92.6623 93.9459 91.3842 89.4783C90.7627 87.3207 90.2468 85.5383 89.8598 84.1898C89.4728 82.9586 89.2969 82.2668 89.3438 82.255Z" fill="#263238"/>
<path d="M100.144 124.527C100.038 124.398 105.057 120.13 111.342 115.006C117.639 109.881 122.822 105.824 122.927 105.953C123.033 106.082 118.014 110.35 111.729 115.475C105.444 120.611 100.249 124.656 100.144 124.527Z" fill="#263238"/>
<path opacity="0.2" d="M35.9674 106.023L25.6719 139.877L29.5063 141.87L33.2821 132.29C33.2821 132.302 37.1634 112.18 35.9674 106.023Z" fill="black"/>
<g opacity="0.2">
<path opacity="0.2" d="M88.2299 82.2788C93.7763 85.1986 79.8692 92.246 73.5957 92.0584L78.1572 80.0274C78.1454 80.0157 86.3654 81.2938 88.2299 82.2788Z" fill="black"/>
</g>
<path d="M50.8711 80.0154V71.0449C50.8711 71.0449 68.3781 75.5477 69.0231 86.0308C69.0231 86.0308 71.251 74.4455 80.2684 73.8944L81.5465 90.1819L71.0517 99.3165H60.4044L51.9733 92.0463L50.8711 80.7307" fill="#455A64"/>
<path d="M72.9633 136.289C72.9164 136.289 72.9164 135.597 72.9281 134.366C72.9515 133.123 72.975 131.329 72.9867 129.124C72.9984 124.692 72.8577 118.582 72.3066 111.852C71.7438 105.121 70.876 99.0586 70.1256 94.6965C69.7503 92.5975 69.4454 90.8503 69.2109 89.537C68.9881 88.3175 68.8826 87.6374 68.9178 87.6256C68.953 87.6139 69.1406 88.2823 69.4337 89.4784C69.7386 90.6861 70.1138 92.4333 70.5477 94.6144C71.4037 98.9648 72.3535 105.039 72.9164 111.793C73.4792 118.547 73.5496 124.692 73.4206 129.124C73.362 131.34 73.2681 133.135 73.1743 134.378C73.0805 135.609 73.0102 136.289 72.9633 136.289Z" fill="#263238"/>
<path d="M68.2137 83.0178C68.202 83.0647 67.815 82.8654 67.1701 83.1116C66.5017 83.3227 65.9037 84.1552 65.4112 85.3513C64.3324 87.6848 63.0073 91.0384 62.081 95.037L61.9872 95.4357L61.6354 95.2246C60.5918 94.5914 59.513 93.9113 58.4342 93.1726C56.3469 91.7537 54.4238 90.2997 52.7587 88.8574C51.9145 88.1304 51.2226 87.2626 50.8239 86.3245C50.4252 85.3865 50.2728 84.4601 50.2376 83.6158C50.1673 81.9273 50.4487 80.6022 50.6246 79.6993C50.8239 78.7964 50.9646 78.3039 51.0115 78.3156C51.0584 78.3274 50.9881 78.8316 50.8591 79.7462C50.7536 80.6608 50.5425 81.9859 50.6715 83.6041C50.7418 84.4015 50.906 85.2809 51.293 86.1252C51.6799 86.9695 52.3131 87.7551 53.134 88.4352C54.7873 89.8189 56.7104 91.2612 58.7859 92.6684C59.853 93.3954 60.9201 94.0755 61.952 94.7087L61.5064 94.8963C62.4679 90.8508 63.8868 87.4854 65.0711 85.1754C65.3643 84.6008 65.6457 84.0731 65.9975 83.6627C66.3375 83.2523 66.7597 83.0061 67.1114 82.9005C67.8502 82.7129 68.2489 83.0061 68.2137 83.0178Z" fill="#263238"/>
<path d="M80.2683 73.8945C80.3152 73.8945 80.3621 74.387 80.4325 75.2899C80.5028 76.3218 80.5966 77.6 80.7139 79.1009C80.8429 80.7074 81.0422 82.6187 81.3705 84.7177C81.4995 85.7613 81.863 86.887 81.5816 88.1535C81.2181 89.4081 80.28 90.3462 79.2833 91.0967C77.8762 92.1403 76.4104 92.9142 75.4254 94.0282L74.9564 94.5559L74.9095 93.8523C74.6632 90.1469 73.432 87.0981 72.318 85.1164C71.204 83.123 70.2894 82.0911 70.3598 82.0324C70.3832 82.009 70.6295 82.2435 71.0516 82.7243C71.462 83.205 72.0366 83.9321 72.6346 84.9288C73.8541 86.8988 75.2026 89.9944 75.4841 93.8054L74.9681 93.6295C76.0352 92.41 77.5596 91.6009 78.8963 90.6042C79.8462 89.8889 80.6904 89.0094 80.9836 88.001C81.2298 86.9691 80.925 85.8551 80.796 84.7881C80.4911 82.6656 80.3387 80.7308 80.2683 79.1126C80.1862 77.4944 80.1745 76.1811 80.1862 75.2782C80.2097 74.3988 80.2331 73.8945 80.2683 73.8945Z" fill="#263238"/>
<path d="M33.0703 103.398C33.0703 103.398 60.1927 142.434 61.8226 143.208C65.0473 144.72 102.149 112.65 105.69 109.589C106.182 108.932 107.179 107.561 109.161 104.828C109.161 104.828 112.092 91.4372 115.211 92.4573C118.331 93.4892 113.499 99.2702 115.54 104.359C117.58 109.448 126.891 97.3119 127.266 96.2214L129.67 93.0788C129.67 93.0788 132.191 100.22 132.015 103.21C131.464 112.767 122.423 124.129 122.423 124.129C122.423 124.129 81.8156 174.434 54.0013 175.994C45.9924 176.439 31.7569 153.714 22.2354 136.665C16.4896 126.369 19.3507 113.4 28.8841 106.458L33.0703 103.398Z" fill="#FFBE9D"/>
<path d="M127.442 104.911C127.348 104.852 128.215 103.316 129.177 101.369C130.139 99.4229 130.83 97.8047 130.936 97.8399C131.03 97.8751 130.479 99.5637 129.505 101.534C128.544 103.492 127.524 104.958 127.442 104.911Z" fill="#EB996E"/>
<path d="M28.4737 84.3545C28.4737 84.3545 -0.64217 94.7086 21.0042 143.653L54.6111 123.367L49.8269 111.923L28.4737 84.3545Z" fill="#455A64"/>
<path d="M26.2459 85.1991C26.2459 85.1991 27.5123 84.988 29.752 85.4923C30.8543 85.7737 32.1793 86.2662 33.5747 87.0987C34.9701 87.9313 36.4124 89.1039 37.8196 90.5814C40.6455 93.5246 43.2839 97.6405 45.7229 102.39C48.1854 107.15 50.4837 112.568 52.8407 118.267C53.5442 119.979 54.2478 121.655 54.9045 123.25L55.01 123.508L54.7755 123.637C45.0545 128.937 36.5883 133.898 30.5963 137.615C27.6061 139.467 25.214 140.992 23.5841 142.047C22.7985 142.551 22.177 142.95 21.6962 143.255C21.2623 143.525 21.0278 143.665 21.0161 143.642C21.0044 143.63 21.2154 143.454 21.6258 143.161C22.0363 142.856 22.646 142.411 23.4551 141.86C25.0499 140.746 27.4068 139.163 30.3735 137.263C36.3069 133.452 44.7497 128.421 54.4706 123.098L54.3416 123.485C53.6849 121.89 52.9814 120.213 52.2778 118.501C49.9209 112.802 47.646 107.397 45.2187 102.648C42.8149 97.8985 40.2351 93.8061 37.503 90.8745C36.1427 89.4088 34.7473 88.2362 33.3988 87.3919C32.0503 86.5476 30.7722 86.0317 29.7051 85.7151C27.5241 85.1522 26.2459 85.2812 26.2459 85.1991Z" fill="#263238"/>
<path d="M88.8744 12.6143C88.8978 12.6143 88.9447 12.7901 89.0151 13.1302C89.0737 13.4703 89.1441 13.9862 89.0972 14.6546C89.0268 15.9562 88.5578 17.9731 86.881 19.732C85.251 21.4909 82.1671 22.6049 79.0479 21.7137C77.5235 21.2681 75.9757 20.3417 75.0376 18.8056C74.5803 18.0434 74.3106 17.1053 74.4396 16.1555C74.5686 15.2292 75.0376 14.2911 75.8819 13.74C76.7262 13.1654 77.8401 13.1771 78.6962 13.5641C79.5639 13.9276 80.2792 14.6429 80.6192 15.4989C81.3111 17.2226 80.7951 19.0753 79.8453 20.3769C77.8284 23.0505 74.1816 23.2615 72.153 22.0538C71.0859 21.5613 70.1478 21.1039 69.2567 20.9398C68.3772 20.7639 67.5916 20.9163 67.017 21.1743C65.8678 21.7254 65.3988 22.3352 65.3519 22.2765C65.3401 22.2648 65.4574 22.1241 65.6919 21.8779C65.8092 21.7489 65.9616 21.5964 66.1727 21.444C66.372 21.2916 66.6066 21.1039 66.9232 20.9632C67.5095 20.6466 68.3655 20.4473 69.327 20.6114C70.2886 20.7522 71.2735 21.2095 72.3406 21.6668C72.88 21.8779 73.4311 22.1241 74.0292 22.2296C74.6155 22.3352 75.2721 22.3235 75.9171 22.1945C77.2069 21.9599 78.532 21.2564 79.3997 20.0603C80.244 18.8994 80.6661 17.1992 80.0681 15.7451C79.5404 14.3263 77.5705 13.3765 76.2102 14.2676C75.5536 14.7015 75.1432 15.4754 75.0376 16.2611C74.9204 17.0467 75.1432 17.8441 75.5536 18.5242C76.3744 19.8844 77.7932 20.7756 79.2121 21.1977C82.1084 22.0655 85.0165 21.0688 86.5878 19.4506C88.2177 17.8324 88.7454 15.9093 88.8744 14.6546C89.0034 13.3413 88.804 12.626 88.8744 12.6143Z" fill="#455A64"/>
<path d="M82.5306 56.8332C82.5423 56.9035 82.1671 57.056 81.5222 57.0911C80.8772 57.1263 79.9743 56.9739 79.0832 56.5283C78.2037 56.0827 77.547 55.4378 77.1835 54.8984C76.82 54.359 76.7262 53.972 76.7966 53.9368C76.949 53.843 77.7347 55.1798 79.3646 55.9771C80.9711 56.8214 82.5072 56.6573 82.5306 56.8332Z" fill="#263238"/>
<path d="M90.7972 16.5659C90.8559 16.5425 91.2897 17.3164 91.3601 18.7235C91.4422 20.0955 91.0435 22.1476 89.6246 23.8009C88.1823 25.4543 86.2241 26.1344 84.8404 26.24C83.445 26.3572 82.6124 26.0406 82.6241 25.982C82.6359 25.8765 83.4801 26.0289 84.7817 25.8061C86.0599 25.595 87.8423 24.8915 89.1556 23.3905C90.4572 21.8779 90.9028 20.0134 90.9262 18.7235C90.9731 17.3985 90.7034 16.6011 90.7972 16.5659Z" fill="#455A64"/>
<path d="M51.1404 114.678C51.2108 114.83 43.4833 118.805 33.8679 123.554C24.2525 128.304 16.4078 132.032 16.3257 131.892C16.2553 131.739 23.9828 127.764 33.5982 123.015C43.2136 118.254 51.07 114.525 51.1404 114.678Z" fill="#E0E0E0"/>
<path d="M44.0929 101.381C44.175 101.533 37.2918 105.379 28.72 109.976C20.1482 114.572 13.136 118.184 13.0539 118.032C12.9719 117.879 19.8551 114.033 28.4268 109.436C37.0103 104.84 44.0225 101.228 44.0929 101.381Z" fill="#E0E0E0"/>
<path d="M37.292 90.6277C37.3272 90.7098 36.0021 91.4603 33.8445 92.6681C31.5345 93.9579 28.6382 95.5761 25.4252 97.3585C22.2357 99.176 19.3394 100.829 17.0528 102.131C14.9069 103.351 13.5701 104.101 13.5232 104.019C13.4763 103.949 14.731 103.081 16.83 101.756C18.9172 100.431 21.8488 98.6718 25.1321 96.8191C28.4154 94.9664 31.4407 93.3716 33.6452 92.2694C35.8614 91.1788 37.2568 90.5456 37.292 90.6277Z" fill="#E0E0E0"/>
<path d="M63.0426 88.083C63.0308 88.1534 62.1279 88.0361 60.7794 87.4733C59.4309 86.9221 57.6837 85.8668 56.0421 84.3893C54.3887 82.9118 53.1106 81.3757 52.2194 80.25C51.3282 79.1126 50.8357 78.3856 50.8943 78.3269C50.9647 78.2683 51.5745 78.9132 52.5477 79.9686C53.521 81.0239 54.8343 82.4897 56.4525 83.932C58.059 85.3743 59.7124 86.4531 60.9671 87.0863C62.2217 87.7195 63.066 87.9892 63.0426 88.083Z" fill="#E0E0E0"/>
<path d="M80.1504 81.7275C80.3028 81.7744 79.5875 83.6741 77.7113 85.2454C75.8469 86.8284 73.8535 87.2036 73.83 87.0512C73.7714 86.8753 75.5772 86.2655 77.3126 84.788C79.0833 83.3105 79.9862 81.6454 80.1504 81.7275Z" fill="#E0E0E0"/>
<path d="M110.638 99.375C110.638 99.3985 110.416 99.4336 109.982 99.4923C109.477 99.5509 108.856 99.633 108.094 99.7268C106.452 99.9027 104.072 100.137 101.14 100.36C95.2537 100.829 87.1158 101.286 78.1219 101.615C69.128 101.931 60.9784 102.049 55.0685 102.002C52.1135 101.978 49.7331 101.92 48.0797 101.861C47.3058 101.826 46.6843 101.791 46.1801 101.767C45.7462 101.744 45.5234 101.708 45.5234 101.697C45.5234 101.673 45.758 101.662 46.1918 101.65C46.696 101.65 47.3175 101.638 48.0914 101.638C49.8269 101.626 52.1838 101.603 55.0685 101.58C60.9667 101.521 69.1046 101.333 78.0985 101.017C87.0807 100.688 95.2186 100.301 101.105 99.9379C103.978 99.7502 106.347 99.6095 108.07 99.4923C108.833 99.4454 109.466 99.4102 109.97 99.375C110.404 99.3516 110.638 99.3516 110.638 99.375Z" fill="#E0E0E0"/>
<path d="M101.375 113.283C101.375 113.33 100.695 113.435 99.4516 113.588C98.2086 113.74 96.4028 113.939 94.1631 114.139C89.6955 114.549 83.5159 114.971 76.6796 115.253C69.8432 115.522 63.6402 115.604 59.1608 115.558C56.9211 115.534 55.1036 115.487 53.8489 115.44C52.5942 115.382 51.9023 115.335 51.9023 115.288C51.9023 115.241 52.5942 115.218 53.8489 115.194C55.2091 115.171 56.9915 115.147 59.1608 115.124C63.6402 115.065 69.8315 114.924 76.6561 114.643C83.4807 114.362 89.6603 114.01 94.1397 113.705C96.2973 113.564 98.0796 113.435 99.4399 113.353C100.683 113.259 101.375 113.236 101.375 113.283Z" fill="#E0E0E0"/>
<path d="M80.3614 130.426C80.3731 130.508 78.8839 130.731 76.4801 130.977C74.0645 131.223 70.7343 131.493 67.0406 131.681C63.3469 131.868 60.0049 131.927 57.5776 131.927C55.1503 131.915 53.6611 131.845 53.6611 131.763C53.6611 131.681 55.1621 131.599 57.5776 131.493C60.1691 131.376 63.4172 131.235 67.0171 131.071C70.617 130.872 73.8652 130.696 76.4566 130.555C78.8605 130.414 80.3497 130.344 80.3614 130.426Z" fill="#E0E0E0"/>
<path d="M53.4857 89.7365C53.4857 89.9124 49.8858 89.9476 45.4534 90.1352C41.0209 90.3111 37.4327 90.5691 37.421 90.3932C37.3976 90.229 40.974 89.7013 45.4299 89.5254C49.8858 89.3378 53.4975 89.5724 53.4857 89.7365Z" fill="#E0E0E0"/>
<path d="M102.957 89.1031C102.957 89.2672 98.2904 89.3962 92.5329 89.3728C86.7754 89.3493 82.1084 89.1969 82.1201 89.0327C82.1201 88.8686 86.7871 88.7396 92.5446 88.763C98.2904 88.7747 102.957 88.9272 102.957 89.1031Z" fill="#E0E0E0"/>
<path d="M104.763 160.457C104.787 160.492 104.4 160.715 103.696 161.066C102.993 161.43 101.949 161.911 100.648 162.45C98.0327 163.552 94.3273 164.842 90.1176 165.815C85.8962 166.789 82.0032 167.246 79.1655 167.398C77.7466 167.481 76.6092 167.504 75.8118 167.481C75.0262 167.469 74.5806 167.434 74.5806 167.398C74.5806 167.305 76.3278 167.234 79.1303 166.965C81.9328 166.695 85.7907 166.179 89.9769 165.217C94.1631 164.244 97.8568 163.036 100.483 162.04C103.122 161.066 104.717 160.363 104.763 160.457Z" fill="#E0E0E0"/>
</svg>
