<svg width="180" height="180" viewBox="0 0 180 180" fill="none" xmlns="http://www.w3.org/2000/svg">
<mask id="mask0" mask-type="alpha" maskUnits="userSpaceOnUse" x="0" y="0" width="180" height="180">
<rect width="180" height="180" fill="#C4C4C4"/>
</mask>
<g mask="url(#mask0)">
<path d="M155.97 20.0286C146.827 11.1144 135.446 9.16275 122.718 8.10947C109.993 7.06006 92.9434 14.2781 85.2413 26.7665C80.7842 33.9962 78.0503 43.8088 72.2263 49.9929C63.9162 58.8181 54.6535 61.0292 41.4526 61.9702C23.7443 63.2326 14.7217 71.7324 10.2104 88.6004C5.36994 106.715 12.4525 127.494 32.2558 142.24C46.4441 152.804 64.0633 157.668 81.7058 156.355C110.28 154.225 162.743 141.083 172.753 73.0064C176.583 46.9725 169.152 32.8771 155.97 20.0286Z" fill="#B2CAF2"/>
<g opacity="0.8">
<g opacity="0.8">
<path opacity="0.8" d="M155.97 20.0286C146.827 11.1144 135.446 9.16275 122.718 8.10947C109.993 7.06006 92.9434 14.2781 85.2413 26.7665C80.7842 33.9962 78.0503 43.8088 72.2263 49.9929C63.9162 58.8181 54.6535 61.0292 41.4526 61.9702C23.7443 63.2326 14.7217 71.7324 10.2104 88.6004C5.36994 106.715 12.4525 127.494 32.2558 142.24C46.4441 152.804 64.0633 157.668 81.7058 156.355C110.28 154.225 162.743 141.083 172.753 73.0064C176.583 46.9725 169.152 32.8771 155.97 20.0286Z" fill="white"/>
</g>
</g>
<path d="M62.2624 72.8999C68.0599 72.8999 72.7597 68.0395 72.7597 62.0439C72.7597 56.0484 68.0599 51.188 62.2624 51.188C56.4649 51.188 51.7651 56.0484 51.7651 62.0439C51.7651 68.0395 56.4649 72.8999 62.2624 72.8999Z" fill="#B2CAF2"/>
<path opacity="0.6" d="M62.2624 72.8999C68.0599 72.8999 72.7597 68.0395 72.7597 62.0439C72.7597 56.0484 68.0599 51.188 62.2624 51.188C56.4649 51.188 51.7651 56.0484 51.7651 62.0439C51.7651 68.0395 56.4649 72.8999 62.2624 72.8999Z" fill="white"/>
<path d="M149.93 103.219C152.829 103.219 155.178 100.787 155.178 97.7877C155.178 94.7884 152.829 92.3569 149.93 92.3569C147.031 92.3569 144.681 94.7884 144.681 97.7877C144.681 100.787 147.031 103.219 149.93 103.219Z" fill="#B2CAF2"/>
<path opacity="0.6" d="M149.93 103.219C152.829 103.219 155.178 100.787 155.178 97.7877C155.178 94.7884 152.829 92.3569 149.93 92.3569C147.031 92.3569 144.681 94.7884 144.681 97.7877C144.681 100.787 147.031 103.219 149.93 103.219Z" fill="white"/>
<path d="M149.724 73.9532C149.724 75.1942 148.751 76.2018 147.55 76.2018C146.348 76.2018 145.375 75.1942 145.375 73.9532C145.375 72.7122 146.348 71.7046 147.55 71.7046C148.751 71.7046 149.724 72.7122 149.724 73.9532Z" fill="#B2CAF2"/>
<path opacity="0.6" d="M149.724 73.9532C149.724 75.1942 148.751 76.2018 147.55 76.2018C146.348 76.2018 145.375 75.1942 145.375 73.9532C145.375 72.7122 146.348 71.7046 147.55 71.7046C148.751 71.7046 149.724 72.7122 149.724 73.9532Z" fill="white"/>
<path d="M64.4376 33.711C64.4376 34.952 63.4641 35.9596 62.263 35.9596C61.0618 35.9596 60.0884 34.952 60.0884 33.711C60.0884 32.47 61.0618 31.4624 62.263 31.4624C63.4641 31.4567 64.4376 32.4643 64.4376 33.711Z" fill="#B2CAF2"/>
<path opacity="0.6" d="M64.4376 33.711C64.4376 34.952 63.4641 35.9596 62.263 35.9596C61.0618 35.9596 60.0884 34.952 60.0884 33.711C60.0884 32.47 61.0618 31.4624 62.263 31.4624C63.4641 31.4567 64.4376 32.4643 64.4376 33.711Z" fill="white"/>
<path d="M146.85 130.515C149.874 130.515 152.326 128.063 152.326 125.039C152.326 122.014 149.874 119.562 146.85 119.562C143.825 119.562 141.374 122.014 141.374 125.039C141.374 128.063 143.825 130.515 146.85 130.515Z" fill="#B2CAF2"/>
<g opacity="0.2">
<path opacity="0.2" d="M150.436 127.082C150.186 126.945 150.243 126.393 150.169 125.648C150.163 125.556 150.146 125.454 150.135 125.357C150.123 125.255 150.1 125.152 150.089 125.05C150.044 124.839 150.004 124.623 149.93 124.401C149.793 123.957 149.582 123.507 149.292 123.103C148.996 122.699 148.632 122.363 148.25 122.095C148.063 121.959 147.869 121.851 147.681 121.742C147.584 121.697 147.493 121.646 147.402 121.6C147.311 121.56 147.226 121.515 147.135 121.48C146.446 121.179 145.899 121.065 145.848 120.786C145.837 120.718 145.859 120.649 145.916 120.575C145.973 120.507 146.064 120.422 146.195 120.359C146.451 120.217 146.856 120.114 147.368 120.109C147.499 120.103 147.63 120.12 147.772 120.126C147.915 120.137 148.057 120.165 148.205 120.194C148.501 120.262 148.814 120.353 149.127 120.501C149.44 120.649 149.759 120.832 150.055 121.076C150.351 121.315 150.636 121.606 150.88 121.936C151.119 122.272 151.307 122.63 151.444 122.989C151.586 123.348 151.66 123.706 151.706 124.048C151.751 124.389 151.74 124.72 151.717 125.021C151.7 125.175 151.677 125.317 151.649 125.454C151.615 125.591 151.586 125.722 151.541 125.841C151.376 126.325 151.154 126.678 150.937 126.877C150.835 126.98 150.732 127.042 150.647 127.076C150.573 127.116 150.499 127.116 150.436 127.082Z" fill="white"/>
</g>
<path d="M143.763 117.798C143.825 117.9 143.626 118.133 143.319 118.327C143.216 118.39 143.114 118.441 143.017 118.481C142.835 118.549 142.687 118.56 142.647 118.492C142.584 118.39 142.783 118.156 143.091 117.963C143.398 117.769 143.7 117.695 143.763 117.798Z" fill="#B2CAF2"/>
<path d="M143.741 120.598C143.741 120.598 143.422 119.095 143.041 118.452L143.598 118.116C143.598 118.116 144.578 119.613 145.096 119.892C145.09 119.892 144.065 120.348 143.741 120.598Z" fill="#B2CAF2"/>
<path opacity="0.3" d="M143.045 118.469C143.045 118.469 143.393 118.321 143.592 118.122C143.66 118.225 143.734 118.338 143.814 118.452C143.814 118.452 143.33 118.634 143.108 118.6L143.045 118.469Z" fill="black"/>
<path d="M141.095 120.991C141.197 121.048 141.146 121.35 140.981 121.674C140.924 121.782 140.861 121.879 140.799 121.959C140.679 122.112 140.554 122.192 140.485 122.158C140.383 122.101 140.434 121.799 140.599 121.475C140.77 121.15 140.992 120.934 141.095 120.991Z" fill="#B2CAF2"/>
<path d="M141.971 122.824C141.971 122.824 141.459 122.283 140.804 121.925L141.112 121.355C141.112 121.355 141.966 121.839 142.552 121.817C142.552 121.811 142.125 122.443 141.971 122.824Z" fill="#B2CAF2"/>
<path opacity="0.3" d="M140.815 121.93C140.815 121.93 141.06 121.646 141.111 121.35C141.219 121.407 141.333 121.469 141.464 121.526C141.464 121.526 141.145 121.919 140.94 121.999L140.815 121.93Z" fill="black"/>
<path d="M139.142 124.145C139.261 124.139 139.364 124.435 139.375 124.794C139.381 124.919 139.369 125.033 139.358 125.129C139.324 125.323 139.261 125.454 139.187 125.454C139.068 125.46 138.965 125.164 138.954 124.805C138.937 124.446 139.028 124.15 139.142 124.145Z" fill="#B2CAF2"/>
<path d="M141.55 125.573C141.55 125.573 140.092 125.09 139.341 125.101L139.33 124.452C139.33 124.452 141.117 124.361 141.618 124.048C141.618 124.054 141.498 125.169 141.55 125.573Z" fill="#B2CAF2"/>
<path opacity="0.3" d="M139.364 125.101C139.364 125.101 139.409 124.725 139.335 124.452C139.455 124.446 139.592 124.435 139.728 124.423C139.728 124.423 139.643 124.93 139.501 125.106L139.364 125.101Z" fill="black"/>
<path d="M140.479 128.01C140.581 127.947 140.815 128.147 141.008 128.454C141.071 128.557 141.128 128.659 141.162 128.756C141.23 128.938 141.242 129.086 141.179 129.126C141.077 129.188 140.843 128.989 140.65 128.682C140.456 128.374 140.376 128.073 140.479 128.01Z" fill="#B2CAF2"/>
<path d="M142.5 128.175C142.5 128.175 141.777 128.346 141.134 128.733L140.798 128.175C140.798 128.175 141.646 127.68 141.919 127.162C141.919 127.168 142.249 127.857 142.5 128.175Z" fill="#B2CAF2"/>
<path opacity="0.3" d="M141.151 128.728C141.151 128.728 141.026 128.375 140.798 128.181C140.9 128.119 141.014 128.045 141.128 127.965C141.128 127.965 141.304 128.437 141.276 128.659L141.151 128.728Z" fill="black"/>
<path d="M143.473 132.063C143.502 131.949 143.809 131.932 144.162 132.017C144.282 132.046 144.39 132.085 144.481 132.131C144.657 132.216 144.766 132.313 144.749 132.387C144.72 132.501 144.413 132.518 144.06 132.433C143.701 132.342 143.445 132.177 143.473 132.063Z" fill="#B2CAF2"/>
<path d="M145.511 130.145C145.511 130.145 144.646 131.409 144.447 132.132L143.82 131.961C143.82 131.961 144.224 130.213 144.071 129.655C144.071 129.661 145.107 130.088 145.511 130.145Z" fill="#B2CAF2"/>
<path opacity="0.3" d="M144.452 132.12C144.452 132.12 144.105 131.972 143.82 131.966C143.849 131.847 143.877 131.716 143.906 131.579C143.906 131.579 144.373 131.807 144.498 131.989L144.452 132.12Z" fill="black"/>
<path d="M147.738 131.99C147.715 131.876 147.988 131.728 148.347 131.665C148.466 131.642 148.58 131.637 148.683 131.637C148.876 131.642 149.019 131.682 149.03 131.762C149.053 131.876 148.779 132.024 148.421 132.086C148.062 132.149 147.755 132.104 147.738 131.99Z" fill="#B2CAF2"/>
<path d="M148.655 130.174C148.655 130.174 148.541 130.908 148.655 131.648L148.011 131.751C148.011 131.751 147.875 130.777 147.499 130.333C147.499 130.333 148.262 130.288 148.655 130.174Z" fill="#B2CAF2"/>
<path opacity="0.3" d="M148.653 131.637C148.653 131.637 148.278 131.614 148.016 131.756C147.999 131.637 147.97 131.506 147.942 131.369C147.942 131.369 148.443 131.381 148.636 131.494L148.653 131.637Z" fill="black"/>
<path d="M152.361 130.526C152.27 130.452 152.384 130.161 152.612 129.882C152.691 129.786 152.771 129.706 152.845 129.643C152.993 129.518 153.13 129.461 153.192 129.512C153.283 129.586 153.169 129.877 152.942 130.156C152.714 130.435 152.452 130.6 152.361 130.526Z" fill="#B2CAF2"/>
<path d="M151.479 127.868C151.479 127.868 152.264 129.183 152.839 129.667L152.424 130.168C152.424 130.168 151.012 129.063 150.431 128.972C150.431 128.972 151.257 128.209 151.479 127.868Z" fill="#B2CAF2"/>
<path opacity="0.3" d="M152.828 129.661C152.828 129.661 152.549 129.917 152.424 130.167C152.327 130.093 152.219 130.014 152.105 129.928C152.105 129.928 152.503 129.604 152.725 129.564L152.828 129.661Z" fill="black"/>
<path opacity="0.3" d="M144.498 125.83C144.498 126.257 144.265 126.599 143.98 126.599C143.696 126.599 143.462 126.257 143.462 125.83C143.462 125.403 143.696 125.062 143.98 125.062C144.271 125.062 144.498 125.403 144.498 125.83Z" fill="black"/>
<path d="M144.305 125.392C144.305 125.819 144.072 126.161 143.787 126.161C143.502 126.161 143.269 125.819 143.269 125.392C143.269 124.965 143.502 124.624 143.787 124.624C144.072 124.624 144.305 124.971 144.305 125.392Z" fill="#B2CAF2"/>
<path opacity="0.2" d="M144.305 125.392C144.305 125.819 144.072 126.161 143.787 126.161C143.502 126.161 143.269 125.819 143.269 125.392C143.269 124.965 143.502 124.624 143.787 124.624C144.072 124.624 144.305 124.971 144.305 125.392Z" fill="white"/>
<path opacity="0.3" d="M144.294 121.413C144.67 121.213 145.08 121.259 145.217 121.509C145.348 121.76 145.154 122.124 144.778 122.323C144.403 122.523 143.993 122.477 143.856 122.227C143.719 121.976 143.919 121.612 144.294 121.413Z" fill="black"/>
<path d="M144.066 121.014C144.442 120.815 144.852 120.86 144.989 121.111C145.12 121.361 144.926 121.726 144.55 121.925C144.175 122.124 143.765 122.079 143.628 121.828C143.491 121.578 143.691 121.208 144.066 121.014Z" fill="#B2CAF2"/>
<path opacity="0.2" d="M144.066 121.014C144.442 120.815 144.852 120.86 144.989 121.111C145.12 121.361 144.926 121.726 144.55 121.925C144.175 122.124 143.765 122.079 143.628 121.828C143.491 121.578 143.691 121.208 144.066 121.014Z" fill="white"/>
<path opacity="0.3" d="M146.017 128.136C146.017 128.414 145.789 128.642 145.51 128.642C145.231 128.642 145.003 128.414 145.003 128.136C145.003 127.857 145.231 127.629 145.51 127.629C145.789 127.629 146.017 127.857 146.017 128.136Z" fill="black"/>
<path d="M146.017 127.862C146.017 128.141 145.789 128.369 145.51 128.369C145.231 128.369 145.003 128.141 145.003 127.862C145.003 127.583 145.231 127.355 145.51 127.355C145.789 127.361 146.017 127.583 146.017 127.862Z" fill="#B2CAF2"/>
<path opacity="0.3" d="M146.017 127.862C146.017 128.141 145.789 128.369 145.51 128.369C145.231 128.369 145.003 128.141 145.003 127.862C145.003 127.583 145.231 127.355 145.51 127.355C145.789 127.361 146.017 127.583 146.017 127.862Z" fill="white"/>
<path opacity="0.3" d="M149.377 123.644C149.144 123.895 148.751 123.912 148.5 123.678C148.25 123.445 148.233 123.052 148.466 122.802C148.7 122.551 149.092 122.534 149.343 122.767C149.593 123.001 149.61 123.388 149.377 123.644Z" fill="black"/>
<path d="M149.599 123.399C149.366 123.649 148.973 123.667 148.722 123.433C148.472 123.2 148.455 122.807 148.688 122.556C148.922 122.306 149.315 122.289 149.565 122.522C149.815 122.756 149.833 123.143 149.599 123.399Z" fill="#B2CAF2"/>
<path opacity="0.3" d="M149.599 123.399C149.366 123.649 148.973 123.667 148.722 123.433C148.472 123.2 148.455 122.807 148.688 122.556C148.922 122.306 149.315 122.289 149.565 122.522C149.815 122.756 149.833 123.143 149.599 123.399Z" fill="white"/>
<path opacity="0.3" d="M148.221 129.007C148.425 129.007 148.591 128.841 148.591 128.637C148.591 128.432 148.425 128.267 148.221 128.267C148.016 128.267 147.851 128.432 147.851 128.637C147.851 128.841 148.016 129.007 148.221 129.007Z" fill="black"/>
<path d="M148.221 128.807C148.425 128.807 148.591 128.642 148.591 128.437C148.591 128.233 148.425 128.067 148.221 128.067C148.016 128.067 147.851 128.233 147.851 128.437C147.851 128.642 148.016 128.807 148.221 128.807Z" fill="#B2CAF2"/>
<path opacity="0.3" d="M148.221 128.807C148.425 128.807 148.591 128.642 148.591 128.437C148.591 128.233 148.425 128.067 148.221 128.067C148.016 128.067 147.851 128.233 147.851 128.437C147.851 128.642 148.016 128.807 148.221 128.807Z" fill="white"/>
<path d="M154.676 125.83C154.562 125.835 154.46 125.545 154.448 125.186C154.443 125.067 154.454 124.953 154.465 124.856C154.494 124.663 154.562 124.538 154.636 124.532C154.75 124.526 154.852 124.816 154.864 125.175C154.875 125.534 154.79 125.824 154.676 125.83Z" fill="#B2CAF2"/>
<path d="M152.297 124.413C152.297 124.413 153.737 124.891 154.477 124.879L154.489 125.523C154.489 125.523 152.718 125.614 152.229 125.921C152.229 125.921 152.348 124.817 152.297 124.413Z" fill="#B2CAF2"/>
<path opacity="0.3" d="M154.46 124.879C154.46 124.879 154.414 125.249 154.488 125.522C154.368 125.528 154.232 125.539 154.095 125.551C154.095 125.551 154.181 125.05 154.317 124.879H154.46Z" fill="black"/>
<path d="M153.276 121.964C153.179 122.027 152.946 121.828 152.752 121.526C152.689 121.423 152.638 121.321 152.598 121.23C152.53 121.048 152.519 120.905 152.581 120.866C152.678 120.803 152.911 121.002 153.105 121.304C153.298 121.606 153.372 121.902 153.276 121.964Z" fill="#B2CAF2"/>
<path d="M151.278 121.799C151.278 121.799 151.99 121.634 152.627 121.247L152.963 121.794C152.963 121.794 152.127 122.283 151.853 122.79C151.853 122.795 151.523 122.118 151.278 121.799Z" fill="#B2CAF2"/>
<path opacity="0.3" d="M152.611 121.252C152.611 121.252 152.73 121.605 152.958 121.793C152.856 121.855 152.747 121.924 152.634 122.003C152.634 122.003 152.457 121.537 152.491 121.32L152.611 121.252Z" fill="black"/>
<path d="M151.552 118.725C151.496 118.828 151.2 118.771 150.881 118.6C150.773 118.543 150.681 118.48 150.602 118.418C150.454 118.293 150.374 118.173 150.408 118.105C150.465 118.002 150.761 118.059 151.08 118.23C151.399 118.401 151.609 118.623 151.552 118.725Z" fill="#B2CAF2"/>
<path d="M149.139 120.068C149.139 120.068 150.272 119.066 150.636 118.417L151.194 118.731C151.194 118.731 150.385 120.302 150.402 120.882C150.402 120.888 149.509 120.228 149.139 120.068Z" fill="#B2CAF2"/>
<path opacity="0.3" d="M150.63 118.435C150.63 118.435 150.926 118.662 151.199 118.736C151.148 118.844 151.086 118.964 151.029 119.089C151.029 119.089 150.636 118.759 150.556 118.554L150.63 118.435Z" fill="black"/>
<path d="M147.589 117.94C147.595 118.054 147.304 118.162 146.946 118.173C146.826 118.179 146.712 118.168 146.616 118.156C146.422 118.128 146.297 118.065 146.291 117.985C146.285 117.872 146.576 117.763 146.934 117.752C147.293 117.741 147.589 117.826 147.589 117.94Z" fill="#B2CAF2"/>
<path d="M146.445 119.591C146.445 119.591 146.661 118.891 146.644 118.145L147.287 118.134C147.287 118.134 147.287 119.102 147.595 119.591C147.595 119.591 146.843 119.534 146.445 119.591Z" fill="#B2CAF2"/>
<path opacity="0.3" d="M146.645 118.162C146.645 118.162 147.009 118.236 147.288 118.134C147.288 118.253 147.294 118.384 147.311 118.521C147.311 118.521 146.821 118.441 146.645 118.305V118.162Z" fill="black"/>
<path opacity="0.3" d="M149.945 127.327C149.746 127.703 149.382 127.896 149.131 127.765C148.881 127.634 148.835 127.219 149.035 126.843C149.234 126.467 149.598 126.274 149.849 126.405C150.099 126.536 150.145 126.951 149.945 127.327Z" fill="black"/>
<path d="M150.168 127.116C149.968 127.492 149.604 127.686 149.354 127.555C149.103 127.424 149.058 127.008 149.257 126.633C149.456 126.257 149.82 126.063 150.071 126.194C150.321 126.331 150.367 126.741 150.168 127.116Z" fill="#B2CAF2"/>
<path opacity="0.3" d="M150.168 127.116C149.968 127.492 149.604 127.686 149.354 127.555C149.103 127.424 149.058 127.008 149.257 126.633C149.456 126.257 149.82 126.063 150.071 126.194C150.321 126.331 150.367 126.741 150.168 127.116Z" fill="white"/>
<path opacity="0.3" d="M147.612 124.879C147.612 125.301 147.271 125.648 146.844 125.648C146.422 125.648 146.075 125.306 146.075 124.879C146.075 124.452 146.417 124.111 146.844 124.111C147.271 124.111 147.612 124.452 147.612 124.879Z" fill="black"/>
<path d="M147.612 124.43C147.612 124.857 147.271 125.198 146.844 125.198C146.422 125.198 146.075 124.857 146.075 124.43C146.075 124.003 146.417 123.661 146.844 123.661C147.271 123.661 147.612 124.008 147.612 124.43Z" fill="#B2CAF2"/>
<path opacity="0.2" d="M147.612 124.43C147.612 124.857 147.271 125.198 146.844 125.198C146.422 125.198 146.075 124.857 146.075 124.43C146.075 124.003 146.417 123.661 146.844 123.661C147.271 123.661 147.612 124.008 147.612 124.43Z" fill="white"/>
<g opacity="0.2">
<path opacity="0.2" d="M149.605 129.081C149.639 129.138 149.565 129.257 149.383 129.416C149.207 129.576 148.911 129.758 148.518 129.917C148.319 129.997 148.097 130.071 147.852 130.134C147.607 130.191 147.34 130.236 147.055 130.253C146.486 130.293 145.848 130.242 145.211 130.048C144.573 129.855 144.009 129.547 143.565 129.194C143.338 129.024 143.144 128.836 142.968 128.654C142.797 128.466 142.649 128.284 142.535 128.107C142.296 127.754 142.154 127.441 142.097 127.208C142.034 126.98 142.04 126.838 142.097 126.809C142.228 126.747 142.524 127.145 143.07 127.657C143.207 127.788 143.36 127.919 143.531 128.056C143.702 128.187 143.89 128.329 144.095 128.454C144.505 128.711 144.977 128.944 145.501 129.103C146.025 129.257 146.548 129.331 147.032 129.342C147.271 129.348 147.505 129.337 147.721 129.32C147.937 129.297 148.137 129.274 148.324 129.246C149.064 129.126 149.531 128.955 149.605 129.081Z" fill="black"/>
</g>
<g opacity="0.2">
<path opacity="0.2" d="M142.028 124.879C142.301 124.868 142.529 125.067 142.54 125.323C142.551 125.58 142.341 125.802 142.067 125.813C141.794 125.824 141.567 125.625 141.555 125.369C141.544 125.113 141.754 124.891 142.028 124.879Z" fill="black"/>
</g>
<path d="M120.135 95.0556C124.712 95.0556 128.423 91.3447 128.423 86.7671C128.423 82.1894 124.712 78.4785 120.135 78.4785C115.557 78.4785 111.846 82.1894 111.846 86.7671C111.846 91.3447 115.557 95.0556 120.135 95.0556Z" fill="#B2CAF2"/>
<path opacity="0.7" d="M120.135 95.0556C124.712 95.0556 128.423 91.3447 128.423 86.7671C128.423 82.1894 124.712 78.4785 120.135 78.4785C115.557 78.4785 111.846 82.1894 111.846 86.7671C111.846 91.3447 115.557 95.0556 120.135 95.0556Z" fill="white"/>
<path d="M99.2018 134.448C101.069 129.717 102.031 124.594 101.929 119.305C105.208 116.556 117.293 113.738 117.293 113.738L116.405 109.201C111.544 110.14 101.707 108.911 100.312 108.728C99.1278 104.755 97.346 101.089 95.0917 97.7985C96.3897 93.8534 101.741 89.2537 101.741 89.2537L98.6724 85.7926C94.9494 89.0716 90.3156 91.1779 89.6723 91.4625C87.4749 89.379 85.0555 87.5403 82.4483 86.0089C81.6399 81.8874 85.3515 69.8189 85.3515 69.8189L80.9796 68.3047C79.2205 73.3313 72.4975 81.8362 72.4576 81.8874C68.7574 80.9197 64.8807 80.4927 60.9186 80.6635C58.243 77.4813 56.8881 70.5078 56.8881 70.5078L52.3511 71.4129C53.3644 76.5591 52.778 81.6882 52.761 81.8647C49.3852 82.7299 46.2144 84.0051 43.294 85.6446C39.1782 84.0563 30.7075 75.0904 30.7075 75.0904L27.1894 78.1815C30.3375 81.785 33.9466 90.2101 34.7322 92.0944C31.6354 95.1855 29.0908 98.7776 27.1667 102.7C23.0509 103.195 17.2159 101.169 17.2159 101.169L15.7472 105.615C19.6125 106.901 23.0053 109.019 24.4399 109.986C23.5518 113.351 23.1078 116.852 23.1476 120.438C18.9009 122.994 8.56299 125.414 8.56299 125.414L9.46812 130.008C13.7149 129.188 21.548 130.019 24.5139 130.389C25.6866 134.71 27.5538 138.678 29.9675 142.213C28.2938 145.998 23.6714 149.96 23.6714 149.96L26.7739 153.467C29.8365 150.769 33.3774 148.902 34.9315 148.145C38.9334 152.067 43.7381 155.101 49.0209 157.036C50.4839 161.534 49.8975 172.942 49.8975 172.942L54.5598 173.346C54.9356 169.151 57.7477 162.171 58.9831 159.268C62.4157 159.575 65.9395 159.484 69.4974 158.841C71.2849 158.522 72.9984 158.044 74.6835 157.503C77.4786 160.52 79.3401 166.116 79.3401 166.116L83.7576 164.568C82.2035 160.105 81.9246 155.454 81.879 154.361C86.7633 151.611 90.9418 147.883 94.2037 143.471C99.0652 144.291 108.544 149.277 108.544 149.277L110.872 145.213C106.642 142.765 100.375 135.774 99.2018 134.448ZM53.9564 81.58C53.9052 81.5914 53.8596 81.6028 53.8084 81.6142C53.8596 81.6085 53.9052 81.5914 53.9564 81.58Z" fill="#B2CAF2"/>
<g opacity="0.2">
<path opacity="0.2" d="M90.5714 129.934C88.6302 129.302 88.3171 125.306 86.8484 120.097C86.7004 119.443 86.4385 118.771 86.2507 118.076C86.04 117.388 85.7668 116.682 85.522 115.964C84.947 114.541 84.3607 113.044 83.5694 111.575C82.0495 108.615 79.983 105.695 77.4099 103.179C74.7913 100.714 71.7856 98.7669 68.7627 97.3722C67.2599 96.6492 65.7456 96.1198 64.294 95.6074C63.5653 95.3968 62.8481 95.152 62.1535 94.9698C61.4533 94.8104 60.7702 94.577 60.1099 94.4575C54.8385 93.2108 50.8422 93.0628 50.1249 91.1501C49.9598 90.6889 50.0281 90.1652 50.3469 89.5789C50.6657 89.0096 51.2179 88.3094 52.049 87.6946C53.6828 86.3796 56.3983 85.1044 60.0245 84.4099C60.9296 84.205 61.886 84.1367 62.8936 84.0285C63.9012 83.9431 64.9487 83.9488 66.0473 83.9545C68.2219 84.0627 70.5787 84.3245 72.981 84.9792C75.3776 85.6338 77.8824 86.5219 80.2961 87.8711C82.7155 89.1975 85.0837 90.8768 87.2526 92.9262C89.393 95.004 91.1634 97.2981 92.5923 99.6606C94.0382 102.012 95.0288 104.477 95.7859 106.845C96.5373 109.219 96.9017 111.558 97.0952 113.733C97.1465 114.826 97.1977 115.879 97.1522 116.887C97.0838 117.9 97.0611 118.856 96.8903 119.767C96.3495 123.416 95.1882 126.183 93.9415 127.874C93.3608 128.727 92.6834 129.308 92.1312 129.65C91.5619 129.986 91.0382 130.077 90.5714 129.934Z" fill="white"/>
</g>
<path d="M31.4983 72.6035C32.0676 73.2354 30.9575 75.1595 29.0163 76.9128C28.3616 77.5049 27.6956 78.0001 27.0808 78.3702C25.8739 79.0988 24.8549 79.355 24.4792 78.9394C23.91 78.3075 25.02 76.3834 26.9612 74.6301C28.8967 72.8824 30.929 71.9716 31.4983 72.6035Z" fill="#B2CAF2"/>
<path opacity="0.3" d="M27.2568 78.2673C27.2568 78.2673 29.5339 76.7645 30.7009 75.0908C31.2986 75.717 31.9875 76.4286 32.699 77.1288C32.699 77.1288 29.5054 79.0188 27.9001 79.07L27.2568 78.2673Z" fill="black"/>
<path d="M16.6409 98.6189C17.4492 98.8751 17.4663 101.101 16.6864 103.589C16.4189 104.431 16.1001 105.194 15.7528 105.832C15.0811 107.073 14.3353 107.807 13.8002 107.642C12.9919 107.386 12.9748 105.16 13.7547 102.672C14.5403 100.173 15.8325 98.3627 16.6409 98.6189Z" fill="#B2CAF2"/>
<path opacity="0.3" d="M15.8506 105.65C15.8506 105.65 17.2225 103.321 17.2111 101.169C18.0366 101.454 18.9474 101.716 19.9208 101.961C19.9208 101.961 18.1732 105.137 16.8127 105.991L15.8506 105.65Z" fill="black"/>
<path d="M6.8151 123.468C7.64623 123.291 8.75061 125.221 9.29141 127.777C9.47358 128.642 9.56466 129.468 9.57605 130.185C9.59882 131.597 9.30849 132.604 8.762 132.718C7.93087 132.895 6.82648 130.965 6.28568 128.409C5.75057 125.853 5.98966 123.644 6.8151 123.468Z" fill="#B2CAF2"/>
<path opacity="0.3" d="M9.57628 129.98C9.57628 129.98 9.42258 127.259 8.56299 125.409C9.4055 125.204 10.3676 124.971 11.3296 124.709C11.3296 124.709 11.3524 128.421 10.5896 129.832L9.57628 129.98Z" fill="black"/>
<path d="M21.1773 149.164C21.8035 148.595 23.739 149.699 25.4981 151.629C26.0901 152.284 26.5911 152.944 26.9668 153.559C27.7012 154.766 27.963 155.779 27.5475 156.155C26.9213 156.724 24.9857 155.62 23.2324 153.69C21.4677 151.766 20.5511 149.739 21.1773 149.164Z" fill="#B2CAF2"/>
<path opacity="0.3" d="M26.8588 153.388C26.8588 153.388 25.5381 151.031 23.6709 149.955C24.3312 149.386 25.0201 148.726 25.7203 148.014C25.7203 148.014 27.5875 151.128 27.6444 152.728L26.8588 153.388Z" fill="black"/>
<path d="M47.5522 174.081C47.6148 173.233 49.778 172.704 52.3796 172.897C53.2619 172.96 54.076 173.102 54.7762 173.29C56.1367 173.66 57.0248 174.218 56.9849 174.776C56.9223 175.624 54.7591 176.154 52.1575 175.96C49.5503 175.766 47.4896 174.924 47.5522 174.081Z" fill="#B2CAF2"/>
<path opacity="0.3" d="M54.577 173.233C54.577 173.233 51.9185 172.624 49.9033 172.937C49.9375 172.072 49.9773 171.081 49.9944 170.085C49.9944 170.085 53.5694 171.093 54.7136 172.214L54.577 173.233Z" fill="black"/>
<path d="M77.6726 168.121C77.3823 167.324 79.13 165.952 81.5835 165.052C82.4146 164.751 83.2173 164.54 83.9289 164.426C85.3236 164.204 86.3597 164.346 86.5532 164.87C86.8435 165.667 85.0959 167.039 82.6423 167.939C80.1888 168.832 77.963 168.918 77.6726 168.121Z" fill="#B2CAF2"/>
<path opacity="0.3" d="M83.724 164.46C83.724 164.46 81.0427 164.796 79.3406 166.117C79.0617 165.286 78.7144 164.403 78.3159 163.487C78.3159 163.487 81.9023 162.934 83.4109 163.487L83.724 164.46Z" fill="black"/>
<path d="M108.594 151.88C107.854 151.47 108.281 149.284 109.544 147.001C109.971 146.227 110.444 145.544 110.905 144.992C111.81 143.91 112.692 143.341 113.182 143.609C113.922 144.018 113.495 146.204 112.231 148.487C110.968 150.77 109.339 152.296 108.594 151.88Z" fill="#B2CAF2"/>
<path opacity="0.3" d="M110.78 145.151C110.78 145.151 109.112 147.309 108.548 149.272C107.78 148.874 106.897 148.424 105.998 147.992C105.998 147.992 108.412 145.168 109.915 144.604L110.78 145.151Z" fill="black"/>
<path opacity="0.3" d="M46.9082 128.58C47.449 131.585 46.2479 134.318 44.2213 134.677C42.2004 135.041 40.1225 132.895 39.5817 129.889C39.0409 126.883 40.2421 124.151 42.2687 123.792C44.2896 123.434 46.3674 125.574 46.9082 128.58Z" fill="black"/>
<path d="M44.9791 125.744C45.5199 128.75 44.3188 131.482 42.2922 131.841C40.2713 132.205 38.1934 130.059 37.6526 127.054C37.1118 124.048 38.3187 121.315 40.3396 120.957C42.3662 120.598 44.4383 122.739 44.9791 125.744Z" fill="#B2CAF2"/>
<path opacity="0.2" d="M44.9791 125.744C45.5199 128.75 44.3188 131.482 42.2922 131.841C40.2713 132.205 38.1934 130.059 37.6526 127.054C37.1118 124.048 38.3187 121.315 40.3396 120.957C42.3662 120.598 44.4383 122.739 44.9791 125.744Z" fill="white"/>
<path opacity="0.3" d="M39.8224 97.5777C42.2247 95.6934 45.202 95.4771 46.4658 97.0938C47.7353 98.7105 46.813 101.545 44.4107 103.43C42.0084 105.314 39.0311 105.53 37.7674 103.914C36.4979 102.297 37.4201 99.4563 39.8224 97.5777Z" fill="black"/>
<path d="M37.6979 95.0044C40.1002 93.1202 43.0775 92.9038 44.3413 94.5206C45.6107 96.1373 44.6885 98.9722 42.2862 100.857C39.8839 102.741 36.9066 102.957 35.6429 101.34C34.3734 99.7294 35.2956 96.8887 37.6979 95.0044Z" fill="#B2CAF2"/>
<path opacity="0.2" d="M37.6979 95.0044C40.1002 93.1202 43.0775 92.9038 44.3413 94.5206C45.6107 96.1373 44.6885 98.9722 42.2862 100.857C39.8839 102.741 36.9066 102.957 35.6429 101.34C34.3734 99.7294 35.2956 96.8887 37.6979 95.0044Z" fill="white"/>
<path opacity="0.3" d="M60.6049 142.999C60.9578 144.98 59.6428 146.87 57.6675 147.223C55.6864 147.576 53.7964 146.261 53.4435 144.285C53.0906 142.304 54.4056 140.414 56.3809 140.061C58.362 139.708 60.2519 141.023 60.6049 142.999Z" fill="black"/>
<path d="M60.2636 141.081C60.6165 143.062 59.3015 144.952 57.3262 145.305C55.3451 145.658 53.4551 144.343 53.1022 142.367C52.7492 140.386 54.0643 138.496 56.0396 138.143C58.015 137.79 59.9106 139.105 60.2636 141.081Z" fill="#B2CAF2"/>
<path opacity="0.3" d="M60.2636 141.081C60.6165 143.062 59.3015 144.952 57.3262 145.305C55.3451 145.658 53.4551 144.343 53.1022 142.367C52.7492 140.386 54.0643 138.496 56.0396 138.143C58.015 137.79 59.9106 139.105 60.2636 141.081Z" fill="white"/>
<path opacity="0.3" d="M75.8895 108.862C78.3004 108.319 79.8148 105.925 79.2722 103.514C78.7295 101.103 76.3352 99.5885 73.9243 100.131C71.5135 100.674 69.999 103.068 70.5416 105.479C71.0843 107.89 73.4786 109.404 75.8895 108.862Z" fill="black"/>
<path d="M79.9666 104.875C78.6402 106.958 75.8736 107.573 73.7901 106.247C71.7065 104.92 71.0917 102.154 72.4181 100.07C73.7445 97.9868 76.5112 97.372 78.5947 98.6984C80.6839 100.019 81.2987 102.786 79.9666 104.875Z" fill="#B2CAF2"/>
<path opacity="0.3" d="M79.9666 104.875C78.6402 106.958 75.8736 107.573 73.7901 106.247C71.7065 104.92 71.0917 102.154 72.4181 100.07C73.7445 97.9868 76.5112 97.372 78.5947 98.6984C80.6839 100.019 81.2987 102.786 79.9666 104.875Z" fill="white"/>
<path opacity="0.3" d="M79.4812 143.261C79.7431 144.712 78.7753 146.101 77.3237 146.357C75.872 146.619 74.483 145.652 74.2269 144.2C73.965 142.748 74.9327 141.359 76.3844 141.103C77.836 140.847 79.2193 141.815 79.4812 143.261Z" fill="black"/>
<path d="M79.2312 141.855C79.4931 143.307 78.5253 144.696 77.0737 144.952C75.622 145.214 74.233 144.246 73.9769 142.794C73.715 141.343 74.6827 139.954 76.1344 139.698C77.5803 139.441 78.9693 140.403 79.2312 141.855Z" fill="#B2CAF2"/>
<path opacity="0.3" d="M79.2312 141.855C79.4931 143.307 78.5253 144.696 77.0737 144.952C75.622 145.214 74.233 144.246 73.9769 142.794C73.715 141.343 74.6827 139.954 76.1344 139.698C77.5803 139.441 78.9693 140.403 79.2312 141.855Z" fill="white"/>
<path d="M119.017 115.657C118.197 115.828 117.104 113.921 116.575 111.399C116.393 110.545 116.302 109.731 116.29 109.02C116.268 107.625 116.552 106.629 117.099 106.515C117.918 106.344 119.011 108.251 119.541 110.773C120.07 113.301 119.837 115.487 119.017 115.657Z" fill="#B2CAF2"/>
<path opacity="0.3" d="M116.291 109.219C116.291 109.219 116.439 111.906 117.293 113.739C116.461 113.938 115.511 114.172 114.56 114.434C114.56 114.434 114.537 110.768 115.294 109.373L116.291 109.219Z" fill="black"/>
<path d="M104.2 90.0396C103.58 90.6032 101.672 89.5102 99.9362 87.6032C99.3499 86.9599 98.8603 86.2995 98.4903 85.6961C97.7673 84.5063 97.5111 83.5044 97.921 83.1287C98.5415 82.5651 100.449 83.6581 102.185 85.5652C103.915 87.4665 104.821 89.476 104.2 90.0396Z" fill="#B2CAF2"/>
<path opacity="0.3" d="M98.5937 85.8662C98.5937 85.8662 99.8973 88.1945 101.742 89.2591C101.087 89.8226 100.41 90.4716 99.7209 91.1775C99.7209 91.1775 97.8764 88.1034 97.8252 86.5209L98.5937 85.8662Z" fill="black"/>
<path d="M87.8727 69.2958C87.6108 70.0928 85.4078 70.0757 82.9599 69.2674C82.1345 68.9941 81.383 68.6639 80.7625 68.3167C79.55 67.6336 78.8327 66.8878 79.0035 66.3584C79.2654 65.5614 81.4684 65.5785 83.9163 66.3869C86.3641 67.1952 88.1403 68.4988 87.8727 69.2958Z" fill="#B2CAF2"/>
<path opacity="0.3" d="M80.9385 68.4072C80.9385 68.4072 83.3351 69.6312 85.3447 69.819C85.0999 70.6388 84.8266 71.578 84.5648 72.5287C84.5648 72.5287 81.3826 70.7071 80.5571 69.3522L80.9385 68.4072Z" fill="black"/>
<path d="M58.7951 68.7719C58.9716 69.5917 57.0645 70.6904 54.5426 71.2312C53.6887 71.4133 52.8747 71.5101 52.1631 71.5215C50.7684 71.55 49.7722 71.2653 49.6583 70.7245C49.4819 69.9048 51.3832 68.8061 53.9108 68.2653C56.4326 67.7245 58.6186 67.9522 58.7951 68.7719Z" fill="#B2CAF2"/>
<path opacity="0.3" d="M52.3667 71.5211C52.3667 71.5211 55.0366 71.5667 56.881 70.5078C57.0404 71.356 57.2567 72.2668 57.5186 73.2175C57.5186 73.2175 53.9379 73.2631 52.5375 72.5116L52.3667 71.5211Z" fill="black"/>
<path opacity="0.3" d="M87.4123 132.268C86.4844 135.177 84.1447 137.027 82.1864 136.401C80.2281 135.775 79.397 132.911 80.3249 130.002C81.2528 127.093 83.5925 125.243 85.5508 125.869C87.5091 126.496 88.3402 129.359 87.4123 132.268Z" fill="black"/>
<path d="M88.7155 130.515C87.7876 133.423 85.4479 135.274 83.4897 134.647C81.5314 134.021 80.7002 131.158 81.6281 128.249C82.5561 125.34 84.8958 123.49 86.854 124.116C88.8123 124.742 89.6434 127.606 88.7155 130.515Z" fill="#B2CAF2"/>
<path opacity="0.3" d="M88.7155 130.515C87.7876 133.423 85.4479 135.274 83.4897 134.647C81.5314 134.021 80.7002 131.158 81.6281 128.249C82.5561 125.34 84.8958 123.49 86.854 124.116C88.8123 124.742 89.6434 127.606 88.7155 130.515Z" fill="white"/>
<path opacity="0.3" d="M67.7719 117.888C68.3127 120.894 66.3089 123.769 63.3031 124.304C60.2974 124.845 57.4226 122.841 56.8875 119.835C56.3467 116.83 58.3505 113.955 61.3562 113.42C64.362 112.885 67.2368 114.883 67.7719 117.888Z" fill="black"/>
<path d="M67.2089 114.723C67.7497 117.729 65.7458 120.604 62.7401 121.139C59.7344 121.68 56.8596 119.676 56.3245 116.67C55.7893 113.665 57.7875 110.79 60.7932 110.255C63.7932 109.72 66.6681 111.718 67.2089 114.723Z" fill="#B2CAF2"/>
<path opacity="0.2" d="M67.2089 114.723C67.7497 117.729 65.7458 120.604 62.7401 121.139C59.7344 121.68 56.8596 119.676 56.3245 116.67C55.7893 113.665 57.7875 110.79 60.7932 110.255C63.7932 109.72 66.6681 111.718 67.2089 114.723Z" fill="white"/>
<g opacity="0.3">
<path opacity="0.3" d="M87.2184 145.14C87.5315 145.504 87.1615 146.449 86.0912 147.787C85.021 149.125 83.188 150.798 80.6092 152.455C79.3226 153.286 77.8311 154.066 76.1746 154.812C74.5066 155.512 72.6793 156.195 70.6868 156.685C66.719 157.709 62.1307 158.125 57.366 157.596C52.6069 157.021 48.2349 155.558 44.6087 153.651C42.7813 152.717 41.1589 151.635 39.6959 150.565C38.2556 149.461 36.9862 148.356 35.9216 147.252C33.7869 145.049 32.3922 143 31.6578 141.451C30.9178 139.903 30.7811 138.895 31.1682 138.616C32.0165 137.996 34.6066 140.455 39.1323 143.387C40.2595 144.127 41.5289 144.867 42.8952 145.618C44.2842 146.335 45.77 147.081 47.3867 147.724C50.6031 149.039 54.2748 150.064 58.1971 150.542C62.1193 150.975 65.9277 150.821 69.3604 150.28C71.0796 150.03 72.6964 149.643 74.2106 149.261C75.7135 148.84 77.1196 148.413 78.3833 147.952C83.4498 146.136 86.5353 144.343 87.2184 145.14Z" fill="black"/>
</g>
<g opacity="0.3">
<path opacity="0.3" d="M28.1854 124.988C30.0981 124.549 31.9824 125.671 32.398 127.487C32.8136 129.303 31.5953 131.13 29.6826 131.563C27.7698 131.995 25.8856 130.879 25.47 129.063C25.0544 127.248 26.2727 125.426 28.1854 124.988Z" fill="black"/>
</g>
<path d="M146.298 33.4432C146.161 30.7619 145.501 28.0864 144.3 25.5645C145.273 23.5265 150.471 19.5246 150.471 19.5246L149.048 17.5378C146.913 19.0521 141.915 20.6119 141.203 20.8339C139.763 19.183 138.106 17.8111 136.302 16.7181C136.063 14.5378 137.634 11.1563 137.634 11.1563L135.402 10.1601C134.326 12.551 132.561 14.5776 132.311 14.8566C130.797 14.3328 129.231 13.9799 127.643 13.8148C126.351 12.0102 125.497 5.38965 125.497 5.38965L123.06 5.61736C123.317 8.41815 121.939 13.9799 121.928 14.0141C119.935 14.3613 117.977 14.9989 116.11 15.9496C114.129 15.0046 111.948 11.9476 111.948 11.9476L109.967 13.3765C111.584 15.6308 112.421 18.2266 112.449 18.312C111.015 19.4676 109.768 20.777 108.721 22.2001C106.392 22.3368 100.358 19.8775 100.358 19.8775L99.3447 22.1318C101.65 23.1793 105.225 26.4412 106.017 27.1755C105.202 29.3388 104.764 31.6272 104.696 33.9327C102.823 35.0713 99.5724 35.373 99.5724 35.373L99.84 37.8322C101.98 37.6045 104.075 37.8835 104.98 38.0315C105.288 39.8417 105.84 41.6292 106.643 43.3427C105.157 45.5003 100.717 48.9273 100.717 48.9273L102.157 50.9425C104.018 49.6161 107.969 48.3068 109.478 47.8343C110.986 49.6559 112.751 51.1588 114.686 52.3315C114.709 54.5175 113.354 57.4321 113.354 57.4321L115.614 58.4397C116.497 56.4701 117.795 54.7964 118.375 54.0962C121.159 55.1095 124.136 55.5194 127.102 55.2917C128.793 57.1361 131.002 62.7491 131.002 62.7491L133.336 61.9237C132.601 59.8231 132.425 55.8496 132.385 54.1816C134.104 53.5782 135.778 52.7641 137.349 51.6768C138.14 51.1303 138.858 50.5269 139.552 49.9007C141.556 50.7432 143.674 53.026 143.674 53.026L145.461 51.3125C143.736 49.5022 142.586 47.3276 142.324 46.8153C144.072 44.4244 145.268 41.7146 145.871 38.8797C148.387 38.208 154.04 38.5381 154.04 38.5381L154.273 36.0732C151.695 35.817 147.152 33.8246 146.298 33.4432ZM112.967 17.9079C112.945 17.9249 112.927 17.942 112.905 17.9591C112.927 17.942 112.945 17.9249 112.967 17.9079Z" fill="#B2CAF2"/>
<g opacity="0.2">
<path opacity="0.2" d="M141.158 33.1592C140.088 33.2788 139.063 31.4286 137.219 29.2426C137.003 28.958 136.735 28.6961 136.49 28.4001C136.234 28.1155 135.95 27.8366 135.676 27.5405C135.09 26.977 134.481 26.3906 133.781 25.8555C132.403 24.7625 130.769 23.8118 128.982 23.1629C127.183 22.5481 125.31 22.2691 123.551 22.2634C122.668 22.2407 121.826 22.3203 121.018 22.3887C120.619 22.4456 120.226 22.4854 119.845 22.5481C119.475 22.6221 119.093 22.6619 118.752 22.7473C115.945 23.2995 113.987 24.1022 113.224 23.3393C113.042 23.1515 112.962 22.8839 112.985 22.5367C113.014 22.1951 113.128 21.734 113.389 21.2558C113.89 20.2653 114.915 19.0584 116.509 17.9313C116.902 17.6353 117.346 17.3962 117.807 17.1229C118.274 16.8611 118.78 16.6334 119.31 16.4C120.38 15.973 121.57 15.5859 122.868 15.3753C124.166 15.1646 125.566 15.0451 127.018 15.1646C128.469 15.2728 129.978 15.5631 131.469 16.0755C132.949 16.6049 134.31 17.3222 135.511 18.1476C136.724 18.9617 137.737 19.9351 138.619 20.9086C139.502 21.8877 140.185 22.9352 140.754 23.9371C141.016 24.4551 141.272 24.9447 141.471 25.4399C141.659 25.9409 141.859 26.4077 141.978 26.8859C142.513 28.7588 142.564 30.3413 142.331 31.4286C142.24 31.9694 142.041 32.3907 141.847 32.681C141.648 32.9714 141.414 33.1307 141.158 33.1592Z" fill="white"/>
</g>
<path d="M100.205 18.5001C100.614 18.6766 100.501 19.8493 99.9541 21.1131C99.7663 21.54 99.5556 21.9271 99.3393 22.2402C98.9181 22.855 98.4854 23.2023 98.2122 23.0827C97.8023 22.9063 97.9161 21.7336 98.4626 20.4698C99.0148 19.2003 99.789 18.3236 100.205 18.5001Z" fill="#B2CAF2"/>
<path opacity="0.3" d="M99.4014 22.149C99.4014 22.149 100.17 20.9307 100.363 19.8662C100.79 20.037 101.274 20.2248 101.77 20.4127C101.77 20.4127 100.648 22.018 99.8852 22.3938L99.4014 22.149Z" fill="black"/>
<path d="M98.7413 34.2629C99.1853 34.206 99.6806 35.2762 99.8513 36.6425C99.9083 37.1036 99.9197 37.5419 99.8912 37.9233C99.84 38.669 99.6407 39.1871 99.3447 39.2212C98.9007 39.2782 98.4054 38.2079 98.2346 36.8417C98.0752 35.4755 98.2972 34.3198 98.7413 34.2629Z" fill="#B2CAF2"/>
<path opacity="0.3" d="M99.9021 37.8209C99.9021 37.8209 100.056 36.4034 99.5776 35.3674C100.039 35.3218 100.534 35.2478 101.052 35.1567C101.052 35.1567 100.904 37.0695 100.437 37.7754L99.9021 37.8209Z" fill="black"/>
<path d="M99.4532 48.3702C99.8119 48.1026 100.768 48.7915 101.588 49.9015C101.867 50.2772 102.089 50.653 102.254 51.0002C102.573 51.6719 102.653 52.2241 102.413 52.3949C102.055 52.6625 101.098 51.9737 100.279 50.8636C99.4589 49.7478 99.0889 48.6321 99.4532 48.3702Z" fill="#B2CAF2"/>
<path opacity="0.3" d="M102.203 50.8977C102.203 50.8977 101.537 49.6226 100.717 48.9167C101.076 48.632 101.486 48.3075 101.896 47.9717C101.896 47.9717 102.721 49.7535 102.658 50.596L102.203 50.8977Z" fill="black"/>
<path d="M111.982 57.5916C112.158 57.1817 113.331 57.2898 114.601 57.8307C115.028 58.0128 115.415 58.2234 115.728 58.4398C116.343 58.861 116.69 59.288 116.576 59.5612C116.399 59.9711 115.227 59.8629 113.957 59.3221C112.688 58.7813 111.805 58.0014 111.982 57.5916Z" fill="#B2CAF2"/>
<path opacity="0.3" d="M115.636 58.377C115.636 58.377 114.486 57.5345 113.354 57.4263C113.547 57.005 113.735 56.5382 113.911 56.043C113.911 56.043 115.488 57.1303 115.87 57.8931L115.636 58.377Z" fill="black"/>
<path d="M130.119 63.8091C129.965 63.3878 130.887 62.6591 132.185 62.181C132.624 62.0216 133.045 61.9077 133.421 61.8451C134.155 61.7255 134.707 61.7995 134.81 62.0785C134.963 62.4997 134.041 63.2284 132.743 63.7066C131.445 64.1848 130.272 64.2303 130.119 63.8091Z" fill="#B2CAF2"/>
<path opacity="0.3" d="M133.312 61.8683C133.312 61.8683 131.9 62.1586 131.001 62.7506C130.83 62.3237 130.631 61.8398 130.42 61.3559C130.42 61.3559 132.361 61.0599 133.158 61.3502L133.312 61.8683Z" fill="black"/>
<path d="M143.303 54.3525C142.99 54.0337 143.53 52.992 144.515 52.0185C144.845 51.6883 145.187 51.4151 145.506 51.2045C146.126 50.7946 146.656 50.6352 146.866 50.8458C147.179 51.1646 146.639 52.2064 145.654 53.1798C144.669 54.1476 143.616 54.6713 143.303 54.3525Z" fill="#B2CAF2"/>
<path opacity="0.3" d="M145.415 51.2671C145.415 51.2671 144.196 52.0129 143.667 53.0205C143.354 52.6846 142.989 52.3374 142.597 51.9787C142.597 51.9787 144.202 50.9313 145.045 50.8687L145.415 51.2671Z" fill="black"/>
<path d="M154.631 39.7797C154.187 39.7456 153.914 38.6014 154.022 37.2237C154.062 36.7569 154.136 36.3243 154.239 35.96C154.438 35.2427 154.734 34.7759 155.03 34.7986C155.474 34.8328 155.747 35.977 155.639 37.3547C155.531 38.7266 155.075 39.8139 154.631 39.7797Z" fill="#B2CAF2"/>
<path opacity="0.3" d="M154.21 36.0623C154.21 36.0623 153.88 37.4627 154.039 38.5329C153.584 38.5101 153.06 38.4874 152.531 38.476C152.531 38.476 153.072 36.5917 153.675 35.9883L154.21 36.0623Z" fill="black"/>
<path opacity="0.3" d="M119.855 42.0627C120.772 43.3891 120.789 44.966 119.895 45.5865C119.001 46.2013 117.532 45.6264 116.616 44.3C115.699 42.9736 115.682 41.3967 116.576 40.7762C117.47 40.1557 118.939 40.7306 119.855 42.0627Z" fill="black"/>
<path d="M118.306 41.1175C119.223 42.4439 119.24 44.0207 118.346 44.6412C117.452 45.2561 115.984 44.6811 115.067 43.3547C114.151 42.0283 114.134 40.4514 115.027 39.8309C115.927 39.2104 117.39 39.7911 118.306 41.1175Z" fill="#B2CAF2"/>
<path opacity="0.2" d="M118.306 41.1175C119.223 42.4439 119.24 44.0207 118.346 44.6412C117.452 45.2561 115.984 44.6811 115.067 43.3547C114.151 42.0283 114.134 40.4514 115.027 39.8309C115.927 39.2104 117.39 39.7911 118.306 41.1175Z" fill="white"/>
<path opacity="0.3" d="M109.666 28.6967C110.411 27.2621 111.795 26.5107 112.757 27.0116C113.719 27.5126 113.895 29.0781 113.155 30.5126C112.41 31.9472 111.026 32.6986 110.064 32.1977C109.102 31.6967 108.92 30.1255 109.666 28.6967Z" fill="black"/>
<path d="M108.083 27.9222C108.829 26.4877 110.212 25.7363 111.175 26.2372C112.137 26.7382 112.313 28.3037 111.573 29.7382C110.827 31.1728 109.444 31.9242 108.482 31.4232C107.514 30.9223 107.338 29.3568 108.083 27.9222Z" fill="#B2CAF2"/>
<path opacity="0.2" d="M108.083 27.9222C108.829 26.4877 110.212 25.7363 111.175 26.2372C112.137 26.7382 112.313 28.3037 111.573 29.7382C110.827 31.1728 109.444 31.9242 108.482 31.4232C107.514 30.9223 107.338 29.3568 108.083 27.9222Z" fill="white"/>
<path opacity="0.3" d="M129.6 46.002C130.203 46.8787 129.981 48.0742 129.11 48.6776C128.234 49.281 127.038 49.059 126.435 48.188C125.831 47.3113 126.053 46.1159 126.924 45.5124C127.801 44.909 128.996 45.1253 129.6 46.002Z" fill="black"/>
<path d="M129.015 45.1534C129.618 46.0301 129.396 47.2255 128.525 47.8289C127.649 48.4324 126.453 48.2104 125.85 47.3394C125.246 46.4627 125.468 45.2672 126.339 44.6638C127.216 44.0604 128.411 44.2767 129.015 45.1534Z" fill="#B2CAF2"/>
<path opacity="0.3" d="M129.015 45.1534C129.618 46.0301 129.396 47.2255 128.525 47.8289C127.649 48.4324 126.453 48.2104 125.85 47.3394C125.246 46.4627 125.468 45.2672 126.339 44.6638C127.216 44.0604 128.411 44.2767 129.015 45.1534Z" fill="white"/>
<path opacity="0.3" d="M130.398 24.6777C130.216 25.9699 129.021 26.8694 127.728 26.6872C126.436 26.505 125.537 25.3096 125.719 24.0173C125.901 22.7251 127.096 21.8256 128.389 22.0078C129.681 22.19 130.58 23.3854 130.398 24.6777Z" fill="black"/>
<path d="M130.575 23.4248C130.393 24.717 129.197 25.6164 127.905 25.4343C126.613 25.2521 125.713 24.0566 125.896 22.7644C126.078 21.4722 127.273 20.5727 128.565 20.7549C129.858 20.9314 130.757 22.1325 130.575 23.4248Z" fill="#B2CAF2"/>
<path opacity="0.3" d="M130.575 23.4248C130.393 24.717 129.197 25.6164 127.905 25.4343C126.613 25.2521 125.713 24.0566 125.896 22.7644C126.078 21.4722 127.273 20.5727 128.565 20.7549C129.858 20.9314 130.757 22.1325 130.575 23.4248Z" fill="white"/>
<path opacity="0.3" d="M138.736 41.9996C139.181 42.6429 139.015 43.5196 138.378 43.9636C137.735 44.4076 136.858 44.2426 136.414 43.605C135.97 42.9617 136.135 42.085 136.773 41.641C137.416 41.197 138.292 41.3564 138.736 41.9996Z" fill="black"/>
<path d="M138.31 41.3795C138.754 42.0228 138.589 42.8995 137.951 43.3435C137.308 43.7875 136.431 43.6224 135.987 42.9849C135.543 42.3473 135.708 41.4649 136.346 41.0209C136.989 40.5769 137.866 40.7363 138.31 41.3795Z" fill="#B2CAF2"/>
<path opacity="0.3" d="M138.31 41.3795C138.754 42.0228 138.589 42.8995 137.951 43.3435C137.308 43.7875 136.431 43.6224 135.987 42.9849C135.543 42.3473 135.708 41.4649 136.346 41.0209C136.989 40.5769 137.866 40.7363 138.31 41.3795Z" fill="white"/>
<path d="M151.716 20.0716C151.358 20.3334 150.418 19.656 149.61 18.5573C149.337 18.1873 149.115 17.8116 148.955 17.4757C148.642 16.8097 148.563 16.2688 148.796 16.0924C149.155 15.8305 150.094 16.5079 150.902 17.6066C151.711 18.7053 152.075 19.8097 151.716 20.0716Z" fill="#B2CAF2"/>
<path opacity="0.3" d="M149.001 17.5728C149.001 17.5728 149.662 18.8308 150.47 19.5253C150.111 19.8043 149.707 20.1231 149.309 20.4589C149.309 20.4589 148.495 18.6999 148.552 17.8631L149.001 17.5728Z" fill="black"/>
<path d="M138.988 10.986C138.812 11.3902 137.656 11.2878 136.404 10.747C135.982 10.5648 135.601 10.3542 135.288 10.1435C134.679 9.72796 134.337 9.30101 134.451 9.03346C134.627 8.62928 135.783 8.73174 137.035 9.27255C138.288 9.81335 139.164 10.5819 138.988 10.986Z" fill="#B2CAF2"/>
<path opacity="0.3" d="M135.379 10.2061C135.379 10.2061 136.517 11.0429 137.633 11.151C137.439 11.5666 137.257 12.0277 137.081 12.5173C137.081 12.5173 135.521 11.4414 135.151 10.6899L135.379 10.2061Z" fill="black"/>
<path d="M126.6 4.57621C126.646 5.01455 125.587 5.49273 124.232 5.63505C123.771 5.68628 123.339 5.69197 122.968 5.65782C122.234 5.5952 121.727 5.39026 121.693 5.09994C121.648 4.6616 122.707 4.18341 124.061 4.0411C125.416 3.89878 126.549 4.13787 126.6 4.57621Z" fill="#B2CAF2"/>
<path opacity="0.3" d="M123.071 5.6694C123.071 5.6694 124.494 5.73202 125.502 5.38477C125.565 5.83449 125.639 6.34683 125.718 6.85917C125.718 6.85917 123.789 6.677 123.094 6.20451L123.071 5.6694Z" fill="black"/>
<path d="M112.494 10.6845C112.756 11.0374 112.084 11.9881 110.986 12.7965C110.616 13.0697 110.245 13.2974 109.904 13.4568C109.238 13.7756 108.697 13.8553 108.526 13.6219C108.264 13.269 108.936 12.3183 110.035 11.5099C111.128 10.7016 112.232 10.3315 112.494 10.6845Z" fill="#B2CAF2"/>
<path opacity="0.3" d="M110.007 13.4168C110.007 13.4168 111.299 12.8532 111.954 11.9424C112.216 12.3181 112.523 12.7052 112.853 13.1094C112.853 13.1094 111.14 13.9177 110.303 13.8608L110.007 13.4168Z" fill="black"/>
<path opacity="0.3" d="M140.15 34.9756C140.338 36.5809 139.615 37.9813 138.539 38.1065C137.463 38.2318 136.432 37.0363 136.245 35.4367C136.057 33.8313 136.78 32.4309 137.856 32.3057C138.932 32.1748 139.962 33.3702 140.15 34.9756Z" fill="black"/>
<path d="M140.394 33.8481C140.582 35.4535 139.859 36.8539 138.783 36.9791C137.707 37.1043 136.677 35.9089 136.489 34.3092C136.301 32.7039 137.024 31.3035 138.1 31.1783C139.176 31.0473 140.201 32.2428 140.394 33.8481Z" fill="#B2CAF2"/>
<path opacity="0.3" d="M140.394 33.8481C140.582 35.4535 139.859 36.8539 138.783 36.9791C137.707 37.1043 136.677 35.9089 136.489 34.3092C136.301 32.7039 137.024 31.3035 138.1 31.1783C139.176 31.0473 140.201 32.2428 140.394 33.8481Z" fill="white"/>
<path opacity="0.3" d="M127.557 32.3508C128.474 33.6772 128.138 35.4988 126.812 36.4154C125.485 37.3319 123.664 36.996 122.747 35.6696C121.831 34.3432 122.166 32.5216 123.493 31.6051C124.819 30.6885 126.641 31.0244 127.557 32.3508Z" fill="black"/>
<path d="M126.591 30.9563C127.507 32.2827 127.171 34.1044 125.845 35.0209C124.519 35.9374 122.697 35.6016 121.78 34.2752C120.864 32.9488 121.2 31.1271 122.526 30.2106C123.858 29.2941 125.674 29.6242 126.591 30.9563Z" fill="#B2CAF2"/>
<path opacity="0.2" d="M126.591 30.9563C127.507 32.2827 127.171 34.1044 125.845 35.0209C124.519 35.9374 122.697 35.6016 121.78 34.2752C120.864 32.9488 121.2 31.1271 122.526 30.2106C123.858 29.2941 125.674 29.6242 126.591 30.9563Z" fill="white"/>
<g opacity="0.3">
<path opacity="0.3" d="M142.87 41.208C143.098 41.3162 143.132 41.8513 142.904 42.728C142.682 43.6047 142.17 44.8115 141.288 46.1721C140.849 46.8552 140.303 47.5554 139.671 48.2783C139.022 48.9785 138.293 49.7072 137.439 50.3789C135.754 51.7395 133.637 52.9463 131.229 53.7319C128.815 54.4948 126.39 54.7509 124.227 54.6257C123.145 54.5745 122.126 54.4094 121.193 54.2158C120.259 53.9995 119.405 53.749 118.654 53.4473C117.145 52.8553 116.024 52.1778 115.335 51.5915C114.64 51.0051 114.356 50.5554 114.475 50.3334C114.748 49.8495 116.53 50.4643 119.348 50.8856C120.054 50.9938 120.823 51.0735 121.648 51.1361C122.473 51.1759 123.35 51.2101 124.267 51.1645C126.1 51.0962 128.092 50.7831 130.085 50.1569C132.066 49.508 133.864 48.6028 135.396 47.5895C136.17 47.0943 136.859 46.5535 137.508 46.0411C138.14 45.5117 138.72 44.9994 139.233 44.4984C141.276 42.5117 142.369 40.9746 142.87 41.208Z" fill="black"/>
</g>
<g opacity="0.3">
<path opacity="0.3" d="M110.064 44.425C110.89 43.7988 112.039 43.9241 112.637 44.704C113.235 45.4896 113.047 46.6281 112.222 47.26C111.396 47.8862 110.246 47.7609 109.649 46.9811C109.051 46.2012 109.239 45.0569 110.064 44.425Z" fill="black"/>
</g>
<path d="M77.423 39.888C77.4002 39.4383 77.2921 38.9943 77.0871 38.573C77.2522 38.2315 78.1175 37.5654 78.1175 37.5654L77.8784 37.2353C77.5255 37.4857 76.6886 37.7476 76.5748 37.7818C76.3357 37.5085 76.0567 37.2751 75.7607 37.0986C75.7209 36.7343 75.9827 36.1707 75.9827 36.1707L75.6127 36.0056C75.4362 36.4041 75.1402 36.74 75.1004 36.7855C74.8499 36.7001 74.588 36.6375 74.3205 36.6148C74.1042 36.313 73.9618 35.2144 73.9618 35.2144L73.5577 35.2542C73.5975 35.721 73.3698 36.6489 73.3698 36.6546C73.0396 36.7115 72.7094 36.8197 72.402 36.9791C72.0719 36.8197 71.7075 36.313 71.7075 36.313L71.3774 36.5521C71.6449 36.9279 71.7872 37.3605 71.7929 37.3719C71.5538 37.5654 71.3489 37.7818 71.1724 38.0208C70.7853 38.0436 69.7777 37.6337 69.7777 37.6337L69.6069 38.0095C69.9883 38.1859 70.5861 38.7267 70.717 38.852C70.5804 39.2106 70.5064 39.592 70.495 39.9791C70.1819 40.167 69.6411 40.2182 69.6411 40.2182L69.6866 40.6281C70.0453 40.5882 70.3925 40.6338 70.5405 40.6623C70.5918 40.964 70.6829 41.26 70.8195 41.5446C70.5747 41.9033 69.8346 42.4725 69.8346 42.4725L70.0737 42.8084C70.3868 42.5864 71.0415 42.3701 71.292 42.2904C71.5424 42.5921 71.8385 42.8425 72.1573 43.0418C72.163 43.4061 71.9352 43.89 71.9352 43.89L72.311 44.0551C72.459 43.7249 72.6753 43.446 72.7721 43.3321C73.2332 43.5029 73.7284 43.5712 74.2237 43.5314C74.5026 43.8388 74.8727 44.7724 74.8727 44.7724L75.2598 44.6357C75.1345 44.2885 75.1061 43.6224 75.1004 43.3492C75.385 43.2467 75.6639 43.1101 75.9258 42.9336C76.0567 42.8425 76.1763 42.7401 76.2901 42.6376C76.626 42.7799 76.979 43.1556 76.979 43.1556L77.275 42.871C76.9903 42.5693 76.7968 42.205 76.7512 42.1196C77.0416 41.7211 77.2408 41.2714 77.3433 40.7989C77.7645 40.685 78.7038 40.7419 78.7038 40.7419L78.7437 40.3321C78.3224 40.2808 77.5653 39.9507 77.423 39.888ZM71.8726 37.2979C71.8669 37.2979 71.8669 37.3036 71.8612 37.3036C71.8669 37.3036 71.8669 37.3036 71.8726 37.2979Z" fill="#B2CAF2"/>
<g opacity="0.2">
<path opacity="0.2" d="M76.5688 39.8365C76.3923 39.8536 76.2216 39.5462 75.9142 39.1819C75.88 39.1363 75.8345 39.0908 75.7946 39.0395C75.7548 38.994 75.7035 38.9428 75.658 38.8972C75.5612 38.8061 75.4587 38.7037 75.3392 38.6183C75.1115 38.4361 74.8382 38.2767 74.5422 38.1686C74.2405 38.0661 73.9331 38.0206 73.6371 38.0206C73.4891 38.0149 73.3468 38.0319 73.2158 38.0433C73.1475 38.0547 73.0849 38.0604 73.0223 38.0718C72.9596 38.0832 72.897 38.0889 72.8401 38.1059C72.3733 38.197 72.0488 38.3337 71.9179 38.2027C71.8894 38.1743 71.8724 38.1287 71.878 38.0661C71.8837 38.0092 71.9008 37.9352 71.9464 37.8555C72.0317 37.6904 72.2025 37.4911 72.4644 37.3033C72.527 37.252 72.601 37.2122 72.6807 37.1667C72.7604 37.1211 72.8401 37.087 72.9312 37.0471C73.1077 36.9788 73.3069 36.9105 73.5232 36.8763C73.7395 36.8422 73.973 36.8194 74.212 36.8422C74.4568 36.8593 74.7073 36.9105 74.9521 36.9959C75.1969 37.087 75.4246 37.2065 75.6238 37.3431C75.8231 37.4798 75.9939 37.6392 76.1419 37.8042C76.2899 37.9693 76.4037 38.1401 76.4948 38.3109C76.5403 38.3963 76.5802 38.4817 76.6144 38.5614C76.6485 38.6468 76.677 38.7208 76.6997 38.8005C76.7908 39.1136 76.7965 39.3754 76.7567 39.5576C76.7396 39.6487 76.7054 39.717 76.677 39.7682C76.6485 39.8081 76.6087 39.8308 76.5688 39.8365Z" fill="white"/>
</g>
<path d="M69.743 37.3941C69.8113 37.4226 69.7943 37.6161 69.7032 37.8268C69.6747 37.9008 69.6349 37.9634 69.6007 38.0146C69.5324 38.1171 69.4584 38.174 69.4128 38.157C69.3445 38.1285 69.3616 37.9349 69.4527 37.7186C69.5495 37.5137 69.6747 37.3657 69.743 37.3941Z" fill="#B2CAF2"/>
<path opacity="0.3" d="M69.6113 38.003C69.6113 38.003 69.7366 37.7981 69.7707 37.6216C69.839 37.65 69.9244 37.6842 70.0041 37.7127C70.0041 37.7127 69.8163 37.9802 69.691 38.0428L69.6113 38.003Z" fill="black"/>
<path d="M69.5028 40.0239C69.5768 40.0126 69.6622 40.1947 69.685 40.4224C69.6964 40.5021 69.6964 40.5704 69.6907 40.6331C69.6793 40.7583 69.6508 40.8437 69.5996 40.8494C69.5256 40.8608 69.4402 40.6786 69.4174 40.4509C69.389 40.2232 69.4288 40.0296 69.5028 40.0239Z" fill="#B2CAF2"/>
<path opacity="0.3" d="M69.6971 40.6159C69.6971 40.6159 69.7198 40.3768 69.6401 40.206C69.7141 40.2003 69.7995 40.189 69.8849 40.1719C69.8849 40.1719 69.8622 40.4907 69.7825 40.6102L69.6971 40.6159Z" fill="black"/>
<path d="M69.623 42.3694C69.6856 42.3239 69.845 42.4377 69.9759 42.6256C70.0215 42.6882 70.0613 42.7508 70.0841 42.8077C70.1353 42.9216 70.1524 43.0127 70.1126 43.0411C70.0499 43.0867 69.8905 42.9728 69.7596 42.785C69.623 42.6028 69.5604 42.4149 69.623 42.3694Z" fill="#B2CAF2"/>
<path opacity="0.3" d="M70.0781 42.7904C70.0781 42.7904 69.9643 42.5797 69.8276 42.4602C69.8903 42.4146 69.9586 42.3577 70.0212 42.3008C70.0212 42.3008 70.1578 42.5968 70.1464 42.7391L70.0781 42.7904Z" fill="black"/>
<path d="M71.7061 43.907C71.7346 43.8387 71.9282 43.8557 72.1445 43.9468C72.2185 43.9753 72.2811 44.0151 72.3323 44.0493C72.4348 44.1176 72.4917 44.1916 72.4747 44.2372C72.4462 44.3055 72.2526 44.2884 72.0363 44.1973C71.8257 44.1062 71.6777 43.9753 71.7061 43.907Z" fill="#B2CAF2"/>
<path opacity="0.3" d="M72.3155 44.038C72.3155 44.038 72.1219 43.8957 71.9341 43.8786C71.9682 43.8103 71.9967 43.7306 72.0252 43.6509C72.0252 43.6509 72.287 43.833 72.3496 43.9583L72.3155 44.038Z" fill="black"/>
<path d="M74.7295 44.9428C74.701 44.8744 74.8547 44.7492 75.071 44.6695C75.145 44.641 75.2134 44.624 75.276 44.6126C75.4012 44.5898 75.4923 44.6069 75.5094 44.6524C75.5378 44.7207 75.3841 44.846 75.1678 44.9257C74.9515 45.0054 74.7522 45.0111 74.7295 44.9428Z" fill="#B2CAF2"/>
<path opacity="0.3" d="M75.2588 44.6179C75.2588 44.6179 75.0254 44.6635 74.8717 44.7659C74.8432 44.6976 74.8091 44.6122 74.7749 44.5325C74.7749 44.5325 75.0994 44.4813 75.2303 44.5325L75.2588 44.6179Z" fill="black"/>
<path d="M76.922 43.3655C76.8708 43.3142 76.9619 43.1378 77.1213 42.9784C77.1782 42.9214 77.2351 42.8759 77.2864 42.8417C77.3888 42.7734 77.4799 42.745 77.5141 42.7791C77.5653 42.8304 77.4742 43.0068 77.3148 43.1662C77.1497 43.3313 76.9789 43.4224 76.922 43.3655Z" fill="#B2CAF2"/>
<path opacity="0.3" d="M77.2744 42.8535C77.2744 42.8535 77.0695 42.9787 76.9841 43.1438C76.9329 43.0869 76.8702 43.0299 76.8076 42.973C76.8076 42.973 77.0752 42.7965 77.2175 42.7852L77.2744 42.8535Z" fill="black"/>
<path d="M78.8111 40.9408C78.7371 40.9351 78.6916 40.7415 78.7087 40.5138C78.7144 40.4341 78.7257 40.3658 78.7428 40.3032C78.777 40.1837 78.8282 40.104 78.8737 40.1097C78.9477 40.1154 78.9933 40.3089 78.9762 40.5366C78.9591 40.7643 78.8851 40.9465 78.8111 40.9408Z" fill="#B2CAF2"/>
<path opacity="0.3" d="M78.7369 40.3208C78.7369 40.3208 78.68 40.5542 78.7085 40.7307C78.6345 40.725 78.5434 40.725 78.458 40.7193C78.458 40.7193 78.5491 40.4062 78.6459 40.3037L78.7369 40.3208Z" fill="black"/>
<path opacity="0.3" d="M73.0152 41.3231C73.1689 41.5451 73.1689 41.807 73.0209 41.9095C72.8729 42.0119 72.6281 41.9152 72.4744 41.6931C72.3207 41.4711 72.3207 41.2093 72.4687 41.1068C72.6224 41.0043 72.8672 41.1011 73.0152 41.3231Z" fill="black"/>
<path d="M72.7598 41.1635C72.9135 41.3855 72.9135 41.6473 72.7655 41.7498C72.6175 41.8523 72.3727 41.7555 72.219 41.5335C72.0653 41.3115 72.0653 41.0496 72.2133 40.9471C72.3613 40.8447 72.6061 40.9414 72.7598 41.1635Z" fill="#B2CAF2"/>
<path opacity="0.2" d="M72.7598 41.1635C72.9135 41.3855 72.9135 41.6473 72.7655 41.7498C72.6175 41.8523 72.3727 41.7555 72.219 41.5335C72.0653 41.3115 72.0653 41.0496 72.2133 40.9471C72.3613 40.8447 72.6061 40.9414 72.7598 41.1635Z" fill="white"/>
<path opacity="0.3" d="M71.3177 39.0958C71.443 38.8567 71.6707 38.7315 71.8301 38.8169C71.9895 38.9023 72.0179 39.1584 71.8984 39.3975C71.7731 39.6366 71.5454 39.7619 71.386 39.6765C71.2266 39.5911 71.1982 39.3349 71.3177 39.0958Z" fill="black"/>
<path d="M71.0562 38.9654C71.1815 38.7263 71.4092 38.6011 71.5686 38.6865C71.728 38.7719 71.7564 39.0281 71.6369 39.2672C71.5117 39.5062 71.284 39.6315 71.1246 39.5461C70.9595 39.4664 70.931 39.2045 71.0562 38.9654Z" fill="#B2CAF2"/>
<path opacity="0.2" d="M71.0562 38.9654C71.1815 38.7263 71.4092 38.6011 71.5686 38.6865C71.728 38.7719 71.7564 39.0281 71.6369 39.2672C71.5117 39.5062 71.284 39.6315 71.1246 39.5461C70.9595 39.4664 70.931 39.2045 71.0562 38.9654Z" fill="white"/>
<path opacity="0.3" d="M74.6436 41.9765C74.746 42.1245 74.7062 42.3237 74.5639 42.4205C74.4159 42.523 74.2166 42.4831 74.1198 42.3408C74.0174 42.1928 74.0572 41.9936 74.1995 41.8968C74.3419 41.7943 74.5411 41.8285 74.6436 41.9765Z" fill="black"/>
<path d="M74.542 41.8343C74.6445 41.9823 74.6046 42.1816 74.4623 42.2783C74.3143 42.3808 74.1151 42.341 74.0183 42.1986C73.9158 42.0506 73.9557 41.8514 74.098 41.7546C74.246 41.6521 74.4452 41.692 74.542 41.8343Z" fill="#B2CAF2"/>
<path opacity="0.3" d="M74.542 41.8343C74.6445 41.9823 74.6046 42.1816 74.4623 42.2783C74.3143 42.3808 74.1151 42.341 74.0183 42.1986C73.9158 42.0506 73.9557 41.8514 74.098 41.7546C74.246 41.6521 74.4452 41.692 74.542 41.8343Z" fill="white"/>
<path opacity="0.3" d="M74.7751 38.4241C74.7466 38.6404 74.5474 38.7884 74.3311 38.76C74.1147 38.7315 73.9667 38.5323 73.9952 38.3159C74.0237 38.0996 74.2229 37.9516 74.4392 37.9801C74.6556 38.0085 74.8036 38.2078 74.7751 38.4241Z" fill="black"/>
<path d="M74.8049 38.219C74.7764 38.4353 74.5772 38.5833 74.3609 38.5549C74.1445 38.5264 73.9965 38.3272 74.025 38.1109C74.0534 37.8945 74.2527 37.7465 74.469 37.775C74.6853 37.8034 74.8333 38.0027 74.8049 38.219Z" fill="#B2CAF2"/>
<path opacity="0.3" d="M74.8049 38.219C74.7764 38.4353 74.5772 38.5833 74.3609 38.5549C74.1445 38.5264 73.9965 38.3272 74.025 38.1109C74.0534 37.8945 74.2527 37.7465 74.469 37.775C74.6853 37.8034 74.8333 38.0027 74.8049 38.219Z" fill="white"/>
<path opacity="0.3" d="M76.1632 41.3109C76.2372 41.419 76.2087 41.5614 76.1006 41.6354C75.9924 41.7094 75.8501 41.6809 75.7761 41.5727C75.7021 41.4646 75.7306 41.3223 75.8387 41.2483C75.9412 41.1743 76.0892 41.2027 76.1632 41.3109Z" fill="black"/>
<path d="M76.0885 41.2083C76.1625 41.3165 76.134 41.4588 76.0259 41.5328C75.9177 41.6068 75.7754 41.5784 75.7014 41.4702C75.6274 41.362 75.6558 41.2197 75.764 41.1457C75.8722 41.0717 76.0145 41.1002 76.0885 41.2083Z" fill="#B2CAF2"/>
<path opacity="0.3" d="M76.0885 41.2083C76.1625 41.3165 76.134 41.4588 76.0259 41.5328C75.9177 41.6068 75.7754 41.5784 75.7014 41.4702C75.6274 41.362 75.6558 41.2197 75.764 41.1457C75.8722 41.0717 76.0145 41.1002 76.0885 41.2083Z" fill="white"/>
<path d="M78.329 37.6557C78.272 37.7013 78.1126 37.5874 77.976 37.4053C77.9305 37.3426 77.8963 37.28 77.8679 37.2231C77.8166 37.1149 77.7996 37.0239 77.8394 36.9954C77.8963 36.9499 78.0557 37.0637 78.1923 37.2459C78.3233 37.428 78.3859 37.6159 78.329 37.6557Z" fill="#B2CAF2"/>
<path opacity="0.3" d="M77.8716 37.2402C77.8716 37.2402 77.9797 37.4509 78.1163 37.5647C78.0594 37.6103 77.9911 37.6672 77.9228 37.7184C77.9228 37.7184 77.7862 37.4281 77.7975 37.2858L77.8716 37.2402Z" fill="black"/>
<path d="M76.205 36.147C76.1765 36.2153 75.983 36.1982 75.7723 36.1071C75.704 36.0787 75.6357 36.0445 75.5845 36.0047C75.482 35.9364 75.4251 35.8624 75.4479 35.8225C75.4763 35.7542 75.6699 35.7713 75.8805 35.8624C76.0911 35.9477 76.2334 36.0787 76.205 36.147Z" fill="#B2CAF2"/>
<path opacity="0.3" d="M75.6082 36.0161C75.6082 36.0161 75.7961 36.1527 75.9839 36.1755C75.9498 36.2438 75.9213 36.3235 75.8928 36.4032C75.8928 36.4032 75.631 36.2267 75.5684 36.1015L75.6082 36.0161Z" fill="black"/>
<path d="M74.1433 35.077C74.149 35.151 73.9725 35.2307 73.7505 35.2535C73.6765 35.2592 73.6025 35.2649 73.5399 35.2592C73.4203 35.2478 73.3349 35.2137 73.3292 35.1681C73.3235 35.0941 73.5 35.0144 73.722 34.9917C73.944 34.9632 74.1319 35.003 74.1433 35.077Z" fill="#B2CAF2"/>
<path opacity="0.3" d="M73.5566 35.2594C73.5566 35.2594 73.7957 35.2708 73.9608 35.2139C73.9722 35.2879 73.9836 35.3733 73.995 35.4587C73.995 35.4587 73.6762 35.4302 73.5566 35.3505V35.2594Z" fill="black"/>
<path d="M71.7925 36.0966C71.838 36.1535 71.7242 36.3129 71.542 36.4496C71.4794 36.4951 71.4167 36.535 71.3598 36.5577C71.2517 36.609 71.1606 36.626 71.1321 36.5862C71.0866 36.5293 71.2004 36.3699 71.3826 36.2332C71.5648 36.0966 71.7469 36.034 71.7925 36.0966Z" fill="#B2CAF2"/>
<path opacity="0.3" d="M71.376 36.5519C71.376 36.5519 71.5923 36.4608 71.7005 36.3071C71.746 36.3697 71.7972 36.4324 71.8485 36.5007C71.8485 36.5007 71.5638 36.6373 71.4215 36.6259L71.376 36.5519Z" fill="black"/>
<path opacity="0.3" d="M76.3973 40.1384C76.4314 40.406 76.3062 40.6394 76.1297 40.6621C75.9475 40.6849 75.7768 40.4857 75.7483 40.2181C75.7141 39.9505 75.8394 39.7172 76.0159 39.6944C76.198 39.6773 76.3688 39.8765 76.3973 40.1384Z" fill="black"/>
<path d="M76.4373 39.9504C76.4715 40.218 76.3462 40.4514 76.1698 40.4741C75.9876 40.4969 75.8168 40.2977 75.7883 40.0301C75.7542 39.7626 75.8794 39.5292 76.0559 39.5064C76.2381 39.4893 76.4088 39.6886 76.4373 39.9504Z" fill="#B2CAF2"/>
<path opacity="0.3" d="M76.4373 39.9504C76.4715 40.218 76.3462 40.4514 76.1698 40.4741C75.9876 40.4969 75.8168 40.2977 75.7883 40.0301C75.7542 39.7626 75.8794 39.5292 76.0559 39.5064C76.2381 39.4893 76.4088 39.6886 76.4373 39.9504Z" fill="white"/>
<path opacity="0.3" d="M74.3022 39.7059C74.4559 39.9279 74.399 40.2296 74.177 40.3833C73.955 40.537 73.6533 40.4801 73.4996 40.258C73.3459 40.036 73.4028 39.7343 73.6248 39.5806C73.8468 39.4269 74.1485 39.4838 74.3022 39.7059Z" fill="black"/>
<path d="M74.144 39.472C74.2977 39.694 74.2408 39.9957 74.0188 40.1494C73.7968 40.3031 73.4951 40.2462 73.3414 40.0242C73.1877 39.8021 73.2446 39.5004 73.4666 39.3467C73.6886 39.193 73.9903 39.25 74.144 39.472Z" fill="#B2CAF2"/>
<path opacity="0.2" d="M74.144 39.472C74.2977 39.694 74.2408 39.9957 74.0188 40.1494C73.7968 40.3031 73.4951 40.2462 73.3414 40.0242C73.1877 39.8021 73.2446 39.5004 73.4666 39.3467C73.6886 39.193 73.9903 39.25 74.144 39.472Z" fill="white"/>
<g opacity="0.2">
<path opacity="0.2" d="M76.8533 41.1799C76.8931 41.197 76.8988 41.288 76.859 41.4304C76.8248 41.5784 76.7337 41.7776 76.5914 42.0053C76.5174 42.1192 76.4263 42.233 76.3238 42.3583C76.2157 42.4778 76.0961 42.5974 75.9538 42.7055C75.6749 42.9332 75.3219 43.1325 74.9178 43.2634C74.5136 43.3886 74.1094 43.4342 73.7508 43.4114C73.5686 43.4057 73.4035 43.3772 73.2441 43.3431C73.0904 43.3089 72.9481 43.2634 72.8229 43.2179C72.5724 43.1211 72.3845 43.0072 72.2707 42.9104C72.1568 42.8137 72.1056 42.7397 72.1283 42.6998C72.1739 42.6201 72.4699 42.7226 72.9424 42.7909C73.0619 42.808 73.1872 42.8194 73.3238 42.8308C73.4604 42.8364 73.6084 42.8421 73.7621 42.8364C74.0695 42.8251 74.3997 42.7738 74.7299 42.6714C75.0601 42.5632 75.3618 42.4095 75.6123 42.2444C75.7432 42.159 75.8571 42.0736 75.9652 41.9882C76.0677 41.8972 76.1701 41.8118 76.2498 41.7321C76.5857 41.3962 76.7679 41.14 76.8533 41.1799Z" fill="black"/>
</g>
<g opacity="0.2">
<path opacity="0.2" d="M71.3881 41.7148C71.5248 41.6123 71.7183 41.6294 71.8151 41.7603C71.9119 41.8912 71.8834 42.0791 71.7468 42.1873C71.6102 42.2897 71.4166 42.2726 71.3198 42.1417C71.2174 42.0108 71.2515 41.8172 71.3881 41.7148Z" fill="black"/>
</g>
</g>
</svg>
