<svg width="180" height="180" viewBox="0 0 180 180" fill="none" xmlns="http://www.w3.org/2000/svg">
<path d="M66.7262 141.929C62.4327 138.596 60.5152 132.709 61.4045 127.349C62.3076 121.989 65.7675 117.254 70.2416 114.171C72.312 112.755 74.8825 111.63 77.3003 112.338C79.5512 113.005 81.1214 115.185 81.5799 117.49C82.0384 119.795 81.5382 122.183 80.774 124.405C78.1479 132.014 74.2017 138.902 66.7262 141.929Z" fill="#455A64"/>
<path d="M59.6824 154.926C51.2204 147.206 38.8678 143.984 27.7102 146.567C24.8618 147.219 21.6659 148.719 21.1935 151.607C20.7211 154.496 23.3055 156.94 25.8344 158.398C36.3529 164.493 50.6091 163.341 60.0159 155.648" fill="#455A64"/>
<path d="M18.9002 94.7446C23.5967 93.4533 28.7378 94.6197 32.8924 97.1469C37.047 99.6741 40.2984 103.479 42.8967 107.589C47.9267 115.532 49.7053 126.224 49.9276 135.625C39.4786 135.208 30.5581 127.001 26.2923 122.544C19.5394 115.532 11.6193 98.7299 18.9002 94.7446Z" fill="#455A64"/>
<path d="M75.4802 169.132C74.8688 168.021 73.8683 167.243 72.8679 165.202C70.9087 161.134 68.2687 155.329 66.9904 148.442C65.712 141.541 66.5735 135.014 68.2965 130.765C69.1302 128.627 70.075 127.002 70.8254 125.975C71.5757 124.933 72.0759 124.433 72.1176 124.461C72.2982 124.572 70.4502 126.766 69.0051 131.015C67.5184 135.223 66.7958 141.527 68.0325 148.261C69.283 154.996 71.7702 160.759 73.5627 164.897" fill="#263238"/>
<path d="M75.5774 169.256C74.174 167.451 72.3537 165.09 70.1305 162.244C65.5591 156.315 59.2091 148.136 52.081 139.193C44.9529 130.265 38.3945 122.253 33.6286 116.476C31.3498 113.685 29.4462 111.38 28.0011 109.616C26.695 107.978 26.0002 107.048 26.0558 107.006C26.1114 106.964 26.9173 107.797 28.3346 109.339C29.7519 110.88 31.7666 113.157 34.2122 115.99C39.131 121.655 45.7866 129.598 52.9147 138.541C60.0428 147.497 66.3094 155.745 70.728 161.8C72.9373 164.827 74.7159 167.284 75.8969 169.02" fill="#263238"/>
<path d="M34.2263 152.732C34.2124 152.663 34.8516 152.468 36.0326 152.177C36.6301 152.024 37.3527 151.857 38.2141 151.76C39.0756 151.649 40.0483 151.468 41.146 151.441C43.3275 151.274 45.9397 151.357 48.816 151.732C51.6783 152.163 54.7908 152.913 57.931 154.107C61.0435 155.343 63.8503 156.898 66.2541 158.509C68.6301 160.175 70.6171 161.883 72.1039 163.48C72.8959 164.23 73.4934 165.035 74.0492 165.688C74.6189 166.34 75.0496 166.951 75.3831 167.465C76.0639 168.479 75.9667 168.951 75.9111 168.992C75.7443 169.117 74.6744 166.979 71.5898 163.994C70.0613 162.494 68.0604 160.883 65.7122 159.3C63.3362 157.773 60.585 156.273 57.5559 155.079C54.499 153.912 51.4699 153.163 48.6909 152.69C45.898 152.274 43.3414 152.107 41.1877 152.177C36.8941 152.302 34.268 152.94 34.2263 152.732Z" fill="#263238"/>
<path d="M112.118 175.919C140.521 175.919 163.546 153.923 163.546 126.789C163.546 99.6561 140.521 77.6602 112.118 77.6602C83.7157 77.6602 60.6909 99.6561 60.6909 126.789C60.6909 153.923 83.7157 175.919 112.118 175.919Z" fill="#E0E0E0"/>
<path d="M101.641 8.35547C93.4792 8.78371 90.2836 17.301 89.2975 19.2044C88.3234 21.1077 88.169 23.3084 87.9908 25.4377C87.8126 27.567 87.5631 29.7796 86.4226 31.5878C84.6288 34.4546 80.8511 35.9416 79.8294 39.1653C78.6652 42.8173 81.647 46.7191 80.8511 50.4663C80.4234 52.4766 78.9622 54.1301 78.4395 56.1167C77.893 58.1985 78.4632 60.4349 79.5443 62.2906C82.2291 66.8942 87.7769 69.2139 93.099 69.4042C98.4212 69.5946 103.624 68.0005 108.721 66.4184" fill="#263238"/>
<path d="M137.541 18.9307C136.745 20.6555 137.494 22.7611 138.753 24.2005C140 25.6398 141.687 26.6034 143.172 27.8049C144.657 28.9944 146.011 30.5766 146.19 32.468C146.344 34.2048 145.477 35.9415 145.714 37.6664C146.32 42.1154 153.413 43.4596 153.793 47.9324C154.042 50.9182 150.989 53.6542 151.833 56.5211C152.153 57.6155 153.009 58.472 153.603 59.4593C155.61 62.802 154.256 67.4176 151.334 70.0108C148.423 72.6041 144.36 73.5201 140.464 73.6985C137.185 73.8412 133.466 73.3059 131.53 70.6532C129.76 68.2265 130.128 64.9076 130.485 61.9217C132.136 47.98 131.851 33.8955 131.566 19.8585" fill="#263238"/>
<path d="M103.779 83.4538C103.838 76.126 103.767 68.4176 103.767 68.4176C103.767 68.4176 94.358 66.7403 92.5523 54.4045C90.8298 42.6396 93.7522 17.3493 93.7522 17.3493C107.378 11.9725 122.715 14.0542 132.254 25.034L130.769 84.5125C130.603 91.412 124.533 96.7651 117.155 96.5272C109.719 96.2773 103.719 90.4247 103.779 83.4538Z" fill="#FFBE9D"/>
<path d="M96.33 36.7753C96.2943 37.608 96.9596 38.3336 97.8268 38.3812C98.694 38.4407 99.4306 37.8102 99.4662 36.9775C99.5019 36.1448 98.8366 35.4191 97.9694 35.3716C97.1022 35.3121 96.3656 35.9426 96.33 36.7753Z" fill="#263238"/>
<path d="M93.7877 35.5499C93.9777 35.764 95.1895 34.8837 96.8764 34.9075C100.072 35.3715 100.013 35.8592 99.9889 35.5856C100.084 35.4904 99.882 35.1217 99.3474 34.7172C98.8128 34.3128 97.9099 33.9202 96.8526 33.9202C95.7953 33.9083 94.9044 34.289 94.3817 34.6815C93.8708 35.086 93.6926 35.4547 93.7877 35.5499Z" fill="#263238"/>
<path d="M113.686 37.2743C113.65 38.107 114.316 38.8326 115.183 38.8802C116.05 38.9397 116.787 38.3092 116.822 37.4765C116.858 36.6438 116.193 35.9182 115.325 35.8706C114.458 35.8111 113.722 36.4416 113.686 37.2743Z" fill="#263238"/>
<path d="M111.488 36.1446C111.678 36.3469 112.89 35.4785 114.577 35.5023C116.276 35.5023 117.511 36.3944 117.69 36.1803C117.785 36.0852 117.583 35.7164 117.048 35.3119C116.513 34.9075 115.611 34.5149 114.553 34.5149C113.496 34.503 112.605 34.8837 112.082 35.2762C111.572 35.6807 111.393 36.0495 111.488 36.1446Z" fill="#263238"/>
<path d="M105.18 48.3257C105.192 48.2305 104.135 48.0402 102.436 47.7904C102.008 47.7428 101.593 47.6476 101.521 47.3502C101.426 47.0409 101.604 46.5651 101.83 46.0655C102.246 45.0187 102.686 43.9243 103.149 42.7823C104.978 38.0954 106.309 34.253 106.131 34.1817C105.941 34.1103 104.301 37.8455 102.472 42.5325C102.032 43.6863 101.604 44.7926 101.201 45.8395C101.034 46.3272 100.737 46.8863 100.951 47.5405C101.058 47.8617 101.379 48.0996 101.652 48.1829C101.925 48.2662 102.175 48.2781 102.389 48.29C104.111 48.397 105.168 48.4208 105.18 48.3257Z" fill="#263238"/>
<path d="M103.779 68.4171C103.779 68.4171 112.047 69.0476 120.292 64.2061C120.292 64.2061 116.205 72.6163 103.909 71.3197L103.779 68.4171Z" fill="#EB996E"/>
<path d="M105.846 52.4299C106.463 51.6329 107.544 51.1928 108.602 51.3236C109.338 51.4069 110.075 51.7756 110.514 52.3823C110.954 52.989 111.037 53.8455 110.621 54.4046C110.158 55.047 109.196 55.1778 108.388 54.9399C107.58 54.702 106.891 54.1548 106.238 53.6195C106.059 53.4648 105.869 53.3102 105.762 53.108C105.656 52.9057 105.632 52.644 105.774 52.4775" fill="#EB996E"/>
<path d="M110.158 49.5632C109.885 49.5394 109.861 51.3833 108.269 52.6799C106.678 53.9765 104.717 53.7505 104.705 54.0003C104.682 54.1193 105.133 54.3691 105.965 54.3929C106.773 54.4286 107.972 54.1788 108.947 53.3936C109.921 52.5966 110.348 51.5379 110.42 50.7766C110.491 50.0034 110.289 49.5513 110.158 49.5632Z" fill="#263238"/>
<path d="M126.932 16.2429C122.43 22.6666 110.527 29.2687 101.997 30.8032C102.995 29.4947 108.234 26.2591 109.232 24.9506C105.371 27.8412 99.8348 31.7073 94.7028 31.969C94.0969 32.0047 93.4435 32.0047 92.9446 31.6954C92.2674 31.2791 92.1249 30.4702 92.0536 29.7564C91.721 26.7468 91.9348 21.5841 92.41 18.5982C92.8852 15.6124 94.2632 12.6385 96.8411 10.64C100.132 8.09433 104.824 7.47576 109.255 7.36869C112.974 7.27353 116.799 7.49955 120.197 8.84376C123.594 10.188 126.493 12.8407 126.992 16.0288" fill="#263238"/>
<path d="M139.834 45.0185C140.452 41.8305 140.951 38.8089 141.057 36.7867C141.414 30.4463 139.584 6.99983 117.714 8.87935L116.835 15.5528C116.835 15.5528 113.449 38.3807 127.598 38.5591C127.598 38.5591 128.382 45.3635 134.785 51.9775C134.785 51.9775 138.503 51.8585 139.834 45.0185Z" fill="#263238"/>
<path d="M127.598 38.559C128.916 38.3211 130.306 38.3687 131.554 38.8564C132.801 39.3441 133.894 40.2839 134.417 41.521C134.939 42.7582 134.88 44.1975 134.405 45.4585C133.929 46.7194 133.098 47.8138 132.124 48.7417C131.435 49.4079 130.639 50.0264 129.724 50.3C128.797 50.5736 127.716 50.4785 126.992 49.848" fill="#FFBE9D"/>
<path d="M128.239 46.5408C128.085 46.5884 128.655 47.3854 129.855 47.0761C130.437 46.9334 131.007 46.4219 131.352 45.7914C131.708 45.149 131.934 44.4472 132.029 43.6145C132.124 42.7937 131.946 41.9134 131.494 41.2948C131.067 40.6525 130.366 40.2718 129.784 40.248C128.548 40.2004 128.156 41.0569 128.299 41.0807C128.394 41.1878 128.881 40.7476 129.688 40.9499C130.461 41.1045 131.209 42.1751 131.031 43.5074C130.865 44.8635 130.33 46.0888 129.605 46.3981C128.857 46.7906 128.322 46.4338 128.239 46.5408Z" fill="#EB996E"/>
<path d="M129.986 13.8396C131.661 14.7913 133.716 15.0649 135.569 14.5772C137.434 14.0894 139.085 12.8404 140.072 11.1869C140.713 10.1163 141.069 8.81965 140.761 7.61818C140.333 5.96468 138.729 4.85838 137.09 4.43013C134.702 3.81156 131.993 4.40634 130.188 6.08364C128.382 7.77283 127.61 10.5207 128.406 12.8642C129.202 15.1957 131.613 16.9206 134.084 16.7898" fill="#263238"/>
<path d="M131.981 49.3481C130.769 50.2284 129.534 51.1206 128.584 52.2864C127.633 53.4522 126.98 54.9272 127.11 56.4261C127.194 57.2588 127.502 58.0915 127.384 58.9242C127.217 60.0662 126.279 60.9108 125.661 61.8981C124.057 64.42 124.746 67.9649 126.778 70.1656C128.797 72.3663 131.874 73.3537 134.856 73.4607C136.59 73.5202 138.408 73.2704 139.822 72.2831C141.865 70.8437 142.649 68.1672 142.709 65.6572" fill="#263238"/>
<path d="M133.466 18.7526C133.525 18.7882 133.098 19.6804 132.183 21.0008C131.268 22.3094 129.831 24.0224 127.966 25.6164C126.101 27.2104 124.212 28.3881 122.774 29.0899C121.337 29.8037 120.386 30.1011 120.363 30.0297C120.268 29.8512 123.927 28.3048 127.562 25.1405C131.233 22.0239 133.3 18.6336 133.466 18.7526Z" fill="#455A64"/>
<path d="M135.735 18.6334C135.807 18.6453 135.759 19.811 135.331 21.6311C134.904 23.4511 134.025 25.9373 132.552 28.3997C131.067 30.8622 129.297 32.8012 127.883 34.0264C126.469 35.2636 125.459 35.8465 125.424 35.787C125.281 35.6323 129.142 32.9439 132.029 28.0786C134.975 23.2489 135.533 18.5739 135.735 18.6334Z" fill="#455A64"/>
<path d="M88.252 28.543C88.4302 28.5311 88.6678 30.5891 89.3805 33.0277C90.0696 35.4663 90.9724 37.3339 90.818 37.4172C90.6873 37.5005 89.5112 35.7161 88.7866 33.1942C88.05 30.6842 88.0856 28.543 88.252 28.543Z" fill="#455A64"/>
<path d="M140.642 70.6295C140.677 70.5582 141.188 71.1886 142.448 71.2124C143.053 71.2124 143.826 71.0459 144.538 70.5463C145.251 70.0704 145.833 69.202 146.118 68.1433C146.403 67.0846 146.415 65.8356 146.142 64.5627C145.881 63.2661 145.382 61.9338 144.942 60.4825C144.515 59.0312 144.134 57.4015 144.42 55.6885C144.693 53.9399 145.821 52.5362 146.368 50.9659C146.926 49.4076 146.7 47.6708 146.011 46.2671C145.311 44.8515 144.123 43.8166 142.756 43.2813C142.079 42.9958 141.366 42.746 140.713 42.3891C140.06 42.0442 139.454 41.5564 139.086 40.926C138.325 39.6769 138.349 38.3089 138.349 37.1788C138.373 36.0249 138.432 35.0138 138.23 34.1573C138.04 33.2889 137.719 32.5871 137.339 32.1112C136.543 31.1358 135.7 31.1953 135.735 31.1239C135.735 31.112 135.914 31.0882 136.258 31.1596C136.591 31.231 137.078 31.457 137.529 31.9566C137.969 32.4443 138.349 33.1819 138.575 34.0859C138.824 34.99 138.789 36.0725 138.8 37.1907C138.824 38.3089 138.848 39.5936 139.525 40.6524C140.19 41.7468 141.568 42.1988 142.982 42.7579C144.431 43.2932 145.809 44.459 146.558 45.9935C147.318 47.5162 147.58 49.4195 146.95 51.1682C146.332 52.8692 145.251 54.2373 145.014 55.7837C144.752 57.3301 145.085 58.8885 145.489 60.316C145.904 61.7434 146.392 63.1115 146.641 64.4557C146.902 65.7999 146.879 67.1203 146.534 68.2623C146.201 69.3924 145.536 70.3202 144.717 70.8318C143.909 71.3433 143.077 71.486 142.424 71.4503C141.758 71.4146 141.283 71.1767 140.998 70.9864C140.737 70.7961 140.642 70.6295 140.642 70.6295Z" fill="#455A64"/>
<path d="M132.065 69.7976C132.124 69.7619 132.219 70.1782 132.801 70.4399C133.324 70.6898 134.476 70.7017 135.106 69.8095C135.748 68.9054 135.653 67.3946 134.916 66.0861C134.239 64.7419 132.896 63.4215 132.552 61.4587C132.374 60.507 132.599 59.4245 133.217 58.7108C133.799 57.997 134.476 57.5093 134.928 56.9264C135.819 55.7369 135.902 54.2499 135.759 53.1317C135.605 51.9778 135.272 51.0618 135.082 50.4314C134.868 49.8009 134.762 49.444 134.809 49.4202C134.845 49.4083 135.023 49.7295 135.308 50.3362C135.581 50.9429 135.973 51.847 136.199 53.0603C136.401 54.238 136.401 55.8677 135.391 57.2714C134.88 57.9495 134.191 58.461 133.704 59.0796C133.193 59.6862 133.027 60.507 133.182 61.3516C133.467 63.0646 134.726 64.3612 135.439 65.8125C136.211 67.24 136.306 68.9887 135.474 70.0593C135.07 70.6065 134.465 70.8325 133.966 70.8801C133.455 70.9277 133.015 70.8206 132.706 70.6422C132.053 70.2615 132.041 69.7738 132.065 69.7976Z" fill="#455A64"/>
<path d="M85.4965 66.6924C85.4608 66.7162 85.1163 66.3831 84.5342 65.7288C83.964 65.0627 83.0968 64.0872 82.4672 62.6003C82.1464 61.8627 81.9444 60.9705 81.9682 60.007C81.992 59.0553 82.2771 57.9728 83.0136 57.1282C83.7502 56.2717 84.8193 55.8316 85.4608 55.0346C86.1261 54.2376 86.2093 53.0837 85.9479 51.9774C85.6866 50.8473 85.1757 49.8362 84.6411 48.8369C84.1303 47.8258 83.6551 46.8028 83.4888 45.7202C83.2987 44.6496 83.5363 43.5195 84.1065 42.7225C84.653 41.9136 85.342 41.3545 85.9123 40.8311C87.1121 39.8438 87.7893 38.7732 87.9437 37.9286C88.11 37.0959 87.8249 36.6319 87.8962 36.62C87.9081 36.6081 87.9912 36.7152 88.0744 36.9293C88.1575 37.1434 88.2407 37.5122 88.1813 37.9642C88.0981 38.8802 87.3972 40.1055 86.2093 41.1523C85.6509 41.6995 84.9975 42.2586 84.5342 42.9961C84.059 43.7218 83.8808 44.6615 84.059 45.6251C84.2253 46.6005 84.6768 47.576 85.1876 48.5633C85.7103 49.5388 86.2805 50.6332 86.5538 51.8465C86.8389 53.0361 86.7557 54.4517 85.9241 55.4271C85.1163 56.3788 84.059 56.7952 83.4294 57.5208C82.7879 58.2345 82.5028 59.1743 82.4672 60.0427C82.4196 60.923 82.5859 61.7438 82.8592 62.4575C83.4056 63.885 84.2016 64.8961 84.7124 65.598C85.247 66.2641 85.5321 66.6567 85.4965 66.6924Z" fill="#455A64"/>
<path d="M135.047 15.3978C134.881 15.481 134.049 13.661 132.148 12.2454C130.271 10.7941 128.299 10.4967 128.335 10.3064C128.311 10.1518 130.485 10.1874 132.528 11.7458C134.572 13.2922 135.201 15.374 135.047 15.3978Z" fill="#B2CAF2"/>
<path d="M136.757 4.00191C136.816 3.96623 137.22 4.43016 137.541 5.34613C137.862 6.2621 138.052 7.6539 137.648 9.11707C137.244 10.5802 136.365 11.6865 135.628 12.3051C134.88 12.9356 134.298 13.1259 134.262 13.0664C134.214 12.9832 134.702 12.662 135.319 11.9958C135.949 11.3416 136.685 10.2828 137.054 8.96242C137.422 7.642 137.327 6.35726 137.125 5.47698C136.923 4.5848 136.674 4.0495 136.757 4.00191Z" fill="#455A64"/>
<path opacity="0.3" d="M76.4316 150.343C76.4316 150.343 105.941 178.405 123.487 173.326C141.034 168.246 146.225 155.066 146.225 155.066L146.653 150.343L144.894 149.189L77.3464 143.717L76.4316 150.343Z" fill="black"/>
<path d="M58.9688 124.054L64.6591 109.435L85.0566 122.27L66.8806 150.344C66.8806 150.344 59.4915 140.72 58.9688 124.054Z" fill="#EB996E"/>
<path d="M81.9915 83.6682C91.4834 78.7077 103.779 77.2683 103.779 77.2683C107.343 84.4176 118.593 85.3217 125.4 80.4445L131.138 76.5665C131.138 76.5665 132.029 76.5308 133.538 76.6616C146.962 77.8512 157.962 87.8912 160.695 101.119C161.693 105.937 162.429 111.457 162.132 116.572C161.384 129.562 147.948 130.74 147.948 130.74C147.948 130.74 147.259 143.587 146.344 153.96C145.667 161.716 141.651 167.497 134.595 170.745C129.332 173.16 126.434 174.278 119.615 175.372C102.401 178.132 85.8643 171.589 74.9706 159.896C77.0139 147.512 78.9622 131.489 78.8196 130.775C78.7959 130.621 78.8434 130.537 78.8434 130.537L65.5262 118.701L57.9707 112.349C57.9707 112.349 74.531 87.7246 81.9915 83.6682Z" fill="#B2CAF2"/>
<path d="M98.4922 91.6738C98.4447 91.7927 97.3518 90.7578 95.2016 90.7578C94.1561 90.7578 92.8612 91.0671 91.8039 91.9355C91.2812 92.3637 90.8298 92.9585 90.2952 93.5652C89.7725 94.1481 89.0954 94.8261 88.145 94.9927C87.1827 95.1711 86.3036 94.7547 85.6384 94.3146C84.9494 93.8745 84.3672 93.3986 83.7733 93.0537C82.5972 92.328 81.2666 92.3994 80.2925 92.7444C79.2946 93.0893 78.6412 93.6841 78.2729 94.1481C77.9047 94.612 77.7621 94.9213 77.7146 94.9094C77.6908 94.8975 77.7502 94.5525 78.0829 94.0053C78.4155 93.4819 79.0808 92.7801 80.1499 92.3399C81.1835 91.8998 82.716 91.7689 84.0703 92.554C84.7355 92.9228 85.3295 93.3986 85.9829 93.8031C86.6244 94.2075 87.3372 94.5168 88.0618 94.386C88.7865 94.2551 89.3686 93.7198 89.8794 93.1607C90.4021 92.5897 90.8773 91.9712 91.4832 91.4953C92.6949 90.5437 94.1205 90.2701 95.2491 90.3177C96.3895 90.3652 97.2567 90.7221 97.7913 91.0433C98.2903 91.3883 98.516 91.65 98.4922 91.6738Z" fill="#FAFAFA"/>
<path d="M112.035 109.434C111.952 109.529 111.251 108.209 109.208 107.519C108.222 107.186 106.903 107.067 105.608 107.555C104.967 107.792 104.349 108.209 103.66 108.613C102.983 109.006 102.128 109.422 101.165 109.279C100.203 109.149 99.4902 108.459 99.0032 107.84C98.4923 107.21 98.0884 106.567 97.637 106.044C96.7579 104.985 95.463 104.616 94.4295 104.64C93.3722 104.652 92.5643 105.009 92.0654 105.318C91.5664 105.639 91.3289 105.889 91.2932 105.853C91.2695 105.842 91.4358 105.52 91.9228 105.116C92.4099 104.723 93.2653 104.271 94.4057 104.2C95.5224 104.117 97.0192 104.474 98.0528 105.663C98.5636 106.222 98.9794 106.865 99.4665 107.459C99.9417 108.042 100.524 108.578 101.248 108.673C101.973 108.78 102.698 108.459 103.363 108.09C104.04 107.721 104.682 107.281 105.418 107.031C106.879 106.52 108.305 106.71 109.35 107.126C110.408 107.543 111.132 108.149 111.524 108.625C111.928 109.089 112.059 109.422 112.035 109.434Z" fill="#FAFAFA"/>
<path d="M142.103 83.4297C142.08 83.5605 140.797 82.7754 138.694 83.2393C137.672 83.4654 136.472 84.0364 135.629 85.107C135.201 85.6304 134.892 86.3203 134.5 87.0222C134.12 87.7002 133.598 88.5091 132.695 88.8779C131.792 89.2586 130.841 89.0326 130.105 88.7471C129.345 88.4616 128.667 88.1166 128.014 87.9144C126.719 87.4623 125.424 87.8073 124.545 88.3545C123.654 88.9017 123.131 89.6273 122.858 90.1507C122.597 90.6861 122.526 91.0191 122.466 91.0072C122.442 91.0072 122.419 90.6504 122.633 90.0556C122.846 89.4727 123.345 88.64 124.296 87.9857C125.21 87.3434 126.684 86.8794 128.168 87.3672C128.893 87.5813 129.582 87.9263 130.295 88.1761C131.008 88.4378 131.768 88.5924 132.445 88.295C133.122 88.0214 133.586 87.3672 133.966 86.7129C134.358 86.0467 134.69 85.3449 135.178 84.7501C136.164 83.5605 137.494 82.9895 138.599 82.8111C139.716 82.6208 140.654 82.7754 141.236 82.9776C141.842 83.1918 142.115 83.4059 142.103 83.4297Z" fill="#FAFAFA"/>
<path d="M128.228 102.951C128.145 103.034 127.634 101.999 126.089 101.416C125.341 101.131 124.343 101 123.357 101.333C122.87 101.488 122.383 101.797 121.825 102.082C121.278 102.356 120.601 102.665 119.829 102.523C119.057 102.38 118.534 101.809 118.166 101.309C117.797 100.798 117.512 100.286 117.18 99.8818C116.55 99.0491 115.6 98.7279 114.804 98.6922C113.152 98.6446 112.392 99.5725 112.344 99.4654C112.321 99.4416 112.451 99.2037 112.843 98.8944C113.235 98.597 113.913 98.264 114.804 98.2521C115.683 98.2164 116.847 98.5495 117.607 99.513C117.987 99.9651 118.284 100.477 118.641 100.941C118.985 101.404 119.401 101.809 119.936 101.904C121.029 102.094 122.026 101.107 123.167 100.786C124.331 100.441 125.436 100.655 126.232 101.012C127.907 101.773 128.287 102.963 128.228 102.951Z" fill="#FAFAFA"/>
<path d="M97.6247 119.391C97.5415 119.474 97.0307 118.439 95.4863 117.856C94.7379 117.571 93.74 117.44 92.754 117.773C92.2669 117.928 91.7798 118.237 91.2215 118.522C90.675 118.796 89.9979 119.105 89.2257 118.963C88.4535 118.82 87.9308 118.249 87.5625 117.749C87.1943 117.238 86.9091 116.726 86.5765 116.322C85.9469 115.489 84.9965 115.168 84.2006 115.132C82.5612 115.085 81.789 116.012 81.7415 115.905C81.7177 115.882 81.8484 115.644 82.2404 115.334C82.6324 115.037 83.3096 114.704 84.2006 114.692C85.0797 114.656 86.2439 114.989 87.0042 115.953C87.3843 116.405 87.6813 116.916 88.0377 117.38C88.3822 117.844 88.798 118.249 89.3326 118.344C90.4255 118.534 91.4234 117.547 92.5639 117.226C93.7281 116.881 94.8329 117.095 95.6289 117.452C97.3158 118.213 97.6959 119.403 97.6247 119.391Z" fill="#FAFAFA"/>
<path d="M126.231 119.76C126.172 119.867 125.364 119.058 123.713 118.999C122.917 118.975 121.931 119.177 121.099 119.808C120.683 120.117 120.327 120.557 119.887 121.009C119.46 121.449 118.913 121.961 118.141 122.068C117.369 122.175 116.68 121.818 116.181 121.461C115.658 121.092 115.231 120.712 114.779 120.426C113.912 119.843 112.902 119.843 112.154 120.069C110.586 120.557 110.158 121.687 110.075 121.604C110.039 121.592 110.087 121.318 110.36 120.902C110.633 120.498 111.168 119.962 112.011 119.653C112.831 119.332 114.043 119.272 115.076 119.938C115.587 120.248 116.038 120.628 116.514 120.961C116.989 121.295 117.511 121.544 118.046 121.461C119.139 121.283 119.769 120.034 120.743 119.356C121.729 118.654 122.845 118.487 123.725 118.57C125.554 118.749 126.291 119.748 126.231 119.76Z" fill="#FAFAFA"/>
<path d="M116.787 132.821C116.727 132.928 115.92 132.119 114.268 132.059C113.472 132.035 112.486 132.238 111.655 132.868C111.239 133.177 110.883 133.618 110.443 134.07C110.015 134.51 109.469 135.021 108.697 135.128C107.925 135.235 107.236 134.879 106.737 134.522C106.214 134.153 105.786 133.772 105.335 133.487C104.468 132.904 103.458 132.904 102.709 133.13C101.141 133.618 100.714 134.748 100.63 134.664C100.595 134.652 100.642 134.379 100.916 133.963C101.189 133.558 101.723 133.023 102.567 132.713C103.387 132.392 104.598 132.333 105.632 132.999C106.143 133.308 106.594 133.689 107.069 134.022C107.544 134.355 108.067 134.605 108.602 134.522C109.695 134.343 110.324 133.094 111.298 132.416C112.284 131.714 113.401 131.548 114.28 131.631C116.098 131.809 116.846 132.821 116.787 132.821Z" fill="#FAFAFA"/>
<path d="M96.8291 165.249C96.7459 165.332 96.2232 164.309 94.6789 163.75C93.9304 163.476 92.9325 163.357 91.9465 163.702C91.4595 163.869 90.9724 164.178 90.4259 164.476C89.8913 164.761 89.2023 165.07 88.442 164.94C87.6698 164.809 87.1352 164.238 86.767 163.75C86.3868 163.238 86.0898 162.739 85.7572 162.334C85.1157 161.514 84.1534 161.204 83.3694 161.181C81.7181 161.157 80.9815 162.096 80.9221 161.989C80.8984 161.966 81.0291 161.728 81.4092 161.418C81.7894 161.121 82.4665 160.776 83.3694 160.74C84.2366 160.693 85.4127 161.014 86.1967 161.966C86.5888 162.418 86.8976 162.917 87.254 163.381C87.6104 163.845 88.0262 164.238 88.5608 164.333C89.6537 164.511 90.6397 163.512 91.7802 163.167C92.9325 162.798 94.0492 163.001 94.857 163.346C96.4965 164.083 96.8885 165.261 96.8291 165.249Z" fill="#FAFAFA"/>
<path d="M120.172 172.148C120.113 172.255 119.317 171.435 117.666 171.351C116.87 171.316 115.872 171.494 115.04 172.125C114.624 172.422 114.256 172.862 113.817 173.314C113.389 173.742 112.831 174.242 112.058 174.349C111.286 174.456 110.597 174.075 110.11 173.707C109.599 173.338 109.172 172.945 108.732 172.648C107.877 172.053 106.867 172.041 106.107 172.255C104.527 172.719 104.099 173.849 104.004 173.754C103.968 173.742 104.028 173.469 104.301 173.064C104.574 172.66 105.121 172.136 105.964 171.839C106.784 171.53 107.996 171.494 109.029 172.16C109.528 172.47 109.979 172.862 110.455 173.195C110.93 173.528 111.453 173.79 111.987 173.719C113.08 173.564 113.733 172.315 114.719 171.649C115.717 170.959 116.834 170.816 117.701 170.911C119.507 171.137 120.244 172.148 120.172 172.148Z" fill="#FAFAFA"/>
<path d="M43.2397 73.7705C43.9644 74.627 70.076 109.588 70.076 109.588L66.3933 111.67L39.6045 77.1608L43.2397 73.7705Z" fill="#263238"/>
<path d="M145.191 98.7281C145.191 98.7281 120.695 141.029 119.032 141.814C115.765 143.349 78.1777 110.814 74.59 107.709C74.0911 107.043 73.0813 105.651 71.0736 102.88C71.0736 102.88 68.1037 89.2948 64.9437 90.3297C61.7837 91.3765 66.6781 97.2411 64.6111 102.404C62.544 107.567 53.1115 95.2545 52.7313 94.1482L50.296 90.9602C50.296 90.9602 47.7418 98.2047 47.92 101.238C48.4784 110.933 57.6377 122.46 57.6377 122.46C57.6377 122.46 94.8568 169.163 123.047 170.757C131.161 171.209 146.664 147.81 156.311 130.525C162.132 120.081 159.435 109.47 149.777 102.428L145.191 98.7281Z" fill="#FFBE9D"/>
<path d="M52.5535 102.951C52.4704 102.999 51.4368 101.524 50.4627 99.5251C49.4767 97.5385 48.9183 95.8136 49.0134 95.7779C49.1084 95.7422 49.8212 97.3838 50.7953 99.3585C51.7695 101.333 52.6486 102.892 52.5535 102.951Z" fill="#EB996E"/>
<path d="M144.039 86.9629C143.077 87.5458 120.292 129.894 120.292 129.894L149.611 152.889C149.611 152.889 157.237 134.07 161.265 118.772C162.358 114.62 161.799 103.522 160.255 99.2393C158.069 93.1606 154.766 94.6713 149.813 91.1145L144.039 86.9629Z" fill="#B2CAF2"/>
<g opacity="0.7">
<path opacity="0.7" d="M153.673 86.9637C153.661 86.9875 153.388 86.7971 152.842 86.5235C152.307 86.2499 151.416 85.9169 150.264 85.9763C149.112 86.012 147.745 86.5711 146.439 87.5704C145.12 88.5696 143.837 89.9852 142.625 91.6863C141.39 93.3755 140.368 95.4453 139.109 97.5865C137.885 99.7516 136.567 102.047 135.188 104.474C132.42 109.328 129.367 114.645 126.172 120.236C124.223 123.626 122.335 126.921 120.553 130.026L120.481 129.645C128.429 135.926 135.343 141.398 140.321 145.348C142.732 147.287 144.68 148.857 146.082 149.975C146.712 150.499 147.223 150.915 147.603 151.236C147.947 151.534 148.125 151.688 148.114 151.7C148.102 151.712 147.912 151.581 147.543 151.319C147.139 151.022 146.617 150.629 145.951 150.142C144.526 149.059 142.542 147.537 140.083 145.657C135.07 141.755 128.108 136.343 120.113 130.133L119.911 129.979L120.042 129.753C121.812 126.648 123.701 123.353 125.649 119.962C128.857 114.383 131.91 109.066 134.701 104.224C136.091 101.81 137.422 99.5136 138.669 97.3605C139.928 95.2312 140.998 93.1494 142.281 91.4484C143.54 89.7354 144.87 88.3079 146.248 87.3086C147.615 86.3094 149.052 85.7503 150.276 85.7503C151.487 85.7146 152.39 86.1072 152.925 86.4284C153.21 86.5711 153.388 86.7377 153.519 86.8209C153.614 86.8923 153.673 86.9518 153.673 86.9637Z" fill="black"/>
</g>
<path d="M144.918 126.671C144.835 126.754 144.324 125.719 142.78 125.137C142.031 124.851 141.033 124.72 140.047 125.053C139.56 125.208 139.073 125.517 138.515 125.803C137.968 126.076 137.291 126.386 136.519 126.243C135.747 126.1 135.224 125.529 134.856 125.029C134.488 124.518 134.203 124.006 133.87 123.602C133.24 122.769 132.29 122.448 131.494 122.412C129.855 122.365 129.082 123.293 129.035 123.186C129.011 123.162 129.142 122.924 129.534 122.615C129.926 122.317 130.603 121.984 131.494 121.972C132.373 121.937 133.537 122.27 134.298 123.233C134.678 123.685 134.975 124.197 135.331 124.661C135.676 125.125 136.091 125.529 136.626 125.624C137.719 125.815 138.717 124.827 139.857 124.506C141.022 124.161 142.126 124.375 142.922 124.732C144.597 125.493 144.978 126.683 144.918 126.671Z" fill="#FAFAFA"/>
<path d="M158.318 121.186C158.211 121.246 157.998 120.116 156.679 119.14C156.037 118.664 155.111 118.272 154.065 118.32C153.555 118.343 152.996 118.498 152.39 118.629C151.796 118.748 151.048 118.855 150.347 118.51C149.646 118.165 149.29 117.475 149.076 116.892C148.85 116.297 148.72 115.726 148.506 115.25C148.126 114.275 147.294 113.704 146.546 113.466C144.977 112.978 143.991 113.668 143.968 113.549C143.944 113.526 144.146 113.323 144.597 113.133C145.049 112.955 145.785 112.824 146.664 113.038C147.52 113.24 148.553 113.882 149.028 115.013C149.278 115.548 149.42 116.131 149.634 116.666C149.836 117.213 150.133 117.713 150.62 117.951C151.618 118.427 152.854 117.749 154.042 117.749C155.253 117.725 156.263 118.236 156.94 118.795C158.33 119.973 158.378 121.222 158.318 121.186Z" fill="#FAFAFA"/>
<path d="M159.007 103.688C158.9 103.748 158.687 102.618 157.368 101.642C156.726 101.166 155.8 100.774 154.754 100.821C154.244 100.845 153.685 101 153.079 101.131C152.485 101.25 151.737 101.357 151.036 101.012C150.335 100.667 149.979 99.9769 149.765 99.394C149.539 98.7992 149.409 98.2282 149.195 97.7524C148.815 96.7769 147.983 96.2059 147.235 95.968C145.666 95.4803 144.68 96.1702 144.657 96.0513C144.633 96.0275 144.835 95.8253 145.286 95.6349C145.738 95.4565 146.474 95.3256 147.353 95.5398C148.209 95.742 149.242 96.3844 149.717 97.5145C149.967 98.0498 150.109 98.6327 150.323 99.168C150.525 99.7152 150.822 100.215 151.309 100.453C152.307 100.929 153.543 100.25 154.731 100.25C155.942 100.227 156.952 100.738 157.629 101.297C159.019 102.463 159.067 103.712 159.007 103.688Z" fill="#FAFAFA"/>
<path d="M152.522 143.932C152.415 143.992 152.201 142.862 150.882 141.886C150.241 141.411 149.314 141.018 148.269 141.066C147.758 141.089 147.199 141.244 146.594 141.375C146 141.494 145.251 141.601 144.55 141.256C143.849 140.911 143.493 140.221 143.279 139.638C143.053 139.043 142.923 138.472 142.709 137.997C142.329 137.021 141.497 136.45 140.749 136.212C139.181 135.724 138.195 136.414 138.171 136.295C138.147 136.272 138.349 136.069 138.8 135.879C139.252 135.701 139.988 135.57 140.868 135.784C141.723 135.986 142.756 136.629 143.232 137.759C143.481 138.294 143.624 138.877 143.837 139.412C144.039 139.959 144.336 140.459 144.823 140.697C145.821 141.173 147.057 140.495 148.245 140.495C149.457 140.471 150.466 140.982 151.143 141.541C152.533 142.707 152.581 143.956 152.522 143.932Z" fill="#FAFAFA"/>
</svg>
