<svg width="482" height="479" viewBox="0 0 482 479" fill="none" xmlns="http://www.w3.org/2000/svg">
<g opacity="0.5">
<g style="mix-blend-mode:screen">
<path d="M339.67 255.868C339.771 254.196 339.846 253.56 339.897 253.128C340.004 252.231 340.005 252.221 339.912 245.645C339.902 245.094 339.906 244.508 339.911 243.897C339.94 240.146 339.976 235.477 336.769 232.418L339.67 255.868ZM339.67 255.868C339.601 257.111 339.152 262.636 338.772 266.366M339.67 255.868L337.184 273.066M338.772 266.366C338.599 267.989 337.702 271.512 337.184 273.066M338.772 266.366L338.275 266.316M338.772 266.366L338.275 266.313C338.275 266.314 338.275 266.315 338.275 266.316M337.184 273.066C332.177 289.297 298.752 320.206 267.814 324.799M337.184 273.066L267.814 324.799M338.275 266.316C338.107 267.889 337.222 271.371 336.709 272.908L336.706 272.919C335.482 276.886 332.501 281.803 328.197 287.033C323.9 292.256 318.311 297.761 311.91 302.907C299.098 313.207 283.089 322.026 267.74 324.305L267.736 324.305C264.448 324.819 261.706 325.025 257.396 325.267M338.275 266.316C338.654 262.589 339.102 257.072 339.171 255.84L339.171 255.837C339.249 254.545 339.312 253.863 339.361 253.415C339.377 253.272 339.39 253.156 339.402 253.055C339.429 252.831 339.447 252.678 339.46 252.451C339.497 251.779 339.481 250.537 339.412 245.652L257.396 325.267M257.396 325.267C255.988 325.336 254.615 325.37 253.208 325.37C251.8 325.37 250.392 325.336 249.02 325.267L249.016 325.267C198.054 323.136 157.013 284.134 154.883 233.192L154.883 233.188C154.814 231.78 154.78 230.407 154.78 228.999C154.78 227.592 154.814 226.184 154.883 224.776L154.883 224.773C157.013 173.817 197.93 132.894 248.878 130.764L248.882 130.764C250.254 130.695 251.662 130.661 253.069 130.661C254.477 130.661 255.885 130.695 257.257 130.764L257.286 130.765L257.314 130.763C291.589 128.536 318.278 100.068 318.244 65.6834C318.243 29.6637 289.049 0.5 253.069 0.5C217.716 0.5 188.939 28.6199 187.896 63.7351L187.895 63.7581L187.896 63.7811C187.93 64.3152 187.93 64.9206 187.93 65.4767C187.93 66.1701 187.93 66.8473 187.896 67.488L187.896 67.496L187.895 67.5041C186.83 120.211 144.336 162.713 91.6383 163.781C91.3096 163.781 90.9736 163.79 90.6409 163.798L90.6248 163.798C90.283 163.807 89.9439 163.816 89.6059 163.816C89.0157 163.816 88.4447 163.815 87.9106 163.782L87.8879 163.781L87.8651 163.781C52.7549 164.791 24.6045 193.572 24.6045 228.93C24.6045 263.384 51.3629 291.643 85.2554 293.975L85.2842 293.977L85.313 293.976C86.7897 293.907 88.3012 293.873 89.8476 293.873C91.3592 293.873 92.8364 293.907 94.3483 293.976L94.3487 293.976C145.09 296.243 185.801 336.96 188.034 387.709L188.035 387.722C188.137 389.187 188.137 390.689 188.137 392.177V392.18V392.183V392.186V392.189V392.192V392.195V392.198V392.201V392.204V392.207V392.21V392.213V392.216V392.219V392.222V392.225V392.229V392.232V392.235V392.238V392.241V392.244V392.247V392.25V392.253V392.256V392.259V392.262V392.265V392.268V392.271V392.274V392.277V392.28V392.283V392.286V392.289V392.292V392.295V392.298V392.301V392.304V392.307V392.31V392.314V392.317V392.32V392.323V392.326V392.329V392.332V392.335V392.338V392.341V392.344V392.347V392.35V392.353V392.356V392.359V392.362V392.365V392.368V392.371V392.374V392.377V392.38V392.383V392.386V392.389V392.392V392.395V392.398V392.401V392.404V392.408V392.411V392.414V392.417V392.42V392.423V392.426V392.429V392.432V392.435V392.438V392.441V392.444V392.447V392.45V392.453V392.456V392.459V392.462V392.465V392.468V392.471V392.474V392.477V392.48V392.483V392.486V392.489V392.492V392.495V392.498V392.501V392.504V392.507V392.51V392.514V392.517V392.52V392.523V392.526V392.529V392.532V392.535V392.538V392.541V392.544V392.547V392.55V392.553V392.556V392.559V392.562V392.565V392.568V392.571V392.574V392.577V392.58V392.583V392.586V392.589V392.592V392.595V392.598V392.601V392.604V392.607V392.61V392.613V392.616V392.619V392.622V392.625V392.628V392.631V392.634V392.637V392.64V392.643V392.646V392.649V392.652V392.655V392.659V392.662V392.665V392.668V392.671V392.674V392.677V392.68V392.683V392.686V392.689V392.692V392.695V392.698V392.701V392.704V392.707V392.71V392.713V392.716V392.719V392.722V392.725V392.728V392.731V392.734V392.737V392.74V392.743V392.746V392.749V392.752V392.755V392.758V392.761V392.764V392.767V392.77V392.773V392.776V392.779V392.782V392.785V392.788V392.791V392.794V392.797V392.8V392.803V392.806V392.809V392.812V392.815V392.818V392.821V392.824V392.827V392.83V392.833V392.836V392.839V392.842V392.845V392.848V392.851V392.854V392.857V392.86V392.863V392.866V392.869V392.872V392.875V392.878V392.881V392.884V392.887V392.89V392.893V392.896V392.899V392.902V392.905V392.908V392.911V392.914V392.917V392.92V392.923V392.926V392.929V392.932V392.935V392.938V392.941V392.944V392.947V392.95V392.953V392.956V392.959V392.962V392.965V392.968V392.971V392.974V392.977V392.979V392.982V392.985V392.988V392.991V392.994V392.997V393V393.003V393.006V393.009V393.012V393.015V393.018V393.021V393.024V393.027V393.03V393.033V393.036V393.039V393.042V393.045V393.048V393.051V393.054V393.057V393.06V393.063V393.066V393.069V393.072V393.075V393.078V393.081V393.084V393.086V393.089V393.092V393.095V393.098V393.101V393.104V393.107V393.11V393.113V393.116V393.119V393.122V393.125V393.128V393.131V393.134V393.137V393.14V393.143V393.146V393.149V393.152V393.155V393.158V393.16V393.163V393.166V393.169V393.172V393.175V393.178V393.181V393.184V393.187V393.19V393.193V393.196V393.199V393.202V393.205V393.208V393.211V393.214V393.216V393.219V393.222V393.225V393.228V393.231V393.234V393.237V393.24V393.243V393.246V393.249V393.252V393.255V393.258V393.261V393.263V393.266V393.269V393.272V393.275V393.278V393.281V393.284V393.287V393.29V393.293V393.296V393.299V393.302V393.305V393.307V393.31V393.313V393.316V393.319V393.322V393.325V393.328V393.331V393.334V393.337V393.34V393.342V393.345V393.348V393.351V393.354V393.357V393.36V393.363V393.366V393.369V393.372V393.375V393.377V393.38V393.383V393.386V393.389V393.392V393.395V393.398V393.401V393.404V393.407V393.409V393.412V393.415V393.418V393.421V393.424V393.427V393.43V393.433V393.436V393.438V393.441V393.444V393.447V393.45V393.453V393.456V393.459V393.462V393.465V393.467V393.47V393.473V393.476V393.479V393.482V393.485V393.488V393.491V393.493V393.496V393.499V393.502V393.505V393.508V393.511V393.514V393.516V393.519V393.522V393.525V393.528V393.531V393.534V393.537V393.539V393.542V393.545V393.548V393.551V393.554V393.557V393.56V393.562V393.565V393.568V393.571V393.574V393.577V393.58V393.583V393.585V393.588V393.591V393.594V393.597V393.6V393.603V393.605V393.608V393.611V393.614V393.617V393.62V393.623V393.625V393.628V393.631V393.634V393.637V393.64V393.642V393.645V393.648V393.651V393.654V393.657V393.66V393.662V393.665V393.668V393.671V393.674V393.677V393.679V393.682V393.685V393.688V393.69C188.068 396.441 188.207 399.232 188.626 401.991C193.324 433.348 220.395 457.395 253.069 457.395C283.898 457.395 309.716 436.028 316.503 407.283M257.396 325.267L296.756 259.868C295.863 264.335 292.623 268.516 289.36 271.779C286.382 274.758 283.325 277.03 281.865 278.115C281.719 278.224 281.589 278.32 281.477 278.405L281.475 278.405C273.083 284.657 264.062 285.411 253 285.411C237.426 285.411 225.229 278.063 216.939 267.605C208.657 257.157 204.262 243.595 204.262 231.106C204.262 217.852 210.248 205.094 219.09 195.655C227.928 186.22 239.671 180.047 251.239 180.047C263.073 180.047 274.026 183.389 282.723 190.027L282.752 190.048L282.777 190.074C284.309 191.64 285.981 193.04 287.702 194.418C310.947 212.562 344.117 210.302 364.691 189.177L364.692 189.176C366.335 187.499 367.875 185.718 369.313 183.835L369.33 183.813L369.349 183.793C381.599 170.984 398.581 163.816 416.291 163.816C452.305 163.816 481.5 192.979 481.5 228.999C481.5 259.799 460.135 285.657 431.392 292.443L431.391 292.443C427.056 293.457 422.626 293.735 418.247 293.631L418.237 293.63C417.49 293.596 416.742 293.596 415.98 293.596C413.885 293.596 411.72 293.665 409.625 293.802L409.622 293.803C399.833 294.387 390.215 296.482 381.042 299.987L381.042 299.987C351.428 311.257 328.685 336.409 320.749 367.504M257.396 325.267L257.42 325.766M257.396 325.267C257.395 325.267 257.393 325.267 257.392 325.267L257.42 325.766M316.503 407.283C316.503 407.283 316.503 407.283 316.503 407.284L316.017 407.165L316.504 407.28C316.503 407.281 316.503 407.282 316.503 407.283ZM316.503 407.283C317.552 402.979 317.83 398.547 317.726 394.168L317.725 394.157C317.691 393.411 317.691 392.662 317.691 391.901C317.691 389.775 317.794 387.646 317.932 385.544L317.932 385.543C318.31 379.463 319.271 373.45 320.749 367.504M320.749 367.504C320.749 367.504 320.749 367.504 320.749 367.504L320.264 367.381M320.749 367.504C320.749 367.503 320.749 367.502 320.749 367.501L320.264 367.381M320.264 367.381C318.779 373.355 317.813 379.399 317.433 385.512L380.864 299.52C351.099 310.847 328.241 336.127 320.264 367.381ZM257.42 325.766C261.736 325.525 264.499 325.317 267.814 324.799M257.42 325.766C256.004 325.835 254.623 325.87 253.208 325.87C251.792 325.87 250.376 325.835 248.995 325.766C197.787 323.625 156.524 284.428 154.384 233.213L267.814 324.799M94.371 293.476C145.371 295.755 186.289 336.679 188.533 387.687L94.371 293.476Z" fill="url(#paint0_linear)" fill-opacity="0.1"/>
<path d="M339.67 255.868C339.771 254.196 339.846 253.56 339.897 253.128C340.004 252.231 340.005 252.221 339.912 245.645C339.902 245.094 339.906 244.508 339.911 243.897C339.94 240.146 339.976 235.477 336.769 232.418L339.67 255.868ZM339.67 255.868C339.601 257.111 339.152 262.636 338.772 266.366M339.67 255.868L337.184 273.066M338.772 266.366C338.599 267.989 337.702 271.512 337.184 273.066M338.772 266.366L338.275 266.316M338.772 266.366L338.275 266.313C338.275 266.314 338.275 266.315 338.275 266.316M337.184 273.066C332.177 289.297 298.752 320.206 267.814 324.799M337.184 273.066L267.814 324.799M338.275 266.316C338.107 267.889 337.222 271.371 336.709 272.908L336.706 272.919C335.482 276.886 332.501 281.803 328.197 287.033C323.9 292.256 318.311 297.761 311.91 302.907C299.098 313.207 283.089 322.026 267.74 324.305L267.736 324.305C264.448 324.819 261.706 325.025 257.396 325.267M338.275 266.316C338.654 262.589 339.102 257.072 339.171 255.84L339.171 255.837C339.249 254.545 339.312 253.863 339.361 253.415C339.377 253.272 339.39 253.156 339.402 253.055C339.429 252.831 339.447 252.678 339.46 252.451C339.497 251.779 339.481 250.537 339.412 245.652L257.396 325.267M257.396 325.267C255.988 325.336 254.615 325.37 253.208 325.37C251.8 325.37 250.392 325.336 249.02 325.267L249.016 325.267C198.054 323.136 157.013 284.134 154.883 233.192L154.883 233.188C154.814 231.78 154.78 230.407 154.78 228.999C154.78 227.592 154.814 226.184 154.883 224.776L154.883 224.773C157.013 173.817 197.93 132.894 248.878 130.764L248.882 130.764C250.254 130.695 251.662 130.661 253.069 130.661C254.477 130.661 255.885 130.695 257.257 130.764L257.286 130.765L257.314 130.763C291.589 128.536 318.278 100.068 318.244 65.6834C318.243 29.6637 289.049 0.5 253.069 0.5C217.716 0.5 188.939 28.6199 187.896 63.7351L187.895 63.7581L187.896 63.7811C187.93 64.3152 187.93 64.9206 187.93 65.4767C187.93 66.1701 187.93 66.8473 187.896 67.488L187.896 67.496L187.895 67.5041C186.83 120.211 144.336 162.713 91.6383 163.781C91.3096 163.781 90.9736 163.79 90.6409 163.798L90.6248 163.798C90.283 163.807 89.9439 163.816 89.6059 163.816C89.0157 163.816 88.4447 163.815 87.9106 163.782L87.8879 163.781L87.8651 163.781C52.7549 164.791 24.6045 193.572 24.6045 228.93C24.6045 263.384 51.3629 291.643 85.2554 293.975L85.2842 293.977L85.313 293.976C86.7897 293.907 88.3012 293.873 89.8476 293.873C91.3592 293.873 92.8364 293.907 94.3483 293.976L94.3487 293.976C145.09 296.243 185.801 336.96 188.034 387.709L188.035 387.722C188.137 389.187 188.137 390.689 188.137 392.177V392.18V392.183V392.186V392.189V392.192V392.195V392.198V392.201V392.204V392.207V392.21V392.213V392.216V392.219V392.222V392.225V392.229V392.232V392.235V392.238V392.241V392.244V392.247V392.25V392.253V392.256V392.259V392.262V392.265V392.268V392.271V392.274V392.277V392.28V392.283V392.286V392.289V392.292V392.295V392.298V392.301V392.304V392.307V392.31V392.314V392.317V392.32V392.323V392.326V392.329V392.332V392.335V392.338V392.341V392.344V392.347V392.35V392.353V392.356V392.359V392.362V392.365V392.368V392.371V392.374V392.377V392.38V392.383V392.386V392.389V392.392V392.395V392.398V392.401V392.404V392.408V392.411V392.414V392.417V392.42V392.423V392.426V392.429V392.432V392.435V392.438V392.441V392.444V392.447V392.45V392.453V392.456V392.459V392.462V392.465V392.468V392.471V392.474V392.477V392.48V392.483V392.486V392.489V392.492V392.495V392.498V392.501V392.504V392.507V392.51V392.514V392.517V392.52V392.523V392.526V392.529V392.532V392.535V392.538V392.541V392.544V392.547V392.55V392.553V392.556V392.559V392.562V392.565V392.568V392.571V392.574V392.577V392.58V392.583V392.586V392.589V392.592V392.595V392.598V392.601V392.604V392.607V392.61V392.613V392.616V392.619V392.622V392.625V392.628V392.631V392.634V392.637V392.64V392.643V392.646V392.649V392.652V392.655V392.659V392.662V392.665V392.668V392.671V392.674V392.677V392.68V392.683V392.686V392.689V392.692V392.695V392.698V392.701V392.704V392.707V392.71V392.713V392.716V392.719V392.722V392.725V392.728V392.731V392.734V392.737V392.74V392.743V392.746V392.749V392.752V392.755V392.758V392.761V392.764V392.767V392.77V392.773V392.776V392.779V392.782V392.785V392.788V392.791V392.794V392.797V392.8V392.803V392.806V392.809V392.812V392.815V392.818V392.821V392.824V392.827V392.83V392.833V392.836V392.839V392.842V392.845V392.848V392.851V392.854V392.857V392.86V392.863V392.866V392.869V392.872V392.875V392.878V392.881V392.884V392.887V392.89V392.893V392.896V392.899V392.902V392.905V392.908V392.911V392.914V392.917V392.92V392.923V392.926V392.929V392.932V392.935V392.938V392.941V392.944V392.947V392.95V392.953V392.956V392.959V392.962V392.965V392.968V392.971V392.974V392.977V392.979V392.982V392.985V392.988V392.991V392.994V392.997V393V393.003V393.006V393.009V393.012V393.015V393.018V393.021V393.024V393.027V393.03V393.033V393.036V393.039V393.042V393.045V393.048V393.051V393.054V393.057V393.06V393.063V393.066V393.069V393.072V393.075V393.078V393.081V393.084V393.086V393.089V393.092V393.095V393.098V393.101V393.104V393.107V393.11V393.113V393.116V393.119V393.122V393.125V393.128V393.131V393.134V393.137V393.14V393.143V393.146V393.149V393.152V393.155V393.158V393.16V393.163V393.166V393.169V393.172V393.175V393.178V393.181V393.184V393.187V393.19V393.193V393.196V393.199V393.202V393.205V393.208V393.211V393.214V393.216V393.219V393.222V393.225V393.228V393.231V393.234V393.237V393.24V393.243V393.246V393.249V393.252V393.255V393.258V393.261V393.263V393.266V393.269V393.272V393.275V393.278V393.281V393.284V393.287V393.29V393.293V393.296V393.299V393.302V393.305V393.307V393.31V393.313V393.316V393.319V393.322V393.325V393.328V393.331V393.334V393.337V393.34V393.342V393.345V393.348V393.351V393.354V393.357V393.36V393.363V393.366V393.369V393.372V393.375V393.377V393.38V393.383V393.386V393.389V393.392V393.395V393.398V393.401V393.404V393.407V393.409V393.412V393.415V393.418V393.421V393.424V393.427V393.43V393.433V393.436V393.438V393.441V393.444V393.447V393.45V393.453V393.456V393.459V393.462V393.465V393.467V393.47V393.473V393.476V393.479V393.482V393.485V393.488V393.491V393.493V393.496V393.499V393.502V393.505V393.508V393.511V393.514V393.516V393.519V393.522V393.525V393.528V393.531V393.534V393.537V393.539V393.542V393.545V393.548V393.551V393.554V393.557V393.56V393.562V393.565V393.568V393.571V393.574V393.577V393.58V393.583V393.585V393.588V393.591V393.594V393.597V393.6V393.603V393.605V393.608V393.611V393.614V393.617V393.62V393.623V393.625V393.628V393.631V393.634V393.637V393.64V393.642V393.645V393.648V393.651V393.654V393.657V393.66V393.662V393.665V393.668V393.671V393.674V393.677V393.679V393.682V393.685V393.688V393.69C188.068 396.441 188.207 399.232 188.626 401.991C193.324 433.348 220.395 457.395 253.069 457.395C283.898 457.395 309.716 436.028 316.503 407.283M257.396 325.267L296.756 259.868C295.863 264.335 292.623 268.516 289.36 271.779C286.382 274.758 283.325 277.03 281.865 278.115C281.719 278.224 281.589 278.32 281.477 278.405L281.475 278.405C273.083 284.657 264.062 285.411 253 285.411C237.426 285.411 225.229 278.063 216.939 267.605C208.657 257.157 204.262 243.595 204.262 231.106C204.262 217.852 210.248 205.094 219.09 195.655C227.928 186.22 239.671 180.047 251.239 180.047C263.073 180.047 274.026 183.389 282.723 190.027L282.752 190.048L282.777 190.074C284.309 191.64 285.981 193.04 287.702 194.418C310.947 212.562 344.117 210.302 364.691 189.177L364.692 189.176C366.335 187.499 367.875 185.718 369.313 183.835L369.33 183.813L369.349 183.793C381.599 170.984 398.581 163.816 416.291 163.816C452.305 163.816 481.5 192.979 481.5 228.999C481.5 259.799 460.135 285.657 431.392 292.443L431.391 292.443C427.056 293.457 422.626 293.735 418.247 293.631L418.237 293.63C417.49 293.596 416.742 293.596 415.98 293.596C413.885 293.596 411.72 293.665 409.625 293.802L409.622 293.803C399.833 294.387 390.215 296.482 381.042 299.987L381.042 299.987C351.428 311.257 328.685 336.409 320.749 367.504M257.396 325.267L257.42 325.766M257.396 325.267C257.395 325.267 257.393 325.267 257.392 325.267L257.42 325.766M316.503 407.283C316.503 407.283 316.503 407.283 316.503 407.284L316.017 407.165L316.504 407.28C316.503 407.281 316.503 407.282 316.503 407.283ZM316.503 407.283C317.552 402.979 317.83 398.547 317.726 394.168L317.725 394.157C317.691 393.411 317.691 392.662 317.691 391.901C317.691 389.775 317.794 387.646 317.932 385.544L317.932 385.543C318.31 379.463 319.271 373.45 320.749 367.504M320.749 367.504C320.749 367.504 320.749 367.504 320.749 367.504L320.264 367.381M320.749 367.504C320.749 367.503 320.749 367.502 320.749 367.501L320.264 367.381M320.264 367.381C318.779 373.355 317.813 379.399 317.433 385.512L380.864 299.52C351.099 310.847 328.241 336.127 320.264 367.381ZM257.42 325.766C261.736 325.525 264.499 325.317 267.814 324.799M257.42 325.766C256.004 325.835 254.623 325.87 253.208 325.87C251.792 325.87 250.376 325.835 248.995 325.766C197.787 323.625 156.524 284.428 154.384 233.213L267.814 324.799M94.371 293.476C145.371 295.755 186.289 336.679 188.533 387.687L94.371 293.476Z" stroke="url(#paint1_linear)"/>
</g>
<path opacity="0.5" d="M326.046 266.347C326.147 264.676 326.222 264.039 326.273 263.608C326.38 262.711 326.381 262.701 326.288 256.125C326.278 255.574 326.282 254.987 326.287 254.376C326.316 250.625 326.352 245.957 323.145 242.898L326.046 266.347ZM326.046 266.347C325.977 267.59 325.528 273.116 325.148 276.846M326.046 266.347L323.56 283.546M325.148 276.846C324.975 278.469 324.078 281.991 323.56 283.546M325.148 276.846L324.651 276.795M325.148 276.846L324.651 276.793C324.651 276.794 324.651 276.794 324.651 276.795M323.56 283.546C318.553 299.777 285.128 330.686 254.19 335.279M323.56 283.546L254.19 335.279M324.651 276.795C324.483 278.369 323.598 281.851 323.085 283.387L323.082 283.398C321.858 287.366 318.877 292.282 314.573 297.513C310.276 302.736 304.687 308.241 298.286 313.387C285.474 323.687 269.465 332.506 254.116 334.784L254.112 334.785C250.824 335.299 248.082 335.505 243.772 335.746M324.651 276.795C325.03 273.069 325.478 267.552 325.547 266.319L325.547 266.317C325.625 265.025 325.688 264.343 325.737 263.894C325.753 263.751 325.766 263.636 325.778 263.535C325.805 263.311 325.823 263.158 325.836 262.93C325.873 262.258 325.857 261.017 325.788 256.132L243.772 335.746M243.772 335.746C242.364 335.815 240.991 335.849 239.584 335.849C238.176 335.849 236.768 335.815 235.396 335.746L235.392 335.746C184.43 333.615 143.389 294.613 141.259 243.671L141.259 243.668C141.19 242.26 141.156 240.887 141.156 239.479C141.156 238.071 141.19 236.663 141.259 235.256L141.259 235.252C143.389 184.296 184.306 143.374 235.254 141.243L235.258 141.243C236.63 141.174 238.038 141.14 239.445 141.14C240.853 141.14 242.26 141.174 243.633 141.243L243.662 141.244L243.69 141.243C277.965 139.015 304.654 110.547 304.62 76.1629C304.619 40.1432 275.425 10.9795 239.445 10.9795C204.092 10.9795 175.315 39.0994 174.272 74.2146L174.271 74.2376L174.272 74.2606C174.306 74.7947 174.306 75.4001 174.306 75.9562C174.306 76.6496 174.306 77.3268 174.272 77.9675L174.272 77.9755L174.271 77.9836C173.206 130.69 130.712 173.193 78.0142 174.261C77.6855 174.261 77.3496 174.269 77.0168 174.278L77.0008 174.278C76.659 174.287 76.3199 174.295 75.9819 174.295C75.3916 174.295 74.8207 174.295 74.2866 174.262L74.2639 174.26L74.2411 174.261C39.1309 175.27 10.9805 204.051 10.9805 239.41C10.9805 273.864 37.7389 302.123 71.6314 304.454L71.6601 304.456L71.6889 304.455C73.1656 304.386 74.6772 304.352 76.2236 304.352C77.7352 304.352 79.2124 304.386 80.7243 304.455L80.7247 304.455C131.466 306.723 172.177 347.44 174.41 398.189L174.411 398.202C174.513 399.666 174.513 401.168 174.513 402.656V402.659V402.663V402.666V402.669V402.672V402.675V402.678V402.681V402.684V402.687V402.69V402.693V402.696V402.699V402.702V402.705V402.708V402.711V402.714V402.717V402.72V402.723V402.726V402.729V402.732V402.735V402.738V402.741V402.744V402.747V402.751V402.754V402.757V402.76V402.763V402.766V402.769V402.772V402.775V402.778V402.781V402.784V402.787V402.79V402.793V402.796V402.799V402.802V402.805V402.808V402.811V402.814V402.817V402.82V402.823V402.826V402.829V402.832V402.835V402.839V402.842V402.845V402.848V402.851V402.854V402.857V402.86V402.863V402.866V402.869V402.872V402.875V402.878V402.881V402.884V402.887V402.89V402.893V402.896V402.899V402.902V402.905V402.908V402.911V402.914V402.917V402.92V402.923V402.926V402.929V402.932V402.935V402.939V402.942V402.945V402.948V402.951V402.954V402.957V402.96V402.963V402.966V402.969V402.972V402.975V402.978V402.981V402.984V402.987V402.99V402.993V402.996V402.999V403.002V403.005V403.008V403.011V403.014V403.017V403.02V403.023V403.026V403.029V403.032V403.035V403.038V403.041V403.044V403.047V403.05V403.053V403.056V403.06V403.063V403.066V403.069V403.072V403.075V403.078V403.081V403.084V403.087V403.09V403.093V403.096V403.099V403.102V403.105V403.108V403.111V403.114V403.117V403.12V403.123V403.126V403.129V403.132V403.135V403.138V403.141V403.144V403.147V403.15V403.153V403.156V403.159V403.162V403.165V403.168V403.171V403.174V403.177V403.18V403.183V403.186V403.189V403.192V403.195V403.198V403.201V403.204V403.207V403.21V403.213V403.216V403.219V403.222V403.225V403.228V403.231V403.234V403.237V403.24V403.243V403.246V403.249V403.252V403.255V403.258V403.261V403.264V403.267V403.27V403.273V403.276V403.279V403.282V403.285V403.288V403.291V403.294V403.297V403.3V403.303V403.306V403.309V403.312V403.315V403.318V403.321V403.324V403.327V403.33V403.333V403.336V403.339V403.342V403.345V403.348V403.351V403.354V403.357V403.36V403.363V403.366V403.369V403.372V403.375V403.378V403.381V403.384V403.387V403.39V403.393V403.396V403.399V403.402V403.405V403.408V403.411V403.414V403.417V403.42V403.423V403.426V403.429V403.432V403.435V403.438V403.441V403.444V403.447V403.45V403.453V403.456V403.459V403.462V403.465V403.468V403.471V403.474V403.477V403.48V403.483V403.486V403.489V403.492V403.495V403.498V403.501V403.504V403.507V403.51V403.513V403.516V403.518V403.521V403.524V403.527V403.53V403.533V403.536V403.539V403.542V403.545V403.548V403.551V403.554V403.557V403.56V403.563V403.566V403.569V403.572V403.575V403.578V403.581V403.584V403.587V403.59V403.593V403.596V403.599V403.602V403.604V403.607V403.61V403.613V403.616V403.619V403.622V403.625V403.628V403.631V403.634V403.637V403.64V403.643V403.646V403.649V403.652V403.655V403.658V403.661V403.664V403.667V403.669V403.672V403.675V403.678V403.681V403.684V403.687V403.69V403.693V403.696V403.699V403.702V403.705V403.708V403.711V403.714V403.717V403.719V403.722V403.725V403.728V403.731V403.734V403.737V403.74V403.743V403.746V403.749V403.752V403.755V403.758V403.761V403.763V403.766V403.769V403.772V403.775V403.778V403.781V403.784V403.787V403.79V403.793V403.796V403.799V403.802V403.804V403.807V403.81V403.813V403.816V403.819V403.822V403.825V403.828V403.831V403.834V403.837V403.839V403.842V403.845V403.848V403.851V403.854V403.857V403.86V403.863V403.866V403.869V403.872V403.874V403.877V403.88V403.883V403.886V403.889V403.892V403.895V403.898V403.901V403.903V403.906V403.909V403.912V403.915V403.918V403.921V403.924V403.927V403.93V403.932V403.935V403.938V403.941V403.944V403.947V403.95V403.953V403.956V403.958V403.961V403.964V403.967V403.97V403.973V403.976V403.979V403.982V403.984V403.987V403.99V403.993V403.996V403.999V404.002V404.005V404.007V404.01V404.013V404.016V404.019V404.022V404.025V404.028V404.03V404.033V404.036V404.039V404.042V404.045V404.048V404.051V404.053V404.056V404.059V404.062V404.065V404.068V404.071V404.073V404.076V404.079V404.082V404.085V404.088V404.091V404.093V404.096V404.099V404.102V404.105V404.108V404.111V404.113V404.116V404.119V404.122V404.125V404.128V404.13V404.133V404.136V404.139V404.142V404.145V404.148V404.15V404.153V404.156V404.159V404.162V404.165V404.167V404.169C174.444 406.921 174.583 409.711 175.002 412.47C179.7 443.827 206.771 467.875 239.445 467.875C270.274 467.875 296.092 446.508 302.879 417.762M243.772 335.746L283.132 270.348C282.239 274.815 278.999 278.995 275.736 282.259C272.758 285.237 269.701 287.509 268.241 288.595C268.095 288.703 267.965 288.8 267.853 288.884L267.851 288.885C259.459 295.137 250.438 295.891 239.376 295.891C223.802 295.891 211.605 288.542 203.315 278.084C195.033 267.636 190.638 254.075 190.638 241.586C190.638 228.331 196.624 215.574 205.466 206.135C214.304 196.699 226.047 190.526 237.615 190.526C249.449 190.526 260.402 193.869 269.099 200.506L269.128 200.528L269.153 200.554C270.685 202.12 272.357 203.52 274.078 204.897C297.323 223.042 330.493 220.781 351.067 199.657L351.068 199.656C352.711 197.978 354.251 196.198 355.689 194.315L355.706 194.293L355.725 194.273C367.975 181.464 384.957 174.295 402.667 174.295C438.681 174.295 467.876 203.459 467.876 239.479C467.876 270.279 446.511 296.136 417.768 302.923L417.767 302.923C413.432 303.937 409.002 304.214 404.623 304.11L404.613 304.11C403.866 304.076 403.118 304.076 402.356 304.076C400.261 304.076 398.096 304.145 396.001 304.282L395.998 304.282C386.209 304.866 376.591 306.962 367.418 310.466L367.418 310.467C337.804 321.737 315.061 346.889 307.125 377.983M243.772 335.746L243.796 336.246M243.772 335.746C243.771 335.746 243.769 335.747 243.768 335.747L243.796 336.246M302.879 417.762C302.879 417.763 302.879 417.763 302.879 417.763L302.393 417.645L302.88 417.759C302.879 417.76 302.879 417.761 302.879 417.762ZM302.879 417.762C303.928 413.459 304.206 409.026 304.102 404.648L304.101 404.637C304.067 403.89 304.067 403.142 304.067 402.38C304.067 400.254 304.17 398.125 304.308 396.024L304.308 396.022C304.686 389.943 305.647 383.93 307.125 377.983M307.125 377.983C307.125 377.984 307.125 377.984 307.125 377.984L306.64 377.86M307.125 377.983C307.125 377.983 307.125 377.982 307.125 377.981L306.64 377.86M306.64 377.86C305.155 383.835 304.189 389.879 303.809 395.991L367.24 309.999C337.475 321.327 314.617 346.606 306.64 377.86ZM243.796 336.246C248.112 336.004 250.875 335.797 254.19 335.279M243.796 336.246C242.38 336.315 240.999 336.349 239.584 336.349C238.168 336.349 236.752 336.315 235.371 336.246C184.163 334.105 142.9 294.908 140.76 243.692L254.19 335.279M80.747 303.956C131.747 306.235 172.665 347.159 174.909 398.167L80.747 303.956Z" stroke="url(#paint2_linear)"/>
<path opacity="0.5" d="M315.565 276.829C315.666 275.157 315.742 274.521 315.793 274.089C315.899 273.192 315.9 273.182 315.807 266.606C315.797 266.055 315.802 265.469 315.807 264.858C315.836 261.107 315.872 256.438 312.665 253.379L315.565 276.829ZM315.565 276.829C315.496 278.072 315.047 283.597 314.668 287.327M315.565 276.829L313.079 294.027M314.668 287.327C314.495 288.95 313.597 292.473 313.079 294.027M314.668 287.327L314.17 287.277M314.668 287.327L314.17 287.274C314.17 287.275 314.17 287.276 314.17 287.277M313.079 294.027C308.072 310.258 274.648 341.167 243.709 345.76M313.079 294.027L243.709 345.76M314.17 287.277C314.002 288.85 313.117 292.332 312.605 293.869L312.601 293.88C311.378 297.847 308.396 302.763 304.093 307.994C299.796 313.217 294.206 318.722 287.805 323.868C274.994 334.168 258.984 342.987 243.636 345.266L243.632 345.266C240.343 345.78 237.602 345.986 233.291 346.228M314.17 287.277C314.55 283.55 314.998 278.033 315.066 276.801L315.066 276.798C315.144 275.506 315.208 274.824 315.257 274.376C315.272 274.233 315.286 274.117 315.298 274.016C315.324 273.792 315.343 273.639 315.355 273.412C315.393 272.74 315.376 271.498 315.307 266.613L233.291 346.228M233.291 346.228C231.883 346.297 230.51 346.331 229.103 346.331C227.695 346.331 226.288 346.296 224.915 346.228L224.911 346.228C173.949 344.097 132.908 305.094 130.779 254.153L130.779 254.149C130.71 252.741 130.676 251.368 130.676 249.96C130.676 248.553 130.71 247.145 130.779 245.737L130.779 245.734C132.909 194.778 173.826 153.855 224.773 151.725L224.777 151.724C226.15 151.656 227.557 151.622 228.965 151.622C230.373 151.622 231.78 151.656 233.153 151.724L233.181 151.726L233.21 151.724C267.485 149.497 294.174 121.029 294.139 86.6443C294.139 50.6247 264.944 21.4609 228.965 21.4609C193.612 21.4609 164.835 49.5808 163.791 84.696L163.79 84.719L163.792 84.742C163.825 85.2761 163.825 85.8815 163.825 86.4376C163.825 87.131 163.825 87.8082 163.792 88.4489L163.791 88.457L163.791 88.4651C162.726 141.172 120.232 183.674 67.5338 184.742C67.2051 184.742 66.8691 184.751 66.5364 184.759L66.5204 184.759C66.1785 184.768 65.8394 184.777 65.5014 184.777C64.9112 184.777 64.3402 184.776 63.8061 184.743L63.7834 184.742L63.7606 184.742C28.6504 185.751 0.5 214.533 0.5 249.891C0.5 284.345 27.2584 312.604 61.1509 314.936L61.1797 314.938L61.2085 314.937C62.6852 314.868 64.1967 314.833 65.7431 314.833C67.2547 314.833 68.7319 314.868 70.2438 314.937L70.2442 314.937C120.986 317.204 161.696 357.921 163.929 408.67L163.93 408.683C164.032 410.148 164.033 411.65 164.033 413.138V413.141V413.144V413.147V413.15V413.153V413.156V413.159V413.162V413.165V413.168V413.171V413.174V413.177V413.18V413.183V413.186V413.189V413.193V413.196V413.199V413.202V413.205V413.208V413.211V413.214V413.217V413.22V413.223V413.226V413.229V413.232V413.235V413.238V413.241V413.244V413.247V413.25V413.253V413.256V413.259V413.262V413.265V413.268V413.271V413.274V413.277V413.281V413.284V413.287V413.29V413.293V413.296V413.299V413.302V413.305V413.308V413.311V413.314V413.317V413.32V413.323V413.326V413.329V413.332V413.335V413.338V413.341V413.344V413.347V413.35V413.353V413.356V413.359V413.362V413.365V413.368V413.371V413.375V413.378V413.381V413.384V413.387V413.39V413.393V413.396V413.399V413.402V413.405V413.408V413.411V413.414V413.417V413.42V413.423V413.426V413.429V413.432V413.435V413.438V413.441V413.444V413.447V413.45V413.453V413.456V413.459V413.462V413.465V413.468V413.471V413.474V413.477V413.48V413.484V413.487V413.49V413.493V413.496V413.499V413.502V413.505V413.508V413.511V413.514V413.517V413.52V413.523V413.526V413.529V413.532V413.535V413.538V413.541V413.544V413.547V413.55V413.553V413.556V413.559V413.562V413.565V413.568V413.571V413.574V413.577V413.58V413.583V413.586V413.589V413.592V413.595V413.598V413.601V413.604V413.607V413.61V413.613V413.616V413.619V413.622V413.625V413.629V413.632V413.635V413.638V413.641V413.644V413.647V413.65V413.653V413.656V413.659V413.662V413.665V413.668V413.671V413.674V413.677V413.68V413.683V413.686V413.689V413.692V413.695V413.698V413.701V413.704V413.707V413.71V413.713V413.716V413.719V413.722V413.725V413.728V413.731V413.734V413.737V413.74V413.743V413.746V413.749V413.752V413.755V413.758V413.761V413.764V413.767V413.77V413.773V413.776V413.779V413.782V413.785V413.788V413.791V413.794V413.797V413.8V413.803V413.806V413.809V413.812V413.815V413.818V413.821V413.824V413.827V413.83V413.833V413.836V413.839V413.842V413.845V413.848V413.851V413.854V413.857V413.86V413.863V413.866V413.869V413.872V413.875V413.878V413.881V413.884V413.887V413.89V413.893V413.896V413.899V413.902V413.905V413.908V413.911V413.914V413.917V413.92V413.923V413.926V413.928V413.931V413.934V413.937V413.94V413.943V413.946V413.949V413.952V413.955V413.958V413.961V413.964V413.967V413.97V413.973V413.976V413.979V413.982V413.985V413.988V413.991V413.994V413.997V414V414.003V414.006V414.009V414.012V414.015V414.018V414.021V414.024V414.027V414.03V414.033V414.036V414.039V414.042V414.044V414.047V414.05V414.053V414.056V414.059V414.062V414.065V414.068V414.071V414.074V414.077V414.08V414.083V414.086V414.089V414.092V414.095V414.098V414.101V414.104V414.107V414.11V414.113V414.116V414.118V414.121V414.124V414.127V414.13V414.133V414.136V414.139V414.142V414.145V414.148V414.151V414.154V414.157V414.16V414.163V414.166V414.169V414.172V414.174V414.177V414.18V414.183V414.186V414.189V414.192V414.195V414.198V414.201V414.204V414.207V414.21V414.213V414.216V414.219V414.221V414.224V414.227V414.23V414.233V414.236V414.239V414.242V414.245V414.248V414.251V414.254V414.257V414.26V414.263V414.265V414.268V414.271V414.274V414.277V414.28V414.283V414.286V414.289V414.292V414.295V414.298V414.301V414.303V414.306V414.309V414.312V414.315V414.318V414.321V414.324V414.327V414.33V414.333V414.336V414.338V414.341V414.344V414.347V414.35V414.353V414.356V414.359V414.362V414.365V414.367V414.37V414.373V414.376V414.379V414.382V414.385V414.388V414.391V414.394V414.397V414.399V414.402V414.405V414.408V414.411V414.414V414.417V414.42V414.423V414.425V414.428V414.431V414.434V414.437V414.44V414.443V414.446V414.449V414.451V414.454V414.457V414.46V414.463V414.466V414.469V414.472V414.475V414.477V414.48V414.483V414.486V414.489V414.492V414.495V414.498V414.5V414.503V414.506V414.509V414.512V414.515V414.518V414.521V414.523V414.526V414.529V414.532V414.535V414.538V414.541V414.543V414.546V414.549V414.552V414.555V414.558V414.561V414.563V414.566V414.569V414.572V414.575V414.578V414.581V414.583V414.586V414.589V414.592V414.595V414.598V414.601V414.603V414.606V414.609V414.612V414.615V414.618V414.62V414.623V414.626V414.629V414.632V414.635V414.638V414.64V414.643V414.646V414.649V414.651C163.963 417.402 164.103 420.193 164.522 422.952C169.22 454.309 196.291 478.356 228.965 478.356C259.794 478.356 285.612 456.989 292.398 428.244M233.291 346.228L272.652 280.829C271.759 285.296 268.518 289.477 265.255 292.74C262.277 295.719 259.22 297.991 257.76 299.076C257.614 299.185 257.484 299.281 257.372 299.365L257.371 299.366C248.978 305.618 239.957 306.372 228.896 306.372C213.321 306.372 201.125 299.024 192.835 288.566C184.553 278.118 180.158 264.556 180.158 252.067C180.158 238.813 186.144 226.055 194.985 216.616C203.823 207.181 215.567 201.008 227.135 201.008C238.969 201.008 249.922 204.35 258.618 210.987L258.647 211.009L258.673 211.035C260.204 212.601 261.876 214.001 263.598 215.379C286.842 233.523 320.013 231.263 340.587 210.138L340.587 210.137C342.23 208.46 343.771 206.679 345.209 204.796L345.226 204.774L345.245 204.754C357.495 191.945 374.476 184.777 392.187 184.777C428.201 184.777 457.395 213.94 457.395 249.96C457.395 280.76 436.03 306.618 407.288 313.404L407.286 313.404C402.952 314.418 398.522 314.696 394.143 314.592L394.132 314.591C393.386 314.557 392.637 314.557 391.876 314.557C389.78 314.557 387.616 314.626 385.521 314.763L385.518 314.764C375.728 315.348 366.11 317.443 356.938 320.948L356.937 320.948C327.323 332.218 304.58 357.37 296.644 388.465M233.291 346.228L233.316 346.727M233.291 346.228C233.29 346.228 233.289 346.228 233.288 346.228L233.316 346.727M292.398 428.244C292.398 428.244 292.398 428.244 292.398 428.245L291.913 428.126L292.399 428.241C292.399 428.242 292.399 428.243 292.398 428.244ZM292.398 428.244C293.448 423.94 293.725 419.508 293.621 415.129L293.621 415.118C293.587 414.372 293.587 413.623 293.587 412.862C293.587 410.736 293.689 408.607 293.827 406.505L293.827 406.504C294.205 400.424 295.167 394.411 296.644 388.465M296.644 388.465C296.644 388.465 296.644 388.465 296.644 388.465L296.16 388.342M296.644 388.465C296.645 388.464 296.645 388.463 296.645 388.462L296.16 388.342M296.16 388.342C294.675 394.316 293.708 400.36 293.328 406.473L356.759 320.481C326.995 331.808 304.136 357.088 296.16 388.342ZM233.316 346.727C237.632 346.485 240.394 346.278 243.709 345.76M233.316 346.727C231.9 346.796 230.519 346.831 229.103 346.831C227.687 346.831 226.272 346.796 224.89 346.727C173.683 344.586 132.42 305.389 130.279 254.174L243.709 345.76M70.2665 314.437C121.267 316.716 162.185 357.64 164.429 408.648L70.2665 314.437Z" stroke="url(#paint3_linear)"/>
</g>
<defs>
<linearGradient id="paint0_linear" x1="91.9976" y1="87.6915" x2="441.984" y2="89.6749" gradientUnits="userSpaceOnUse">
<stop stop-color="#325F83" stop-opacity="0"/>
<stop offset="0.177083" stop-color="#2B79B8"/>
<stop offset="0.489583" stop-color="#2572FF"/>
<stop offset="0.854167" stop-color="#2A6AC9"/>
<stop offset="1" stop-color="#3064B0" stop-opacity="0"/>
</linearGradient>
<linearGradient id="paint1_linear" x1="91.9976" y1="87.6915" x2="441.984" y2="89.6749" gradientUnits="userSpaceOnUse">
<stop stop-color="#325F83" stop-opacity="0.48"/>
<stop offset="0.177083" stop-color="#2B79B8"/>
<stop offset="0.489583" stop-color="#2572FF"/>
<stop offset="0.854167" stop-color="#2A6AC9"/>
<stop offset="1" stop-color="#3064B0" stop-opacity="0.48"/>
</linearGradient>
<linearGradient id="paint2_linear" x1="78.3735" y1="98.171" x2="428.36" y2="100.154" gradientUnits="userSpaceOnUse">
<stop stop-color="#325F83" stop-opacity="0.48"/>
<stop offset="0.177083" stop-color="#2B79B8"/>
<stop offset="0.489583" stop-color="#2572FF"/>
<stop offset="0.854167" stop-color="#2A6AC9"/>
<stop offset="1" stop-color="#3064B0" stop-opacity="0.48"/>
</linearGradient>
<linearGradient id="paint3_linear" x1="67.8931" y1="108.652" x2="417.879" y2="110.636" gradientUnits="userSpaceOnUse">
<stop stop-color="#325F83" stop-opacity="0.48"/>
<stop offset="0.177083" stop-color="#2B79B8"/>
<stop offset="0.489583" stop-color="#2572FF"/>
<stop offset="0.854167" stop-color="#2A6AC9"/>
<stop offset="1" stop-color="#3064B0" stop-opacity="0.48"/>
</linearGradient>
</defs>
</svg>
