<svg width="180" height="180" viewBox="0 0 180 180" fill="none" xmlns="http://www.w3.org/2000/svg">
<path d="M83.9191 169.835L38.4811 169.814C37.2412 169.814 36.2344 168.814 36.2344 167.583L36.2552 122.448C36.2552 121.216 37.262 120.216 38.5019 120.216L83.9399 120.236C85.1797 120.236 86.1866 121.237 86.1866 122.468L86.1658 167.603C86.1658 168.835 85.1589 169.835 83.9191 169.835Z" fill="#B2CAF2"/>
<g opacity="0.3">
<g opacity="0.3">
<g opacity="0.3">
<path opacity="0.3" d="M36.1108 150.795C38.3451 148.261 39.7098 145.058 40.4004 141.76C41.2159 137.876 41.1327 133.85 40.8539 129.911C40.7832 128.891 40.8789 127.857 41.2242 126.89C42.6305 122.952 46.4083 123.382 49.5829 123.72C58.5157 124.675 67.6774 123.456 76.0485 120.199H38.4117C37.2134 120.199 36.2398 121.162 36.2357 122.352L36.1108 150.795Z" fill="black"/>
</g>
</g>
</g>
<path d="M62.472 59.896C61.6482 61.8591 59.1685 62.9006 58.7275 64.9795C58.3655 66.6987 59.5388 68.6536 58.6234 70.158C57.7747 71.5466 55.6944 71.5755 54.5128 72.7038C53.7639 73.4188 53.4809 74.4892 53.3644 75.5142C53.2271 76.7416 53.3104 78.0683 54.0468 79.0643C54.7291 79.9901 55.8858 80.4819 57.0383 80.5728C58.1866 80.6637 59.3349 80.3909 60.4291 80.0231C63.4705 79.0064 66.2956 77.1962 68.1928 74.6297C70.0901 72.0591 70.9888 68.6949 70.2565 65.5911C69.5284 62.4873 67.0612 59.7638 63.9365 59.0405" fill="#263238"/>
<path d="M55.4867 79.1141C55.4784 79.1141 55.4659 79.0603 55.4451 78.9488C55.4284 78.8372 55.391 78.676 55.3827 78.4652C55.3452 78.0437 55.3452 77.4237 55.5075 76.6757C55.6614 75.9318 55.9818 75.0639 56.5518 74.2249C56.8347 73.8033 57.1842 73.4024 57.5919 73.0305C57.9997 72.6544 58.4823 72.3403 58.9691 72.0386C59.4559 71.7328 59.9136 71.4145 60.2506 71.0095C60.5917 70.6128 60.7998 70.1292 60.7873 69.6539C60.779 69.1745 60.6209 68.7282 60.5252 68.2901C60.417 67.8561 60.3879 67.4181 60.4752 67.0378C60.6417 66.2691 61.0952 65.7773 61.4322 65.5252C61.6028 65.3929 61.7526 65.3186 61.8566 65.2731C61.9606 65.2318 62.0188 65.2152 62.0188 65.2194C62.0313 65.24 61.8025 65.3186 61.4863 65.5913C61.1784 65.8558 60.7623 66.3435 60.625 67.0668C60.5543 67.4263 60.5876 67.8272 60.6999 68.2488C60.8039 68.6703 60.9704 69.1249 60.987 69.6498C61.012 70.1788 60.779 70.7202 60.417 71.1418C60.0592 71.5757 59.5766 71.9063 59.0898 72.2163C58.0912 72.7949 57.2757 73.5182 56.7182 74.3365C56.1565 75.1465 55.8279 75.9855 55.6573 76.7087C55.4825 77.432 55.4576 78.0437 55.4659 78.4611C55.4742 78.8826 55.5075 79.1141 55.4867 79.1141Z" fill="#455A64"/>
<path d="M63.1126 53.8164C62.1432 53.1428 61.6897 51.812 62.0475 50.692C62.4053 49.572 63.5453 48.7454 64.7311 48.7495C66.0417 48.7537 67.1692 49.6464 68.4424 49.9605C69.4367 50.2084 70.4852 50.0927 71.5087 50.1175C72.5322 50.1423 73.6348 50.3531 74.3421 51.0929C75.2242 52.0145 75.2533 53.4899 76.0688 54.4736C76.6512 55.1761 77.5458 55.5233 78.278 56.0688C79.3931 56.8996 80.117 58.2262 80.2086 59.6107C80.3001 60.9911 79.7592 62.4045 78.7607 63.3716C78.2739 63.8469 77.6664 64.2437 77.3794 64.8595C76.9466 65.7976 77.3544 67.0416 76.697 67.8393C76.0438 68.6328 74.6333 68.5667 74.1341 69.4635C73.9344 69.823 73.8803 70.3273 73.5017 70.4884C73.2021 70.6124 72.8692 70.443 72.5905 70.2818C71.3173 69.5337 70.0484 68.7857 68.7752 68.0335" fill="#263238"/>
<path d="M67.9724 72.047L64.0489 72.5677C62.5678 73.0512 61.2322 73.8861 60.1505 75.002L49.3038 86.2268L46.5536 69.5879L40.9326 70.3029L42.6218 90.1572C42.8923 93.3312 45.4677 95.9308 48.6755 96.0093C48.8253 96.0135 48.9751 96.0135 49.1248 96.0052C50.8057 95.935 52.3826 95.158 53.5601 93.9636L60.6705 87.8056" fill="#B2CAF2"/>
<path d="M42.0158 71.7774C41.9662 71.7856 41.8752 71.4095 41.8172 70.9384C41.7593 70.4672 41.751 70.0829 41.8007 70.0787C41.8503 70.0705 41.9414 70.4466 41.9993 70.9177C42.0572 71.3847 42.0655 71.7691 42.0158 71.7774Z" fill="#263238"/>
<path d="M43.6689 71.7605C43.6192 71.7646 43.5406 71.3637 43.4951 70.8678C43.4496 70.3677 43.4537 69.9627 43.5034 69.9585C43.553 69.9544 43.6316 70.3553 43.6771 70.8512C43.7227 71.3513 43.7185 71.7563 43.6689 71.7605Z" fill="#263238"/>
<path d="M45.3036 71.5916C45.254 71.5957 45.1671 71.1494 45.1133 70.5956C45.0595 70.0418 45.0553 69.5872 45.1091 69.583C45.1588 69.5789 45.2457 70.0253 45.2995 70.5791C45.3533 71.1329 45.3574 71.5875 45.3036 71.5916Z" fill="#263238"/>
<path d="M49.5865 56.7793C49.6988 56.9735 52.9441 70.5624 52.9441 70.5624L46.6324 71.1121L43.6992 59.4326L49.5865 56.7793Z" fill="#455A64"/>
<path d="M52.9437 70.5623L53.6552 70.2276L50.3642 56.8371L49.5029 56.8164L52.9437 70.5623Z" fill="#263238"/>
<path d="M47.1695 59.875C47.1986 60.0527 47.078 60.2222 46.8991 60.2511C46.7202 60.28 46.5496 60.1602 46.5204 59.9825C46.4913 59.8047 46.612 59.6353 46.7909 59.6064C46.9698 59.5774 47.1404 59.6973 47.1695 59.875Z" fill="#263238"/>
<path d="M46.2692 69.6779L46.0903 67.7519L48.7448 66.5369L47.5882 64.0943C47.0265 62.9578 45.6077 62.5363 44.5093 63.1851C44.1557 63.3959 43.7854 63.6149 43.4484 63.8133C42.6953 64.2597 42.1627 65.0036 41.9921 65.8632C41.7009 67.3428 41.5178 70.4094 41.5428 70.2689" fill="#B78876"/>
<path d="M66.5951 71.8612C61.5774 72.4191 59.9464 76.1428 57.6082 79.478L54.2256 85.6815L60.6745 87.8058L60.2293 98.9852L57.267 108.061L80.3833 106.705L78.511 98.0884L79.8299 88.2521L81.0615 80.0484C81.4817 77.2587 79.9839 74.4566 77.3377 73.4317C74.2256 72.2249 74.1424 71.9976 71.6668 71.8901C70.8763 71.857 67.2316 71.7041 66.5951 71.8612Z" fill="#B2CAF2"/>
<path d="M60.2332 98.7239C60.2498 98.7239 60.2705 98.4842 60.2955 98.0461C60.3204 97.5749 60.3495 96.9509 60.3868 96.2028C60.4533 94.6447 60.5322 92.4915 60.6028 90.1151C60.6734 87.7346 60.7274 85.5813 60.7564 84.0232C60.7648 83.2711 60.7731 82.6511 60.7772 82.1758C60.7772 81.7378 60.7689 81.498 60.7564 81.498C60.7398 81.498 60.7191 81.7378 60.6941 82.1717C60.6692 82.6429 60.6402 83.2669 60.6028 84.015C60.5363 85.5731 60.4574 87.7263 60.3868 90.1068C60.3162 92.4874 60.2622 94.6406 60.2332 96.1987C60.2249 96.9509 60.2166 97.5708 60.2124 98.0461C60.2124 98.4842 60.2207 98.7239 60.2332 98.7239Z" fill="#263238"/>
<path d="M24.3032 154.337L24.22 150.245L32.1169 147.459L32.4414 153.155L31.9962 153.369C30.0116 154.299 21.8485 157.961 20.3257 158.102C18.6282 158.255 24.3032 154.337 24.3032 154.337Z" fill="#B2CAF2"/>
<g opacity="0.4">
<g opacity="0.4">
<g opacity="0.4">
<g opacity="0.4">
<g opacity="0.4">
<g opacity="0.4">
<g opacity="0.4">
<path opacity="0.4" d="M21.5732 156.358C21.5732 156.358 19.6427 157.87 20.0587 158.118C20.479 158.366 28.8709 154.973 32.4407 153.155L32.3617 152.998L22.6092 157.04C22.6092 157.035 22.0101 156.205 21.5732 156.358Z" fill="white"/>
</g>
</g>
</g>
</g>
</g>
</g>
</g>
<path d="M32.4781 152.944C32.4781 152.948 32.4365 152.969 32.3574 153.01C32.2493 153.06 32.1328 153.118 32.0038 153.18C31.646 153.341 31.2091 153.543 30.6932 153.779C29.5823 154.275 28.0346 154.94 26.3162 155.639C24.5938 156.337 23.021 156.936 21.8769 157.354C21.3402 157.544 20.8867 157.705 20.5205 157.837C20.3832 157.883 20.2626 157.924 20.1502 157.961C20.067 157.99 20.0213 158.003 20.0171 157.998C20.0171 157.994 20.0587 157.978 20.1419 157.945C20.2501 157.903 20.3707 157.854 20.508 157.804C20.8742 157.664 21.3235 157.494 21.8561 157.292C22.9919 156.858 24.5605 156.25 26.283 155.552C28.0054 154.853 29.5532 154.2 30.6724 153.717C31.1925 153.494 31.6377 153.304 31.9955 153.146C32.1286 153.089 32.2493 153.039 32.3574 152.994C32.4323 152.956 32.4739 152.94 32.4781 152.944Z" fill="#263238"/>
<path d="M22.659 157.147C22.6341 157.159 22.4843 156.854 22.1514 156.614C21.8227 156.37 21.4816 156.32 21.4899 156.291C21.4857 156.267 21.856 156.279 22.2097 156.539C22.5633 156.796 22.684 157.143 22.659 157.147Z" fill="#263238"/>
<path d="M24.3772 155.18C24.3606 155.2 24.2067 155.118 24.0319 154.994C23.8572 154.87 23.724 154.75 23.7407 154.729C23.7573 154.709 23.9112 154.791 24.086 154.915C24.2649 155.039 24.3939 155.155 24.3772 155.18Z" fill="#263238"/>
<path d="M24.8476 154.626C24.8392 154.65 24.6895 154.621 24.5189 154.559C24.3441 154.497 24.211 154.427 24.2235 154.402C24.2318 154.378 24.3816 154.407 24.5522 154.469C24.7227 154.531 24.8559 154.601 24.8476 154.626Z" fill="#263238"/>
<path d="M24.9394 153.783C24.9478 153.808 24.7855 153.899 24.5775 153.986C24.3653 154.073 24.1864 154.126 24.178 154.102C24.1697 154.077 24.332 153.986 24.54 153.899C24.7522 153.812 24.9311 153.759 24.9394 153.783Z" fill="#263238"/>
<path d="M24.8686 153.246C24.8852 153.263 24.7313 153.424 24.49 153.544C24.2487 153.663 24.0282 153.688 24.024 153.663C24.0198 153.634 24.2195 153.572 24.4484 153.457C24.6814 153.345 24.8519 153.225 24.8686 153.246Z" fill="#263238"/>
<path d="M23.8699 154.643C23.8741 154.651 23.7035 154.746 23.3956 154.828C23.2417 154.87 23.0586 154.907 22.8464 154.924C22.7424 154.928 22.6342 154.944 22.5094 154.924C22.4512 154.911 22.3804 154.89 22.3347 154.824C22.2847 154.762 22.2931 154.667 22.3305 154.609C22.6883 154.196 23.2417 154.262 23.5038 154.428C23.6453 154.51 23.7326 154.605 23.7867 154.68C23.8366 154.754 23.8574 154.8 23.8491 154.8C23.8366 154.812 23.741 154.626 23.4705 154.485C23.3374 154.415 23.1585 154.37 22.9588 154.386C22.7715 154.403 22.5302 154.485 22.4096 154.651C22.3555 154.738 22.422 154.812 22.5261 154.828C22.6259 154.845 22.7382 154.837 22.8381 154.833C23.042 154.82 23.225 154.795 23.3748 154.762C23.6827 154.7 23.8616 154.626 23.8699 154.643Z" fill="#263238"/>
<path d="M23.7574 154.717C23.7532 154.725 23.6328 154.634 23.5705 154.415C23.5414 154.307 23.529 154.167 23.5581 154.018C23.5996 153.882 23.6453 153.692 23.8529 153.621C23.9692 153.592 24.073 153.692 24.0855 153.778C24.1104 153.865 24.1021 153.948 24.0896 154.022C24.0689 154.167 24.0273 154.295 23.9817 154.394C23.8944 154.597 23.7989 154.7 23.7906 154.692C23.7782 154.683 23.8488 154.568 23.9194 154.369C23.9526 154.27 23.9858 154.146 24.0024 154.01C24.0273 153.886 23.9983 153.687 23.8695 153.716C23.7449 153.754 23.6743 153.919 23.6411 154.043C23.6079 154.175 23.612 154.299 23.6328 154.402C23.6743 154.601 23.7699 154.704 23.7574 154.717Z" fill="#263238"/>
<path d="M31.5086 151.006C31.5128 151.022 31.2881 151.072 30.9719 151.245C30.6557 151.415 30.2563 151.733 29.9858 152.208C29.7154 152.684 29.653 153.192 29.6696 153.547C29.6863 153.907 29.7612 154.122 29.7445 154.126C29.7404 154.126 29.7154 154.076 29.6821 153.977C29.653 153.878 29.6197 153.733 29.5989 153.552C29.5615 153.188 29.6155 152.659 29.8985 152.163C30.1772 151.667 30.6058 151.345 30.9386 151.188C31.105 151.105 31.2465 151.059 31.3464 151.035C31.4504 151.006 31.5086 151.002 31.5086 151.006Z" fill="#263238"/>
<path d="M29.5031 148.278C29.5281 148.27 29.8318 148.927 30.1813 149.753C30.5308 150.576 30.7971 151.254 30.7721 151.266C30.7471 151.274 30.4434 150.617 30.0939 149.791C29.7403 148.964 29.4781 148.286 29.5031 148.278Z" fill="#263238"/>
<path d="M28.5386 153.832C28.551 153.853 28.1059 154.126 27.5109 154.374C26.9159 154.622 26.4083 154.746 26.4 154.721C26.3917 154.696 26.8826 154.531 27.4734 154.283C28.0601 154.043 28.5219 153.808 28.5386 153.832Z" fill="#263238"/>
<path d="M29.9772 153.25C30.002 153.262 29.9814 153.365 29.9772 153.498C29.9731 153.626 29.9855 153.733 29.9607 153.741C29.9358 153.75 29.8779 153.642 29.882 153.493C29.882 153.34 29.9524 153.237 29.9772 153.25Z" fill="#263238"/>
<path d="M30.2432 152.357C30.268 152.365 30.2515 152.46 30.206 152.568C30.1605 152.675 30.1067 152.754 30.0818 152.746C30.057 152.737 30.0736 152.642 30.1191 152.535C30.1646 152.427 30.2184 152.349 30.2432 152.357Z" fill="#263238"/>
<path d="M30.8966 151.737C30.9008 151.766 30.8052 151.803 30.7097 151.886C30.6142 151.965 30.5644 152.055 30.5353 152.047C30.5104 152.043 30.5311 151.915 30.6433 151.816C30.7637 151.712 30.8925 151.712 30.8966 151.737Z" fill="#263238"/>
<path d="M31.3869 151.369C31.4034 151.39 31.3786 151.444 31.329 151.489C31.2793 151.539 31.2214 151.559 31.2048 151.543C31.1883 151.522 31.2131 151.469 31.2627 151.419C31.3124 151.374 31.3703 151.353 31.3869 151.369Z" fill="#263238"/>
<path d="M55.9981 108.42L32.8152 108.85C29.1081 108.92 26.0168 111.685 25.5633 115.343L20.9658 152.456H33.5558L37.4002 120.402H55.6819L55.9981 108.42Z" fill="#263238"/>
<path d="M21.1187 150.096C21.1187 150.154 23.8771 150.22 27.2805 150.241C30.6839 150.261 33.3841 150.179 33.4424 150.17C33.8335 150.133 30.6839 150.046 27.2805 150.026C23.8813 150.005 21.1187 150.038 21.1187 150.096Z" fill="#455A64"/>
<path d="M77.7621 120.398C87.0153 117.356 80.3833 106.702 80.3833 106.702L45.0931 108.747C41.8478 108.727 39.2017 111.335 39.2017 114.558L39.3306 115.492C39.3306 118.704 41.8228 120.369 45.0515 120.369L77.7621 120.398Z" fill="#263238"/>
<path d="M72.2913 107.252C72.2913 107.248 72.2538 107.248 72.1748 107.248C72.0874 107.248 71.9751 107.252 71.8336 107.256C71.5216 107.268 71.0847 107.285 70.5314 107.305C69.383 107.359 67.7521 107.434 65.7383 107.529C61.6776 107.739 56.0982 108.025 49.9322 108.343C49.1625 108.376 48.3969 108.442 47.648 108.45C46.895 108.463 46.1502 108.492 45.4221 108.533C44.694 108.574 43.9784 108.624 43.2794 108.698C42.5846 108.773 41.8814 108.843 41.2407 109.091C40.6 109.326 40.0175 109.669 39.5473 110.112C39.073 110.554 38.736 111.104 38.5197 111.661C38.2991 112.224 38.1785 112.79 38.0994 113.339C38.0245 113.889 37.9829 114.418 37.9871 114.926C37.9913 115.939 38.1785 116.861 38.5238 117.596C38.865 118.332 39.3435 118.869 39.7928 119.22C40.2421 119.572 40.6582 119.749 40.9453 119.832C41.2324 119.919 41.2365 119.89 40.9578 119.791C40.679 119.696 40.2754 119.51 39.8427 119.154C39.41 118.803 38.9524 118.27 38.632 117.547C38.3033 116.828 38.1286 115.922 38.1369 114.926C38.1369 114.426 38.1826 113.906 38.2617 113.364C38.3408 112.827 38.4656 112.269 38.6819 111.728C38.8983 111.186 39.2228 110.665 39.6763 110.244C40.1298 109.822 40.6915 109.492 41.3114 109.269C41.9272 109.033 42.6054 108.967 43.3044 108.892C43.9992 108.822 44.7148 108.777 45.4387 108.735C46.1669 108.694 46.9074 108.669 47.6563 108.657C48.4136 108.649 49.1708 108.587 49.9447 108.549C56.1107 108.206 61.6942 107.896 65.755 107.673C67.7646 107.553 69.3997 107.454 70.5438 107.384C71.0972 107.347 71.5341 107.318 71.8461 107.293C71.9834 107.281 72.0957 107.272 72.1831 107.264C72.2538 107.26 72.2913 107.252 72.2913 107.252Z" fill="#455A64"/>
<path d="M73.0279 53.569C73.7269 53.6433 74.2553 54.2344 74.2387 54.9328L73.469 73.1092C73.4398 75.2541 69.5205 77.7917 67.2072 77.7463C64.869 77.6967 65.3641 75.2293 65.5222 73.1918C65.7011 70.8816 65.464 68.5176 65.464 68.5176C65.464 68.5176 62.5099 68.0299 61.8983 64.2028C61.5946 62.3017 61.6903 59.1814 61.8526 56.6314C61.9982 54.3377 64.0369 52.6225 66.3377 52.8664L73.0279 53.569Z" fill="#B78876"/>
<path d="M62.8586 59.1116C62.8503 59.372 63.0625 59.591 63.3329 59.6076C63.6034 59.6241 63.8322 59.4257 63.8405 59.1654C63.8489 58.905 63.6367 58.686 63.3662 58.6694C63.0958 58.6529 62.867 58.8513 62.8586 59.1116Z" fill="#263238"/>
<path d="M62.5393 58.2559C62.6017 58.3179 62.9761 58.0451 63.5045 58.0451C64.0371 58.041 64.424 58.3096 64.4823 58.2476C64.5114 58.2187 64.449 58.1029 64.2784 57.979C64.112 57.855 63.8249 57.7393 63.4962 57.7393C63.1633 57.7393 62.8846 57.8632 62.7265 57.9872C62.5642 58.1112 62.5101 58.2269 62.5393 58.2559Z" fill="#263238"/>
<path d="M68.0544 59.1116C68.0461 59.372 68.2583 59.5911 68.5287 59.6076C68.7992 59.6241 69.028 59.4257 69.0363 59.1654C69.0447 58.905 68.8325 58.686 68.562 58.6694C68.2916 58.6529 68.0628 58.8513 68.0544 59.1116Z" fill="#263238"/>
<path d="M67.7648 58.355C67.8272 58.417 68.2017 58.1442 68.7301 58.1442C69.2627 58.1401 69.6496 58.4087 69.7078 58.3467C69.737 58.3178 69.6746 58.2021 69.504 58.0781C69.3375 57.9541 69.0505 57.8384 68.7218 57.8384C68.3889 57.8384 68.1102 57.9624 67.9521 58.0863C67.7898 58.2103 67.7357 58.3261 67.7648 58.355Z" fill="#263238"/>
<path d="M65.834 62.2694C65.8382 62.2404 65.5053 62.1826 64.9686 62.1164C64.8313 62.104 64.7065 62.0751 64.6815 61.9842C64.6483 61.885 64.7065 61.7403 64.7731 61.5833C64.9021 61.2568 65.0352 60.9138 65.1725 60.5583C65.73 59.0953 66.1336 57.8968 66.0753 57.872C66.0171 57.8472 65.5178 59.0168 64.9603 60.4798C64.8272 60.8394 64.6982 61.1824 64.5775 61.513C64.5276 61.666 64.4361 61.8395 64.5068 62.042C64.5442 62.1412 64.6441 62.2156 64.7315 62.2404C64.8188 62.2652 64.8937 62.2694 64.9603 62.2735C65.497 62.2983 65.834 62.3024 65.834 62.2694Z" fill="#263238"/>
<path d="M65.4683 68.5174C65.4683 68.5174 68.0603 68.6827 70.6274 67.1494C70.6274 67.1494 69.3751 69.7779 65.5224 69.4184L65.4683 68.5174Z" fill="#AA6550"/>
<path d="M66.0588 63.5414C66.2502 63.2893 66.583 63.1529 66.9159 63.1901C67.1447 63.2149 67.3777 63.3265 67.5191 63.5125C67.6606 63.6985 67.6897 63.963 67.5608 64.1407C67.4193 64.3391 67.1156 64.3887 66.8659 64.3143C66.6121 64.244 66.3958 64.0787 66.1877 63.9134C66.1295 63.8679 66.0713 63.8183 66.038 63.7563C66.0005 63.6943 65.9964 63.6117 66.038 63.558" fill="#AA6550"/>
<path d="M67.3988 62.6378C67.3114 62.6337 67.3114 63.204 66.8163 63.6131C66.3253 64.0223 65.7096 63.9562 65.7054 64.0388C65.6971 64.076 65.8427 64.1504 66.1007 64.1587C66.3545 64.1669 66.7289 64.0843 67.0285 63.8363C67.3281 63.5883 67.4612 63.2536 67.4778 63.018C67.5028 62.7742 67.4404 62.6337 67.3988 62.6378Z" fill="#263238"/>
<path d="M67.5239 57.4291C67.5779 57.5738 68.1063 57.5035 68.7304 57.5779C69.3545 57.6399 69.858 57.8217 69.9412 57.6936C69.9786 57.6316 69.8913 57.4953 69.6874 57.3589C69.4877 57.2184 69.1631 57.0902 68.7887 57.0448C68.4142 57.0035 68.0731 57.0613 67.8442 57.1564C67.6196 57.2514 67.5031 57.363 67.5239 57.4291Z" fill="#263238"/>
<path d="M62.7347 56.7274C62.8263 56.8473 63.1924 56.7233 63.6334 56.715C64.0745 56.6944 64.4448 56.7935 64.5321 56.6696C64.5696 56.6076 64.5113 56.4877 64.3491 56.3761C64.1868 56.2645 63.9205 56.1695 63.6168 56.1777C63.3131 56.186 63.0509 56.2976 62.897 56.4175C62.7431 56.5456 62.6931 56.6696 62.7347 56.7274Z" fill="#263238"/>
<path d="M61.8563 56.6309C62.4139 54.7876 62.8549 54.2256 64.7604 53.5932C65.7049 57.7344 69.4286 56.3457 71.5339 56.6846C71.7503 56.7177 71.9749 56.7507 72.1497 56.8789C72.4742 57.1186 72.4992 57.5815 72.4992 57.9823C72.495 59.1148 72.5158 60.2596 72.7779 61.363C73.04 62.4665 73.5643 63.5369 74.4214 64.2809C75.6903 61.6234 75.8193 58.5279 75.2493 55.639C75.0163 54.4611 74.6252 53.2213 73.6766 52.4732C72.9984 51.936 72.1247 51.721 71.2718 51.564C69.1665 51.1796 65.8921 48.4313 63.8368 49.0264C62.2849 49.4769 61.5942 50.3737 61.2406 51.4483C60.7621 52.8906 60.9119 54.4653 61.5193 55.858L61.8563 56.6309Z" fill="#263238"/>
<path d="M77.654 112.235C77.6581 112.247 77.5499 112.309 77.3336 112.392C77.1172 112.475 76.7885 112.557 76.3767 112.586C75.5612 112.648 74.3255 112.396 73.4101 111.474C72.5031 110.54 72.2826 109.309 72.3658 108.503C72.4033 108.09 72.4948 107.767 72.5863 107.556C72.6737 107.346 72.7445 107.238 72.7528 107.242C72.7944 107.255 72.5531 107.713 72.5198 108.511C72.4782 109.288 72.7153 110.449 73.5641 111.321C74.4212 112.185 75.582 112.454 76.3683 112.429C77.1713 112.421 77.6415 112.193 77.654 112.235Z" fill="#455A64"/>
<path d="M64.5107 72.7247V70.402C64.5107 69.844 64.9559 69.3894 65.5176 69.3729L73.6349 69.1167C74.2091 69.1001 74.6876 69.5465 74.7042 70.1168L74.8207 73.8819L70.0776 78.2049L65.4677 78.6801L64.6813 76.1425L64.5107 72.7247Z" fill="#B2CAF2"/>
<path d="M75.0543 72.9844C73.8602 73.9763 72.9283 75.2451 72.3416 76.6792L66.808 89.9292L62.8596 77.2206L57.7795 78.229C56.548 78.4728 55.7949 79.7127 56.1485 80.9071L61.1038 97.5791C62.5434 100.435 66.5251 101.522 69.5374 100.406C69.6705 100.356 69.8037 100.303 69.9368 100.245C71.4721 99.5588 72.6453 98.261 73.2944 96.7195L77.6006 88.3835L80.4714 81.8618C80.5297 81.7254 80.5879 81.589 80.6379 81.4485C82.0025 77.6793 79.3772 73.6332 75.3913 73.0381L75.0543 72.9844Z" fill="#B2CAF2"/>
<path d="M67.3596 92.7183C67.3098 92.7266 67.1603 92.0777 67.0274 91.2718C66.8945 90.4659 66.828 89.8047 66.8779 89.7964" fill="#263238"/>
<path d="M57.5624 78.2827C57.5666 78.2951 57.396 78.3199 57.1089 78.4563C56.8301 78.5927 56.4349 78.9068 56.2477 79.4812C56.152 79.7623 56.0979 80.0929 56.1312 80.4566C56.1561 80.8162 56.3017 81.1923 56.4224 81.6055C56.672 82.4321 56.9591 83.3703 57.2712 84.4035C57.8953 86.4823 58.64 88.9538 59.4638 91.6939C59.8757 93.066 60.3084 94.5042 60.7536 95.9962C61.2196 97.4592 62.1932 98.8272 63.5495 99.7447C64.9059 100.654 66.566 101.059 68.0887 100.819C69.6198 100.592 70.9637 99.7447 71.825 98.633C72.266 98.0833 72.5489 97.4427 72.8734 96.8434C73.1896 96.24 73.4934 95.6573 73.7929 95.0952C74.3879 93.9669 74.9371 92.9172 75.4447 91.9542C76.4557 90.049 77.2754 88.4992 77.8495 87.4164C78.1324 86.8915 78.353 86.4823 78.5111 86.1889C78.5859 86.0566 78.6442 85.9533 78.69 85.8707C78.7316 85.8004 78.7524 85.7632 78.7565 85.7673C78.7607 85.7673 78.744 85.8087 78.7108 85.8831C78.6692 85.9657 78.6192 86.0773 78.5527 86.2096C78.4029 86.5071 78.1907 86.9245 77.9244 87.4577C77.3627 88.5529 76.5639 90.111 75.582 92.0286C75.0827 92.9916 74.5377 94.0496 73.9552 95.182C73.664 95.7482 73.3602 96.3351 73.0482 96.9385C72.732 97.5336 72.4449 98.1866 71.9914 98.7652C71.1052 99.9224 69.7114 100.799 68.1262 101.038C66.541 101.295 64.831 100.873 63.433 99.9348C62.0351 98.9884 61.0324 97.5791 60.558 96.0706C60.1129 94.5745 59.6843 93.1321 59.2766 91.76C58.4694 89.0158 57.7413 86.5402 57.1297 84.4572C56.826 83.4199 56.5514 82.4776 56.3101 81.651C56.1977 81.2377 56.0521 80.8534 56.0355 80.4731C56.0063 80.097 56.0688 79.7499 56.1769 79.4647C56.385 78.8737 56.8052 78.5555 57.0964 78.4274C57.3877 78.2868 57.5624 78.2827 57.5624 78.2827Z" fill="#263238"/>
<path d="M62.8587 77.2217C62.8671 77.2217 62.9003 77.3043 62.9586 77.4614C63.021 77.6432 63.1042 77.8788 63.2041 78.164C63.4163 78.8046 63.7117 79.6849 64.0695 80.7636C64.7892 82.9871 65.767 86.0123 66.8529 89.36C66.8987 89.5005 66.9403 89.6369 66.9819 89.765L66.778 89.7567C68.1053 86.6033 69.2993 83.764 70.1731 81.6852C70.6058 80.6809 70.9594 79.8585 71.2174 79.2633C71.338 78.9947 71.4337 78.7798 71.5128 78.6103C71.5835 78.4615 71.621 78.3872 71.6293 78.3872C71.6376 78.3913 71.6085 78.4698 71.5544 78.6269C71.4878 78.8004 71.4046 79.0236 71.2964 79.2964C71.0551 79.8998 70.7223 80.7305 70.3145 81.7431C69.4574 83.8302 68.2842 86.6736 66.9819 89.8394L66.8696 90.1121L66.778 89.8311C66.7364 89.703 66.6906 89.5625 66.649 89.4261C65.5881 86.0702 64.6311 83.0366 63.928 80.809C63.5952 79.7221 63.3247 78.8335 63.125 78.1888C63.0418 77.8953 62.9711 77.6598 62.917 77.4738C62.8712 77.3085 62.8504 77.2217 62.8587 77.2217Z" fill="#263238"/>
<path d="M77.097 74.1712C77.0928 74.2084 76.7516 74.1712 76.2108 74.2291C75.674 74.2828 74.9293 74.4647 74.222 74.8862C73.5147 75.3078 73.0112 75.8781 72.7117 76.3244C72.4079 76.7708 72.2831 77.089 72.2498 77.0766C72.229 77.0684 72.3039 76.7295 72.5827 76.2418C72.8573 75.7582 73.369 75.1424 74.1138 74.7002C74.8544 74.2539 75.6449 74.0927 76.2024 74.0762C76.76 74.0555 77.1011 74.1506 77.097 74.1712Z" fill="#263238"/>
<path d="M66.1083 72.7741C66.0504 72.7699 66.0339 72.0054 66.0752 71.0589C66.1166 70.1125 66.1994 69.3521 66.2614 69.3521C66.3194 69.3562 66.3359 70.1208 66.2945 71.0672C66.249 72.0136 66.1663 72.7741 66.1083 72.7741Z" fill="#263238"/>
<path d="M68.2542 72.5632C68.1963 72.5673 68.0804 71.8482 68.068 70.9473C68.0556 70.0463 68.1508 69.323 68.2087 69.3272C68.2708 69.3313 68.2666 70.0546 68.2832 70.9473C68.2956 71.8358 68.3163 72.5591 68.2542 72.5632Z" fill="#263238"/>
<path d="M70.4305 72.5171C70.3726 72.5212 70.2774 71.7856 70.2857 70.8722C70.2898 69.9588 70.3974 69.2273 70.4553 69.2315C70.5174 69.2356 70.5091 69.9712 70.5008 70.8722C70.4925 71.7814 70.4884 72.513 70.4305 72.5171Z" fill="#263238"/>
<path d="M72.7194 72.427C72.6615 72.4228 72.6077 71.6996 72.6077 70.811C72.6035 69.9183 72.6491 69.1951 72.7111 69.1909C72.7691 69.1868 72.8229 69.9142 72.8229 70.8069C72.8229 71.7037 72.7773 72.4311 72.7194 72.427Z" fill="#263238"/>
<path d="M48.9206 90.3754C48.8749 90.4002 48.5171 89.3918 48.646 88.1106C48.7625 86.8294 49.3076 85.9078 49.3492 85.9367C49.4116 85.9615 48.9747 86.8914 48.8624 88.1271C48.7334 89.367 48.9872 90.363 48.9206 90.3754Z" fill="#263238"/>
<path d="M62.2223 77.4358C62.2223 77.4358 61.9352 74.27 61.7272 72.6376C61.515 71.0051 60.5081 71.1952 60.4166 70.3108C60.325 69.4263 59.9173 69.4676 59.9173 69.4676C59.4305 69.2899 59.5428 70.6083 59.5428 70.6083C59.5428 70.6083 55.6194 69.666 55.324 69.542C55.0286 69.4181 54.5543 69.7528 54.729 70.195C54.7914 70.3521 56.9799 71.2613 56.9799 71.2613C56.9799 71.2613 55.1825 72.9806 55.1451 73.708C55.1076 74.4354 57.5125 76.1257 57.5125 76.1257L57.5624 78.2831L62.2223 77.4358Z" fill="#B78876"/>
<path d="M58.7482 72.2162C58.7191 72.2244 58.6692 72.1252 58.5111 72.055C58.3571 71.9847 58.095 71.9021 57.8371 71.7822C57.3087 71.5508 56.9009 71.3193 56.9259 71.2656C56.9509 71.2119 57.396 71.3565 57.9244 71.588C58.1866 71.7078 58.4195 71.807 58.5901 71.9269C58.769 72.055 58.7815 72.2203 58.7482 72.2162Z" fill="#AA6550"/>
<path d="M57.8288 73.1044C57.7872 73.1499 57.4502 72.8895 57.0092 72.6126C56.5723 72.3316 56.1896 72.1415 56.2145 72.0836C56.2353 72.0299 56.668 72.1374 57.1257 72.4308C57.5834 72.7201 57.8704 73.0631 57.8288 73.1044Z" fill="#AA6550"/>
<path d="M57.2298 73.7954C57.2048 73.8492 56.7971 73.7004 56.3228 73.4648C55.8485 73.2292 55.4865 72.9978 55.5115 72.9441C55.5364 72.8904 55.9442 73.0391 56.4185 73.2747C56.8928 73.5103 57.2548 73.7417 57.2298 73.7954Z" fill="#AA6550"/>
<path d="M62.2226 77.3445C62.1894 77.3486 62.1353 76.9023 62.0521 76.179C61.9647 75.4599 61.8648 74.4597 61.6734 73.3728C61.5736 72.8314 61.4613 72.3189 61.274 71.8932C61.1783 71.6783 61.0618 71.513 60.8913 71.3973C60.7248 71.2733 60.5542 71.1741 60.3961 71.0914C59.7512 70.7691 59.3144 70.6244 59.331 70.5914C59.3352 70.579 59.4475 70.5996 59.6431 70.6575C59.8386 70.7153 60.1257 70.8021 60.4627 70.9592C60.6291 71.0377 60.8122 71.1328 60.9953 71.2567C61.1908 71.3766 61.3531 71.5915 61.4529 71.8147C61.661 72.2693 61.7816 72.7942 61.8815 73.3397C62.077 74.4391 62.1519 75.4433 62.2018 76.1666C62.2518 76.894 62.2518 77.3445 62.2226 77.3445Z" fill="#AA6550"/>
<path d="M76.8345 64.8056C76.8262 64.8014 76.8512 64.7105 76.9094 64.5369C76.9718 64.3427 77.0509 64.0906 77.1549 63.7765C77.3546 63.1152 77.675 62.1564 77.8206 60.9331C77.8872 60.3255 77.9121 59.6436 77.7915 58.9369C77.6708 58.2302 77.417 57.4904 76.9677 56.8167C76.5267 56.1472 75.8734 55.5521 75.0455 55.2628C74.2175 54.9693 73.2772 54.9941 72.3244 54.9404C71.3758 54.8908 70.3856 54.7007 69.6617 54.0849C69.2997 53.7832 69.0667 53.3575 68.9377 52.9442C68.8004 52.5268 68.7172 52.1176 68.5674 51.7457C68.2928 50.9894 67.5938 50.5348 66.9032 50.3736C66.2084 50.2 65.5135 50.2537 64.931 50.4314C64.3486 50.6091 63.8743 50.9356 63.5955 51.3241C63.3167 51.7126 63.2335 52.1466 63.2502 52.4813C63.2668 52.8202 63.375 53.0723 63.4665 53.2253C63.5622 53.3782 63.6329 53.4443 63.6246 53.4526C63.6246 53.4526 63.5414 53.3988 63.4291 53.25C63.3209 53.1013 63.1919 52.845 63.1628 52.4896C63.1337 52.1383 63.2044 51.6837 63.4915 51.258C63.7786 50.8365 64.2737 50.481 64.8811 50.2868C65.4844 50.0925 66.2042 50.0264 66.9406 50.2C67.3068 50.2868 67.677 50.4397 68.0016 50.6835C68.3261 50.9274 68.5924 51.2745 68.7463 51.6713C68.9044 52.0639 68.9918 52.4813 69.1249 52.8781C69.2539 53.279 69.4661 53.6509 69.7948 53.9278C70.4563 54.4899 71.4008 54.6842 72.3328 54.7296C73.2731 54.7833 74.2342 54.7544 75.1121 55.0685C75.9899 55.3785 76.6764 56.0149 77.1299 56.7134C77.5918 57.416 77.8497 58.1847 77.9621 58.9121C78.0786 59.6436 78.0453 60.3379 77.9662 60.9579C77.7956 62.1977 77.4545 63.1565 77.2298 63.8095C77.1133 64.136 77.0176 64.3881 76.9469 64.5576C76.8803 64.7229 76.8387 64.8097 76.8345 64.8056Z" fill="#455A64"/>
<path d="M74.2967 68.7565C74.2551 68.7234 74.8542 68.2233 75.3285 67.1157C75.5573 66.566 75.7446 65.8676 75.7612 65.0823C75.782 64.2971 75.6281 63.4251 75.2162 62.615C75.0123 62.2059 74.7793 61.8174 74.5962 61.4124C74.409 61.0115 74.2967 60.5858 74.2343 60.1849C74.1095 59.3914 74.0512 58.6681 73.7766 58.1433C73.5103 57.6142 73.1192 57.296 72.8155 57.1762C72.5076 57.048 72.3079 57.0811 72.3121 57.0563C72.3121 57.048 72.3578 57.0398 72.4494 57.0356C72.5409 57.0356 72.6782 57.0398 72.8446 57.0976C73.1816 57.201 73.6143 57.5233 73.9139 58.073C74.226 58.6268 74.3008 59.3748 74.434 60.1518C74.5006 60.5444 74.6087 60.9371 74.7918 61.3256C74.9707 61.7141 75.2037 62.1025 75.4117 62.52C75.8403 63.3631 75.9942 64.2764 75.9609 65.0865C75.9276 65.9006 75.7238 66.6198 75.4658 67.1736C75.2079 67.7315 74.9125 68.1365 74.6795 68.3886C74.5713 68.5209 74.4673 68.6077 74.4049 68.6697C74.3424 68.7317 74.305 68.7606 74.2967 68.7565Z" fill="#455A64"/>
<path d="M71.0933 79.0313C71.1016 79.0561 70.7022 79.2421 70.0406 79.4942C69.3791 79.7422 68.4388 80.0686 67.3487 80.205C66.2586 80.3414 65.2476 80.1968 64.5736 79.9405C64.2366 79.8165 63.9786 79.6802 63.8122 79.5686C63.6458 79.4611 63.5626 79.3867 63.5709 79.3743C63.5917 79.3413 63.9578 79.5892 64.6277 79.7959C65.2934 80.0067 66.267 80.1224 67.3279 79.9901C68.3889 79.8579 69.3208 79.5603 69.9949 79.3495C70.6647 79.1346 71.0808 79.0024 71.0933 79.0313Z" fill="#FAFAFA"/>
<path d="M80.1965 81.9326C80.1508 81.9491 80.1092 81.3416 79.5849 80.5811C79.0815 79.8207 78.033 78.9817 76.6725 78.6139C75.3037 78.2543 73.9931 78.3287 73.0652 78.3825C72.1333 78.4486 71.5549 78.5023 71.5508 78.4693C71.5508 78.4527 71.6922 78.4238 71.9502 78.3783C72.2082 78.337 72.5868 78.2791 73.0528 78.2295C73.9806 78.1345 75.312 78.0353 76.7266 78.4031C78.1453 78.7833 79.2188 79.6843 79.7139 80.4943C79.9635 80.8994 80.0967 81.2672 80.1508 81.5234C80.2048 81.7879 80.209 81.9326 80.1965 81.9326Z" fill="#FAFAFA"/>
<path d="M75.5277 91.4054C75.4861 91.4178 75.3488 90.9012 74.966 90.1449C74.7788 89.7647 74.5083 89.3349 74.1755 88.8844C73.8302 88.4422 73.4183 87.9834 72.9315 87.5578C72.4364 87.1362 71.9246 86.7932 71.4337 86.5204C70.9385 86.2559 70.4726 86.0534 70.069 85.9211C69.2618 85.6484 68.7293 85.5864 68.7334 85.545C68.7334 85.5285 68.8666 85.5368 69.1079 85.5657C69.2285 85.5781 69.3742 85.5946 69.5447 85.636C69.7112 85.6732 69.9067 85.7062 70.1147 85.7765C70.535 85.8922 71.0176 86.0865 71.5293 86.3468C72.0369 86.6196 72.5695 86.9668 73.0729 87.3966C73.5722 87.8347 73.9924 88.3099 74.3378 88.7687C74.6706 89.2357 74.9327 89.682 75.1075 90.0788C75.2073 90.273 75.2656 90.459 75.328 90.6202C75.3904 90.7814 75.432 90.9219 75.4611 91.0376C75.5152 91.2732 75.5443 91.4013 75.5277 91.4054Z" fill="#FAFAFA"/>
<path d="M68.9213 100.526C68.8838 100.513 69.0627 99.8935 69.1959 98.8644C69.2666 98.3519 69.3041 97.7361 69.3041 97.0501C69.2916 96.3682 69.2375 95.616 69.1044 94.8349C68.9671 94.0579 68.7632 93.3305 68.5427 92.6816C68.3097 92.0369 68.0684 91.4707 67.8271 91.0078C67.3527 90.0821 66.9741 89.5572 67.0074 89.5365C67.0199 89.5283 67.1197 89.6522 67.2987 89.8878C67.4776 90.1193 67.7064 90.4788 67.9643 90.9376C68.2223 91.3963 68.4886 91.9625 68.7299 92.6155C68.9629 93.2685 69.1751 94.0083 69.3165 94.7977C69.4497 95.5912 69.4996 96.3516 69.4996 97.0459C69.4871 97.7403 69.433 98.3643 69.3415 98.8809C69.2541 99.3975 69.1584 99.8108 69.0669 100.092C68.9879 100.377 68.9338 100.53 68.9213 100.526Z" fill="#FAFAFA"/>
<path d="M59.522 91.0174C59.5178 90.9802 59.9672 90.9513 60.6662 90.7777C61.361 90.6083 62.2971 90.2528 63.2 89.637C64.0987 89.0212 64.7685 88.2773 65.1804 87.6946C65.5923 87.1118 65.7795 86.7027 65.817 86.7192C65.8295 86.7234 65.792 86.8308 65.7171 87.0168C65.6422 87.2069 65.5049 87.4673 65.3094 87.7772C64.9225 88.393 64.2526 89.1783 63.3248 89.8106C62.397 90.4429 61.4192 90.786 60.7036 90.9224C60.3458 90.9926 60.0504 91.0257 59.8424 91.0257C59.6385 91.0381 59.5262 91.0339 59.522 91.0174Z" fill="#FAFAFA"/>
<path d="M64.2194 81.7016C64.2277 81.7099 64.1612 81.7966 64.0197 81.9372C63.8782 82.0777 63.6536 82.2595 63.3457 82.4455C62.7424 82.8299 61.7938 83.1811 60.7037 83.2969C59.6178 83.4126 58.6317 83.3217 57.9327 83.2431C57.2296 83.1605 56.801 83.0778 56.8052 83.053C56.8094 83.0241 57.2462 83.0489 57.9494 83.0944C58.6525 83.1357 59.6261 83.1977 60.6829 83.0861C61.7397 82.9745 62.6633 82.6563 63.2708 82.3174C63.8782 81.9826 64.1944 81.6727 64.2194 81.7016Z" fill="#FAFAFA"/>
<path d="M74.3296 73.3609C74.3338 73.3733 74.1924 73.4476 73.9219 73.5716C73.6556 73.6956 73.2645 73.8609 72.7736 74.0552C71.7958 74.4313 70.3937 74.9272 68.7628 75.0057C67.1276 75.0801 65.6631 74.5842 64.7936 73.9725C64.3525 73.6708 64.0446 73.365 63.8616 73.1335C63.6743 72.9021 63.5953 72.7616 63.6036 72.7533C63.6411 72.7203 63.9947 73.2906 64.8768 73.8485C65.7422 74.4106 67.1651 74.8652 68.7503 74.795C70.3396 74.7164 71.7293 74.2535 72.7195 73.9147C73.1772 73.7493 73.5683 73.613 73.8928 73.4972C74.1674 73.3981 74.3255 73.3485 74.3296 73.3609Z" fill="#FAFAFA"/>
<path d="M56.7011 91.2778C56.6637 91.286 56.5472 90.7777 56.2601 89.9966C55.9772 89.2113 55.4904 88.1616 54.7706 87.1077C54.0466 86.0579 53.2312 85.2314 52.5987 84.6817C51.9663 84.132 51.5336 83.8427 51.5544 83.8097C51.5628 83.7973 51.6792 83.8593 51.879 83.9832C52.0828 84.1031 52.3657 84.3015 52.6986 84.566C53.3643 85.0909 54.2131 85.9174 54.9495 86.9837C55.6817 88.0541 56.1561 89.1369 56.4057 89.9428C56.5305 90.3479 56.6137 90.6785 56.6553 90.9099C56.7011 91.1455 56.7177 91.2736 56.7011 91.2778Z" fill="#FAFAFA"/>
<path d="M50.1319 96.0052C50.0986 96.0011 50.1444 95.4514 50.1901 94.567C50.2359 93.6784 50.2692 92.4551 50.2276 91.1036C50.1818 89.7522 50.0653 88.5289 49.9613 87.6486C49.8573 86.7683 49.7782 86.2227 49.8074 86.2144C49.824 86.2103 49.8615 86.3467 49.9155 86.5864C49.9738 86.8302 50.0404 87.1857 50.1111 87.6237C50.2567 88.5041 50.3982 89.7315 50.4439 91.0912C50.4897 92.4509 50.4273 93.6867 50.3441 94.5752C50.3025 95.0175 50.2567 95.377 50.2151 95.625C50.1777 95.873 50.1485 96.0093 50.1319 96.0052Z" fill="#FAFAFA"/>
<path d="M49.0042 84.669C49.0209 84.6855 48.7588 85.0079 48.247 85.4542C47.7394 85.8964 46.9697 86.442 46.0336 86.8883C45.0974 87.3305 44.1863 87.5785 43.5164 87.686C42.8466 87.7976 42.4305 87.7976 42.4263 87.7728C42.4139 87.7025 44.0989 87.5744 45.9379 86.6941C47.7935 85.8303 48.9585 84.6111 49.0042 84.669Z" fill="#FAFAFA"/>
<path d="M48.0845 79.5072C48.097 79.5279 47.8016 79.7552 47.2649 80.0197C46.7282 80.2842 45.9335 80.5611 45.0182 80.6768C44.1028 80.7926 43.2666 80.7223 42.6758 80.5983C42.0849 80.4785 41.7438 80.3297 41.7521 80.309C41.7646 80.2388 43.1958 80.7016 44.9891 80.4619C46.7823 80.2512 48.0554 79.4411 48.0845 79.5072Z" fill="#FAFAFA"/>
<path d="M46.6867 72.7615C46.6992 72.7821 46.4246 72.964 45.9337 73.1623C45.4469 73.3649 44.7354 73.5715 43.9283 73.6542C43.1211 73.7327 42.3847 73.6707 41.8646 73.5715C41.3445 73.4723 41.0408 73.3524 41.045 73.3277C41.0574 73.2574 42.3264 73.6087 43.9075 73.4392C45.4885 73.2905 46.6576 72.6953 46.6867 72.7615Z" fill="#FAFAFA"/>
<path d="M78.6987 98.3734C78.6987 98.3941 78.4199 98.3734 77.9289 98.4065C77.4338 98.4396 76.7224 98.547 75.8778 98.8156C75.0332 99.0801 74.0679 99.51 73.0194 100.039C71.9668 100.56 70.8185 101.171 69.512 101.601C68.2056 102.035 66.8784 102.151 65.6926 102.076C64.5068 101.998 63.4584 101.729 62.6221 101.407C61.7858 101.08 61.1492 100.721 60.7415 100.44C60.5293 100.308 60.3837 100.179 60.2755 100.101C60.1715 100.018 60.1216 99.9728 60.1257 99.9687C60.1549 99.9191 61.0078 100.655 62.6762 101.262C63.5083 101.56 64.5401 101.808 65.7051 101.874C66.8701 101.936 68.1682 101.816 69.4455 101.395C70.7269 100.973 71.8711 100.37 72.9321 99.8612C73.9889 99.3405 74.9749 98.919 75.8362 98.671C76.6974 98.4147 77.4255 98.3321 77.9248 98.3238C78.1744 98.3197 78.37 98.328 78.5031 98.3404C78.6279 98.3528 78.6987 98.3652 78.6987 98.3734Z" fill="#FAFAFA"/>
<path d="M78.9979 92.5296C79.0187 92.5833 78.0742 92.9594 76.851 93.1991C75.6278 93.443 74.6126 93.4471 74.6084 93.3892C74.6043 93.3272 75.5986 93.2239 76.8094 92.9883C78.016 92.7528 78.9771 92.4676 78.9979 92.5296Z" fill="#FAFAFA"/>
<path d="M79.7094 103.209C79.7136 103.217 79.6428 103.246 79.5055 103.295C79.3474 103.349 79.1519 103.419 78.9147 103.502C78.3988 103.68 77.6457 103.907 76.7054 104.163C74.8248 104.68 72.187 105.25 69.2247 105.589C66.2623 105.924 63.5621 105.961 61.6108 105.878C60.6372 105.841 59.8508 105.788 59.3058 105.73C59.0561 105.705 58.8481 105.68 58.6817 105.664C58.5402 105.647 58.4653 105.635 58.4653 105.626C58.4653 105.618 58.5402 105.618 58.6858 105.622C58.8523 105.63 59.0603 105.639 59.3141 105.647C59.8591 105.68 60.6455 105.709 61.6149 105.726C63.5579 105.767 66.2498 105.705 69.1997 105.374C72.1454 105.035 74.7791 104.49 76.6638 104.015C77.6083 103.779 78.3655 103.572 78.8898 103.419C79.1311 103.353 79.3308 103.295 79.493 103.254C79.6345 103.217 79.7094 103.2 79.7094 103.209Z" fill="#FAFAFA"/>
<g opacity="0.3">
<g opacity="0.3">
<g opacity="0.3">
<path opacity="0.3" d="M67.9766 100.923C69.1166 101.349 70.3148 101.667 71.5339 101.655C72.7529 101.642 73.997 101.279 74.9081 100.477C76.0232 99.5015 76.5225 98.0178 76.9219 96.5919C77.6 94.1701 78.1992 89.4669 78.1284 86.9541C78.1284 86.9541 75.7111 91.9177 74.8416 93.4386C74.0719 94.7818 73.2855 96.1539 72.3535 98.1128C71.6046 99.6957 69.8114 100.779 67.9766 100.923Z" fill="black"/>
</g>
</g>
</g>
<g opacity="0.3">
<g opacity="0.3">
<g opacity="0.3">
<path opacity="0.3" d="M55.9402 80.0811C54.2802 83.78 54.3176 88.1939 56.0443 91.8597L58.7195 89.4916L55.9402 80.0811Z" fill="black"/>
</g>
</g>
</g>
<path d="M148.838 170L94.1135 169.967C87.5314 169.963 82.1975 164.66 82.2017 158.122L82.2266 21.8407C82.2266 15.2983 87.5688 9.99587 94.1551 10L148.88 10.0331C155.462 10.0372 160.795 15.3397 160.791 21.8779L160.766 158.159C160.766 164.702 155.424 170.004 148.838 170Z" fill="#263238"/>
<path d="M148.821 14.8514L138.212 14.8473C136.789 14.8473 135.636 16.0458 135.636 17.5213V19.4348C135.636 20.9143 134.484 22.1087 133.061 22.1087L112.378 22.0964C110.955 22.0964 109.803 20.8978 109.803 19.4183V17.5047C109.803 16.0252 108.651 14.8266 107.228 14.8266L103.496 14.8225L94.209 14.8184C89.5991 14.8142 85.8546 18.5297 85.8546 23.1089L85.8296 156.13C85.8296 160.709 89.5658 164.42 94.1716 164.424L148.788 164.457C153.398 164.461 157.138 160.746 157.142 156.167L157.167 23.1461C157.167 18.5669 153.431 14.8556 148.821 14.8514Z" fill="white"/>
<path d="M146.854 124.182C146.854 124.182 157.634 121.625 157.988 121.175L149.123 98.4689C147.885 95.2969 145.797 92.4839 142.979 90.5499C141.694 89.6672 140.287 88.9566 138.784 88.4475C133.024 86.4989 128.313 86.8395 128.313 86.8395L113.348 86.0483C108.7 86.3194 104.726 87.6746 101.544 89.2972C96.4982 91.8685 92.6089 96.2309 90.4579 101.447L83.751 118.123L100.679 121.643L101.323 139.555L98.7707 164.267H145.513L145.185 125.094L146.854 124.182Z" fill="#B2CAF2"/>
<g opacity="0.3">
<g opacity="0.3">
<path opacity="0.3" d="M156.143 118.211C156.157 118.262 153.362 119.167 149.896 120.236C146.43 121.306 143.609 122.13 143.594 122.079C143.58 122.027 146.375 121.123 149.841 120.053C153.307 118.984 156.128 118.159 156.143 118.211Z" fill="white"/>
</g>
</g>
<path d="M107.242 102.249C107.231 102.256 107.128 102.117 106.955 101.857C106.786 101.597 106.521 101.231 106.185 100.791C105.85 100.348 105.419 99.8461 104.918 99.315C104.406 98.7876 103.821 98.2382 103.162 97.7034C102.499 97.1759 101.832 96.7218 101.206 96.3372C100.576 95.9599 99.9904 95.6486 99.4858 95.4141C98.9812 95.1797 98.5687 95.0002 98.2778 94.8904C97.9868 94.7768 97.8284 94.7072 97.8321 94.6926C97.8358 94.6816 98.0015 94.7255 98.3035 94.8208C98.6019 94.9123 99.0291 95.0698 99.5447 95.2933C100.06 95.513 100.657 95.8134 101.298 96.187C101.935 96.5679 102.613 97.0221 103.283 97.5569C103.95 98.0953 104.539 98.6594 105.047 99.1978C105.548 99.7436 105.972 100.26 106.296 100.714C106.624 101.168 106.87 101.546 107.021 101.82C107.172 102.088 107.253 102.242 107.242 102.249Z" fill="#263238"/>
<path d="M105.032 107.666C105.083 107.67 104.564 113.142 103.868 119.878C103.172 126.621 102.564 132.079 102.512 132.071C102.461 132.068 102.98 126.599 103.68 119.856C104.372 113.12 104.98 107.662 105.032 107.666Z" fill="#263238"/>
<path d="M141.834 97.5313C141.804 97.535 141.738 97.1065 141.594 96.4215C141.451 95.7366 141.211 94.8026 140.85 93.7989C140.489 92.7953 140.073 91.9236 139.749 91.3046C139.425 90.6856 139.2 90.312 139.226 90.2973C139.237 90.29 139.307 90.3742 139.421 90.5354C139.536 90.6966 139.69 90.9346 139.871 91.2387C140.228 91.8467 140.67 92.7221 141.035 93.733C141.399 94.7476 141.62 95.6999 141.731 96.3959C141.786 96.7438 141.823 97.0259 141.834 97.2237C141.845 97.4215 141.845 97.5313 141.834 97.5313Z" fill="#263238"/>
<path d="M142.769 116.654C142.754 116.654 142.725 116.464 142.677 116.116C142.629 115.768 142.574 115.266 142.515 114.64C142.393 113.395 142.264 111.666 142.198 109.757C142.132 107.845 142.136 106.117 142.169 104.864C142.187 104.238 142.206 103.732 142.228 103.38C142.25 103.033 142.268 102.838 142.279 102.838C142.294 102.838 142.301 103.033 142.301 103.384C142.301 103.769 142.301 104.267 142.301 104.868C142.301 106.12 142.32 107.845 142.386 109.754C142.452 111.662 142.559 113.384 142.648 114.633C142.688 115.23 142.725 115.728 142.751 116.112C142.776 116.457 142.78 116.651 142.769 116.654Z" fill="#263238"/>
<path d="M120.14 113.457C116.214 113.684 112.269 113.61 108.351 113.237V114.761H120.14V113.457Z" fill="white"/>
<g opacity="0.3">
<g opacity="0.3">
<path opacity="0.3" d="M131.864 88.1289C131.867 88.1289 131.886 88.2058 131.908 88.3596C131.933 88.5244 131.967 88.7515 132.011 89.0336C132.084 89.6269 132.188 90.495 132.272 91.5939C132.449 93.7952 132.604 96.9232 132.655 100.619L132.659 100.762L132.53 100.7C130.18 99.5641 127.543 98.3261 124.803 96.9599C119.577 94.3593 114.848 92.0041 111.407 90.2936C109.706 89.4365 108.328 88.7405 107.36 88.2534C106.892 88.0153 106.527 87.8248 106.262 87.6893C106.144 87.627 106.052 87.5794 105.979 87.5391C105.916 87.5025 105.883 87.4842 105.887 87.4805C105.887 87.4769 105.923 87.4915 105.99 87.5208C106.063 87.5538 106.163 87.5977 106.281 87.6564C106.546 87.7845 106.921 87.9604 107.393 88.1875C108.369 88.6636 109.757 89.3376 111.47 90.1727C114.914 91.8722 119.654 94.2091 124.888 96.7877C127.628 98.1503 130.258 99.392 132.604 100.538L132.479 100.619C132.438 96.9306 132.309 93.8025 132.166 91.6012C132.096 90.4987 132.011 89.6343 131.952 89.0372C131.919 88.7515 131.897 88.5244 131.878 88.3596C131.864 88.2094 131.86 88.1289 131.864 88.1289Z" fill="white"/>
</g>
</g>
<g opacity="0.3">
<g opacity="0.3">
<path opacity="0.3" d="M103.725 119.771C103.725 119.779 103.655 119.768 103.53 119.738C103.382 119.702 103.202 119.662 102.981 119.607C102.476 119.478 101.795 119.306 100.966 119.097C99.2646 118.665 96.9148 118.072 94.3145 117.446C91.7105 116.819 89.3496 116.281 87.637 115.893C86.8009 115.702 86.1159 115.545 85.6113 115.431C85.3903 115.376 85.2098 115.332 85.0625 115.299C84.9373 115.266 84.871 115.248 84.8747 115.241C84.8747 115.233 84.9446 115.241 85.0699 115.263C85.2172 115.288 85.4013 115.321 85.626 115.361C86.1085 115.449 86.8046 115.589 87.6665 115.764C89.3865 116.12 91.7547 116.64 94.3587 117.266C96.9626 117.892 99.3088 118.508 100.999 118.973C101.846 119.207 102.528 119.401 102.999 119.541C103.217 119.607 103.397 119.662 103.541 119.705C103.662 119.742 103.725 119.764 103.725 119.771Z" fill="white"/>
</g>
</g>
<path d="M129.804 85.3564C129.823 85.3014 130.817 85.8325 131.793 87.2684C132.755 88.7005 133.653 90.9275 134.162 93.4841C134.412 94.7661 134.537 96.0041 134.592 97.1286C134.6 97.6927 134.618 98.2275 134.6 98.7293C134.574 99.2311 134.567 99.6962 134.522 100.121C134.478 100.539 134.434 100.923 134.397 101.264C134.349 101.597 134.294 101.883 134.25 102.117C134.162 102.586 134.103 102.839 134.077 102.835C134.051 102.832 134.062 102.568 134.103 102.095C134.125 101.85 134.15 101.564 134.184 101.238C134.202 100.898 134.224 100.52 134.25 100.103C134.276 99.6816 134.268 99.2201 134.279 98.7256C134.283 98.2311 134.254 97.7 134.239 97.1469C134.165 96.0371 134.033 94.8174 133.786 93.5574C133.289 91.041 132.438 88.8397 131.565 87.4149C131.127 86.7043 130.666 86.1915 130.338 85.8618C130.007 85.5322 129.79 85.382 129.804 85.3564Z" fill="#263238"/>
<path d="M113.061 85.462C113.098 85.4949 112.789 85.8686 112.284 86.5755C111.779 87.2824 111.124 88.3629 110.549 89.7951C109.964 91.2272 109.536 93.0293 109.26 95.0585C108.991 97.0914 108.877 99.3623 108.726 101.736C108.601 104.106 108.597 106.377 108.593 108.442C108.593 110.505 108.59 112.365 108.59 113.933C108.579 115.497 108.549 116.764 108.501 117.636C108.457 118.511 108.406 118.991 108.365 118.991C108.325 118.991 108.303 118.508 108.277 117.632C108.255 116.742 108.221 115.482 108.181 113.933C108.14 112.373 108.089 110.512 108.059 108.442C108.034 106.373 108.023 104.095 108.148 101.703C108.299 99.3184 108.428 97.0474 108.73 94.9853C109.035 92.9268 109.518 91.088 110.166 89.6412C110.807 88.1908 111.529 87.1176 112.096 86.4399C112.674 85.766 113.039 85.44 113.061 85.462Z" fill="#263238"/>
<path d="M137.823 116.083C137.797 116.083 137.771 115.651 137.749 114.875C137.727 114.095 137.708 112.97 137.694 111.574C137.686 110.875 137.683 110.113 137.675 109.296C137.66 108.479 137.69 107.597 137.627 106.696C137.557 105.802 137.325 104.857 136.688 104.139C136.066 103.417 135.108 102.93 134.092 102.919C133.075 102.901 132.099 103.333 131.377 103.967C130.644 104.601 130.235 105.476 130.007 106.344C129.779 107.216 129.683 108.091 129.547 108.897C129.418 109.703 129.296 110.457 129.189 111.146C128.968 112.519 128.78 113.633 128.644 114.399C128.508 115.164 128.42 115.589 128.394 115.585C128.368 115.582 128.405 115.153 128.497 114.377C128.589 113.604 128.733 112.487 128.92 111.106C129.016 110.413 129.119 109.659 129.234 108.849C129.355 108.04 129.44 107.168 129.668 106.252C129.896 105.348 130.331 104.381 131.13 103.685C131.907 102.993 132.968 102.516 134.099 102.535C135.23 102.549 136.29 103.095 136.972 103.894C137.683 104.699 137.918 105.743 137.981 106.67C138.036 107.608 137.996 108.476 137.996 109.296C137.985 110.113 137.977 110.875 137.97 111.574C137.951 112.966 137.929 114.095 137.904 114.875C137.874 115.651 137.848 116.083 137.823 116.083Z" fill="#263238"/>
<path d="M134.268 99.3337C134.151 100.616 133.734 102.055 132.839 102.986C133.62 102.817 134.442 102.832 135.215 103.03C134.655 101.916 134.567 100.575 134.581 99.3301" fill="#263238"/>
<path d="M137.838 107.666C137.768 107.677 137.727 107.051 137.252 106.212C137.016 105.794 136.67 105.336 136.18 104.937C135.701 104.534 135.072 104.208 134.368 104.08C133.661 103.959 132.961 104.058 132.372 104.278C131.782 104.494 131.3 104.813 130.946 105.135C130.228 105.78 129.996 106.366 129.934 106.333C129.9 106.329 130.044 105.684 130.759 104.941C131.112 104.574 131.613 104.205 132.247 103.952C132.876 103.695 133.646 103.571 134.434 103.706C135.219 103.849 135.904 104.223 136.408 104.673C136.924 105.12 137.274 105.633 137.491 106.091C137.933 107.018 137.871 107.673 137.838 107.666Z" fill="#263238"/>
<path d="M147.694 149.162C149.889 149.154 151.849 147.59 152.88 145.667C153.915 143.744 154.173 141.506 154.276 139.327C154.545 133.562 153.83 127.749 152.169 122.222L142.556 123.892L145.175 149.638L147.694 149.162Z" fill="#FFBE9D"/>
<path d="M108.815 152.366L140.111 151.23L147.702 114.76L114.738 116.58L108.815 152.366Z" fill="#263238"/>
<path d="M124.926 115.954L125.397 115.024L127.894 114.841C127.894 114.841 128.528 113.211 132.097 113.046C135.297 112.896 135.426 114.497 135.426 114.497H137.15V115.277L124.926 115.954Z" fill="#455A64"/>
<path d="M142.376 140.612L144.748 139.924C145.193 139.796 145.665 139.774 146.122 139.862C146.678 139.971 147.19 140.239 147.595 140.634C148.379 141.404 149.646 142.675 149.827 143.052C150.092 143.605 150.092 144.565 149.827 144.92C149.562 145.272 150.409 147.088 150.302 147.693C150.195 148.297 150.037 148.905 149.827 149.154C149.613 149.407 149.827 150.268 149.296 150.923C148.766 151.575 148.291 151.978 148.291 151.978C148.291 151.978 141.775 152.282 141.138 151.978C140.501 151.674 139.389 150.517 139.389 150.517C139.389 150.517 138.807 149.458 139.706 149.356L135.997 147.942C135.551 147.773 135.286 147.279 135.459 146.836C135.518 146.682 135.621 146.55 135.787 146.48C135.787 146.48 134.122 145.956 133.735 145.788C132.965 145.451 132.674 143.667 134.266 143.898C135.109 144.019 136.243 144.264 136.243 144.264C136.243 144.264 135.636 143.279 136.487 142.697C137.002 142.341 139.323 142.773 139.323 142.773L142.376 140.612Z" fill="#FFBE9D"/>
<path d="M143.201 150.341C143.197 150.392 142.313 150.352 141.275 150.055C140.229 149.769 139.47 149.304 139.499 149.256C139.525 149.212 140.302 149.59 141.326 149.872C142.35 150.161 143.208 150.286 143.201 150.341Z" fill="#EB996E"/>
<path d="M141.783 148.037C141.768 148.088 140.416 147.788 138.759 147.366C137.101 146.945 135.768 146.564 135.783 146.513C135.798 146.462 137.149 146.762 138.807 147.183C140.464 147.601 141.797 147.985 141.783 148.037Z" fill="#EB996E"/>
<path d="M142.556 145.744C142.545 145.795 141.086 145.499 139.3 145.085C137.514 144.671 136.074 144.29 136.088 144.239C136.1 144.187 137.558 144.484 139.344 144.898C141.127 145.312 142.567 145.693 142.556 145.744Z" fill="#EB996E"/>
<path d="M144.965 142.791C144.972 142.817 144.652 142.916 144.129 143.055C143.845 143.128 143.536 143.205 143.208 143.289C143.031 143.333 142.851 143.377 142.663 143.425C142.464 143.476 142.251 143.498 142.037 143.483C141.823 143.472 141.617 143.428 141.426 143.384C141.238 143.34 141.057 143.3 140.877 143.26C140.549 143.183 140.24 143.106 139.952 143.04C139.426 142.908 139.105 142.817 139.109 142.791C139.113 142.765 139.448 142.813 139.978 142.912C140.265 142.967 140.578 143.029 140.914 143.091C141.267 143.154 141.65 143.267 142.044 143.296C142.438 143.329 142.803 143.19 143.16 143.124C143.492 143.055 143.805 142.989 144.092 142.927C144.63 142.817 144.961 142.765 144.965 142.791Z" fill="#EB996E"/>
<path d="M145.385 144.033C145.403 144.019 145.492 144.099 145.566 144.275C145.636 144.447 145.68 144.718 145.591 145C145.503 145.282 145.311 145.48 145.157 145.579C144.998 145.682 144.88 145.696 144.873 145.674C144.844 145.63 145.26 145.425 145.411 144.942C145.558 144.455 145.337 144.052 145.385 144.033Z" fill="#EB996E"/>
<path d="M145.248 146.535C145.296 146.513 145.442 146.774 145.42 147.129C145.402 147.484 145.226 147.726 145.182 147.7C145.135 147.675 145.215 147.429 145.23 147.118C145.248 146.81 145.197 146.554 145.248 146.535Z" fill="#EB996E"/>
<path d="M145.288 149.256C145.335 149.238 145.434 149.414 145.387 149.644C145.343 149.875 145.182 150 145.145 149.963C145.105 149.93 145.167 149.784 145.2 149.604C145.237 149.428 145.233 149.271 145.288 149.256Z" fill="#EB996E"/>
<path d="M145.996 142.642C145.992 142.667 145.753 142.653 145.37 142.609C145.153 142.579 144.928 142.554 144.7 142.521C144.445 142.481 144.184 142.44 143.9 142.481C143.646 142.517 143.396 142.671 143.193 142.799C142.991 142.935 142.81 143.089 142.641 143.187C142.298 143.393 142.044 143.411 142.04 143.393C142.029 143.36 142.265 143.297 142.567 143.074C142.865 142.865 143.237 142.426 143.878 142.29C144.033 142.272 144.18 142.268 144.324 142.279C144.475 142.294 144.596 142.323 144.725 142.345C144.954 142.389 145.175 142.429 145.392 142.473C145.771 142.554 146.003 142.616 145.996 142.642Z" fill="#EB996E"/>
<path d="M149.764 149.283C149.749 149.275 149.819 149.114 149.93 148.818C150.033 148.521 150.199 148.085 150.191 147.525C150.191 147.246 150.136 146.946 150.052 146.624C149.974 146.301 149.827 145.983 149.742 145.594C149.646 145.199 149.772 144.781 149.823 144.397C149.878 144.008 149.79 143.598 149.61 143.217C149.429 142.836 149.182 142.496 148.932 142.173C148.678 141.855 148.431 141.543 148.184 141.265C147.691 140.704 147.164 140.276 146.645 140.067C146.129 139.851 145.658 139.829 145.348 139.873C145.035 139.913 144.877 139.998 144.869 139.979C144.866 139.972 144.906 139.95 144.98 139.913C145.057 139.877 145.175 139.833 145.337 139.8C145.654 139.73 146.147 139.73 146.696 139.943C147.249 140.148 147.812 140.584 148.317 141.151C148.575 141.433 148.825 141.741 149.083 142.06C149.337 142.382 149.595 142.734 149.786 143.137C149.978 143.539 150.074 143.994 150.011 144.419C149.948 144.836 149.838 145.206 149.919 145.558C149.989 145.909 150.136 146.25 150.206 146.58C150.287 146.909 150.335 147.224 150.328 147.517C150.317 148.103 150.125 148.547 150 148.836C149.864 149.136 149.772 149.286 149.764 149.283Z" fill="#EB996E"/>
<path d="M127.853 131.24L102.156 135.298L103.298 121.958L89.0074 119.211L87.269 138.957L86.967 143.484C86.7644 146.55 88.175 149.502 90.698 151.279C92.9889 152.894 95.9132 153.334 98.5872 152.469L104.108 150.678L131.039 141.151" fill="#FFBE9D"/>
<path d="M143.403 128.492C143.506 128.048 143.127 127.638 142.67 127.638C141.222 127.631 137.311 127.653 135.93 128.045C134.221 128.528 127.856 131.242 127.856 131.242L130.556 141.154L140.327 141.257C140.327 141.257 143.896 139.627 143.941 138.92C143.963 138.557 143.852 137.597 143.852 137.597L144.928 137.022C146.534 136.008 145.506 134.066 145.506 134.066C145.506 134.066 146.611 133.451 146.67 132.338C146.732 131.162 145.808 130.7 145.808 130.7C145.808 130.7 146.25 129.133 145.429 128.711C144.607 128.29 143.211 128.832 143.211 128.832C143.303 128.752 143.37 128.631 143.403 128.492Z" fill="#FFBE9D"/>
<path d="M143.963 128.654C143.967 128.665 143.86 128.701 143.665 128.76C143.469 128.815 143.178 128.881 142.821 128.939C142.103 129.067 141.105 129.174 140.004 129.291C138.902 129.408 137.912 129.544 137.212 129.712C136.508 129.877 136.114 130.093 136.1 130.064C136.092 130.053 136.188 129.99 136.368 129.892C136.553 129.8 136.825 129.686 137.179 129.58C137.882 129.371 138.88 129.218 139.985 129.097C141.086 128.98 142.085 128.892 142.803 128.8C143.517 128.716 143.956 128.624 143.963 128.654Z" fill="#EB996E"/>
<path d="M145.801 130.635C145.812 130.657 145.558 130.807 145.116 130.983C144.674 131.163 144.044 131.349 143.333 131.499C142.626 131.646 141.978 131.741 141.51 131.803C141.043 131.862 140.752 131.888 140.744 131.862C140.733 131.8 141.886 131.598 143.293 131.313C143.996 131.166 144.623 131.001 145.068 130.859C145.518 130.719 145.79 130.609 145.801 130.635Z" fill="#EB996E"/>
<path d="M145.524 134.079C145.543 134.123 144.629 134.518 143.432 134.786C142.235 135.057 141.241 135.093 141.237 135.046C141.234 134.991 142.21 134.87 143.392 134.603C144.57 134.339 145.502 134.028 145.524 134.079Z" fill="#EB996E"/>
<path d="M144.924 137.019C144.943 137.067 144.243 137.386 143.319 137.609C142.394 137.832 141.624 137.865 141.621 137.814C141.613 137.759 142.365 137.642 143.274 137.422C144.184 137.206 144.906 136.968 144.924 137.019Z" fill="#EB996E"/>
<path d="M139.831 135.261C139.838 135.283 139.731 135.349 139.532 135.368C139.337 135.386 139.046 135.342 138.792 135.162C138.538 134.983 138.402 134.727 138.354 134.536C138.306 134.346 138.332 134.221 138.354 134.221C138.405 134.206 138.461 134.697 138.899 135.009C139.344 135.32 139.827 135.21 139.831 135.261Z" fill="#EB996E"/>
<path d="M139.624 138.33C139.632 138.382 139.241 138.407 138.91 138.107C138.575 137.81 138.553 137.422 138.604 137.426C138.659 137.415 138.751 137.719 139.039 137.964C139.315 138.217 139.632 138.279 139.624 138.33Z" fill="#EB996E"/>
<path d="M138.494 132.096C138.516 132.148 138.243 132.232 137.993 132.041C137.742 131.855 137.75 131.572 137.805 131.58C137.86 131.572 137.923 131.759 138.107 131.891C138.287 132.03 138.486 132.041 138.494 132.096Z" fill="#EB996E"/>
<path d="M127.853 131.24C127.853 131.236 127.879 131.221 127.93 131.199C127.989 131.17 128.067 131.137 128.162 131.093C128.38 130.998 128.682 130.866 129.068 130.694C129.86 130.349 131.017 129.859 132.475 129.262C133.205 128.965 134.011 128.643 134.891 128.317C135.333 128.163 135.786 127.976 136.295 127.884C136.796 127.789 137.315 127.738 137.849 127.694C138.917 127.61 140.048 127.573 141.23 127.558C141.525 127.555 141.823 127.555 142.125 127.551C142.276 127.551 142.427 127.551 142.582 127.551C142.729 127.544 142.921 127.566 143.068 127.65C143.37 127.804 143.587 128.163 143.484 128.533C143.447 128.613 143.407 128.628 143.37 128.661C143.333 128.687 143.296 128.709 143.259 128.727C143.186 128.767 143.112 128.8 143.039 128.829C142.887 128.892 142.74 128.947 142.574 128.991C142.527 129.005 142.475 128.972 142.46 128.925C142.449 128.877 142.479 128.826 142.527 128.811C142.924 128.698 143.326 128.606 143.746 128.54C144.162 128.478 144.593 128.434 145.035 128.496C145.252 128.533 145.488 128.599 145.665 128.767C145.841 128.936 145.933 129.163 145.978 129.383C146.059 129.833 146.003 130.28 145.897 130.719L145.849 130.61C146.059 130.727 146.239 130.888 146.39 131.082C146.773 131.577 146.858 132.243 146.67 132.815C146.475 133.39 146.048 133.836 145.55 134.14L145.587 134.016C145.841 134.551 145.974 135.129 145.897 135.708C145.83 136.291 145.447 136.8 144.976 137.093L144.968 137.096C144.604 137.29 144.247 137.481 143.889 137.668L143.937 137.58C143.967 137.836 143.989 138.089 144.007 138.342C144.015 138.47 144.022 138.594 144.026 138.723C144.026 138.785 144.026 138.851 144.022 138.917C144.011 139.001 143.981 139.071 143.941 139.129C143.786 139.356 143.584 139.506 143.385 139.657C143.186 139.803 142.98 139.931 142.777 140.06C141.956 140.554 141.138 140.957 140.35 141.323C140.339 141.327 140.328 141.331 140.317 141.331C137.359 141.287 134.917 141.25 133.205 141.221C132.365 141.202 131.702 141.188 131.238 141.18C131.021 141.173 130.851 141.169 130.722 141.162C130.604 141.158 130.545 141.151 130.545 141.147C130.545 141.144 130.604 141.14 130.722 141.136C130.851 141.136 131.021 141.133 131.238 141.129C131.702 141.129 132.365 141.129 133.205 141.129C134.917 141.14 137.359 141.155 140.317 141.169L140.284 141.177C141.061 140.81 141.875 140.4 142.685 139.909C142.887 139.785 143.086 139.657 143.278 139.514C143.466 139.371 143.665 139.217 143.786 139.034C143.819 138.99 143.83 138.942 143.838 138.902C143.841 138.844 143.841 138.785 143.838 138.723C143.834 138.602 143.827 138.477 143.819 138.353C143.801 138.104 143.775 137.851 143.746 137.598C143.742 137.562 143.76 137.525 143.794 137.51C144.147 137.32 144.504 137.129 144.869 136.935L144.862 136.939C145.296 136.661 145.635 136.214 145.698 135.683C145.768 135.159 145.639 134.595 145.407 134.104C145.385 134.056 145.403 134.005 145.444 133.979C145.897 133.701 146.305 133.272 146.475 132.756C146.644 132.243 146.563 131.631 146.224 131.196C146.092 131.023 145.919 130.87 145.749 130.774C145.709 130.752 145.69 130.705 145.701 130.664C145.801 130.258 145.856 129.818 145.782 129.415C145.742 129.218 145.665 129.027 145.525 128.899C145.388 128.771 145.193 128.709 144.994 128.676C144.589 128.617 144.169 128.657 143.764 128.72C143.359 128.782 142.954 128.873 142.571 128.983L142.523 128.804C142.667 128.767 142.818 128.712 142.957 128.654C143.027 128.624 143.097 128.591 143.164 128.558C143.226 128.533 143.289 128.463 143.315 128.47C143.315 128.35 143.322 128.203 143.252 128.086C143.193 127.965 143.09 127.866 142.969 127.804C142.843 127.738 142.722 127.72 142.567 127.723C142.416 127.723 142.265 127.723 142.114 127.723C141.812 127.723 141.514 127.727 141.219 127.727C140.04 127.742 138.91 127.771 137.849 127.848C137.319 127.888 136.803 127.939 136.313 128.027C135.827 128.112 135.37 128.295 134.932 128.445C134.052 128.764 133.245 129.079 132.512 129.368C131.061 129.954 129.897 130.423 129.083 130.749C128.693 130.906 128.383 131.031 128.166 131.119C128.067 131.155 127.989 131.188 127.927 131.21C127.882 131.236 127.853 131.243 127.853 131.24Z" fill="#EB996E"/>
<path d="M102.26 135.276C102.293 135.327 101.247 135.833 100.359 136.906C99.4571 137.968 99.1514 139.085 99.0925 139.06C99.0704 139.056 99.1182 138.77 99.284 138.338C99.4497 137.906 99.7554 137.331 100.212 136.785C100.669 136.239 101.181 135.837 101.579 135.598C101.98 135.353 102.253 135.258 102.26 135.276Z" fill="#EB996E"/>
<path d="M135.816 56.2547C135.286 49.5481 129.665 44.3726 122.899 44.3579H122.225C114.977 44.7645 111.272 51.1121 111.883 58.3095L113.135 87.1541C113.157 87.6376 113.445 88.0698 113.887 88.2749L130.155 95.8679L129.654 80.7295C129.654 80.7295 136.623 79.6673 136.726 72.7373C136.774 69.3895 136.31 62.4924 135.816 56.2547Z" fill="#FFBE9D"/>
<path d="M129.709 80.7188C129.709 80.7188 125.26 80.9752 120.586 78.0449C120.586 78.0449 122.723 83.0336 129.676 82.4256L129.709 80.7188Z" fill="#EB996E"/>
<path d="M133.345 60.5569C133.364 61.0806 132.933 61.5238 132.384 61.5531C131.835 61.5824 131.378 61.1832 131.36 60.6594C131.342 60.1356 131.772 59.6924 132.321 59.6631C132.87 59.6338 133.327 60.0331 133.345 60.5569Z" fill="#263238"/>
<path d="M134.31 59.6414C134.185 59.7695 133.433 59.2128 132.361 59.2128C131.293 59.1982 130.505 59.7439 130.391 59.6121C130.336 59.5534 130.461 59.3227 130.803 59.0736C131.142 58.8282 131.717 58.5901 132.384 58.5938C133.05 58.5975 133.61 58.8429 133.934 59.0956C134.262 59.3483 134.372 59.5827 134.31 59.6414Z" fill="#263238"/>
<path d="M122.822 60.8791C122.841 61.4029 122.41 61.8461 121.861 61.8754C121.312 61.9047 120.855 61.5055 120.837 60.9817C120.819 60.4579 121.25 60.0147 121.798 59.9854C122.343 59.9561 122.804 60.3553 122.822 60.8791Z" fill="#263238"/>
<path d="M123.787 59.8161C123.662 59.9443 122.911 59.3876 121.839 59.3876C120.771 59.373 119.982 59.9187 119.868 59.7868C119.813 59.7282 119.935 59.4975 120.281 59.2484C120.62 59.003 121.194 58.7649 121.861 58.7686C122.527 58.7723 123.087 59.0177 123.411 59.2704C123.736 59.5231 123.846 59.7575 123.787 59.8161Z" fill="#263238"/>
<path d="M127.655 67.721C127.652 67.6588 128.315 67.5489 129.394 67.4134C129.666 67.3877 129.928 67.3328 129.972 67.146C130.038 66.9482 129.924 66.6552 129.791 66.3402C129.537 65.6808 129.268 64.9922 128.989 64.267C127.873 61.3185 127.066 58.8937 127.184 58.8497C127.305 58.8058 128.307 61.161 129.423 64.1132C129.692 64.8421 129.95 65.5343 130.193 66.1973C130.296 66.505 130.473 66.8566 130.333 67.2632C130.259 67.4646 130.057 67.6148 129.884 67.6588C129.707 67.71 129.556 67.7137 129.419 67.721C128.333 67.776 127.663 67.7796 127.655 67.721Z" fill="#263238"/>
<path d="M124.505 68.4503C124.678 68.4393 124.678 69.5968 125.672 70.4173C126.663 71.2414 127.904 71.1132 127.912 71.278C127.927 71.3513 127.636 71.5015 127.113 71.5161C126.601 71.5308 125.849 71.3659 125.245 70.8641C124.641 70.3587 124.38 69.6884 124.343 69.2122C124.295 68.7287 124.424 68.443 124.505 68.4503Z" fill="#263238"/>
<path d="M124.07 55.6459C123.964 55.9353 122.896 55.7961 121.64 55.9426C120.38 56.0671 119.367 56.4298 119.201 56.1697C119.128 56.0452 119.304 55.7741 119.713 55.4921C120.118 55.2137 120.767 54.95 121.522 54.8657C122.277 54.7851 122.966 54.906 123.422 55.0928C123.886 55.2796 124.118 55.5067 124.07 55.6459Z" fill="#263238"/>
<path d="M133.923 56.5586C133.735 56.8004 132.998 56.5476 132.111 56.533C131.223 56.489 130.472 56.6905 130.298 56.4377C130.225 56.3132 130.343 56.0715 130.67 55.8444C130.995 55.6173 131.536 55.4305 132.144 55.4524C132.751 55.4744 133.282 55.6942 133.587 55.9433C133.904 56.1923 134.007 56.4414 133.923 56.5586Z" fill="#263238"/>
<path d="M112.925 63.4371C112.807 63.3858 108.141 62.0196 108.284 66.7556C108.428 71.4916 113.179 70.3745 113.183 70.2389C113.19 70.1034 112.925 63.4371 112.925 63.4371Z" fill="#FFBE9D"/>
<path d="M112.093 68.4887C112.071 68.474 112.012 68.5473 111.872 68.6169C111.736 68.6828 111.504 68.7341 111.253 68.6462C110.745 68.4777 110.296 67.6938 110.248 66.8441C110.222 66.4119 110.303 66.0016 110.443 65.6573C110.579 65.3057 110.797 65.0566 111.047 65.0053C111.297 64.9394 111.482 65.0859 111.544 65.2178C111.61 65.3496 111.585 65.4449 111.61 65.4522C111.625 65.4632 111.71 65.368 111.666 65.1738C111.644 65.0786 111.585 64.9687 111.471 64.8845C111.353 64.7966 111.183 64.7526 111.006 64.7782C110.638 64.8149 110.318 65.1592 110.163 65.5401C109.986 65.921 109.887 66.3862 109.916 66.8697C109.975 67.822 110.495 68.7011 111.187 68.8806C111.526 68.9575 111.802 68.8476 111.942 68.7341C112.089 68.6022 112.111 68.496 112.093 68.4887Z" fill="#EB996E"/>
<path d="M116.048 49.3577L135.911 49.7936C135.293 48.431 134.191 47.3395 132.994 46.4384C130.413 44.4935 127.241 43.2774 124 43.2188C120.763 43.1639 114.166 47.0868 111.82 49.3064C109.942 51.0829 109.953 52.6212 109.953 52.6212C109.654 55.1815 111.095 58.0935 111.669 60.6098C111.964 61.9064 112.535 65.8293 112.535 65.8293C113.629 65.8256 114.034 64.9576 113.868 63.8844L113.662 59.6611C113.662 59.6611 117.385 57.0313 115.621 52.2147C115.341 51.8337 114.737 50.0719 116.048 49.3577Z" fill="#263238"/>
<path d="M120.221 64.3389C120.159 64.3499 120.093 64.3059 120.082 64.2363C120.067 64.1667 120.107 64.1008 120.173 64.0862C120.235 64.0752 120.298 64.1191 120.312 64.1887C120.323 64.2583 120.283 64.3242 120.221 64.3389Z" fill="#EB996E"/>
<path d="M122.265 63.8807C122.202 63.8917 122.137 63.8404 122.122 63.7598C122.107 63.6792 122.144 63.606 122.21 63.5913C122.272 63.5803 122.338 63.6316 122.353 63.7122C122.367 63.7928 122.331 63.866 122.265 63.8807Z" fill="#EB996E"/>
<path d="M123.643 63.8477C123.577 63.855 123.514 63.7781 123.503 63.6719C123.489 63.5657 123.533 63.4741 123.595 63.4668C123.661 63.4595 123.723 63.5364 123.734 63.6426C123.749 63.7488 123.708 63.8404 123.643 63.8477Z" fill="#EB996E"/>
<path d="M121.223 65.617C121.157 65.617 121.105 65.584 121.105 65.5401C121.105 65.4998 121.157 65.4668 121.223 65.4668C121.289 65.4668 121.34 65.4998 121.34 65.5437C121.34 65.584 121.289 65.617 121.223 65.617Z" fill="#EB996E"/>
<path d="M123.097 65.1885C123.031 65.1958 122.976 65.1372 122.969 65.0639C122.962 64.9907 123.009 64.9284 123.075 64.9211C123.141 64.9174 123.196 64.9724 123.203 65.0456C123.211 65.1189 123.163 65.1811 123.097 65.1885Z" fill="#EB996E"/>
<path d="M132.865 64.0492C132.803 64.0602 132.737 64.0126 132.726 63.943C132.711 63.8698 132.751 63.8038 132.814 63.7892C132.876 63.7782 132.942 63.8258 132.953 63.8954C132.967 63.9686 132.927 64.0346 132.865 64.0492Z" fill="#EB996E"/>
<path d="M134.257 63.9249C134.191 63.9323 134.133 63.87 134.125 63.7894C134.118 63.7089 134.162 63.6356 134.228 63.6319C134.294 63.6246 134.352 63.6869 134.36 63.7675C134.371 63.848 134.323 63.9176 134.257 63.9249Z" fill="#EB996E"/>
<path d="M131.635 64.0825C131.573 64.0935 131.51 64.0605 131.499 64.0055C131.488 63.9506 131.532 63.8957 131.594 63.881C131.657 63.87 131.719 63.903 131.73 63.9579C131.741 64.0129 131.697 64.0678 131.635 64.0825Z" fill="#EB996E"/>
<path d="M132.662 65.4706C132.603 65.4963 132.53 65.4633 132.501 65.3937C132.471 65.3241 132.493 65.2472 132.552 65.2215C132.611 65.1959 132.684 65.2289 132.713 65.2985C132.746 65.3644 132.724 65.4413 132.662 65.4706Z" fill="#EB996E"/>
<path d="M133.856 65.2365C133.794 65.2182 133.753 65.1632 133.768 65.1083C133.783 65.057 133.845 65.0277 133.907 65.046C133.97 65.0643 134.01 65.1193 133.995 65.1742C133.981 65.2218 133.918 65.2511 133.856 65.2365Z" fill="#EB996E"/>
<path d="M111.688 49.5742C111.18 47.8454 111.684 45.9187 112.804 44.4976C113.92 43.08 115.747 42.2413 117.555 42.3145C118.483 42.3512 119.404 42.6149 120.328 42.5123C122.048 42.3255 123.371 40.9556 124.965 40.289C127.448 39.2524 130.608 40.1938 132.107 42.4207C132.711 43.3181 133.109 44.428 134.033 44.992C134.833 45.4792 135.842 45.4389 136.74 45.7099C138.56 46.2557 139.805 48.175 139.709 50.0613C139.613 51.9477 138.287 53.6729 136.538 54.4128C134.788 55.1526 132.707 54.9439 131.05 54.0282C129.551 53.2004 128.21 51.7829 126.494 51.8341C124.719 51.8854 123.168 53.552 121.426 53.204C120.513 53.0246 119.809 52.325 119.139 51.6803C118.468 51.0357 117.699 50.38 116.771 50.3251C115.842 50.2701 115.356 51.5411 115.688 52.4055L111.688 49.5742Z" fill="#263238"/>
<path d="M135.525 47.2836C135.528 47.2836 135.517 47.3093 135.492 47.3532C135.466 47.3972 135.433 47.4631 135.377 47.5437C135.271 47.7085 135.09 47.9393 134.806 48.1883C134.527 48.4337 134.132 48.6938 133.624 48.8696C133.12 49.0454 132.486 49.1187 131.823 48.9758C131.164 48.8366 130.464 48.4923 129.923 47.899C129.381 47.3056 129.057 46.5144 128.553 45.8185C128.302 45.4705 127.985 45.1555 127.591 44.9541C127.193 44.7563 126.737 44.6574 126.273 44.6647C125.809 44.6757 125.341 44.8002 124.921 45.0273C124.501 45.2617 124.159 45.6097 123.923 46.0456C123.683 46.4778 123.51 46.9576 123.223 47.3788C122.947 47.8074 122.464 48.1297 121.952 48.148C121.44 48.1773 120.969 47.9869 120.568 47.7488C120.159 47.5107 119.82 47.192 119.514 46.8807C118.903 46.2654 118.295 45.6537 117.544 45.4852C116.8 45.3094 116.07 45.5804 115.547 45.9504C115.013 46.3313 114.671 46.8331 114.45 47.2983C114.229 47.7708 114.115 48.2066 114.041 48.5693C113.967 48.9319 113.934 49.2139 113.908 49.408C113.886 49.6022 113.875 49.7047 113.868 49.7011C113.864 49.7011 113.864 49.6754 113.864 49.6241C113.864 49.5729 113.864 49.4996 113.872 49.4007C113.883 49.2066 113.905 48.9172 113.967 48.5509C114.03 48.1847 114.137 47.7378 114.354 47.2506C114.571 46.7672 114.918 46.2397 115.466 45.8368C116.004 45.4449 116.77 45.1445 117.577 45.324C118.391 45.4998 119.024 46.1408 119.636 46.7488C119.945 47.0565 120.269 47.3605 120.66 47.584C121.043 47.8074 121.488 47.9795 121.941 47.9502C122.394 47.9283 122.811 47.6572 123.068 47.258C123.337 46.8661 123.51 46.3936 123.757 45.9394C124 45.4815 124.383 45.0933 124.829 44.8479C125.278 44.6061 125.775 44.4742 126.269 44.4633C126.763 44.4559 127.249 44.5585 127.676 44.7783C128.103 44.998 128.438 45.3423 128.696 45.7013C129.215 46.4265 129.525 47.2104 130.041 47.7818C130.549 48.3495 131.215 48.6901 131.853 48.8293C132.49 48.9758 133.101 48.9136 133.591 48.7524C134.088 48.5912 134.475 48.3495 134.759 48.1151C135.326 47.6572 135.503 47.2653 135.525 47.2836Z" fill="#455A64"/>
<path d="M139.127 47.3536C139.134 47.3499 139.182 47.4854 139.208 47.7345C139.234 47.9836 139.223 48.3535 139.108 48.7931C138.991 49.2289 138.755 49.7271 138.364 50.1886C137.974 50.6501 137.429 51.0493 136.795 51.3241C135.51 51.8845 134.206 51.8332 133.33 51.7123C132.884 51.65 132.53 51.5695 132.287 51.5072C132.044 51.4449 131.915 51.3973 131.919 51.3863C131.926 51.3534 132.464 51.4889 133.344 51.5804C134.217 51.6647 135.481 51.6903 136.714 51.1519C137.326 50.8845 137.853 50.5073 138.228 50.075C138.608 49.6428 138.847 49.1703 138.976 48.7564C139.237 47.914 139.083 47.3536 139.127 47.3536Z" fill="#455A64"/>
<path d="M105.227 123.671C105.293 124.462 105.636 125.173 106.063 125.722C106.49 126.272 107.356 126.81 108.052 126.774C108.052 126.774 109.79 126.92 110.73 125.437C111.577 124.092 111.787 121.298 111.105 119.646C110.638 118.51 109.588 117.452 108.35 117.426C106.73 117.39 105.713 118.554 105.367 119.73" fill="#E0E0E0"/>
<path d="M105.371 119.73C105.371 119.73 105.408 119.423 105.669 118.939C105.802 118.701 105.993 118.419 106.277 118.148C106.557 117.877 106.943 117.624 107.422 117.478C107.662 117.408 107.92 117.361 108.192 117.357C108.465 117.342 108.756 117.375 109.035 117.467C109.599 117.646 110.122 118.034 110.538 118.54C110.958 119.042 111.271 119.679 111.422 120.371C111.581 121.064 111.628 121.796 111.588 122.543C111.514 123.69 111.286 124.833 110.649 125.704C110.325 126.133 109.883 126.441 109.426 126.62C108.966 126.803 108.494 126.873 108.041 126.851H108.052C107.68 126.865 107.349 126.745 107.061 126.605C106.774 126.459 106.524 126.283 106.314 126.089C105.897 125.693 105.665 125.25 105.5 124.884C105.341 124.514 105.275 124.206 105.242 123.994C105.227 123.888 105.22 123.807 105.22 123.752C105.216 123.697 105.22 123.668 105.223 123.668C105.253 123.661 105.249 124.129 105.584 124.847C105.758 125.195 105.997 125.627 106.402 125.994C106.605 126.177 106.848 126.342 107.124 126.477C107.4 126.605 107.717 126.712 108.045 126.693H108.048H108.056C108.884 126.723 109.894 126.404 110.505 125.591C111.098 124.774 111.326 123.653 111.4 122.529C111.477 121.078 111.234 119.62 110.406 118.65C110.012 118.163 109.514 117.793 108.988 117.617C108.722 117.529 108.457 117.496 108.199 117.503C107.938 117.503 107.691 117.547 107.463 117.61C107.006 117.738 106.63 117.972 106.351 118.229C106.067 118.481 105.872 118.752 105.735 118.979C105.456 119.441 105.393 119.738 105.371 119.73Z" fill="#263238"/>
<path d="M104.365 123.742C104.432 124.533 104.774 125.243 105.201 125.793C105.629 126.342 106.494 126.881 107.19 126.844C107.19 126.844 108.929 126.99 109.868 125.507C110.715 124.163 110.925 121.368 110.243 119.716C109.776 118.581 108.726 117.522 107.489 117.496C105.868 117.46 104.851 118.625 104.505 119.8" fill="#E0E0E0"/>
<path d="M104.509 119.804C104.509 119.804 104.546 119.496 104.807 119.012C104.94 118.774 105.131 118.492 105.415 118.221C105.695 117.95 106.082 117.697 106.56 117.551C106.8 117.481 107.058 117.434 107.33 117.43C107.603 117.415 107.894 117.448 108.174 117.54C108.737 117.719 109.26 118.108 109.676 118.613C110.096 119.115 110.409 119.752 110.56 120.445C110.719 121.137 110.767 121.869 110.726 122.617C110.652 123.763 110.424 124.906 109.787 125.778C109.463 126.206 109.021 126.514 108.564 126.693C108.104 126.876 107.632 126.946 107.179 126.924H107.19C106.818 126.939 106.487 126.818 106.2 126.679C105.912 126.532 105.662 126.356 105.452 126.162C105.036 125.767 104.804 125.323 104.638 124.957C104.48 124.587 104.41 124.28 104.38 124.067C104.365 123.961 104.358 123.88 104.358 123.825C104.354 123.77 104.358 123.741 104.362 123.741C104.391 123.734 104.387 124.203 104.723 124.921C104.896 125.268 105.135 125.701 105.54 126.067C105.743 126.25 105.986 126.415 106.262 126.55C106.538 126.679 106.855 126.785 107.183 126.767H107.187H107.194C108.023 126.796 109.032 126.477 109.643 125.664C110.236 124.847 110.465 123.726 110.538 122.602C110.616 121.151 110.373 119.694 109.544 118.719C109.15 118.232 108.652 117.862 108.126 117.686C107.864 117.599 107.595 117.566 107.338 117.573C107.076 117.573 106.829 117.617 106.601 117.679C106.144 117.807 105.769 118.042 105.489 118.298C105.205 118.551 105.01 118.822 104.874 119.049C104.594 119.511 104.531 119.811 104.509 119.804Z" fill="#263238"/>
<path d="M105.93 119.389C105.123 119.228 104.295 119.781 103.952 120.521C103.61 121.265 103.687 122.14 103.956 122.913C104.092 123.305 104.284 123.686 104.571 123.99C104.858 124.294 105.252 124.51 105.668 124.521C106.28 124.539 106.832 124.122 107.19 123.627C107.764 122.829 107.959 121.77 107.709 120.818C107.539 120.184 107.072 119.532 106.412 119.514" fill="#E0E0E0"/>
<path d="M106.409 119.518C106.409 119.515 106.461 119.507 106.557 119.515C106.653 119.525 106.796 119.558 106.955 119.65C107.279 119.83 107.647 120.269 107.798 120.91C107.953 121.54 107.938 122.361 107.57 123.152C107.385 123.544 107.124 123.932 106.745 124.229C106.376 124.525 105.839 124.716 105.323 124.566C104.815 124.423 104.428 124.049 104.189 123.642C103.945 123.232 103.805 122.8 103.717 122.379C103.54 121.536 103.684 120.701 104.085 120.166C104.48 119.628 105.01 119.401 105.371 119.353C105.551 119.324 105.695 119.339 105.791 119.353C105.886 119.372 105.934 119.386 105.931 119.394C105.927 119.416 105.728 119.357 105.382 119.427C105.043 119.493 104.549 119.727 104.196 120.243C103.835 120.749 103.713 121.536 103.89 122.342C103.979 122.745 104.122 123.166 104.351 123.547C104.579 123.925 104.929 124.258 105.378 124.382C105.824 124.511 106.288 124.353 106.634 124.082C106.984 123.811 107.238 123.445 107.415 123.078C107.772 122.331 107.805 121.547 107.669 120.939C107.544 120.328 107.212 119.895 106.921 119.712C106.619 119.518 106.406 119.54 106.409 119.518Z" fill="#263238"/>
<path d="M107.787 125.411C107.758 125.419 107.717 125.298 107.592 125.148C107.47 125.001 107.246 124.836 106.962 124.748C106.675 124.661 106.395 124.646 106.189 124.628C105.982 124.613 105.854 124.595 105.854 124.569C105.854 124.543 105.979 124.514 106.189 124.492C106.399 124.474 106.697 124.466 107.021 124.565C107.345 124.664 107.592 124.877 107.702 125.071C107.817 125.265 107.809 125.411 107.787 125.411Z" fill="#263238"/>
<path d="M108.078 118.892C108.096 118.907 108.022 119.024 107.849 119.159C107.68 119.295 107.404 119.438 107.072 119.496C106.741 119.555 106.431 119.518 106.225 119.449C106.015 119.383 105.908 119.298 105.919 119.28C105.938 119.225 106.428 119.423 107.039 119.309C107.65 119.203 108.037 118.848 108.078 118.892Z" fill="#263238"/>
</svg>
