<svg width="483" height="480" viewBox="0 0 483 480" fill="none" xmlns="http://www.w3.org/2000/svg">
<mask id="mask0" mask-type="alpha" maskUnits="userSpaceOnUse" x="0" y="27" width="483" height="426">
<rect y="27" width="483" height="426" fill="#C4C4C4"/>
</mask>
<g mask="url(#mask0)">
<path d="M620.08 74.4336H463.591V301.254H620.08V74.4336Z" fill="#E0E0E0"/>
<path d="M612.239 74.4348H455.75V301.255H612.239V74.4348Z" fill="#F5F5F5"/>
<path d="M592.786 99.0012H475.189V276.684H592.786V99.0012Z" fill="white"/>
<path d="M592.786 276.685C592.786 276.685 592.77 276.384 592.77 275.816C592.77 275.231 592.753 274.395 592.753 273.292C592.736 271.052 592.719 267.793 592.703 263.548C592.686 255.024 592.636 242.623 592.602 226.945C592.552 195.607 592.485 151.249 592.419 99.0026L592.803 99.387C556.869 99.4037 517.057 99.4037 475.223 99.4204H475.189L475.607 99.0026C475.574 166.041 475.54 227.831 475.524 276.685L475.189 276.351C511.007 276.418 540.356 276.484 560.78 276.535C570.992 276.568 578.981 276.601 584.429 276.618C587.137 276.635 589.21 276.652 590.63 276.652C592.051 276.668 592.786 276.685 592.786 276.685C592.786 276.685 592.101 276.702 590.714 276.718C589.31 276.735 587.254 276.735 584.563 276.752C579.131 276.768 571.176 276.802 560.997 276.835C540.523 276.885 511.09 276.936 475.189 277.019H474.855V276.685C474.838 227.831 474.805 166.024 474.771 99.0026V98.5847H475.189H475.206C517.057 98.6014 556.869 98.6014 592.786 98.6181H593.171V99.0026C593.087 151.35 593.02 195.808 592.987 227.213C592.937 242.857 592.903 255.225 592.887 263.732C592.87 267.944 592.853 271.186 592.836 273.392C592.82 274.462 592.82 275.298 592.82 275.866C592.803 276.418 592.786 276.685 592.786 276.685Z" fill="#E0E0E0"/>
<path d="M455.718 301.07C462.554 292.647 469.39 284.206 476.209 275.782L455.718 301.07Z" fill="white"/>
<path d="M476.226 275.783C476.41 275.933 471.964 281.716 466.315 288.703C460.649 295.689 455.919 301.221 455.735 301.087C455.552 300.937 459.997 295.154 465.647 288.168C471.296 281.182 476.043 275.633 476.226 275.783Z" fill="#E0E0E0"/>
<path d="M455.749 74.434C455.933 74.2836 460.395 79.6152 465.694 86.3341C471.009 93.053 475.154 98.6186 474.97 98.7523C474.786 98.9027 470.34 93.5711 465.025 86.8522C459.71 80.1501 455.565 74.5844 455.749 74.434Z" fill="#E0E0E0"/>
<path d="M128.851 38.198V163.166H-50.6534L-57.1216 39.0671L128.851 38.198Z" fill="#E0E0E0"/>
<path d="M-57.127 39.0778L-57.127 162.909H122.377V39.0778L-57.127 39.0778Z" fill="white"/>
<path d="M123.236 163.77H-57.9727V38.2175H123.236V163.77ZM-56.2679 162.065H121.531V39.9223H-56.2679V162.065Z" fill="#E0E0E0"/>
<path d="M102.93 54.4622H-37.6816V147.524H102.93V54.4622Z" fill="white"/>
<path d="M102.93 54.462C102.93 54.462 102.696 54.4787 102.244 54.4787C101.76 54.4787 101.108 54.4955 100.239 54.4955C98.4504 54.5122 95.8765 54.5289 92.5171 54.5456C85.7648 54.579 75.9539 54.6125 63.5357 54.6626C38.7494 54.7127 3.65084 54.7796 -37.6819 54.8632L-37.2808 54.462C-37.2641 82.8919 -37.2641 114.397 -37.2474 147.523V147.54L-37.6986 147.089C15.3504 147.122 64.2544 147.156 102.913 147.172L102.562 147.523C102.646 119.194 102.696 95.9786 102.746 79.8166C102.779 71.7272 102.813 65.4262 102.829 61.0973C102.846 58.958 102.863 57.3201 102.863 56.1835C102.913 55.047 102.93 54.462 102.93 54.462C102.93 54.462 102.963 54.9969 102.963 56.1C102.98 57.2198 102.98 58.841 102.997 60.9469C103.013 65.259 103.047 71.5433 103.08 79.5993C103.13 95.8282 103.18 119.127 103.264 147.54V147.891H102.913C64.2544 147.908 15.3336 147.941 -37.6986 147.975H-38.1499V147.523V147.507C-38.1332 114.397 -38.1165 82.8919 -38.1165 54.4453V54.0442H-37.7153C3.75112 54.1278 38.95 54.2113 63.8031 54.2448C76.1712 54.2949 85.9486 54.3283 92.6842 54.3617C96.0102 54.3785 98.5674 54.3952 100.322 54.4119C101.158 54.4286 101.81 54.4286 102.278 54.4286C102.729 54.4453 102.93 54.462 102.93 54.462Z" fill="#E0E0E0"/>
<path d="M122.384 39.0686C122.534 39.2525 118.306 42.8626 112.941 47.1079C107.575 51.3531 103.096 54.6457 102.946 54.4451C102.795 54.2613 107.024 50.6512 112.389 46.4059C117.754 42.1774 122.233 38.8848 122.384 39.0686Z" fill="#E0E0E0"/>
<path d="M122.234 162.932C115.565 157.517 108.896 152.118 102.228 146.703L122.234 162.932Z" fill="white"/>
<path d="M102.226 146.705C102.376 146.521 106.989 149.998 112.505 154.477C118.037 158.956 122.382 162.75 122.232 162.934C122.082 163.118 117.469 159.641 111.953 155.162C106.421 150.683 102.059 146.906 102.226 146.705Z" fill="#E0E0E0"/>
<path d="M-9.1333 83.4645L-9.1333 114.619H79.3485V83.4645H-9.1333Z" fill="#E0E0E0"/>
<path d="M313.405 124.96C317.349 117.89 319.605 109.75 319.605 101.059C319.605 74.1337 298.028 52.2891 271.403 52.2891C266.958 52.2891 262.662 52.9075 258.584 54.044C278.975 59.7266 293.967 78.613 293.967 101.059C293.967 123.506 278.975 142.392 258.584 148.075C262.662 149.211 266.958 149.83 271.403 149.83C280.78 149.83 289.538 147.105 296.942 142.426L319.622 151.2L313.405 124.96Z" fill="#EBEBEB"/>
<path d="M64.9072 397.624L73.849 731.98L121.533 730.542L132.915 386.225L64.9072 397.624Z" fill="#263238"/>
<path d="M164.034 385.657C164.034 385.657 199.433 527.389 200.52 551.557C201.606 575.725 192.948 726.782 192.948 726.782H146.267L150.162 554.766L114.695 409.19L123.286 386.393L164.034 385.657Z" fill="#263238"/>
<path d="M135.222 403.072C135.239 403.072 135.239 403.222 135.239 403.523C135.239 403.874 135.222 404.308 135.205 404.843C135.155 406.08 135.088 407.785 135.022 409.941C134.821 414.437 134.52 420.805 134.169 428.66C133.35 444.521 132.247 466.333 131.01 490.417C129.673 514.501 128.47 536.312 127.601 552.174C127.133 560.029 126.732 566.397 126.464 570.893C126.314 573.049 126.197 574.754 126.113 575.974C126.063 576.509 126.03 576.943 125.996 577.294C125.963 577.595 125.946 577.745 125.929 577.745C125.913 577.745 125.913 577.595 125.913 577.294C125.913 576.943 125.929 576.509 125.946 575.974C125.996 574.737 126.063 573.049 126.13 570.876C126.33 566.38 126.631 560.012 126.982 552.157C127.801 536.296 128.904 514.484 130.141 490.383C131.478 466.299 132.682 444.505 133.551 428.643C134.019 420.788 134.42 414.42 134.687 409.941C134.838 407.785 134.955 406.08 135.038 404.86C135.088 404.325 135.122 403.89 135.155 403.54C135.189 403.222 135.205 403.072 135.222 403.072Z" fill="#455A64"/>
<path d="M129.991 203.913C129.991 203.913 147.307 289.888 147.574 314.106C147.825 338.324 156.332 385.657 156.332 385.657H81.2879L79.6667 254.672L74.3184 215.596L85.5833 199.534L129.991 203.913Z" fill="#F5F5F5"/>
<path d="M130.893 206.453C130.893 206.453 148.793 211.718 153.523 218.337C157.25 223.568 162.298 322.446 162.298 322.446L169.986 409.54L162.482 408.838L151.885 376.23L130.893 206.453Z" fill="#B2CAF2"/>
<path d="M153.522 218.32L204.064 264.701L266.272 244.561L278.657 270.667L212.304 300.785C202.828 304.83 196.878 302.607 190.292 297.326L155.478 269.447L153.522 218.32Z" fill="#B2CAF2"/>
<path d="M254.687 252.884C255.038 253.553 254.788 254.372 254.119 254.723C253.45 255.074 252.632 254.823 252.281 254.154C251.93 253.486 252.18 252.667 252.849 252.316C253.501 251.965 254.336 252.216 254.687 252.884Z" fill="#263238"/>
<path d="M253.488 254.921C253.355 254.921 253.221 254.904 253.087 254.854C252.72 254.737 252.435 254.503 252.252 254.169C252.068 253.835 252.034 253.45 252.151 253.099C252.268 252.748 252.502 252.447 252.837 252.263C253.171 252.08 253.555 252.046 253.906 252.163C254.257 252.28 254.558 252.514 254.742 252.848C254.926 253.183 254.959 253.567 254.842 253.918C254.742 254.269 254.491 254.57 254.157 254.754C253.94 254.871 253.722 254.921 253.488 254.921ZM253.488 252.197C253.271 252.197 253.07 252.247 252.87 252.347C252.552 252.514 252.335 252.798 252.235 253.133C252.135 253.467 252.168 253.835 252.335 254.135C252.502 254.453 252.786 254.67 253.121 254.771C253.455 254.871 253.823 254.837 254.123 254.67C254.441 254.503 254.658 254.219 254.759 253.885C254.859 253.55 254.825 253.183 254.658 252.882C254.424 252.447 253.956 252.197 253.488 252.197Z" fill="#263238"/>
<path d="M259.904 251.625C260.255 252.294 260.004 253.113 259.335 253.464C258.667 253.815 257.848 253.564 257.497 252.895C257.146 252.227 257.397 251.408 258.065 251.057C258.717 250.723 259.553 250.973 259.904 251.625Z" fill="#263238"/>
<path d="M258.702 253.685C258.568 253.685 258.435 253.669 258.301 253.619C257.933 253.502 257.649 253.268 257.465 252.933C257.097 252.248 257.365 251.396 258.05 251.028C258.384 250.844 258.769 250.811 259.12 250.928C259.471 251.045 259.772 251.279 259.956 251.613C260.139 251.947 260.173 252.332 260.056 252.683C259.939 253.034 259.705 253.334 259.371 253.518C259.153 253.635 258.936 253.685 258.702 253.685ZM258.702 250.961C258.485 250.961 258.267 251.011 258.084 251.111C257.448 251.462 257.198 252.265 257.549 252.9C257.716 253.217 258 253.435 258.334 253.535C258.669 253.635 259.036 253.602 259.337 253.435C259.972 253.084 260.223 252.281 259.889 251.646C259.721 251.329 259.437 251.111 259.103 251.011C258.953 250.978 258.836 250.961 258.702 250.961Z" fill="#263238"/>
<path d="M264.871 250.64C265.222 251.308 264.971 252.127 264.303 252.478C263.634 252.829 262.815 252.578 262.464 251.91C262.113 251.241 262.364 250.422 263.032 250.071C263.684 249.72 264.52 249.971 264.871 250.64Z" fill="#263238"/>
<path d="M263.667 252.681C263.533 252.681 263.4 252.664 263.249 252.614C262.898 252.497 262.597 252.263 262.414 251.929C262.23 251.595 262.196 251.21 262.313 250.859C262.43 250.492 262.664 250.207 262.999 250.024C263.684 249.656 264.536 249.923 264.904 250.608C265.272 251.294 265.004 252.146 264.319 252.514C264.118 252.631 263.901 252.681 263.667 252.681ZM263.667 249.957C263.45 249.957 263.249 250.007 263.049 250.107C262.731 250.274 262.514 250.558 262.414 250.893C262.313 251.227 262.347 251.595 262.514 251.895C262.681 252.213 262.965 252.43 263.299 252.531C263.634 252.631 264.001 252.597 264.302 252.43C264.937 252.079 265.188 251.277 264.854 250.642C264.586 250.207 264.135 249.957 263.667 249.957Z" fill="#263238"/>
<path d="M266.891 245.864L271.705 244.093L282.736 267.358L278.039 269.364L266.891 245.864Z" fill="#E0E0E0"/>
<path d="M155.146 236.654C155.213 236.654 155.296 237.573 155.43 239.261C155.614 241.083 155.865 243.473 156.149 246.347C156.851 252.481 157.77 260.654 158.79 269.713C159.792 278.839 160.611 287.129 160.979 293.146C161.18 296.154 161.263 298.594 161.28 300.282C161.28 301.97 161.246 302.906 161.196 302.906C161.129 302.906 161.046 301.97 160.946 300.299C160.829 298.628 160.645 296.204 160.361 293.196C159.826 287.212 158.923 278.939 157.92 269.813C156.918 260.688 156.015 252.415 155.53 246.414C155.28 243.406 155.146 240.982 155.079 239.294C155.079 237.59 155.096 236.654 155.146 236.654Z" fill="#263238"/>
<path d="M166.193 248.255C166.427 248.321 165.007 253.904 163.034 260.723C161.062 267.542 159.257 273.007 159.04 272.941C158.806 272.874 160.227 267.291 162.199 260.472C164.171 253.653 165.959 248.188 166.193 248.255Z" fill="#263238"/>
<path d="M203.547 280.376C203.447 280.426 202.929 279.624 202.428 278.17C201.926 276.716 201.525 274.593 201.676 272.237C201.826 269.88 202.495 267.808 203.163 266.437C203.832 265.05 204.467 264.331 204.55 264.381C204.801 264.498 202.795 267.758 202.545 272.287C202.21 276.8 203.798 280.276 203.547 280.376Z" fill="#263238"/>
<path d="M197.767 334.099L204.235 334.6L201.661 361.593L195.41 360.874L197.767 334.099Z" fill="#E0E0E0"/>
<path d="M85.5819 201.407L50.7006 223.637C42.5109 229.386 39.0846 239.832 42.2435 249.325L69.002 333.378L59.3582 409.759L135.79 406.517L133.934 373.04L127.45 313.138C126.246 302.023 123.488 291.143 119.243 280.814L85.5819 201.407Z" fill="#B2CAF2"/>
<path d="M49.1474 253.955L84.0287 326.961C86.8533 332.86 92.1849 337.156 98.5361 338.66L195.341 361.591L197.815 333.412L123.924 305.617L86.753 234.267C81.1038 223.42 67.4488 219.576 56.9694 225.893C47.359 231.71 43.916 244.011 49.1474 253.955Z" fill="#B2CAF2"/>
<path d="M197.815 333.397C197.815 333.413 197.681 333.38 197.414 333.296C197.113 333.196 196.745 333.062 196.277 332.912C195.224 332.527 193.753 332.009 191.898 331.341C188.037 329.92 182.522 327.898 175.686 325.374C161.897 320.226 142.744 313.056 121.049 304.95L120.899 304.883L120.815 304.733C118.759 300.638 116.587 296.359 114.381 291.997C108.313 280.197 102.28 269.083 96.6307 259.054C93.8061 254.04 91.0817 249.31 88.5078 244.881C87.2209 242.675 85.9674 240.552 84.764 238.497C84.179 237.46 83.5606 236.474 82.9255 235.555C82.3405 234.586 81.6218 233.75 80.9533 232.914C78.1955 229.588 74.8194 227.432 71.6605 226.179C68.4849 224.925 65.4932 224.541 63.0864 224.658C58.1894 224.825 55.9497 226.73 55.9163 226.58C55.8996 226.563 56.05 226.463 56.3174 226.296C56.6016 226.112 57.0027 225.828 57.6044 225.594C58.7743 225.059 60.6128 224.457 63.0697 224.324C65.5099 224.173 68.5685 224.491 71.8444 225.744C75.0868 226.981 78.58 229.171 81.4213 232.547C82.1232 233.399 82.8586 234.251 83.4603 235.221C84.1289 236.174 84.7473 237.16 85.3322 238.179C86.5523 240.218 87.8226 242.341 89.1262 244.53C91.7336 248.943 94.4746 253.656 97.3159 258.67C102.999 268.682 109.066 279.779 115.133 291.596C117.372 295.941 119.528 300.254 121.551 304.348L121.317 304.131C142.961 312.337 162.081 319.591 175.853 324.823C182.656 327.447 188.138 329.552 191.965 331.023C193.804 331.742 195.258 332.327 196.294 332.728C196.745 332.912 197.113 333.062 197.414 333.196C197.698 333.33 197.832 333.397 197.815 333.397Z" fill="#263238"/>
<path d="M181.368 350.977C181.368 351.729 180.75 352.348 179.997 352.348C179.245 352.348 178.627 351.729 178.627 350.977C178.627 350.225 179.245 349.607 179.997 349.607C180.75 349.607 181.368 350.225 181.368 350.977Z" fill="#263238"/>
<path d="M179.998 352.382C179.229 352.382 178.594 351.747 178.594 350.978C178.594 350.209 179.229 349.574 179.998 349.574C180.767 349.574 181.402 350.209 181.402 350.978C181.402 351.747 180.784 352.382 179.998 352.382ZM179.998 349.641C179.263 349.641 178.678 350.226 178.678 350.961C178.678 351.697 179.263 352.282 179.998 352.282C180.734 352.282 181.319 351.697 181.319 350.961C181.335 350.243 180.734 349.641 179.998 349.641Z" fill="#263238"/>
<path d="M186.548 352.333C186.548 353.085 185.93 353.703 185.178 353.703C184.426 353.703 183.807 353.085 183.807 352.333C183.807 351.581 184.426 350.962 185.178 350.962C185.946 350.979 186.548 351.581 186.548 352.333Z" fill="#263238"/>
<path d="M185.179 353.735C184.411 353.735 183.775 353.1 183.775 352.331C183.775 351.562 184.411 350.927 185.179 350.927C185.948 350.927 186.583 351.562 186.583 352.331C186.6 353.116 185.965 353.735 185.179 353.735ZM185.179 351.011C184.444 351.011 183.859 351.596 183.859 352.331C183.859 353.066 184.444 353.651 185.179 353.651C185.915 353.651 186.5 353.066 186.5 352.331C186.516 351.612 185.915 351.011 185.179 351.011Z" fill="#263238"/>
<path d="M190.039 355.156C190.796 355.156 191.409 354.543 191.409 353.786C191.409 353.029 190.796 352.415 190.039 352.415C189.282 352.415 188.668 353.029 188.668 353.786C188.668 354.543 189.282 355.156 190.039 355.156Z" fill="#263238"/>
<path d="M190.043 355.191C189.274 355.191 188.639 354.556 188.639 353.787C188.639 353.018 189.274 352.383 190.043 352.383C190.812 352.383 191.447 353.018 191.447 353.787C191.447 354.572 190.812 355.191 190.043 355.191ZM190.043 352.466C189.308 352.466 188.723 353.051 188.723 353.787C188.723 354.522 189.308 355.107 190.043 355.107C190.778 355.107 191.363 354.522 191.363 353.787C191.363 353.068 190.762 352.466 190.043 352.466Z" fill="#263238"/>
<path d="M195.36 361.593C195.36 361.61 195.193 361.576 194.892 361.526C194.541 361.443 194.09 361.342 193.538 361.225C192.285 360.925 190.546 360.507 188.324 359.972C183.744 358.835 177.209 357.231 169.186 355.259C153.024 351.297 130.712 345.682 105.976 339.949C102.884 339.214 99.8083 338.629 96.7998 337.81C93.8081 336.991 90.8331 335.771 88.5266 333.681C86.2201 331.592 84.7493 328.918 83.4624 326.344C82.2256 323.737 81.0055 321.196 79.8188 318.706C75.1056 308.778 70.877 299.82 67.3003 292.282C63.7904 284.794 60.9324 278.71 58.9268 274.432C57.9741 272.359 57.222 270.738 56.6872 269.568C56.4532 269.05 56.2693 268.632 56.1189 268.298C56.0019 268.014 55.935 267.863 55.9518 267.846C55.9685 267.846 56.052 267.98 56.2025 268.264C56.3696 268.582 56.5869 269 56.8376 269.501C57.4058 270.654 58.2081 272.259 59.2276 274.298C61.3001 278.543 64.225 284.593 67.8518 292.031C71.4787 299.552 75.7741 308.477 80.5375 318.372C81.7409 320.845 82.9609 323.386 84.2145 325.976C85.5014 328.534 86.9388 331.107 89.1116 333.063C91.2843 335.018 94.1089 336.188 97.0505 336.991C100.009 337.793 103.101 338.378 106.193 339.13C130.946 344.863 153.225 350.562 169.354 354.69C177.359 356.78 183.861 358.484 188.424 359.671C190.63 360.273 192.352 360.741 193.605 361.075C194.157 361.242 194.591 361.359 194.942 361.459C195.21 361.526 195.36 361.576 195.36 361.593Z" fill="#263238"/>
<path d="M117.171 357.014C117.204 357.064 116.786 357.415 116.018 357.983C115.249 358.568 114.095 359.371 112.658 360.34C109.783 362.245 105.672 364.836 100.641 366.591C95.5935 368.363 90.6129 368.58 87.1699 367.945C85.4484 367.644 84.0946 367.193 83.192 366.808C82.2895 366.424 81.8382 366.14 81.8549 366.09C81.9218 365.939 83.8606 366.908 87.2534 367.343C90.6296 367.811 95.4264 367.493 100.357 365.772C105.287 364.05 109.382 361.594 112.341 359.822C115.282 358.034 117.104 356.914 117.171 357.014Z" fill="#263238"/>
<path d="M121.401 366.707C121.435 366.707 121.518 366.908 121.635 367.342C121.786 367.76 121.92 368.395 122.087 369.214C122.388 370.869 122.538 373.326 122.02 376.301C121.468 379.259 120.198 382.735 117.674 385.878C115.184 389.036 111.373 391.61 106.911 392.881C102.448 394.117 97.8353 393.883 94.0747 392.479C90.2975 391.109 87.3893 388.786 85.4004 386.546C83.4114 384.273 82.2749 382.084 81.6732 380.512C81.3724 379.727 81.1718 379.109 81.0882 378.674C80.988 378.239 80.9378 378.022 80.9713 378.005C81.1718 377.888 81.8571 381.749 85.8683 386.112C87.874 388.234 90.7153 390.424 94.3589 391.711C97.9857 393.031 102.398 393.215 106.693 392.028C110.972 390.808 114.649 388.368 117.073 385.359C119.53 382.368 120.833 379.025 121.435 376.184C122.571 370.367 121.167 366.707 121.401 366.707Z" fill="#263238"/>
<path d="M89.3389 134.87L89.5562 197.145C89.5896 207.742 98.4813 216.149 109.061 215.58C118.939 215.062 126.66 206.872 126.61 196.978C126.594 192.298 126.577 188.387 126.61 187.903C126.61 187.903 142.455 186.348 143.541 170.654C144.059 163.066 143.875 147.355 143.541 133.149C143.19 117.889 131.14 105.471 115.897 104.602L114.376 104.518C97.9966 104.552 88.871 118.474 89.3389 134.87Z" fill="#B78876"/>
<path d="M126.661 187.686C126.661 187.686 116.683 187.919 106.521 180.699C106.521 180.699 110.716 192.282 126.477 191.764L126.661 187.686Z" fill="#AA6550"/>
<path d="M139.666 142.388C139.633 143.574 138.613 144.527 137.376 144.527C136.14 144.527 135.153 143.558 135.187 142.371C135.22 141.184 136.24 140.232 137.477 140.232C138.713 140.248 139.7 141.201 139.666 142.388Z" fill="#263238"/>
<path d="M140.117 139.745C139.816 140.029 138.195 138.659 135.788 138.542C133.382 138.374 131.543 139.511 131.292 139.21C131.175 139.076 131.476 138.558 132.295 138.04C133.081 137.522 134.418 137.054 135.922 137.154C137.426 137.255 138.663 137.873 139.348 138.475C140.034 139.076 140.251 139.611 140.117 139.745Z" fill="#263238"/>
<path d="M116.217 142.2C116.183 143.387 115.164 144.34 113.927 144.34C112.69 144.34 111.704 143.37 111.738 142.184C111.771 140.997 112.791 140.044 114.027 140.044C115.248 140.044 116.234 141.014 116.217 142.2Z" fill="#263238"/>
<path d="M116.083 139.196C115.782 139.481 114.161 138.127 111.737 137.993C109.33 137.826 107.492 138.962 107.241 138.662C107.124 138.528 107.425 138.01 108.244 137.492C109.029 136.973 110.367 136.506 111.871 136.589C113.375 136.689 114.612 137.308 115.297 137.909C115.999 138.528 116.233 139.079 116.083 139.196Z" fill="#263238"/>
<path d="M123.74 158.17C123.74 158.037 125.244 157.853 127.701 157.686C128.319 157.652 128.904 157.569 129.038 157.151C129.205 156.716 128.988 156.031 128.737 155.296C128.236 153.775 127.718 152.17 127.183 150.499C125.027 143.68 123.506 138.081 123.79 137.997C124.074 137.913 126.03 143.379 128.186 150.198C128.704 151.886 129.188 153.491 129.656 155.011C129.857 155.73 130.208 156.549 129.84 157.452C129.656 157.903 129.172 158.204 128.771 158.287C128.369 158.388 128.018 158.371 127.718 158.371C125.261 158.388 123.74 158.321 123.74 158.17Z" fill="#263238"/>
<path d="M117.051 134.181C116.784 134.816 114.377 134.382 111.535 134.549C108.677 134.666 106.354 135.368 106.003 134.766C105.853 134.482 106.287 133.88 107.24 133.295C108.193 132.71 109.68 132.192 111.402 132.109C113.107 132.025 114.661 132.376 115.664 132.861C116.683 133.329 117.185 133.88 117.051 134.181Z" fill="#263238"/>
<path d="M139.898 133.983C139.447 134.501 137.809 133.849 135.82 133.698C133.831 133.481 132.109 133.849 131.742 133.264C131.591 132.98 131.892 132.445 132.661 131.96C133.413 131.492 134.667 131.125 136.037 131.258C137.408 131.375 138.577 131.944 139.229 132.545C139.915 133.147 140.115 133.732 139.898 133.983Z" fill="#263238"/>
<path d="M89.9577 146.569C89.707 146.435 79.3445 142.775 79.0771 153.522C78.8097 164.285 89.6568 162.33 89.6903 162.029C89.7237 161.712 89.9577 146.569 89.9577 146.569Z" fill="#B78876"/>
<path d="M86.5138 157.866C86.4637 157.833 86.33 158 85.9957 158.134C85.6782 158.268 85.1433 158.351 84.5918 158.134C83.472 157.683 82.5527 155.861 82.5527 153.922C82.5527 152.936 82.77 152.017 83.1377 151.248C83.4887 150.462 84.0068 149.928 84.5751 149.844C85.1433 149.727 85.5445 150.078 85.6615 150.379C85.7952 150.68 85.7283 150.897 85.7785 150.914C85.8119 150.947 86.0124 150.746 85.9456 150.295C85.9122 150.078 85.7785 149.827 85.5445 149.61C85.2938 149.393 84.9093 149.276 84.5082 149.309C83.6725 149.343 82.9037 150.095 82.5026 150.93C82.0513 151.766 81.7672 152.819 81.7839 153.905C81.8006 156.078 82.8536 158.134 84.4079 158.619C85.1601 158.836 85.7952 158.619 86.1294 158.385C86.4804 158.134 86.5473 157.883 86.5138 157.866Z" fill="#AA6550"/>
<path d="M84.0076 145.866C85.6623 145.565 88.42 147.237 89.0217 148.808C89.6401 150.379 89.6903 152.134 90.292 153.705C90.8937 155.276 92.3979 156.764 94.0525 156.463C95.2058 156.262 96.0749 155.243 96.4259 154.139C96.7936 153.036 96.7267 151.833 96.6599 150.68C96.3089 145.632 95.54 140.601 95.6236 135.537C95.7072 130.473 96.7267 125.275 99.6182 121.113C102.51 116.968 107.574 114.077 112.588 114.762C115.914 115.213 118.872 117.136 122.165 117.787C126.059 118.556 130.304 117.42 133.279 114.762C133.38 114.679 133.58 114.528 133.814 114.378C134.901 113.676 135.452 112.322 135.034 111.085C134.901 110.667 134.717 110.283 134.466 110.016C128.232 103.564 116.482 101.191 107.674 102.879C98.8661 104.567 90.3588 110.233 86.1637 118.172C81.9519 126.127 82.4199 137.509 84.0076 145.866Z" fill="#263238"/>
<path d="M118.036 160.072C118.42 160.055 118.437 162.662 120.676 164.518C122.916 166.373 125.707 166.089 125.724 166.456C125.757 166.624 125.105 166.958 123.919 166.991C122.765 167.025 121.077 166.657 119.707 165.52C118.336 164.384 117.751 162.863 117.668 161.793C117.568 160.69 117.852 160.055 118.036 160.072Z" fill="#263238"/>
<path d="M268.211 248.505C268.211 248.505 279.994 238.159 282.217 237.391C284.457 236.639 302.173 236.304 303.376 237.19C304.58 238.076 322.53 247.92 319.555 249.424C316.58 250.929 304.128 243.876 304.128 243.876L302.039 244.16C302.039 244.16 312.903 249.959 314.842 252.199C316.63 254.255 314.925 256.712 312.886 255.776C310.864 254.823 301.538 249.458 300.802 249.658C300.067 249.859 310.73 256.11 311.716 257.263C313.037 258.817 312.184 261.826 310.145 260.957C308.942 260.439 299.098 253.92 299.098 253.92C299.098 253.92 306.519 260.171 307.053 261.208C307.922 262.879 306.251 264.4 304.546 263.347C303.376 262.628 298.312 257.648 296.741 256.695C296.741 256.695 295.003 256.578 292.446 259.302C289.888 262.026 279.793 265.77 279.793 265.77L268.211 248.505Z" fill="#B78876"/>
<path d="M319.504 249.474C319.504 249.591 318.033 249.675 315.693 249.24C314.54 249.006 313.169 248.638 311.698 248.053C310.294 247.385 308.774 246.616 307.186 245.797C306.016 245.195 304.879 244.61 303.81 244.042L304.027 244.092C298.745 244.142 294.918 244.042 294.918 243.825C294.918 243.608 298.729 243.357 304.027 243.173H304.127L304.244 243.223C305.314 243.758 306.434 244.326 307.604 244.911C309.158 245.714 310.629 246.482 312.033 247.201C313.42 247.819 314.724 248.237 315.827 248.538C318.083 249.19 319.52 249.324 319.504 249.474Z" fill="#AA6550"/>
<path d="M272.605 251.496C273.391 252.984 275.396 253.368 277.034 253.017C278.672 252.666 280.16 251.781 281.764 251.313C286.594 249.925 291.959 252.499 296.706 250.878C297.375 250.644 298.11 250.159 298.026 249.474C297.96 248.822 297.224 248.505 296.606 248.304C291.324 246.616 286.043 244.945 280.761 243.257" fill="#B78876"/>
<path d="M280.762 243.256C280.779 243.19 281.414 243.323 282.534 243.624C283.654 243.925 285.258 244.376 287.247 244.961C289.303 245.58 291.643 246.298 294.2 247.067C294.852 247.268 295.52 247.485 296.206 247.685C296.824 247.936 297.743 247.97 298.345 248.956C298.612 249.457 298.445 250.159 298.094 250.51C297.76 250.878 297.359 251.095 296.958 251.245C296.172 251.513 295.387 251.697 294.568 251.78C291.275 252.115 288.3 251.346 285.626 251.296C284.289 251.245 283.019 251.346 281.899 251.647C280.779 251.947 279.743 252.449 278.757 252.8C276.784 253.619 274.846 253.468 273.793 252.833C272.706 252.215 272.539 251.446 272.589 251.463C272.673 251.396 272.94 252.048 273.96 252.516C274.979 252.984 276.651 253.034 278.506 252.181C279.442 251.797 280.461 251.262 281.682 250.894C282.902 250.527 284.255 250.393 285.643 250.427C288.434 250.443 291.426 251.162 294.451 250.844C295.203 250.777 295.938 250.594 296.607 250.376C297.259 250.142 297.693 249.674 297.493 249.357C297.325 248.989 296.59 248.755 295.905 248.538C295.22 248.321 294.568 248.103 293.899 247.886C291.359 247.034 289.052 246.265 286.996 245.58C285.041 244.911 283.453 244.359 282.367 243.942C281.331 243.574 280.746 243.323 280.762 243.256Z" fill="#AA6550"/>
<path d="M201.306 334.749L220.844 332.81C220.844 332.81 246.684 350.51 244.21 354.404C241.736 358.298 237.491 354.404 237.491 354.404C237.491 354.404 242.087 360.07 234.667 361.841C234.667 361.841 232.895 365.736 230.07 365.385L228.299 365.401C228.299 365.401 226.694 370.332 224.304 369.279C221.914 368.209 214.71 361.841 214.71 361.841L194.671 360.07L201.306 334.749Z" fill="#B78876"/>
<path d="M213.472 354.904C213.472 354.904 208.475 356.826 207.422 358.832C206.386 360.837 205.784 365.584 209.01 366.436C210.247 366.771 214.693 366.253 214.693 366.253L213.456 360.988C213.456 360.988 215.328 358.832 216.447 357.896C217.5 357.027 216.347 353.567 213.472 354.904Z" fill="#FFBE9D"/>
<path d="M219.106 357.578C219.106 357.578 214.108 359.5 213.056 361.506C212.019 363.511 212.705 366.887 215.93 367.756C217.167 368.091 221.095 367.573 221.095 367.573L220.577 366.553C219.557 364.581 219.123 362.976 220.911 361.673C221.011 361.606 222.014 360.67 222.081 360.603C223.05 359.667 221.981 356.241 219.106 357.578Z" fill="#FFBE9D"/>
<path d="M220.31 367.39C219.391 366.555 219.307 365.05 219.909 363.947C220.51 362.861 221.647 362.142 222.85 361.808C223.636 361.591 224.605 361.557 225.14 362.176C225.474 362.577 225.525 363.162 225.458 363.68C225.274 365.067 224.371 366.237 223.502 367.34C223.034 367.925 222.466 368.56 221.714 368.543C220.945 368.527 220.41 367.825 219.976 367.19" fill="#FFBE9D"/>
<path d="M114.694 209.863L119.09 208.191L122.9 214.994L120.778 222.264L116.298 223.367L111.836 217.735L114.694 209.863Z" fill="#B2CAF2"/>
<path d="M116.298 223.369C116.298 223.369 121.981 254.64 126.728 276.635C126.728 276.635 130.622 294.953 132.193 299.165C133.948 303.878 139.363 310.931 139.363 310.931L144.862 313.054L141.502 282.15L120.794 222.249L116.298 223.369Z" fill="#B2CAF2"/>
<g opacity="0.4">
<g opacity="0.4">
<path opacity="0.4" d="M114.694 209.863L119.09 208.191L122.9 214.994L120.778 222.264L116.298 223.367L111.836 217.735L114.694 209.863Z" fill="black"/>
</g>
</g>
<g opacity="0.4">
<g opacity="0.4">
<path opacity="0.4" d="M116.298 223.369C116.298 223.369 121.981 254.64 126.728 276.635C126.728 276.635 131.173 294.769 132.193 299.165C132.778 301.739 139.363 310.931 139.363 310.931L144.862 313.054L141.502 282.15L120.794 222.249L116.298 223.369Z" fill="black"/>
</g>
</g>
<path d="M88.3377 190.861L114.695 209.864L108.996 225.541L85.0117 200.839L88.3377 190.861Z" fill="#F5F5F5"/>
<path d="M119.089 208.192L126.46 191.763L130.622 205.318L124.839 219.574L119.089 208.192Z" fill="#F5F5F5"/>
<path d="M114.695 209.863C114.745 209.88 114.628 210.298 114.394 211.066C114.093 211.969 113.742 213.055 113.324 214.342C112.388 217.134 111.001 221.078 109.363 225.674L109.129 226.309L108.678 225.808C106.773 223.702 104.7 221.412 102.527 219.022C97.7472 213.724 93.4685 208.894 90.3932 205.367C88.9558 203.696 87.7524 202.292 86.783 201.155C85.9474 200.152 85.5128 199.568 85.5462 199.534C85.5964 199.501 86.1145 199.985 87.0337 200.921C88.0533 202.008 89.3235 203.345 90.8444 204.949C94.0367 208.376 98.399 213.139 103.162 218.437C105.318 220.844 107.374 223.134 109.263 225.256L108.611 225.39C110.316 220.811 111.787 216.916 112.856 214.158C113.358 212.905 113.792 211.852 114.143 210.966C114.461 210.231 114.645 209.846 114.695 209.863Z" fill="#263238"/>
<path d="M130.622 205.318C130.739 205.368 130.254 206.822 129.385 209.162C128.516 211.502 127.279 214.694 125.842 218.221C125.625 218.739 125.424 219.257 125.223 219.742L124.789 220.795L124.421 219.725C122.182 213.307 118.939 209.062 119.156 208.928C119.24 208.861 120.142 209.847 121.363 211.669C122.583 213.491 124.07 216.182 125.24 219.441L124.438 219.424C124.638 218.939 124.839 218.421 125.056 217.903C126.477 214.393 127.831 211.218 128.834 208.945C129.836 206.655 130.522 205.268 130.622 205.318Z" fill="#263238"/>
<path d="M323.295 369.432L333.023 731.366L380.707 729.945L377.046 419.289L437.817 738.569L480.888 727.338L425.282 370.118L323.295 369.432Z" fill="#263238"/>
<path d="M349.417 731.85C349.183 731.85 348.983 656.823 348.983 564.296C348.983 471.736 349.183 396.725 349.417 396.725C349.651 396.725 349.852 471.736 349.852 564.296C349.852 656.823 349.668 731.85 349.417 731.85Z" fill="#455A64"/>
<path d="M451.424 738.469C451.19 738.502 440.042 666.567 426.537 577.817C413.033 489.035 402.269 417.066 402.52 417.016C402.754 416.982 413.902 488.901 427.407 577.684C440.911 666.433 451.658 738.435 451.424 738.469Z" fill="#455A64"/>
<path d="M391.623 143.096C393.044 139.235 394.883 135.608 395.651 131.58C396.22 128.572 397.122 124.059 395.919 121.251C394.715 118.443 391.79 115.752 388.113 116.504C387.194 110.554 384.035 105.741 378.018 102.816C372.603 100.192 367.288 98.9049 361.288 98.4703C359.483 98.3366 356.659 98.4536 355.021 99.2559C353.383 100.058 351.878 101.679 351.26 103.317C348.101 100.827 343.572 100.092 338.975 101.345C334.379 102.599 329.131 105.072 327.109 109.401C325.855 112.075 325.404 115.384 326.741 119.596C327.644 122.404 330.602 126.817 333.376 125.797" fill="#263238"/>
<path d="M368.374 221.151C356.742 220.917 347.599 211.106 348.184 199.473C348.468 193.69 348.736 189.044 348.736 189.044C348.736 189.044 332.992 187.005 332.407 171.328C331.822 155.667 333.627 119.599 333.627 119.599C351.577 111.343 372.586 113.448 388.531 125.098L390.904 126.819L389.434 200.894C389.233 212.326 379.79 221.402 368.374 221.151Z" fill="#FFBE9D"/>
<path d="M348.719 188.826C348.719 188.826 358.647 189.377 369.009 182.508C369.009 182.508 364.179 194.675 348.501 193.656L348.719 188.826Z" fill="#EB996E"/>
<path d="M389.399 143.13C389.666 143.013 400.096 139.67 400.012 150.4C399.945 161.13 389.182 158.84 389.165 158.523C389.148 158.222 389.399 143.13 389.399 143.13Z" fill="#FFBE9D"/>
<path d="M392.475 154.496C392.525 154.463 392.659 154.63 392.976 154.78C393.277 154.931 393.812 155.031 394.38 154.814C395.517 154.413 396.486 152.608 396.553 150.685C396.586 149.716 396.386 148.78 396.052 148.011C395.734 147.226 395.233 146.674 394.664 146.574C394.096 146.44 393.695 146.774 393.561 147.075C393.411 147.376 393.478 147.593 393.428 147.61C393.394 147.644 393.194 147.426 393.294 146.992C393.344 146.774 393.461 146.524 393.728 146.323C393.979 146.123 394.364 146.006 394.765 146.056C395.584 146.123 396.336 146.891 396.703 147.727C397.121 148.58 397.372 149.632 397.339 150.719C397.255 152.875 396.135 154.897 394.581 155.332C393.829 155.516 393.194 155.298 392.876 155.031C392.492 154.747 392.441 154.513 392.475 154.496Z" fill="#EB996E"/>
<path d="M337.721 144.081C337.705 145.268 338.708 146.254 339.944 146.287C341.181 146.321 342.184 145.402 342.201 144.215C342.217 143.028 341.215 142.042 339.994 142.009C338.741 141.975 337.721 142.911 337.721 144.081Z" fill="#263238"/>
<path d="M337.169 141.592C337.453 141.876 339.124 140.572 341.531 140.522C343.938 140.439 345.726 141.625 345.994 141.324C346.111 141.191 345.826 140.673 345.041 140.138C344.272 139.603 342.968 139.085 341.464 139.135C339.96 139.185 338.723 139.77 338.004 140.355C337.269 140.923 337.018 141.458 337.169 141.592Z" fill="#263238"/>
<path d="M361.319 144.06C361.302 145.247 362.305 146.233 363.525 146.266C364.762 146.3 365.765 145.38 365.782 144.194C365.798 143.007 364.795 142.021 363.575 141.988C362.339 141.937 361.336 142.873 361.319 144.06Z" fill="#263238"/>
<path d="M360.851 141.44C361.135 141.724 362.806 140.42 365.213 140.37C367.62 140.286 369.425 141.473 369.675 141.172C369.792 141.038 369.508 140.52 368.723 139.985C367.954 139.451 366.65 138.932 365.146 138.983C363.642 139.033 362.405 139.618 361.686 140.203C360.951 140.771 360.717 141.306 360.851 141.44Z" fill="#263238"/>
<path d="M352.562 159.522C352.562 159.388 351.075 159.171 348.634 158.92C348.016 158.87 347.431 158.77 347.314 158.352C347.164 157.918 347.398 157.249 347.682 156.514C348.217 155.009 348.785 153.438 349.387 151.784C351.743 145.048 353.431 139.533 353.164 139.432C352.896 139.332 350.757 144.714 348.4 151.449C347.832 153.104 347.297 154.692 346.779 156.213C346.562 156.915 346.178 157.717 346.529 158.636C346.712 159.087 347.164 159.422 347.565 159.505C347.966 159.622 348.3 159.606 348.618 159.622C351.041 159.689 352.545 159.656 352.562 159.522Z" fill="#263238"/>
<path d="M359.682 161.011C359.298 160.994 359.348 163.618 357.158 165.523C354.969 167.446 352.178 167.212 352.161 167.579C352.127 167.746 352.796 168.064 353.966 168.081C355.119 168.097 356.791 167.68 358.144 166.51C359.481 165.34 360.033 163.802 360.1 162.732C360.167 161.629 359.866 160.994 359.682 161.011Z" fill="#263238"/>
<path d="M359.999 132.012C360.249 132.664 362.656 132.297 365.481 132.564C368.322 132.781 370.628 133.55 370.979 132.948C371.147 132.664 370.729 132.063 369.793 131.444C368.857 130.842 367.386 130.274 365.698 130.124C363.993 129.973 362.455 130.291 361.436 130.725C360.383 131.177 359.882 131.712 359.999 132.012Z" fill="#263238"/>
<path d="M337.871 134.586C338.306 135.121 339.96 134.52 341.949 134.436C343.938 134.286 345.643 134.703 346.011 134.135C346.178 133.851 345.894 133.316 345.142 132.815C344.406 132.313 343.169 131.929 341.799 131.996C340.428 132.079 339.258 132.598 338.573 133.183C337.905 133.751 337.687 134.336 337.871 134.586Z" fill="#263238"/>
<path d="M391.739 128.089C391.639 132.651 392.792 137.716 392.107 142.228C392.007 142.914 390.285 144.769 390.152 145.437C389.333 149.432 387.728 151.17 385.271 147.142C384.319 145.588 383.633 141.225 383.232 139.454C382.162 134.657 381.093 129.86 380.023 125.047C376.329 126.885 372.301 128.323 368.173 128.172C364.045 128.022 359.816 126.05 357.844 122.423C355.972 125.715 352.546 128.089 348.819 128.674C345.075 129.259 341.097 128.055 338.306 125.498C336.969 127.771 333.643 128.473 331.37 127.169C329.08 125.849 327.994 122.874 328.646 120.317C329.632 116.473 333.676 114.283 337.454 113.063C352.245 108.3 368.825 111.325 382.413 118.846C384.402 119.949 386.358 121.152 387.929 122.79C389.5 124.428 391.673 126.334 391.79 128.607" fill="#263238"/>
<path d="M380.475 126.834C380.509 126.984 381.495 126.633 382.915 127.218C383.617 127.503 384.386 127.987 385.155 128.656C385.924 129.324 386.676 130.193 387.595 131.046C388.498 131.898 389.534 132.634 390.637 132.968C391.74 133.302 392.793 133.235 393.612 133.001C395.267 132.533 395.935 131.631 395.852 131.564C395.768 131.447 394.983 132.115 393.478 132.366C392.743 132.483 391.824 132.483 390.905 132.149C389.985 131.831 389.083 131.18 388.23 130.361C387.361 129.542 386.576 128.689 385.707 127.987C384.854 127.302 383.952 126.817 383.133 126.583C381.445 126.115 380.408 126.75 380.475 126.834Z" fill="#455A64"/>
<path d="M382.314 131.515C382.33 131.649 383.116 131.532 384.019 132.267C384.47 132.618 384.888 133.17 385.389 133.822C385.874 134.474 386.576 135.209 387.428 135.71C389.15 136.78 391.055 136.947 392.308 136.747C393.595 136.546 394.264 136.078 394.214 135.978C394.164 135.844 393.428 136.078 392.242 136.095C391.072 136.112 389.4 135.878 387.896 134.925C386.358 134.056 385.606 132.435 384.369 131.733C383.183 130.997 382.23 131.398 382.314 131.515Z" fill="#455A64"/>
<path d="M340.965 101.028C340.965 100.978 340.464 100.895 339.595 101.162C338.742 101.413 337.539 102.098 336.57 103.435C334.648 106.126 334.213 110.906 335.7 115.519C337.205 120.216 340.631 123.458 343.372 124.962C344.743 125.748 345.963 126.182 346.798 126.433C347.651 126.667 348.135 126.717 348.152 126.667C348.202 126.5 346.297 126.082 343.706 124.427C341.149 122.823 337.99 119.697 336.57 115.252C335.149 110.873 335.5 106.327 337.104 103.82C337.907 102.566 338.96 101.864 339.712 101.513C340.481 101.162 340.982 101.112 340.965 101.028Z" fill="#455A64"/>
<path d="M327.993 107.548C327.893 107.548 327.792 108.718 328.127 110.573C328.461 112.411 329.313 114.918 330.901 117.325C332.506 119.732 334.494 121.487 336.066 122.506C337.637 123.526 338.756 123.893 338.807 123.793C338.974 123.542 334.728 121.487 331.67 116.824C328.528 112.194 328.277 107.481 327.993 107.548Z" fill="#455A64"/>
<path d="M241.551 325.958L218.62 327.111C215.696 327.262 213.406 329.702 213.473 332.627C213.573 337.858 214.459 345.045 218.554 344.36L221.161 332.945L240.198 349.742C242.12 351.48 244.493 352.65 247.05 353.101L251.529 352.633L241.551 325.958Z" fill="#FFBE9D"/>
<path d="M351.229 203.129L339.228 207.09L333.295 306.636V394.917L406.885 403.074L407.737 275.749L402.974 212.371L391.742 198.934L351.229 203.129Z" fill="#E0E0E0"/>
<path d="M347.537 207.893V198.249L391.259 192.165L389.505 214.378L379.46 231.81L363.03 232.712L351.163 225.392L347.537 207.893Z" fill="#E0E0E0"/>
<path d="M351.445 206.775C351.211 206.758 351.094 204.786 351.195 202.362C351.295 199.939 351.579 197.983 351.813 197.983C352.047 198 352.164 199.972 352.064 202.396C351.964 204.819 351.696 206.775 351.445 206.775Z" fill="#263238"/>
<path d="M362.393 205.971C362.159 205.954 362.092 203.748 362.243 201.041C362.393 198.333 362.728 196.144 362.962 196.16C363.196 196.177 363.262 198.383 363.112 201.091C362.945 203.798 362.627 205.988 362.393 205.971Z" fill="#263238"/>
<path d="M372.975 204.866C372.741 204.85 372.707 202.51 372.924 199.652C373.142 196.794 373.493 194.487 373.743 194.504C373.977 194.521 374.011 196.861 373.793 199.719C373.576 202.577 373.209 204.883 372.975 204.866Z" fill="#263238"/>
<path d="M383.118 203.197C382.884 203.213 382.6 200.991 382.734 198.266C382.851 195.525 383.335 193.352 383.569 193.386C383.82 193.419 383.72 195.609 383.603 198.3C383.486 200.991 383.369 203.197 383.118 203.197Z" fill="#263238"/>
<path d="M378.271 245.282C378.321 245.298 378.121 245.883 377.686 246.919C377.268 247.956 376.6 249.426 375.747 251.215C374.042 254.808 371.519 259.705 368.41 264.937C365.301 270.168 362.209 274.731 359.869 277.94C358.699 279.544 357.713 280.831 357.011 281.684C356.309 282.553 355.908 283.004 355.858 282.971C355.758 282.887 357.162 280.865 359.368 277.572C361.574 274.28 364.583 269.683 367.675 264.485C370.767 259.288 373.374 254.457 375.212 250.931C377.034 247.421 378.154 245.215 378.271 245.282Z" fill="#263238"/>
<path d="M391.501 197.4L403.368 203.116L426.299 208.715C436.361 210.47 443.28 219.829 441.977 229.958L429.976 323.571L444.3 414.326L387.473 412.638L384.147 378.876V285.28L391.501 197.4Z" fill="#455A64"/>
<path d="M384.152 306.857C384.118 306.857 384.185 306.455 384.319 305.703C384.486 304.868 384.703 303.765 384.971 302.411C385.589 299.469 386.441 295.358 387.494 290.343C389.734 280.081 392.793 266.075 396.169 250.615C397.121 246.353 398.041 242.208 398.926 238.214L399.027 238.598C397.69 237.194 396.369 235.824 395.082 234.487L394.865 234.253L395.032 233.985C397.389 230.074 399.595 226.381 401.651 222.988L401.634 223.322C398.642 216.068 396.152 210.018 394.347 205.672C393.528 203.617 392.859 201.962 392.375 200.725C391.923 199.589 391.706 198.97 391.74 198.953C391.773 198.937 392.057 199.522 392.575 200.642C393.11 201.845 393.829 203.483 394.731 205.505C396.586 209.817 399.177 215.817 402.303 223.038L402.369 223.205L402.269 223.372C400.247 226.782 398.074 230.475 395.734 234.42L395.684 233.918C396.971 235.255 398.291 236.626 399.645 238.013L399.796 238.18L399.745 238.398C398.86 242.375 397.957 246.537 397.004 250.799C393.528 266.242 390.386 280.232 388.079 290.477C386.909 295.475 385.957 299.553 385.271 302.478C384.937 303.815 384.67 304.901 384.469 305.737C384.285 306.472 384.168 306.857 384.152 306.857Z" fill="#263238"/>
<path d="M242.521 322.183L292.795 294.154L317.163 228.453C320.573 219.277 327.626 211.923 336.668 208.162L343.136 205.471L343.17 378.457L344.474 419.439L317.23 411.283L331.119 328.918L326.323 288.371L321.542 307.976C319.838 314.996 315.358 321.013 309.124 324.656L256.794 351.832L242.521 322.183Z" fill="#455A64"/>
<path d="M243.137 323.469L238.909 324.722L250.809 353.102L256.358 350.946L243.137 323.469Z" fill="#E0E0E0"/>
<path d="M301.887 305.819C301.636 305.903 300.767 302.593 298.126 299.451C295.536 296.276 292.444 294.822 292.561 294.588C292.594 294.37 296.037 295.54 298.795 298.9C301.586 302.226 302.104 305.819 301.887 305.819Z" fill="#263238"/>
<path d="M248.553 322.549C248.603 322.666 248.302 322.883 248.269 323.368C248.219 323.869 248.57 324.421 249.222 324.22C249.89 324.036 249.873 323.384 249.573 323C249.288 322.616 248.904 322.582 248.887 322.449C248.837 322.348 249.355 322.081 249.99 322.549C250.275 322.783 250.592 323.184 250.559 323.769C250.542 324.354 250.041 324.905 249.456 325.056C248.887 325.24 248.169 325.056 247.834 324.554C247.5 324.086 247.534 323.568 247.651 323.217C247.951 322.499 248.553 322.449 248.553 322.549Z" fill="#263238"/>
<path d="M252.615 320.844C252.665 320.961 252.364 321.179 252.33 321.663C252.28 322.165 252.631 322.716 253.283 322.516C253.952 322.332 253.935 321.68 253.634 321.296C253.35 320.911 252.966 320.878 252.949 320.744C252.899 320.644 253.417 320.376 254.052 320.844C254.336 321.078 254.654 321.48 254.62 322.065C254.604 322.65 254.102 323.201 253.517 323.351C252.949 323.535 252.23 323.351 251.896 322.85C251.562 322.382 251.595 321.864 251.712 321.513C252.013 320.778 252.598 320.727 252.615 320.844Z" fill="#263238"/>
<path d="M343.118 309.53C343.085 309.53 343.018 309.162 342.901 308.46C342.784 307.658 342.634 306.639 342.433 305.385C342.049 302.594 341.531 298.75 340.895 294.037C339.659 284.343 337.987 271.139 336.132 256.531C335.881 254.459 335.631 252.42 335.38 250.397L335.363 250.28L335.397 250.18C336.667 246.954 337.887 243.829 339.074 240.837V241.155C337.803 238.247 336.583 235.489 335.447 232.865L335.397 232.731L335.43 232.597C337.653 224.541 339.525 217.772 340.879 212.909C341.547 210.602 342.082 208.764 342.467 207.377C342.851 206.106 343.068 205.421 343.118 205.438C343.152 205.455 343.018 206.14 342.701 207.443C342.35 208.831 341.898 210.703 341.313 213.026C340.043 217.923 338.271 224.709 336.166 232.798L336.149 232.547C337.302 235.155 338.539 237.912 339.826 240.804L339.893 240.954L339.826 241.121C338.656 244.113 337.436 247.239 336.182 250.464L336.216 250.247C336.466 252.253 336.717 254.308 336.968 256.381C338.723 270.989 340.311 284.209 341.48 293.92C341.999 298.65 342.433 302.51 342.751 305.302C342.868 306.572 342.968 307.608 343.052 308.41C343.135 309.146 343.152 309.513 343.118 309.53Z" fill="#263238"/>
<path d="M331.033 329.383C331 329.383 330.95 329.099 330.866 328.564C330.782 327.929 330.665 327.144 330.532 326.208C330.264 324.018 329.897 321.077 329.462 317.5C328.576 310.146 327.323 300.001 325.818 288.803C324.314 277.605 322.843 267.476 321.757 260.156C321.239 256.596 320.804 253.654 320.487 251.481C320.37 250.545 320.27 249.76 320.186 249.108C320.119 248.573 320.102 248.272 320.136 248.272C320.169 248.272 320.236 248.54 320.353 249.074C320.487 249.71 320.637 250.478 320.821 251.414C321.206 253.453 321.74 256.395 322.359 260.055C323.596 267.359 325.167 277.471 326.671 288.686C328.175 299.884 329.328 310.062 330.064 317.433C330.431 321.127 330.699 324.102 330.866 326.174C330.933 327.127 330.983 327.913 331.033 328.548C331.05 329.099 331.067 329.383 331.033 329.383Z" fill="#263238"/>
<path d="M324.081 390.874C324.164 390.841 324.365 391.509 325.251 392.278C326.103 393.013 327.825 393.782 329.83 393.298C331.836 392.83 333.791 390.958 334.811 388.4C335.864 385.827 335.981 382.668 336.215 379.409C336.415 376.166 336.349 373.007 335.279 370.45C334.259 367.876 332.27 366.155 330.716 364.701C329.128 363.246 327.891 361.943 327.24 360.907C326.571 359.87 326.371 359.218 326.421 359.202C326.488 359.168 326.788 359.77 327.524 360.706C328.242 361.659 329.496 362.845 331.134 364.233C332.722 365.637 334.861 367.358 336.014 370.132C337.184 372.874 337.285 376.166 337.067 379.459C336.833 382.718 336.7 385.96 335.53 388.701C334.41 391.426 332.22 393.448 329.947 393.883C327.658 394.334 325.852 393.381 325 392.512C324.549 392.061 324.315 391.626 324.181 391.342C324.097 391.058 324.047 390.891 324.081 390.874Z" fill="#263238"/>
<path d="M305.396 325.958C305.396 325.958 307.017 306.787 322.243 305.016C322.243 305.016 322.527 320.643 305.396 325.958Z" fill="#263238"/>
<path d="M386.775 397.745C387.778 398.413 430.983 426.659 430.983 426.659L435.964 422.665L438.32 357.866L396.219 325.96L390.419 327.949L386.775 397.745Z" fill="#B2CAF2"/>
<path d="M395.751 326.88L397.473 397.027H388.18L391.306 328.267L395.751 326.88Z" fill="#E0E0E0"/>
<path d="M409.657 413.121C409.657 413.121 410.643 416.23 414.638 416.514C414.755 416.53 414.889 416.614 415.006 416.815C415.908 418.352 417.429 419.439 419.201 419.439C420.571 419.439 422.226 419.121 423.947 418.068C426.254 416.664 430.365 407.438 430.365 407.438L440.109 385.727L423.713 381.298L402.888 387.783C402.888 388.167 398.008 407.873 398.008 407.873C398.008 407.873 401.952 408.976 403.858 404.764C405.763 400.552 407.535 397.878 407.535 397.878L409.089 406.753L403.172 408.775C403.172 408.775 402.454 412.051 405.713 413.271L409.657 413.121Z" fill="#FFBE9D"/>
<path d="M417.01 260.66L444.303 310.901L422.091 376.836L446.793 390.742L478.182 317.403C480.505 311.971 480.404 305.787 477.914 300.421L439.406 217.706L417.01 260.66Z" fill="#455A64"/>
<path d="M422.093 376.836L419.787 381.934L443.085 394.502L445.542 390.023L422.093 376.836Z" fill="#E0E0E0"/>
<path d="M422.091 376.836C422.074 376.836 422.107 376.719 422.157 376.502C422.241 376.234 422.325 375.917 422.442 375.532C422.726 374.63 423.127 373.376 423.628 371.805C424.715 368.496 426.252 363.799 428.158 357.949C432.102 346.116 437.601 329.637 443.885 310.767L443.919 311.118C440.743 305.719 437.484 300.02 434.174 294.137C428.158 283.39 422.625 273.028 417.912 263.451C415.572 258.654 413.399 254.058 411.561 249.679C409.555 245.3 409.054 240.703 409.288 236.659C409.555 232.597 410.358 228.954 411.728 226.012C413.082 223.054 414.87 220.848 416.542 219.327C418.23 217.806 419.801 216.937 420.887 216.452C421.974 215.967 422.592 215.85 422.592 215.85C422.676 215.984 420.068 216.519 416.759 219.577C415.154 221.115 413.433 223.321 412.146 226.229C410.859 229.121 410.09 232.731 409.873 236.709C409.689 240.687 410.207 245.149 412.196 249.411C414.051 253.757 416.258 258.32 418.597 263.116C423.361 272.66 428.893 282.989 434.91 293.719C438.202 299.602 441.462 305.302 444.62 310.7L444.721 310.867L444.654 311.051C438.253 329.871 432.654 346.317 428.642 358.133C426.62 363.95 425.015 368.629 423.862 371.905C423.311 373.46 422.859 374.696 422.542 375.599C422.391 375.983 422.274 376.284 422.191 376.552C422.157 376.736 422.107 376.836 422.091 376.836Z" fill="#263238"/>
<path d="M462.756 310.416C462.689 310.533 461.72 310.015 460.065 309.463C458.427 308.912 456.054 308.41 453.413 308.494C450.772 308.577 448.432 309.229 446.828 309.881C445.207 310.533 444.287 311.118 444.204 311.001C444.154 310.917 444.973 310.148 446.577 309.329C448.182 308.494 450.622 307.725 453.396 307.625C456.171 307.541 458.661 308.176 460.299 308.895C461.937 309.614 462.806 310.349 462.756 310.416Z" fill="#263238"/>
<path d="M411.544 248.693L431.166 314.327L433.924 292.75L411.544 248.693Z" fill="#263238"/>
<path d="M443.953 377.622C444.003 377.739 443.702 377.956 443.669 378.441C443.619 378.942 443.97 379.494 444.622 379.293C445.29 379.109 445.273 378.457 444.973 378.073C444.688 377.689 444.304 377.655 444.287 377.522C444.237 377.421 444.755 377.154 445.39 377.622C445.675 377.856 445.992 378.257 445.959 378.842C445.942 379.427 445.441 379.978 444.856 380.129C444.287 380.313 443.569 380.129 443.234 379.627C442.9 379.159 442.933 378.641 443.05 378.29C443.351 377.555 443.936 377.505 443.953 377.622Z" fill="#263238"/>
<path d="M445.924 372.893C445.974 373.01 445.673 373.227 445.64 373.712C445.59 374.213 445.941 374.764 446.593 374.564C447.261 374.38 447.245 373.728 446.944 373.344C446.66 372.959 446.275 372.926 446.258 372.792C446.208 372.692 446.726 372.425 447.362 372.893C447.646 373.127 447.963 373.528 447.93 374.113C447.913 374.698 447.412 375.249 446.827 375.4C446.258 375.583 445.54 375.4 445.205 374.898C444.871 374.43 444.905 373.912 445.022 373.561C445.322 372.842 445.907 372.792 445.924 372.893Z" fill="#263238"/>
<path d="M472.748 289.306C469.824 290.844 468.804 295.156 469.138 298.448C469.473 301.741 470.693 304.933 470.592 308.242C470.526 310.599 469.807 312.889 469.339 315.195C468.871 317.502 468.654 319.992 469.556 322.165C470.459 324.354 472.765 326.093 475.088 325.658L477.412 320.978C481.089 313.541 480.972 304.799 477.077 297.479L472.748 289.306Z" fill="#263238"/>
<path d="M237.256 52.3049C237.256 52.2882 237.54 52.2715 238.108 52.2882C238.743 52.3049 239.562 52.3216 240.615 52.355C241.718 52.3383 243.072 52.5054 244.677 52.7562C245.479 52.8731 246.348 52.9567 247.25 53.1573C248.153 53.3746 249.122 53.6253 250.125 53.876C254.153 54.9958 259.05 56.7674 264.031 60.0934C269.012 63.3693 274.109 68.0992 278.12 74.5006C282.132 80.835 285.157 88.8241 285.525 97.7158C286.076 106.541 284.037 116.234 278.939 124.825C273.992 133.516 265.719 140.787 255.707 145.032C250.693 147.155 245.195 148.308 239.596 148.575C233.997 148.976 228.247 148.191 222.748 146.486L222.247 146.336H222.648C213.004 149.678 203.578 152.938 194.486 156.096L193.332 156.498L193.7 155.344C196.224 147.238 198.664 139.399 201.004 131.878L201.121 132.447C195.722 126.363 192.062 119.193 190.274 111.922C188.452 104.652 188.519 97.3481 189.822 90.7462C191.143 84.1276 193.784 78.2444 197.093 73.3807C200.402 68.5171 204.33 64.673 208.241 61.7481C210.163 60.2104 212.219 59.0906 214.091 57.9541C216.08 57.0181 217.885 56.0153 219.706 55.4136C221.511 54.7618 223.166 54.1267 224.771 53.8091C226.358 53.408 227.779 53.0236 229.116 52.9066C230.437 52.7394 231.59 52.5389 232.609 52.4386C233.612 52.4052 234.465 52.3717 235.166 52.355C235.802 52.3383 236.32 52.3383 236.738 52.3216C237.089 52.2882 237.256 52.2882 237.256 52.3049C237.256 52.3216 237.072 52.355 236.721 52.3885C236.32 52.4219 235.802 52.472 235.166 52.5222C234.465 52.5723 233.612 52.6224 232.626 52.706C231.623 52.823 230.47 53.057 229.166 53.2576C227.846 53.408 226.442 53.8258 224.888 54.2437C223.3 54.5947 221.679 55.2465 219.907 55.915C218.119 56.5334 216.347 57.5697 214.408 58.5056C212.57 59.6589 210.564 60.762 208.692 62.2996C204.865 65.2245 201.037 69.0352 197.828 73.832C194.619 78.6288 192.062 84.4117 190.809 90.8966C189.572 97.3648 189.538 104.518 191.343 111.621C193.115 118.708 196.725 125.711 202.007 131.628L202.224 131.878L202.124 132.196C199.8 139.717 197.377 147.556 194.87 155.679L194.084 154.926C203.177 151.768 212.603 148.492 222.247 145.149L222.447 145.082L222.648 145.149L223.133 145.299C228.498 146.971 234.097 147.723 239.545 147.355C244.994 147.088 250.359 145.968 255.256 143.912C265 139.784 273.106 132.714 277.953 124.24C282.967 115.867 284.99 106.407 284.505 97.7659C284.187 89.0581 281.279 81.2194 277.385 74.9685C273.491 68.6675 268.527 63.9543 263.646 60.6784C258.783 57.3357 253.953 55.5139 249.991 54.3439C248.989 54.0765 248.036 53.8258 247.15 53.5918C246.248 53.3913 245.395 53.291 244.61 53.1406C243.039 52.8564 241.701 52.6559 240.598 52.6224C239.562 52.5389 238.726 52.4887 238.108 52.4386C237.557 52.3717 237.256 52.3216 237.256 52.3049Z" fill="#B2CAF2"/>
<path d="M242.342 83.3347C242.342 82.5063 241.67 81.8347 240.842 81.8347H232.998C232.169 81.8347 231.498 82.5063 231.498 83.3347V118.525C231.498 119.353 232.169 120.025 232.998 120.025H240.842C241.67 120.025 242.342 119.353 242.342 118.525V83.3347Z" fill="#B2CAF2" stroke="#B2CAF2" stroke-width="3" stroke-linejoin="round"/>
<path d="M219.336 95.5013C218.508 95.5013 217.836 96.1728 217.836 97.0013V104.85C217.836 105.679 218.508 106.35 219.336 106.35H254.505C255.333 106.35 256.005 105.679 256.005 104.85V97.0013C256.005 96.1728 255.333 95.5013 254.505 95.5013H219.336Z" fill="#B2CAF2" stroke="#B2CAF2" stroke-width="3" stroke-linejoin="round"/>
<circle cx="237.107" cy="101.107" r="31.1073" stroke="#B2CAF2" stroke-width="4"/>
</g>
</svg>
