<svg width="160" height="50" viewBox="0 0 160 50" fill="none" xmlns="http://www.w3.org/2000/svg">
<path d="M34.5315 26.8313C34.5466 27.8994 34.5391 27.3881 34.505 27.9524C34.4974 28.0888 34.4481 28.6948 34.4065 29.1039C34.3875 29.2819 34.2891 29.6682 34.2323 29.8386C33.6831 31.6188 30.0167 35.0087 26.623 35.5125C26.2594 35.5693 25.9564 35.592 25.4829 35.6185C25.3276 35.6261 25.1761 35.6299 25.0208 35.6299C24.8655 35.6299 24.7102 35.6261 24.5587 35.6185C18.9417 35.3837 14.4156 31.0848 14.1807 25.4678C14.1732 25.3125 14.1694 25.161 14.1694 25.0057C14.1694 24.8504 14.1732 24.6951 14.1807 24.5398C14.4156 18.9228 18.9266 14.4118 24.5436 14.177C24.6951 14.1694 24.8504 14.1656 25.0057 14.1656C25.161 14.1656 25.3163 14.1694 25.4678 14.177C29.1985 13.9346 32.1036 10.8363 32.0998 7.09416C32.0998 3.17401 28.9221 0 25.0057 0C21.1575 0 18.0252 3.06037 17.9115 6.88205C17.9153 6.94265 17.9153 7.01083 17.9153 7.07143C17.9153 7.14718 17.9153 7.22294 17.9115 7.2949C17.7941 13.1051 13.1089 17.7903 7.29869 17.9077C7.22673 17.9077 7.15097 17.9115 7.07522 17.9115C7.01083 17.9115 6.94644 17.9115 6.88584 17.9077C3.06416 18.0176 0 21.1499 0 24.9981C0 28.7478 2.91266 31.8233 6.60177 32.0771C6.76464 32.0695 6.93129 32.0658 7.10174 32.0658C7.26839 32.0658 7.43126 32.0695 7.59791 32.0771C13.1922 32.3271 17.6805 36.8154 17.9267 42.4097C17.938 42.5725 17.938 42.7392 17.938 42.9021C17.938 42.9589 17.938 43.0157 17.938 43.0687C17.9305 43.3679 17.9456 43.6709 17.9911 43.9701C18.5024 47.3828 21.4491 50 25.0057 50C28.3615 50 31.1719 47.6744 31.9105 44.5459C32.0241 44.08 32.0544 43.599 32.043 43.1217C32.0392 43.0384 32.0392 42.9551 32.0392 42.8717C32.0392 42.6369 32.0506 42.4021 32.0658 42.171C32.1074 41.5006 32.2135 40.8378 32.3763 40.1826C33.2513 36.7548 35.7587 33.9823 39.0236 32.7399C40.0348 32.3536 41.0954 32.1226 42.1748 32.0582C42.4059 32.043 42.6445 32.0354 42.8755 32.0354C42.9589 32.0354 43.0422 32.0354 43.1255 32.0392C43.6028 32.0506 44.0838 32.0203 44.5534 31.9105C47.682 31.1719 50.0076 28.3577 50.0076 25.0057C50.0076 21.0855 46.8298 17.9115 42.9096 17.9115C40.9818 17.9115 39.1334 18.6918 37.8002 20.0856C37.6411 20.2939 37.4706 20.4909 37.2888 20.6765C35.0125 23.0134 31.3423 23.2634 28.7706 21.256C28.5812 21.1045 28.3956 20.9492 28.2251 20.7749C27.282 20.0553 26.0927 19.6917 24.8049 19.6917C22.3051 19.6917 19.7068 22.3619 19.7068 25.2367C19.7068 27.9524 21.6196 31.1378 24.9981 31.1378C26.2101 31.1378 27.1835 31.0545 28.0888 30.3803C28.3615 30.1757 29.5546 29.3273 29.744 28.3804C29.8311 27.9524 29.4788 27.2555 29.013 27.2745C28.8804 27.282 28.7971 27.3426 28.4297 27.335C27.6002 27.3199 27.3729 27.1646 27.1457 26.8692C26.926 26.5851 26.8616 25.8049 27.1684 25.4299C27.4752 25.0549 27.8767 25.0587 28.3994 25.0587H31.7135H33.2248C33.4179 25.0587 33.8914 25.089 34.1868 25.3807C34.5959 25.7708 34.5239 26.3995 34.5315 26.8313Z" fill="white"/>
<path d="M55.8855 25.2294C55.8855 27.9754 57.9914 30.0813 60.6465 30.0813C61.4722 30.0813 62.4153 29.8351 63.0743 29.426V27.0171C63.0743 26.7785 62.8773 26.5853 62.6425 26.5853H60.6313C60.2147 26.5853 59.8776 26.2483 59.8776 25.8354V25.4226C59.8776 25.0059 60.2147 24.6688 60.6313 24.6688H64.5439C64.9605 24.6688 65.2976 25.0059 65.2976 25.4226V29.8237C65.2976 30.2214 65.1726 30.5017 64.8545 30.7403C63.7144 31.5471 62.2372 32.0471 60.6502 32.0471C56.6808 32.0471 53.6318 29.0776 53.6318 25.237C53.6318 21.4001 56.6808 18.4307 60.6502 18.4307C62.0706 18.4307 63.347 18.7981 64.4568 19.4723C64.8696 19.7374 64.9189 20.1124 64.6537 20.5176L64.3734 20.9494C64.1121 21.3547 63.7636 21.4304 63.3659 21.1918C62.5478 20.7146 61.7183 20.3813 60.6465 20.3813C57.9914 20.3737 55.8855 22.4796 55.8855 25.2294Z" fill="white"/>
<path d="M77.1449 26.9409C77.1449 29.7816 74.8686 32.039 71.7817 32.039C68.6948 32.039 66.4185 29.7816 66.4185 26.9409C66.4185 24.1002 68.6948 21.8428 71.7817 21.8428C74.8648 21.8428 77.1449 24.1002 77.1449 26.9409ZM74.9633 26.9409C74.9633 25.1531 73.5732 23.7631 71.7855 23.7631C69.9977 23.7631 68.6039 25.1569 68.6039 26.9409C68.6039 28.7286 69.9977 30.1224 71.7855 30.1224C73.5694 30.1187 74.9633 28.7248 74.9633 26.9409Z" fill="white"/>
<path d="M88.8081 26.9409C88.8081 29.7816 86.5318 32.039 83.4487 32.039C80.3618 32.039 78.0854 29.7816 78.0854 26.9409C78.0854 24.1002 80.3618 21.8428 83.4487 21.8428C86.5318 21.8428 88.8081 24.1002 88.8081 26.9409ZM86.6265 26.9409C86.6265 25.1531 85.2326 23.7631 83.4487 23.7631C81.6609 23.7631 80.2709 25.1569 80.2709 26.9409C80.2709 28.7286 81.6647 30.1224 83.4487 30.1224C85.2326 30.1187 86.6265 28.7248 86.6265 26.9409Z" fill="white"/>
<path d="M97.9704 23.1194V18.8319C97.9704 18.3433 98.2356 18.0781 98.7242 18.0781H99.3605C99.8491 18.0781 100.11 18.3433 100.11 18.8319V31.0582C100.11 31.5468 99.8491 31.8081 99.3605 31.8081H98.7242C98.2356 31.8081 97.9704 31.5468 97.9704 31.0582V30.759C97.1069 31.6263 95.9782 32.0392 94.7358 32.0392C91.8383 32.0392 89.7476 29.706 89.7476 26.9449C89.7476 24.1799 91.8383 21.8468 94.7358 21.8468C95.9782 21.843 97.1069 22.2558 97.9704 23.1194ZM97.9704 27.21V26.6911C97.9704 25.1079 96.7205 23.7747 95.1373 23.7595C95.0805 23.7595 95.0237 23.7595 94.9669 23.7633C93.2473 23.839 91.8838 25.32 91.933 27.0396C91.9822 28.7781 93.3571 30.1189 95.1108 30.1189C95.1752 30.1189 95.2358 30.1151 95.3002 30.1151C96.8114 30.0318 97.9704 28.725 97.9704 27.21Z" fill="white"/>
<path d="M115.108 25.3542C115.108 29.3615 112.597 31.8158 108.628 31.8158H104.825C104.42 31.8158 104.086 31.4863 104.086 31.0773V19.6312C104.086 19.2221 104.416 18.8926 104.825 18.8926H108.632C112.597 18.8926 115.108 21.3469 115.108 25.3542ZM106.268 29.6039C106.268 29.7668 106.397 29.8955 106.56 29.8955H108.632C111.124 29.8955 112.896 28.4941 112.896 25.3542C112.896 22.2143 111.124 20.8129 108.632 20.8129H106.56C106.397 20.8129 106.268 20.9417 106.268 21.1045V29.6039Z" fill="white"/>
<path d="M126.562 27.0319C126.562 29.8233 124.327 32.039 121.297 32.039C118.267 32.039 116.032 29.8233 116.032 27.0319C116.032 24.2442 118.267 22.0322 121.297 22.0322C124.323 22.0322 126.562 24.248 126.562 27.0319ZM124.414 27.0319C124.414 25.2782 123.047 23.9109 121.293 23.9109C119.54 23.9109 118.172 25.2782 118.172 27.0319C118.172 28.7855 119.54 30.1528 121.293 30.1528C123.051 30.1528 124.414 28.7855 124.414 27.0319Z" fill="white"/>
<path d="M127.391 27.0319C127.391 24.2442 129.626 22.0322 132.656 22.0322C133.773 22.0322 134.758 22.3277 135.572 22.8352C135.978 23.0852 136.023 23.4526 135.765 23.8503L135.489 24.2631C135.22 24.6608 134.879 24.7176 134.463 24.4563C133.928 24.1306 133.326 23.9109 132.656 23.9109C130.902 23.9109 129.535 25.2782 129.535 27.0319C129.535 28.7893 130.902 30.1528 132.656 30.1528C133.349 30.1528 133.985 29.9218 134.542 29.562C134.936 29.3044 135.281 29.3158 135.576 29.6832L135.89 30.0809C136.186 30.4596 136.186 30.8194 135.845 31.0694C134.97 31.6868 133.891 32.039 132.663 32.039C129.622 32.039 127.391 29.8233 127.391 27.0319Z" fill="white"/>
<path d="M142.178 30.1951H142.25C142.738 30.1837 143.007 30.4337 143.007 30.9147V31.2632C143.007 31.7253 142.841 31.9942 142.5 32.0207C142.333 32.0321 142.159 32.0396 141.992 32.0396C139.5 32.0396 138.371 31.0056 138.371 28.6611V24.1008H137.523C137.114 24.1008 136.784 23.7713 136.784 23.3623V22.9949C136.784 22.5896 137.114 22.2563 137.523 22.2563H138.068C138.235 22.2563 138.371 22.1199 138.371 21.9533V20.3814C138.371 19.9193 138.614 19.6428 139.076 19.6087L139.663 19.6125C140.151 19.5671 140.477 19.7754 140.477 20.2602V22.2563H142.155C142.56 22.2563 142.894 22.5858 142.894 22.9949V23.3623C142.894 23.7713 142.56 24.1008 142.155 24.1008H140.746C140.598 24.1008 140.473 24.222 140.473 24.3735V28.6459C140.481 29.7103 140.924 30.1951 142.178 30.1951Z" fill="white"/>
<path d="M153.859 27.0317C153.859 29.8194 151.625 32.0351 148.598 32.0351C145.568 32.0351 143.333 29.8194 143.333 27.0279C143.333 24.2403 145.568 22.0283 148.598 22.0283C151.625 22.0321 153.859 24.2479 153.859 27.0317ZM151.715 27.0317C151.715 25.2781 150.352 23.9108 148.594 23.9108C146.837 23.9108 145.473 25.2781 145.473 27.0279C145.473 28.7854 146.841 30.1527 148.594 30.1527C150.352 30.1527 151.715 28.7892 151.715 27.0317Z" fill="white"/>
<path d="M157.071 26.6417V31.077C157.071 31.4861 156.742 31.8156 156.333 31.8156H155.704C155.299 31.8156 154.965 31.4861 154.965 31.077V22.9905C154.965 22.5852 155.295 22.2519 155.704 22.2519H156.333C156.742 22.2519 157.071 22.5814 157.071 22.9905V23.4715C157.791 22.6231 158.677 22.0322 159.878 22.0322C159.954 22.0322 160.033 22.0322 160.109 22.0398C160.548 22.0739 160.673 22.2065 160.669 22.8806L160.658 23.3086C160.613 23.8086 160.31 23.9639 159.813 23.926C159.741 23.9184 159.673 23.9147 159.601 23.9147C159.192 23.9184 158.787 24.0245 158.435 24.2328C157.575 24.7138 157.071 25.6532 157.071 26.6417Z" fill="white"/>
</svg>
