<svg width="180" height="180" viewBox="0 0 180 180" fill="none" xmlns="http://www.w3.org/2000/svg">
<mask id="mask0" mask-type="alpha" maskUnits="userSpaceOnUse" x="6" y="4" width="168" height="172">
<rect x="6" y="4" width="167.929" height="172" fill="#C4C4C4"/>
</mask>
<g mask="url(#mask0)">
<path d="M59.8247 50.715C60.1835 48.1089 56.5104 45.9656 53.7556 45.7464C52.4421 45.6429 51.0738 45.8438 49.8272 45.4054C47.1271 44.4616 46.0507 40.9726 43.4115 39.8583C41.4411 39.0241 39.1728 39.7669 37.2633 40.729C35.3538 41.6911 33.4686 42.9028 31.3341 43.0368C29.4793 43.1585 27.4604 42.4644 25.8367 43.3717C24.6265 44.0475 23.9941 45.4419 22.8751 46.27C21.7866 47.0738 20.3636 47.2443 19.0075 47.3173C17.6513 47.3904 16.2527 47.4026 15.0182 47.9689C13.7837 48.5352 12.7681 49.8382 13.0235 51.1717L59.8247 50.715Z" fill="#F5F5F5"/>
<path d="M-23.0381 148.31C-23.0381 148.31 -22.9104 148.56 -22.6732 149.047C-22.436 149.54 -22.0894 150.265 -21.6333 151.221C-20.5691 153.041 -19.061 155.806 -16.3609 158.795C-15.0352 160.299 -13.4419 161.87 -11.5689 163.429C-11.1189 163.849 -10.5959 164.19 -10.0911 164.574C-9.58031 164.951 -9.05733 165.341 -8.52826 165.731C-7.96879 166.084 -7.39715 166.443 -6.81335 166.809C-6.22955 167.174 -5.64576 167.558 -5.00723 167.874C-4.37478 168.209 -3.73625 168.544 -3.08555 168.891C-2.42878 169.226 -1.72944 169.494 -1.03618 169.804C-0.68955 169.957 -0.336836 170.109 0.0158749 170.261C0.368587 170.413 0.745625 170.523 1.1105 170.657C1.85241 170.913 2.60648 171.168 3.36664 171.43C6.46807 172.325 9.84315 172.946 13.4189 173.099C20.5704 173.409 28.5125 171.406 35.6033 166.833C39.1425 164.562 42.469 161.669 45.3454 158.223C48.2157 154.783 50.6422 150.776 52.3084 146.343C52.5152 145.789 52.7341 145.235 52.9287 144.675C53.0929 144.103 53.251 143.524 53.4152 142.952L53.6585 142.087C53.7436 141.801 53.8226 141.509 53.8652 141.21C53.9747 140.62 54.0902 140.023 54.1997 139.426C54.6619 137.045 54.8078 134.579 54.6862 132.113C54.5402 129.647 54.0598 127.157 53.0868 124.831C52.126 122.505 50.6239 120.374 48.6232 118.766C46.6468 117.152 44.2082 116.02 41.6237 115.746C40.3345 115.612 39.0209 115.697 37.7621 116.044C36.5094 116.391 35.3174 116.988 34.2776 117.792C32.1795 119.399 30.7504 121.798 30.0146 124.362C29.6558 125.653 29.4612 126.992 29.4916 128.344C29.5159 129.69 29.7714 131.029 30.197 132.32C31.0545 134.902 32.5748 137.222 34.4782 139.116C36.3817 141.015 38.6135 142.55 41.0216 143.658C45.8684 145.887 51.1773 146.569 56.3099 146.745C66.6297 147.031 76.5969 145.783 85.7978 143.475C94.9987 141.149 103.421 137.77 110.919 133.91C114.659 131.949 118.162 129.866 121.446 127.729C124.724 125.58 127.734 123.327 130.55 121.098C136.126 116.574 140.784 112.019 144.573 107.751C148.349 103.47 151.305 99.5308 153.537 96.1879C154.12 95.372 154.607 94.5561 155.093 93.8071C155.568 93.0521 156.036 92.364 156.419 91.6942C157.198 90.3546 157.891 89.2464 158.389 88.3087C158.894 87.3832 159.277 86.6769 159.539 86.1958C159.8 85.7209 159.94 85.4834 159.94 85.4834C159.94 85.4834 159.819 85.7331 159.569 86.2141C159.314 86.7012 158.937 87.4136 158.444 88.3453C157.958 89.283 157.271 90.4033 156.504 91.7429C156.127 92.4188 155.659 93.113 155.191 93.868C154.704 94.617 154.23 95.439 153.646 96.261C151.433 99.6161 148.483 103.574 144.713 107.873C140.93 112.153 136.278 116.732 130.702 121.275C127.886 123.509 124.87 125.775 121.592 127.936C118.308 130.086 114.799 132.18 111.053 134.147C103.543 138.032 95.1081 141.423 85.8829 143.768C76.6638 146.094 66.6662 147.348 56.3159 147.068C51.1651 146.891 45.8076 146.209 40.9061 143.956C38.4675 142.83 36.1992 141.277 34.2715 139.347C32.3437 137.423 30.7869 135.06 29.9173 132.43C29.4855 131.115 29.224 129.739 29.1936 128.362C29.1572 126.98 29.3578 125.604 29.7288 124.289C30.4768 121.671 31.9424 119.211 34.1012 117.554C35.1715 116.726 36.3999 116.111 37.6952 115.752C38.9905 115.393 40.3527 115.308 41.6723 115.448C44.3298 115.728 46.8171 116.891 48.836 118.535C50.8732 120.173 52.4118 122.359 53.3848 124.721C54.3699 127.09 54.8504 129.611 55.0024 132.101C55.124 134.598 54.9781 137.088 54.5098 139.487C54.3943 140.09 54.2848 140.687 54.1693 141.283C54.1206 141.582 54.0476 141.88 53.9564 142.166L53.7071 143.037C53.5429 143.615 53.3787 144.2 53.2145 144.772C53.0199 145.339 52.7949 145.893 52.5882 146.453C50.9036 150.916 48.459 154.947 45.5643 158.412C42.6697 161.876 39.3189 164.781 35.7553 167.064C28.6159 171.655 20.613 173.659 13.4189 173.33C9.81882 173.166 6.43158 172.532 3.31799 171.631C2.55175 171.369 1.79767 171.107 1.04968 170.846C0.678728 170.712 0.301693 170.602 -0.0510197 170.444C-0.40373 170.285 -0.756441 170.133 -1.10915 169.981C-1.80241 169.664 -2.50784 169.396 -3.16461 169.055C-3.81531 168.708 -4.45992 168.367 -5.09236 168.032C-5.73697 167.716 -6.32077 167.326 -6.90457 166.961C-7.48837 166.589 -8.06001 166.23 -8.61948 165.871C-9.15463 165.475 -9.67153 165.085 -10.1884 164.702C-10.6932 164.312 -11.2162 163.965 -11.6662 163.545C-13.5453 161.968 -15.1325 160.385 -16.4582 158.875C-19.1522 155.867 -20.6482 153.084 -21.6941 151.251C-22.1381 150.295 -22.4725 149.564 -22.7036 149.065C-22.9286 148.566 -23.0381 148.31 -23.0381 148.31Z" fill="#E0E0E0"/>
<path d="M-1.48584 203.586C-1.48584 203.586 -1.29124 203.617 -0.914202 203.696C-0.531085 203.775 0.0223048 203.897 0.745972 204.049C1.47572 204.207 2.38182 204.402 3.44604 204.633C4.51026 204.865 5.76907 205.017 7.16776 205.248C12.7625 206.119 20.9965 206.838 31.1217 206.083C36.1692 205.632 41.6909 204.932 47.5167 203.647C53.3365 202.362 59.4785 200.621 65.7848 198.343C78.4459 193.874 91.4658 186.768 104.796 178.919C108.141 176.971 111.358 174.889 114.556 172.897C116.131 171.856 117.688 170.821 119.239 169.798C120.011 169.281 120.79 168.787 121.544 168.258C122.298 167.728 123.046 167.204 123.794 166.674C125.284 165.621 126.767 164.58 128.233 163.551C129.668 162.479 131.091 161.413 132.496 160.366C133.201 159.843 133.901 159.319 134.594 158.795C135.287 158.272 135.95 157.717 136.625 157.188C137.969 156.116 139.295 155.057 140.602 154.009C151.013 145.533 159.667 137.033 166.405 129.446C167.25 128.502 168.108 127.607 168.886 126.682C169.652 125.75 170.4 124.843 171.13 123.96C172.571 122.188 173.988 120.556 175.217 118.955C176.421 117.335 177.54 115.831 178.567 114.443C179.084 113.749 179.577 113.085 180.045 112.452C180.276 112.135 180.513 111.83 180.732 111.526C180.939 111.215 181.14 110.911 181.334 110.613C182.903 108.25 184.119 106.417 184.953 105.163C185.366 104.548 185.682 104.073 185.901 103.75C186.114 103.434 186.236 103.275 186.236 103.275C186.236 103.275 186.138 103.446 185.932 103.769C185.719 104.097 185.415 104.572 185.007 105.2C184.186 106.46 182.982 108.305 181.438 110.686C181.243 110.984 181.042 111.289 180.836 111.605C180.623 111.916 180.386 112.22 180.155 112.537C179.686 113.17 179.2 113.84 178.683 114.534C177.655 115.928 176.542 117.438 175.344 119.064C174.122 120.672 172.711 122.31 171.276 124.088C170.552 124.971 169.804 125.884 169.038 126.816C168.26 127.741 167.408 128.642 166.563 129.592C159.837 137.21 151.19 145.734 140.779 154.228C139.465 155.276 138.139 156.341 136.795 157.419C136.12 157.955 135.457 158.509 134.764 159.033C134.071 159.556 133.365 160.08 132.666 160.604C131.261 161.657 129.838 162.723 128.397 163.8C126.932 164.836 125.448 165.877 123.958 166.93C123.21 167.454 122.462 167.984 121.708 168.513C120.954 169.043 120.169 169.542 119.397 170.06C117.846 171.089 116.283 172.124 114.714 173.165C111.51 175.163 108.293 177.245 104.942 179.193C91.6057 187.048 78.5675 194.154 65.8699 198.617C59.5515 200.895 53.3912 202.63 47.5593 203.903C41.7213 205.175 36.1874 205.863 31.1278 206.302C20.9843 207.033 12.7382 206.277 7.13735 205.37C5.73867 205.127 4.48593 204.962 3.42172 204.725C2.3575 204.481 1.45748 204.274 0.727729 204.11C0.00406182 203.939 -0.549331 203.811 -0.926368 203.726C-1.29732 203.635 -1.48584 203.586 -1.48584 203.586Z" fill="#E0E0E0"/>
<path d="M24.5843 180.923C24.7789 181.459 25.0343 181.976 25.3445 182.463C24.4384 181.934 23.4836 181.568 22.4315 181.404C20.82 181.154 19.1051 181.337 17.4145 181.574C17.3659 181.58 17.3111 181.586 17.2625 181.593C18.424 183.371 19.8227 184.844 21.4829 185.666C21.8295 185.837 22.1883 185.983 22.5593 186.098C22.243 186.281 21.9329 186.47 21.6227 186.671C19.5612 188.023 16.9584 190.97 15.6753 192.382C18.7889 192.602 21.8052 192.169 24.6025 191.098C24.7728 191.031 24.9492 190.964 25.1194 190.891C24.9553 191.353 24.8276 191.834 24.7546 192.34C24.5052 193.953 24.6877 195.67 24.9188 197.363C24.9248 197.412 24.9309 197.467 24.937 197.515C26.7067 196.352 28.1783 194.952 29.0054 193.283C29.3824 192.522 29.6256 191.694 29.7412 190.836C29.9297 191.219 30.1486 191.591 30.404 191.938C31.3466 193.241 32.7271 194.252 34.29 195.031C34.2839 194.988 34.2839 194.946 34.2778 194.903C34.1258 193.46 33.9372 191.999 33.4386 190.671C32.946 189.362 32.1372 188.278 31.1034 187.298C30.4588 186.689 30.1061 186.531 28.9567 185.648C28.8777 184.199 28.9445 183.815 28.8047 182.944C28.5797 181.538 28.1418 180.259 27.3391 179.114C26.5242 177.957 25.4296 176.977 24.3167 176.039C24.2863 176.009 24.2498 175.985 24.2194 175.954C23.9823 177.696 24.037 179.407 24.5843 180.923Z" fill="#EBEBEB"/>
<path d="M120.716 108.969C120.716 108.969 129.005 116.245 136.303 107.063C136.303 107.063 126.925 100.359 120.716 108.969Z" fill="#EBEBEB"/>
<path d="M139.726 106.467C139.739 106.57 136.613 107.057 132.739 107.556C128.865 108.05 125.715 108.366 125.703 108.263C125.691 108.159 128.817 107.672 132.69 107.173C136.558 106.674 139.708 106.357 139.726 106.467Z" fill="#E0E0E0"/>
<path d="M127.193 106.26C127.247 106.168 127.837 106.418 128.506 106.814C129.175 107.209 129.68 107.611 129.625 107.703C129.57 107.794 128.98 107.544 128.312 107.149C127.637 106.753 127.138 106.351 127.193 106.26Z" fill="#E0E0E0"/>
<path d="M133.311 107.227C133.39 107.301 132.97 107.849 132.38 108.445C131.791 109.042 131.249 109.468 131.176 109.389C131.103 109.316 131.517 108.768 132.107 108.171C132.697 107.575 133.238 107.154 133.311 107.227Z" fill="#E0E0E0"/>
<path d="M164.798 167.125C164.798 167.125 171.834 160.841 164.816 153.674C164.816 153.674 158.145 160.939 164.798 167.125Z" fill="#EBEBEB"/>
<path d="M164.67 150.703C164.725 150.703 164.779 153.413 164.791 156.756C164.804 160.099 164.767 162.808 164.719 162.808C164.664 162.808 164.609 160.099 164.597 156.756C164.585 153.413 164.615 150.703 164.67 150.703Z" fill="#E0E0E0"/>
<path d="M163.18 161.335C163.137 161.304 163.435 160.848 163.843 160.318C164.25 159.788 164.615 159.386 164.658 159.423C164.7 159.453 164.402 159.91 163.995 160.44C163.587 160.963 163.222 161.365 163.18 161.335Z" fill="#E0E0E0"/>
<path d="M164.646 156.232C164.688 156.196 165.084 156.628 165.528 157.194C165.972 157.76 166.3 158.242 166.257 158.278C166.215 158.315 165.82 157.882 165.376 157.316C164.926 156.75 164.603 156.269 164.646 156.232Z" fill="#E0E0E0"/>
<path d="M175.813 36.4666C175.855 36.5214 174.615 37.5748 173.046 38.8291C171.477 40.0774 170.169 41.0455 170.127 40.9968C170.084 40.942 171.325 39.8886 172.894 38.6343C174.462 37.386 175.77 36.4118 175.813 36.4666Z" fill="#E0E0E0"/>
<path d="M175.35 18.1696C175.344 18.2001 174.864 18.1331 174.091 17.9687C173.319 17.8043 172.267 17.5486 171.112 17.2076C169.962 16.8666 168.934 16.5073 168.199 16.2272C167.463 15.9471 167.019 15.7401 167.031 15.7097C167.043 15.6731 167.505 15.8193 168.253 16.0568C169.001 16.2942 170.035 16.623 171.178 16.964C172.328 17.305 173.368 17.5851 174.128 17.7921C174.894 18.0052 175.362 18.1392 175.35 18.1696Z" fill="#E0E0E0"/>
<path d="M172.729 27.278C172.735 27.345 171.045 27.5642 168.953 27.7651C166.861 27.966 165.158 28.0756 165.152 28.0087C165.146 27.9417 166.836 27.7225 168.928 27.5215C171.02 27.3206 172.723 27.211 172.729 27.278Z" fill="#E0E0E0"/>
<path d="M75.2652 20.0263C75.6058 17.542 72.1091 15.5021 69.4759 15.289C68.2231 15.1855 66.9218 15.3803 65.7298 14.9663C63.1575 14.0651 62.1297 10.7405 59.6182 9.67492C57.7391 8.88335 55.5803 9.58968 53.7559 10.503C51.9376 11.4225 50.1376 12.5733 48.1003 12.7073C46.3307 12.823 44.409 12.1653 42.8644 13.03C41.709 13.6754 41.1069 15.0028 40.0427 15.7883C39.0028 16.5555 37.6467 16.7199 36.3575 16.7869C35.0683 16.86 33.7304 16.8722 32.5567 17.408C31.383 17.9438 30.41 19.1921 30.6533 20.4586L75.2652 20.0263Z" fill="#EBEBEB"/>
<path d="M113.036 85.7643C113.036 85.7643 125.764 78.7011 127.564 76.7587C129.364 74.8163 129.084 74.8163 130.745 73.5741C132.405 72.3319 147.76 65.6766 147.76 65.6766C147.76 65.6766 151.22 64.7085 152.047 66.7848C152.047 66.7848 143.886 76.0645 142.913 77.3128C141.946 78.561 135.579 82.0257 135.579 82.0257C135.579 82.0257 130.185 87.1526 128.939 89.369C127.692 91.5855 115.931 99.3429 115.931 99.3429L113.036 85.7643Z" fill="#FFBE9D"/>
<path d="M152.053 67.1501C152.053 67.1501 156.048 64.2151 156.669 60.6592C157.289 57.1032 158.25 55.52 158.25 55.52C158.25 55.52 158.815 53.3767 157.97 53.4863C157.125 53.602 155.714 54.8441 154.984 57.2676C154.984 57.2676 153.859 59.0151 153.519 58.6802C153.178 58.3392 152.898 57.3833 152.503 55.3495C152.108 53.3158 150.813 49.023 150.192 48.9682C149.572 48.9134 149.517 49.5345 149.572 50.4905C149.627 51.4525 151.092 57.3772 150.308 57.4381C149.517 57.4929 147.693 51.6961 146.531 51.1115C146.191 50.941 145.686 51.3368 145.686 51.3368L146.927 55.5139L145.686 54.838C145.686 54.838 145.631 55.6296 145.686 56.4212C145.741 57.2128 147.942 61.7308 147.887 62.5163C147.833 63.3079 146.987 63.7585 146.987 63.7585C146.987 63.7585 143.771 62.3458 143.771 63.0217C143.771 63.6976 144.506 64.0934 145.352 64.7145C146.197 65.3355 146.41 64.5805 146.367 65.439C146.319 66.2976 146.312 67.3632 146.817 67.5946C147.31 67.826 152.053 67.1501 152.053 67.1501Z" fill="#FFBE9D"/>
<path d="M150.916 64.7266C150.891 64.7632 150.624 64.5561 150.119 64.6353C149.633 64.7084 148.933 64.9337 148.216 65.2381C146.762 65.8592 145.789 66.7299 145.728 66.6629C145.668 66.6142 146.574 65.5974 148.088 64.9519C148.842 64.6353 149.547 64.4404 150.107 64.4161C150.685 64.3856 150.958 64.7084 150.916 64.7266Z" fill="#EB996E"/>
<path d="M57.5569 61.6262C57.5691 61.6079 57.9401 61.7723 58.6151 62.0646C59.2901 62.3508 60.2692 62.7953 61.5341 63.1058C62.7807 63.4103 64.4227 63.5321 65.9734 62.8014C66.7396 62.4421 67.4085 61.821 67.9011 61.0356C68.3998 60.2501 68.7586 59.3367 69.1539 58.4112C69.9262 56.5297 71.0086 54.8917 72.158 53.5643C73.3195 52.243 74.5418 51.2139 75.6425 50.4772C76.7493 49.7404 77.7102 49.2533 78.3913 48.9732C78.7257 48.8149 79.0055 48.7357 79.1879 48.6687C79.3703 48.6078 79.4676 48.5774 79.4737 48.5896C79.4859 48.6139 79.1088 48.7722 78.446 49.0889C77.7831 49.3994 76.8466 49.9109 75.7702 50.6659C74.6999 51.421 73.508 52.45 72.383 53.7592C71.264 55.0744 70.212 56.688 69.4518 58.5391C69.0626 59.4585 68.6978 60.3901 68.1687 61.2121C67.6518 62.0342 66.922 62.704 66.1072 63.0754C64.4531 63.8304 62.7564 63.6721 61.4854 63.3372C60.1962 62.9901 59.2293 62.5091 58.5664 62.1864C58.238 62.022 57.9826 61.888 57.8124 61.7967C57.636 61.6932 57.5509 61.6384 57.5569 61.6262Z" fill="#263238"/>
<path d="M99.4995 87.8523C99.4873 87.8523 99.4873 87.7366 99.4873 87.5174C99.5055 87.2982 99.4751 86.9694 99.5481 86.5554C99.6272 85.7212 99.9312 84.5338 100.509 83.1577C101.081 81.7755 101.956 80.2288 102.893 78.5056C103.811 76.7825 104.814 74.8461 105.222 72.6358C105.611 70.4255 105.368 68.2456 104.906 66.358C104.437 64.4643 103.756 62.8264 103.142 61.4807C102.522 60.135 101.968 59.0695 101.591 58.3266C101.421 57.9795 101.275 57.6994 101.166 57.468C101.068 57.2732 101.026 57.1636 101.032 57.1575C101.044 57.1514 101.105 57.2488 101.22 57.4376C101.348 57.6568 101.506 57.9308 101.701 58.2657C102.108 58.9903 102.698 60.0437 103.343 61.3833C103.987 62.7229 104.699 64.3669 105.185 66.285C105.666 68.1969 105.933 70.4133 105.532 72.6845C105.112 74.9557 104.085 76.9164 103.148 78.6396C102.193 80.3628 101.306 81.8851 100.71 83.2429C100.114 84.5947 99.7792 85.7516 99.6697 86.5675C99.5481 87.3956 99.536 87.8584 99.4995 87.8523Z" fill="#263238"/>
<path d="M85.1176 47.6461C82.0648 46.4405 78.489 47.8714 76.2085 50.2278C73.9281 52.5904 72.6632 55.7201 71.3983 58.7525C70.1395 61.7848 68.7712 64.8902 66.363 67.1188C64.8792 68.4889 63.0244 69.5118 61.9176 71.1985C60.6892 73.0678 60.5554 75.4912 59.3209 77.3606C56.2013 82.0979 48.1862 80.7826 44.6165 85.1911C43.3516 86.756 42.8712 88.7897 41.9955 90.6042C41.1198 92.4188 39.5083 94.1663 37.5015 94.1054C39.5022 96.1879 42.8955 96.7785 45.4861 95.4816C45.772 98.0572 41.2779 99.3481 41.7583 101.893C41.9529 102.922 42.932 103.592 43.8503 104.085C53.6654 109.383 66.7583 107.727 74.9497 100.152C78.039 97.2961 80.4107 93.7645 83.2263 90.6469C86.048 87.5293 89.5265 84.7161 93.6678 84.0098L85.1176 47.6461Z" fill="#263238"/>
<path d="M72.1823 66.26C71.8783 61.2975 71.5499 56.134 74.5419 52.1639C77.2054 48.6262 80.8481 46.8725 85.1658 45.9166C87.2942 45.4477 89.9274 45.7887 92.0376 46.3367C94.9262 47.0918 96.7566 49.6979 98.6661 51.9995C102.485 56.6089 104.066 63.8122 102.947 66.2296L84.0833 83.6564C79.6623 82.6639 76.8162 82.4082 74.6574 78.4198C73.1857 75.7102 72.3709 69.3411 72.1823 66.26Z" fill="#263238"/>
<path d="M76.1653 56.3779L88.8933 48.6327C93.1684 46.7999 97.7841 51.3484 99.426 55.702C101.256 60.5428 103.294 66.5222 103.841 70.3827C104.881 77.7078 99.9733 79.9486 99.4321 80.2469C99.4017 80.2652 99.4017 80.2652 99.4017 80.2652C99.4443 80.4235 99.7605 81.5743 100.217 83.1636L101.743 88.1139C101.725 94.684 99.0976 100.176 90.5535 99.3421L74.645 59.7451C74.2071 58.3934 74.8639 56.9381 76.1653 56.3779Z" fill="#FFBE9D"/>
<path d="M96.5252 62.6984C96.5799 62.534 97.4373 62.7775 98.3373 62.4C99.2495 62.0346 99.6934 61.2492 99.8455 61.3283C99.9184 61.3588 99.9002 61.6206 99.7117 61.9738C99.5232 62.3208 99.134 62.7471 98.5684 62.9785C98.0029 63.2098 97.4312 63.1855 97.0603 63.0698C96.6833 62.948 96.4947 62.7775 96.5252 62.6984Z" fill="#263238"/>
<path d="M86.9412 65.3166C87.0203 65.1582 87.9021 65.4627 88.9237 65.1339C89.9454 64.8233 90.5231 64.0622 90.6751 64.1535C90.7481 64.1901 90.6995 64.4519 90.444 64.7929C90.2008 65.1278 89.7264 65.5358 89.0879 65.7306C88.4555 65.9255 87.8473 65.8646 87.4642 65.7184C87.0811 65.5784 86.9047 65.3896 86.9412 65.3166Z" fill="#263238"/>
<path d="M95.1449 68.9634C95.1206 68.9086 95.7226 68.6041 96.7078 68.1535C96.9571 68.0439 97.1882 67.916 97.1821 67.7273C97.1882 67.5203 96.9876 67.2706 96.7686 67.0088C96.3308 66.4547 95.8686 65.8701 95.3882 65.2612C93.4482 62.7647 91.9583 60.6762 92.0617 60.597C92.1651 60.5179 93.8192 62.4846 95.7591 64.9811C96.2335 65.5961 96.6835 66.1868 97.1092 66.753C97.2977 67.021 97.5713 67.3011 97.5592 67.7334C97.547 67.9526 97.4011 68.1474 97.249 68.2449C97.097 68.3484 96.9511 68.3971 96.8234 68.4458C95.8078 68.8172 95.1692 69.0182 95.1449 68.9634Z" fill="#263238"/>
<path d="M99.4139 80.2651C99.4139 80.2651 94.5367 82.1223 88.6987 80.6731C88.6987 80.6731 92.7367 85.0998 99.9247 82.1223L99.4139 80.2651Z" fill="#EB996E"/>
<path d="M92.3593 71.9117C92.5053 71.3454 92.9553 70.9314 93.4965 70.7487C94.2688 70.4808 95.0047 70.5478 95.7344 71.114C95.9716 71.2663 96.1358 71.863 96.1175 72.0457C96.0932 72.2283 96.1297 72.1309 96.0324 72.2831C95.6979 72.8251 95.3391 73.3792 94.7979 73.7019C94.2567 74.0246 93.4783 74.055 92.9188 73.5984C92.4201 73.1904 92.2134 72.4719 92.3593 71.9117Z" fill="#EB996E"/>
<path d="M92.1893 70.687C92.3535 70.6261 92.7001 71.7343 93.8921 72.2214C95.084 72.7146 96.2212 72.2153 96.282 72.3676C96.3185 72.4345 96.0874 72.6659 95.5948 72.8364C95.1144 73.0069 94.3482 73.0739 93.6184 72.7755C92.8887 72.4772 92.4387 71.9109 92.2623 71.4664C92.0738 71.0158 92.1103 70.7052 92.1893 70.687Z" fill="#263238"/>
<path d="M88.7474 59.4527C88.7474 59.7632 87.7014 60.0068 86.5825 60.5852C85.4514 61.1393 84.6304 61.8396 84.381 61.6508C84.2655 61.5595 84.3385 61.2428 84.6243 60.8349C84.904 60.433 85.4209 59.952 86.096 59.611C86.771 59.27 87.4582 59.1421 87.9507 59.1604C88.4433 59.1726 88.7413 59.3065 88.7474 59.4527Z" fill="#263238"/>
<path d="M98.6479 57.7607C98.4655 58.0287 97.6202 57.8704 96.6411 57.9739C95.6559 58.0469 94.8471 58.3453 94.6282 58.1139C94.5309 57.9982 94.6343 57.7425 94.9688 57.4746C95.3032 57.2066 95.8749 56.9509 96.556 56.89C97.231 56.8291 97.8391 56.9813 98.2101 57.1884C98.581 57.4015 98.7209 57.6329 98.6479 57.7607Z" fill="#263238"/>
<path d="M88.7779 47.731C90.0124 50.6233 89.3556 53.546 88.8935 56.6575C88.7658 57.5283 88.2549 59.0444 87.7806 59.7812C87.3123 60.5241 86.4427 61.0782 85.567 61.1269C86.388 59.1297 88.0299 56.5784 87.5252 54.4777C87.209 56.8402 86.8745 59.2515 85.8407 61.3948C84.8069 63.5442 82.9278 65.4257 80.5865 65.8398L80.325 64.2567C80.2885 65.4501 80.0331 66.6862 79.279 67.6056C78.525 68.5312 77.181 69.0366 76.0925 68.5494C75.8553 64.5976 72.468 61.1512 72.9485 57.2238C73.2829 54.502 75.4235 52.3465 77.7344 50.8669C80.9757 48.7844 84.7826 47.591 88.632 47.4448" fill="#263238"/>
<path d="M88.4863 47.8779C88.5107 47.9267 88.535 47.9816 88.5655 48.0303L88.5411 48.0486C88.5229 47.9937 88.5046 47.9328 88.4863 47.8779Z" fill="#263238"/>
<path d="M88.5649 48.0298L88.9663 47.7192C90.1765 46.611 90.8758 45.5333 93.588 46.8789C95.0597 47.6096 96.5435 48.8944 97.7354 50.2949C98.7996 51.5431 99.9551 52.901 100.624 54.405C101.5 56.3718 101.974 57.8453 102.333 60.0982C100.843 59.5989 99.7848 58.2715 98.9821 56.9198C98.1794 55.5619 97.5226 54.0945 96.428 52.9619C96.9813 54.1553 97.5408 55.3792 97.6807 56.6884C97.7172 57.0476 97.7172 57.4312 97.5226 57.7357C97.328 58.0401 96.884 58.2046 96.5982 57.9853C96.6712 56.4144 96.1482 54.8617 95.3759 53.4916C94.5975 52.1216 93.5698 50.916 92.5421 49.7286C93.5637 52.1642 94.1657 54.7703 94.3117 57.4069C94.3299 57.7844 94.3421 58.1863 94.1536 58.5151C93.8738 59.0083 93.2596 59.191 92.6941 59.2519C92.1285 59.3188 91.5326 59.3188 91.0522 59.6233C91.2893 55.635 90.4197 51.5797 88.5649 48.0298Z" fill="#263238"/>
<path d="M72.0187 49.0772C72.0126 49.0589 72.2802 48.931 72.7727 48.7301C73.2653 48.5231 73.9829 48.2369 74.8708 47.8959C76.6526 47.2078 79.1215 46.2884 81.9067 45.4238C83.2993 45.0097 84.625 44.5713 85.9082 44.4312C87.1792 44.279 88.4136 44.5226 89.192 45.1437C89.9948 45.7221 90.3657 46.4954 90.4569 47.0313C90.4995 47.3053 90.4934 47.5184 90.4691 47.6584C90.4448 47.7985 90.4265 47.8716 90.4144 47.8716C90.3779 47.8716 90.4509 47.5671 90.3353 47.0617C90.2137 46.5624 89.8366 45.8561 89.0643 45.3324C88.3103 44.7783 87.167 44.5713 85.9386 44.7296C84.7102 44.8818 83.3845 45.3263 81.998 45.7404C79.2249 46.5989 76.7438 47.4879 74.9437 48.1151C74.0863 48.4135 73.3748 48.6631 72.8092 48.858C72.3106 49.0102 72.0247 49.0954 72.0187 49.0772Z" fill="#263238"/>
<path d="M38.3706 85.13C38.3706 85.1239 38.4132 85.1057 38.5105 85.0631C38.626 85.0204 38.7598 84.9656 38.9301 84.9047C39.1186 84.8378 39.3558 84.7891 39.6416 84.7099C39.9274 84.6673 40.2558 84.5881 40.6328 84.5638C41.3869 84.4846 42.3113 84.4846 43.3755 84.5272C44.4397 84.5577 45.6559 84.6551 46.9816 84.4968C48.2952 84.3628 49.7243 83.8513 50.8371 82.7553C51.9622 81.6775 52.8014 80.1857 53.3913 78.5295C53.9933 76.8672 54.3703 75.0344 54.9906 73.1894C55.5987 71.3566 56.5535 69.4569 58.1954 68.1234C59.0042 67.4596 59.9772 66.9908 60.9989 66.8386C62.0144 66.6863 63.0057 66.7899 63.9544 66.7168C64.903 66.6681 65.7848 66.3393 66.4841 65.7547C67.1835 65.1823 67.7125 64.4395 68.1504 63.6844C69.0079 62.15 69.5977 60.5547 70.2059 59.0994C70.8018 57.638 71.3917 56.2741 72.0424 55.0928C73.3316 52.7059 74.931 51.1167 76.208 50.3068C76.8405 49.8928 77.3817 49.6553 77.7527 49.5092C77.9351 49.4361 78.0871 49.3996 78.1784 49.3691C78.2757 49.3387 78.3243 49.3265 78.3304 49.3326C78.3365 49.3448 78.1419 49.4178 77.777 49.57C77.4182 49.7284 76.8952 49.9841 76.281 50.4103C75.0465 51.2384 73.4897 52.8277 72.2431 55.2024C71.6106 56.3837 71.039 57.7354 70.4552 59.2029C69.8531 60.6643 69.2815 62.2596 68.4119 63.8367C67.968 64.6161 67.4267 65.3894 66.6848 65.9983C65.9551 66.6194 64.976 66.9847 63.9908 67.0334C63.0118 67.1126 62.0205 67.0091 61.0597 67.1552C60.0989 67.3013 59.1806 67.7397 58.4083 68.373C56.8332 69.6517 55.9028 71.4784 55.3008 73.2929C54.6866 75.1136 54.2974 76.9464 53.6832 78.633C53.075 80.3136 52.2115 81.848 51.0378 82.9502C49.8763 84.0827 48.3682 84.6003 47.0242 84.7221C45.6681 84.8682 44.4518 84.7525 43.3876 84.7038C42.3234 84.6429 41.4051 84.6246 40.6632 84.6855C39.1429 84.783 38.3828 85.1787 38.3706 85.13Z" fill="#263238"/>
<path d="M80.0089 137.971C80.0089 137.971 74.0797 144.2 70.9722 151.866C67.8647 159.532 69.2269 196.438 69.2269 196.438L69.8776 215.789C69.8776 215.789 67.5363 234.586 68.2539 246.441C68.9715 258.296 71.179 269.269 71.179 269.269L84.0955 269.89L97.8026 169.342L94.3728 215.71L91.3322 269.89L107.806 269.732C107.806 269.732 113.115 222.663 114.192 215.04C115.408 206.424 117.141 197.857 117.141 197.857C117.141 197.857 119.896 175.181 118.941 162.96C117.986 150.746 110.713 133.666 110.476 132.941L81.2556 138.208" fill="#263238"/>
<path d="M19.6952 34.5552C19.6952 34.5552 18.3938 35.2737 18.5884 37.2343C18.783 39.195 19.6952 40.4981 19.6952 40.4981C19.6952 40.4981 12.7808 34.2933 11.9963 34.0315C11.2119 33.7697 10.172 34.4212 10.2328 35.3406C10.2997 36.254 14.4045 39.3898 14.9579 40.1753C15.5113 40.9608 14.9944 40.632 14.4714 40.5041C13.9484 40.3763 9.90439 37.2282 9.70979 37.3318C9.51519 37.4353 7.55704 37.758 8.66382 39.262C9.7706 40.766 12.9693 42.203 13.3585 42.7875C13.7477 43.3782 14.1977 43.4756 14.1308 44.0662C14.064 44.6569 10.701 43.1955 10.701 43.1955L9.02261 42.3248C8.21381 41.9046 7.36852 42.8119 7.83677 43.5913C7.96448 43.7983 8.14083 44.0114 8.39624 44.2185C9.83141 45.3936 12.8964 46.441 12.8964 46.441C12.8964 46.441 14.1491 47.1595 14.0883 47.878C14.0214 48.5965 8.2807 50.819 8.2807 50.819C8.2807 50.819 7.95231 51.7323 8.73679 52.0611C9.52127 52.3899 10.9929 51.5436 10.9929 51.5436C10.9929 51.5436 14.4775 50.1066 15.3228 50.3684C16.1681 50.6302 19.6283 52.5239 21.1912 52.7857C22.754 53.0476 24.1892 52.7857 24.1892 52.7857L26.8893 47.0133C26.8893 47.0133 24.0615 41.1009 23.5385 39.9257C23.0155 38.7505 21.258 38.2938 20.9297 36.9847C20.6074 35.6634 19.6952 34.5552 19.6952 34.5552Z" fill="#FFBE9D"/>
<path d="M21.2578 51.1841C21.2578 51.1841 35.0622 67.0096 38.7049 72.2339C42.4692 77.6349 54.0053 87.2921 54.0053 87.2921C54.0053 87.2921 68.9833 103.142 70.3638 103.276C71.7503 103.416 77.0167 102.856 77.0167 102.856L76.0497 88.169C76.0497 88.169 52.5275 67.9412 51.5606 67.1131C50.5937 66.2789 25.387 45.771 25.387 45.771L21.2578 51.1841Z" fill="#FFBE9D"/>
<path d="M19.0021 39.0788C19.0508 39.0667 19.215 39.5355 19.6893 40.1871C19.9082 40.528 20.2609 40.8629 20.4312 41.4597C20.492 41.7702 20.4069 42.0929 20.2731 42.3669C20.1393 42.6409 19.9994 42.8845 19.9934 43.1524C20.0359 44.3337 20.5163 45.3871 20.8447 46.1117C21.1853 46.8424 21.4103 47.2991 21.3677 47.3173C21.3312 47.3356 21.0393 46.9276 20.6441 46.2091C20.2609 45.4906 19.7258 44.4555 19.6771 43.1341C19.6893 42.7688 19.8717 42.4765 19.9934 42.2269C20.1211 41.9833 20.1819 41.7337 20.1454 41.5084C20.0359 41.0517 19.7015 40.6559 19.5008 40.3027C19.0629 39.6025 18.9656 39.0788 19.0021 39.0788Z" fill="#EB996E"/>
<path d="M41.6912 66.6625C41.7034 66.626 42.0622 66.7051 42.5548 67.0218C43.0413 67.3323 43.6494 67.929 43.9899 68.7693C44.3305 69.6096 44.3122 70.4621 44.1845 71.0284C44.0568 71.6007 43.8501 71.9052 43.8136 71.8869C43.7649 71.8686 43.8926 71.5398 43.9595 70.9857C44.0325 70.4438 44.0082 69.6583 43.698 68.885C43.3818 68.1117 42.8527 67.5393 42.421 67.1984C41.9892 66.8574 41.6669 66.7112 41.6912 66.6625Z" fill="#EB996E"/>
<path d="M101.123 85.9526C101.123 85.9526 101.543 86.0196 102.789 86.4397L113.134 85.7638L117.658 99.3424L114.24 101.559C114.654 103.915 116.454 107.1 116.04 111.393C115.627 115.685 114.794 118.322 114.794 118.322L113.827 137.715L107.6 148.103H93.7648L78.8232 136.467L77.0232 121.506L69.5494 104.049L64.2344 100.451L68.1689 81.3066C68.1689 81.3066 74.1164 82.4392 76.6097 85.0697L78.5496 86.872C78.5496 86.872 80.4895 86.1779 82.1497 86.872L84.5031 86.458C84.5031 86.458 94.0628 93.8135 98.9035 92.407C103.002 91.2135 101.123 85.9526 101.123 85.9526Z" fill="#B2CAF2"/>
<path d="M102.492 104.555C102.51 104.555 102.552 104.787 102.583 105.207C102.613 105.627 102.613 106.242 102.528 106.997C102.364 108.495 101.756 110.577 100.351 112.447C98.9523 114.316 97.1218 115.485 95.7353 116.063C95.036 116.356 94.4461 116.532 94.0387 116.618C93.6251 116.709 93.394 116.733 93.388 116.715C93.3697 116.654 94.2941 116.49 95.6441 115.863C96.982 115.248 98.7395 114.078 100.102 112.264C101.458 110.449 102.09 108.434 102.309 106.973C102.528 105.493 102.431 104.561 102.492 104.555Z" fill="#263238"/>
<g opacity="0.3">
<g opacity="0.3">
<path opacity="0.3" d="M102.619 105.426C102.2 110.595 98.7514 115.046 93.8135 116.611C96.7446 116.624 100.132 115.868 101.993 113.597C103.841 111.332 104.273 107.843 102.619 105.426Z" fill="black"/>
</g>
</g>
<path d="M109.789 92.2426C109.868 92.2061 110.896 94.3555 112.088 97.0347C113.274 99.72 114.174 101.918 114.094 101.955C114.015 101.991 112.988 99.8418 111.796 97.1626C110.61 94.4834 109.71 92.2792 109.789 92.2426Z" fill="#263238"/>
<path d="M101.683 108.695C101.683 108.707 101.586 108.737 101.397 108.786C101.172 108.841 100.892 108.908 100.558 108.987C99.8282 109.158 98.7579 109.371 97.4383 109.602C94.793 110.071 91.1077 110.546 87.009 110.735C82.9102 110.917 79.1946 110.777 76.5189 110.558C75.181 110.448 74.0985 110.333 73.3566 110.229C73.0161 110.181 72.7302 110.138 72.4992 110.107C72.3046 110.077 72.2012 110.053 72.2012 110.041C72.2012 110.028 72.3046 110.028 72.5052 110.041C72.7363 110.059 73.0221 110.077 73.3688 110.101C74.1168 110.168 75.1992 110.248 76.5371 110.333C79.2128 110.497 82.9163 110.601 86.9968 110.418C91.0773 110.229 94.7565 109.785 97.4018 109.377C98.7275 109.176 99.7978 108.993 100.534 108.859C100.874 108.804 101.154 108.756 101.385 108.719C101.58 108.689 101.683 108.683 101.683 108.695Z" fill="white"/>
<path d="M115.062 105.218C115.08 105.255 114.429 105.59 113.329 106.022C112.234 106.46 110.677 106.978 108.92 107.386C107.162 107.794 105.538 108.007 104.359 108.098C103.179 108.19 102.449 108.177 102.449 108.135C102.449 108.086 103.173 108.019 104.334 107.873C105.496 107.727 107.101 107.477 108.847 107.075C110.592 106.667 112.137 106.192 113.249 105.809C114.362 105.431 115.043 105.17 115.062 105.218Z" fill="white"/>
<path d="M114.496 119.911C114.502 119.924 114.38 119.972 114.143 120.07C113.875 120.173 113.535 120.301 113.115 120.459C112.671 120.63 112.118 120.825 111.467 121.026C110.816 121.227 110.087 121.476 109.26 121.689C108.439 121.915 107.533 122.158 106.547 122.365C105.568 122.603 104.51 122.785 103.403 122.992C101.172 123.358 98.7026 123.644 96.0998 123.772C93.491 123.881 91.0038 123.808 88.7537 123.644C87.6287 123.54 86.5584 123.449 85.5671 123.303C84.5698 123.181 83.6455 123.023 82.8063 122.871C81.961 122.737 81.213 122.548 80.5501 122.408C79.8873 122.268 79.3217 122.122 78.8595 121.994C78.4278 121.872 78.0751 121.775 77.8014 121.695C77.5582 121.622 77.4365 121.58 77.4365 121.574C77.4365 121.562 77.5703 121.586 77.8136 121.635C78.0933 121.695 78.446 121.775 78.8839 121.872C79.346 121.982 79.9177 122.11 80.5805 122.231C81.2434 122.359 81.9975 122.524 82.8367 122.645C83.6759 122.785 84.5941 122.932 85.5915 123.041C86.5827 123.181 87.6469 123.254 88.7659 123.352C91.0098 123.498 93.4849 123.559 96.0755 123.455C98.6661 123.333 101.123 123.053 103.349 122.706C104.455 122.511 105.514 122.341 106.487 122.116C107.466 121.921 108.372 121.689 109.193 121.476C110.02 121.281 110.756 121.044 111.406 120.861C112.057 120.679 112.61 120.502 113.066 120.35C113.492 120.216 113.839 120.106 114.112 120.021C114.368 119.936 114.496 119.905 114.496 119.911Z" fill="white"/>
<path d="M113.669 134.196C113.669 134.208 113.553 134.245 113.316 134.306C113.049 134.373 112.714 134.464 112.295 134.567C111.851 134.683 111.309 134.811 110.671 134.933C110.032 135.061 109.315 135.219 108.506 135.341C106.894 135.621 104.961 135.864 102.808 136.035C100.649 136.187 98.2712 136.254 95.7779 136.169C93.2846 136.071 90.9129 135.828 88.7784 135.517C86.6439 135.189 84.7283 134.805 83.1472 134.403C82.3506 134.226 81.6391 134.007 81.0188 133.837C80.3924 133.666 79.8573 133.496 79.4255 133.35C79.018 133.21 78.6897 133.1 78.4282 133.015C78.2032 132.936 78.0815 132.887 78.0876 132.875C78.0937 132.863 78.2153 132.893 78.4464 132.954C78.714 133.027 79.0485 133.118 79.462 133.234C79.8998 133.362 80.435 133.514 81.0674 133.666C81.6938 133.825 82.4053 134.019 83.2019 134.184C84.7891 134.555 86.6926 134.915 88.8271 135.225C90.9616 135.517 93.315 135.749 95.8022 135.846C98.2834 135.931 100.649 135.871 102.802 135.737C104.948 135.584 106.876 135.365 108.488 135.115C109.296 135.012 110.02 134.866 110.659 134.756C111.297 134.653 111.845 134.537 112.288 134.446C112.708 134.36 113.049 134.293 113.316 134.245C113.541 134.202 113.663 134.184 113.669 134.196Z" fill="white"/>
<path d="M78.8106 100.645C78.8228 100.749 76.5849 100.731 74.0369 101.65C71.4828 102.539 69.7557 103.964 69.6949 103.872C69.6706 103.842 70.0659 103.452 70.8078 102.941C71.5436 102.423 72.6382 101.814 73.9335 101.352C75.2288 100.895 76.4633 100.682 77.3572 100.621C78.2573 100.554 78.8106 100.609 78.8106 100.645Z" fill="white"/>
<path d="M84.3514 99.0378C84.3697 99.1231 83.871 99.3118 83.2386 99.464C82.6061 99.6102 82.071 99.665 82.0527 99.5797C82.0345 99.4945 82.5332 99.3057 83.1656 99.1535C83.7981 99.0013 84.3332 98.9526 84.3514 99.0378Z" fill="white"/>
<path d="M87.9999 96.3346C87.9938 96.4259 87.337 96.432 86.5708 96.6208C85.7985 96.8034 85.2147 97.0896 85.1661 97.0104C85.1174 96.9435 85.6708 96.5051 86.4978 96.3102C87.3249 96.1154 88.012 96.2554 87.9999 96.3346Z" fill="white"/>
<path d="M110.597 94.7635C110.604 94.7879 110.312 94.8488 109.789 94.9523C109.266 95.0558 108.499 95.1837 107.557 95.3298C105.672 95.6282 103.057 95.9813 100.156 96.2858C97.2552 96.5842 94.622 96.7729 92.7125 96.8642C91.7578 96.913 90.9855 96.9373 90.4503 96.9495C89.9152 96.9617 89.6233 96.9556 89.6172 96.9312C89.6172 96.9069 89.9091 96.8703 90.4442 96.8277C91.0402 96.779 91.7943 96.7181 92.6943 96.645C94.5977 96.4928 97.2248 96.2736 100.119 95.9753C103.014 95.6769 105.629 95.3542 107.526 95.1167C108.426 95.0071 109.181 94.9097 109.77 94.8366C110.293 94.7635 110.591 94.7392 110.597 94.7635Z" fill="white"/>
<path d="M114.752 91.7072C114.758 91.7986 113.681 91.896 112.423 92.2796C111.158 92.6571 110.215 93.1747 110.166 93.0955C110.118 93.0286 111.024 92.3709 112.331 91.9751C113.639 91.5794 114.758 91.6281 114.752 91.7072Z" fill="white"/>
<path d="M80.2345 88.626C80.2101 88.6686 79.5594 88.3581 78.4709 87.9197C77.3884 87.4813 75.862 86.9455 74.1289 86.5375C72.3957 86.1356 70.7903 85.9347 69.6227 85.8433C68.4551 85.752 67.7314 85.7459 67.7314 85.6911C67.7314 85.6668 67.9139 85.6485 68.2423 85.6302C68.5707 85.6059 69.0511 85.5998 69.6349 85.618C70.8146 85.6485 72.4444 85.8129 74.1958 86.2269C75.9533 86.641 77.4857 87.2134 78.556 87.7127C79.0912 87.9562 79.5169 88.1754 79.8027 88.3398C80.0885 88.5042 80.2405 88.6078 80.2345 88.626Z" fill="white"/>
<path d="M83.5422 88.218C83.5483 88.3093 82.8732 88.4128 82.1374 88.7843C81.3955 89.1496 80.909 89.6306 80.836 89.5698C80.7691 89.521 81.1887 88.9 81.9915 88.5042C82.7942 88.0962 83.5422 88.1388 83.5422 88.218Z" fill="white"/>
<path d="M86.9115 88.4429C86.9237 88.5282 86.4493 88.6621 85.8534 88.7474C85.2574 88.8266 84.7648 88.8205 84.7527 88.7352C84.7405 88.65 85.2148 88.516 85.8108 88.4308C86.4068 88.3516 86.8993 88.3577 86.9115 88.4429Z" fill="white"/>
<path d="M88.3167 96.7973C88.2681 96.8094 88.0492 96.164 87.6174 95.1593C87.1856 94.1546 86.5106 92.7968 85.5862 91.4085C84.6558 90.0202 83.6585 88.8815 82.8983 88.096C82.1321 87.3106 81.6213 86.8661 81.6517 86.8234C81.676 86.793 82.2416 87.1827 83.0564 87.9316C83.8713 88.6806 84.9112 89.8192 85.8538 91.2258C86.7964 92.6385 87.4471 94.0328 87.8302 95.0741C88.2133 96.1153 88.3532 96.7912 88.3167 96.7973Z" fill="#263238"/>
<path d="M84.4666 97.5216C84.4118 97.5277 84.3145 96.8397 83.9983 95.768C83.6882 94.6963 83.1104 93.2593 82.2652 91.7858C81.4138 90.3122 80.4773 89.0822 79.7475 88.2359C79.0178 87.3895 78.5191 86.9085 78.5556 86.8658C78.5678 86.8476 78.7076 86.9511 78.9509 87.1581C79.1941 87.359 79.5286 87.6757 79.9178 88.0836C80.6962 88.8996 81.6814 90.1235 82.5449 91.6275C83.4084 93.1254 83.9618 94.605 84.2172 95.7071C84.351 96.2551 84.4301 96.7118 84.4544 97.0223C84.4787 97.3451 84.4848 97.5156 84.4666 97.5216Z" fill="#263238"/>
<g opacity="0.3">
<g opacity="0.3">
<path opacity="0.3" d="M75.5216 103.069C75.2175 103.434 75.5338 104.037 75.9838 104.183C76.4338 104.329 76.9203 104.152 77.3521 103.951C80.1738 102.618 82.2779 99.8657 82.8252 96.7907C83.0563 97.5762 83.6401 98.2582 84.382 98.6114C83.9685 95.92 83.5549 93.2347 83.1414 90.5434C84.4185 91.749 85.6895 92.9486 86.9665 94.1542C87.4044 92.9668 86.5104 91.7307 85.653 90.793C84.7955 89.8553 83.8529 88.6862 84.1995 87.4623C84.2908 87.1457 84.4671 86.8413 84.4489 86.5124C84.4185 85.9157 83.7191 85.5321 83.1292 85.6417C82.5454 85.7513 82.0833 86.2019 81.7245 86.6829C80.5386 88.2783 80.1494 90.3242 79.9792 92.3031C79.815 94.2821 79.8393 96.2975 79.3528 98.2278C78.8663 100.158 77.7656 102.052 75.9777 102.91" fill="black"/>
</g>
</g>
<path d="M82.1377 135.512C82.1256 135.512 82.1134 135.359 82.1073 135.067C82.0952 134.775 82.0952 134.349 82.0648 133.795C82.0222 132.692 81.9127 131.097 81.6512 129.149C81.1283 125.252 79.9424 119.887 77.6011 114.346C76.4335 111.576 75.0896 109.037 73.6605 106.869C72.2497 104.683 70.7172 102.893 69.3246 101.517C67.9259 100.134 66.6306 99.1966 65.7002 98.6121C64.7758 98.0154 64.2224 97.7535 64.2407 97.7231C64.2468 97.7109 64.3866 97.7779 64.6481 97.9058C64.9096 98.0397 65.2988 98.2163 65.7671 98.5086C66.7218 99.0688 68.0475 99.9821 69.4827 101.358C70.9118 102.728 72.4747 104.518 73.9098 106.717C75.3632 108.896 76.7254 111.448 77.8991 114.23C80.2526 119.808 81.408 125.203 81.8762 129.13C82.1073 131.097 82.1864 132.699 82.1925 133.807C82.2046 134.361 82.1803 134.787 82.1742 135.079C82.1621 135.359 82.1499 135.512 82.1377 135.512Z" fill="#263238"/>
<path d="M85.3544 82.3542C85.4456 80.2657 83.6273 78.4511 83.7367 76.3626C83.7976 75.1996 84.4543 74.1645 84.807 73.0502C86.1632 68.7148 82.7759 63.6487 84.9347 59.6543L75.3021 62.0047C76.6643 64.6656 76.5122 67.838 76.0561 70.7972C75.6 73.7565 74.8642 76.7279 75.1804 79.6994C75.4298 82.0315 76.3116 84.2418 76.8589 86.5252C78.2089 92.1028 77.5096 98.1553 74.9189 103.276C78.3366 102.497 81.0549 99.3061 81.286 95.8049C81.438 93.4667 80.611 91.0128 81.4745 88.839C82.4232 86.4643 85.2388 84.9116 85.3544 82.3542Z" fill="#263238"/>
<path d="M78.5131 134.726L75.0832 143.86C75.0832 143.86 49.6089 179.444 50.3509 182.415C51.0928 185.381 64.9762 196.871 69.0446 195.02C73.119 193.169 83.6699 185.57 87.1849 177.964C90.6998 170.365 100.697 149.047 100.697 149.047L103.841 143.117L100.326 140.706L78.5131 134.726Z" fill="#455A64"/>
<path d="M114.063 137.125C119.889 155.033 122.303 174.049 121.148 192.845C119.007 193.101 116.873 193.357 114.732 193.613C112.962 184.918 113.181 175.954 112.476 167.113C111.777 158.266 110.013 149.175 104.862 141.953C107.952 140.297 111.035 138.635 114.124 136.979" fill="#455A64"/>
<path d="M85.7858 148.427C85.7736 148.463 85.1534 148.341 84.1743 148.055C83.1952 147.769 81.8573 147.312 80.4222 146.697C78.987 146.082 77.7343 145.425 76.8586 144.907C75.9768 144.39 75.4599 144.024 75.4842 143.994C75.5085 143.951 76.0619 144.25 76.968 144.712C77.8741 145.175 79.1329 145.796 80.5499 146.411C81.9729 147.02 83.2864 147.513 84.2473 147.848C85.202 148.183 85.8041 148.384 85.7858 148.427Z" fill="#263238"/>
<g opacity="0.2">
<g opacity="0.2">
<path opacity="0.2" d="M69.269 175.523L68.6548 175.565C72.8691 179.919 79.9172 181.216 85.3964 178.64C87.2634 177.763 89.1181 176.144 89.033 174.08C82.7329 176.32 75.8246 176.82 69.269 175.523Z" fill="black"/>
</g>
</g>
<path d="M101.081 143.135C98.6968 142.697 94.1297 143.945 92.4513 145.699C90.779 147.452 89.7756 149.73 88.9485 152.007C87.1607 156.945 85.8897 162.419 82.0098 165.957C78.3611 169.288 73.1799 170.177 68.2967 170.932C68.1629 172.734 68.1872 174.883 69.6649 175.919C70.1028 176.223 70.6197 176.387 71.1366 176.527C72.5839 176.929 74.0738 177.191 75.5698 177.313C82.5146 177.885 89.8729 175.084 93.9473 169.428C99.1042 162.267 99.5116 153.669 102.431 145.339" fill="#455A64"/>
<path d="M102.443 145.339C102.449 145.339 102.424 145.431 102.37 145.601C102.315 145.784 102.236 146.04 102.132 146.362C101.92 147.026 101.628 148.019 101.281 149.303C100.928 150.588 100.545 152.171 100.101 154.004C99.6512 155.843 99.1526 157.938 98.4532 160.215C97.7478 162.492 96.8356 164.964 95.4126 167.394C94.7194 168.612 93.8923 169.824 92.895 170.944C91.8916 172.064 90.724 173.087 89.4044 173.97C86.7651 175.724 83.5725 176.923 80.1609 177.356C78.4521 177.575 76.6885 177.587 74.9189 177.41C74.0371 177.313 73.1492 177.167 72.2735 176.972C71.8357 176.875 71.3978 176.765 70.96 176.637C70.5221 176.509 70.0721 176.363 69.6708 176.101C69.2572 175.827 68.9045 175.45 68.6734 175.017C68.4363 174.585 68.3025 174.116 68.2173 173.653C68.0531 172.722 68.0896 171.796 68.1504 170.913L68.1565 170.786L68.2782 170.767C71.5377 170.268 74.7303 169.726 77.5764 168.533C78.9933 167.936 80.319 167.193 81.444 166.249C82.5751 165.312 83.5116 164.203 84.2779 163.028C85.8104 160.666 86.7043 158.12 87.5253 155.77C88.3401 153.407 89.0395 151.185 89.9578 149.261C90.4138 148.299 90.9368 147.428 91.5085 146.661C91.8004 146.277 92.0984 145.924 92.4146 145.601C92.743 145.285 93.0957 145.017 93.4545 144.798C94.9079 143.933 96.3187 143.537 97.462 143.287C98.6114 143.038 99.5296 142.995 100.144 143.013C100.758 143.038 101.074 143.129 101.074 143.129C101.068 143.147 100.758 143.08 100.144 143.074C99.5357 143.074 98.6235 143.135 97.4863 143.403C96.3552 143.665 94.9626 144.079 93.5457 144.944C93.193 145.157 92.8524 145.425 92.5423 145.729C92.2382 146.052 91.9402 146.399 91.6605 146.777C91.101 147.538 90.5963 148.402 90.1463 149.352C89.2463 151.258 88.5652 153.481 87.7564 155.849C86.9415 158.206 86.0536 160.775 84.5029 163.18C83.7306 164.374 82.7758 165.512 81.6204 166.475C80.471 167.443 79.121 168.204 77.6858 168.813C74.7972 170.031 71.5863 170.579 68.3207 171.084L68.4545 170.938C68.3937 171.809 68.3633 172.71 68.5214 173.599C68.6673 174.476 69.0748 175.352 69.8349 175.839C70.5647 176.29 71.483 176.448 72.3404 176.668C73.21 176.862 74.0796 177.009 74.9553 177.1C76.7007 177.276 78.4399 177.27 80.1244 177.051C83.4934 176.631 86.6435 175.456 89.2463 173.733C90.5476 172.868 91.7031 171.863 92.6882 170.761C93.6734 169.665 94.4944 168.472 95.1876 167.266C96.6045 164.867 97.5228 162.413 98.2404 160.154C98.9519 157.889 99.4688 155.794 99.931 153.968C100.393 152.135 100.795 150.552 101.165 149.273C101.53 147.994 101.84 147.002 102.072 146.344C102.187 146.021 102.272 145.778 102.339 145.589C102.406 145.425 102.436 145.339 102.443 145.339Z" fill="#263238"/>
<path d="M73.7449 176.984C73.6476 176.954 74.4139 175.444 74.1888 173.459C74.0003 171.467 72.9422 170.146 73.0334 170.103C73.0577 170.079 73.3618 170.371 73.7023 170.944C74.0429 171.516 74.3956 172.399 74.499 173.428C74.6024 174.451 74.4443 175.389 74.2253 176.022C74.0125 176.655 73.7753 177.002 73.7449 176.984Z" fill="#263238"/>
<path d="M73.9153 172.545C73.9214 172.63 72.7051 172.782 71.1909 172.886C69.6827 172.989 68.4543 172.995 68.4483 172.91C68.4422 172.825 69.6584 172.673 71.1726 172.569C72.6808 172.466 73.9092 172.454 73.9153 172.545Z" fill="#263238"/>
<path d="M74.4324 174.53C74.4324 174.615 73.1675 174.712 71.6046 174.749C70.0417 174.779 68.7707 174.737 68.7646 174.651C68.7646 174.566 70.0295 174.469 71.5924 174.432C73.1614 174.402 74.4263 174.444 74.4324 174.53Z" fill="#263238"/>
<path d="M106.936 144.682C111.199 148.536 112.798 154.65 112.64 160.404C112.482 166.158 110.816 171.742 109.533 177.35C108.25 182.958 107.35 188.846 108.73 194.43C106.906 194.691 105.081 194.953 103.263 195.215C98.7994 190.484 96.525 183.755 97.2 177.283C97.7595 171.918 100.192 166.968 101.937 161.865C103.683 156.763 104.716 151.009 102.515 146.089" fill="#455A64"/>
<path d="M102.515 146.081C102.521 146.081 102.558 146.16 102.631 146.319C102.704 146.495 102.807 146.733 102.935 147.037C103.16 147.683 103.476 148.651 103.664 149.948C103.853 151.239 103.908 152.852 103.713 154.703C103.524 156.554 103.074 158.637 102.375 160.871C101.676 163.106 100.721 165.493 99.7663 168.075C98.8237 170.656 97.8568 173.457 97.4372 176.526C97.0176 179.583 97.2365 182.895 98.2156 186.123C99.1886 189.344 100.916 192.492 103.366 195.11L103.227 195.061C104.078 194.94 104.996 194.806 105.914 194.678C106.869 194.544 107.812 194.404 108.694 194.282L108.56 194.477C107.696 190.933 107.739 187.34 108.158 183.973C108.572 180.594 109.344 177.409 110.074 174.395C110.81 171.381 111.515 168.525 111.953 165.816C112.403 163.106 112.598 160.555 112.488 158.229C112.275 153.565 110.84 149.966 109.448 147.798C108.767 146.696 108.085 145.947 107.641 145.436C107.41 145.204 107.228 145.016 107.1 144.888C106.979 144.76 106.918 144.699 106.924 144.693C106.93 144.687 106.997 144.748 107.125 144.863C107.264 144.991 107.453 145.168 107.69 145.393C108.152 145.892 108.852 146.629 109.551 147.731C110.986 149.893 112.464 153.516 112.707 158.21C112.829 160.549 112.646 163.124 112.208 165.846C111.777 168.568 111.083 171.436 110.354 174.456C109.63 177.47 108.87 180.642 108.462 184.004C108.055 187.347 108.012 190.903 108.87 194.392L108.912 194.562L108.742 194.586C107.86 194.714 106.912 194.848 105.963 194.988C105.045 195.122 104.127 195.25 103.275 195.372L103.196 195.384L103.141 195.323C100.648 192.668 98.9088 189.478 97.9237 186.208C96.9324 182.938 96.7135 179.577 97.1513 176.484C97.5831 173.378 98.5683 170.565 99.523 167.983C100.49 165.402 101.451 163.027 102.162 160.804C102.868 158.582 103.33 156.518 103.537 154.685C103.743 152.852 103.713 151.251 103.537 149.966C103.366 148.675 103.068 147.713 102.868 147.061C102.752 146.751 102.661 146.513 102.594 146.337C102.539 146.166 102.515 146.081 102.515 146.081Z" fill="#263238"/>
<path d="M99.6572 142.891C99.6208 142.904 99.5295 142.77 99.487 142.526C99.4383 142.282 99.4626 141.917 99.6147 141.564C99.7667 141.211 100.016 140.949 100.229 140.815C100.442 140.681 100.594 140.651 100.612 140.687C100.655 140.766 100.162 141.071 99.9066 141.692C99.6329 142.307 99.7485 142.873 99.6572 142.891Z" fill="#263238"/>
<path d="M106.772 141.558C106.036 140.395 104.285 140.005 102.917 139.841C101.244 139.695 99.6266 141.126 99.4624 142.8C99.2982 144.475 100.533 146.143 102.15 146.581C103.774 147.02 105.617 146.253 106.541 144.852C107.186 143.884 107.392 142.544 106.772 141.558Z" fill="#455A64"/>
<path d="M103.701 140.492C103.72 140.468 104.091 140.73 104.431 141.351C104.772 141.96 105.039 142.983 104.753 144.054C104.462 145.126 103.726 145.875 103.124 146.234C102.516 146.606 102.066 146.648 102.066 146.618C102.047 146.569 102.461 146.447 103.002 146.052C103.537 145.668 104.188 144.949 104.449 143.975C104.705 143.001 104.504 142.057 104.23 141.454C103.957 140.839 103.659 140.523 103.701 140.492Z" fill="#263238"/>
<path d="M106.425 141.12C106.456 141.096 106.663 141.291 106.863 141.693C107.064 142.094 107.222 142.728 107.149 143.422C107.076 144.116 106.79 144.701 106.511 145.054C106.231 145.407 105.982 145.553 105.957 145.523C105.921 145.486 106.109 145.285 106.322 144.926C106.541 144.567 106.76 144.025 106.833 143.391C106.9 142.758 106.79 142.18 106.657 141.784C106.523 141.382 106.383 141.151 106.425 141.12Z" fill="#263238"/>
<g opacity="0.2">
<g opacity="0.2">
<path opacity="0.2" d="M106.845 144.675C105.763 145.93 104.34 146.472 102.692 146.569C103.014 147.312 104.036 148.006 104.839 148.055C105.647 148.103 106.462 147.671 106.876 146.977C107.289 146.289 107.277 145.357 106.845 144.675Z" fill="black"/>
</g>
</g>
<g opacity="0.2">
<g opacity="0.2">
<path opacity="0.2" d="M87.3797 150.04C86.8202 149.346 85.9324 149.011 85.0932 148.706C81.9248 147.561 78.5072 145.601 75.3389 144.456C78.2275 147.026 81.3593 150.052 84.6736 152.037C85.4763 152.518 86.5222 152.975 87.2824 152.427C88.0121 151.909 87.9453 150.734 87.3797 150.04Z" fill="black"/>
</g>
</g>
<g opacity="0.2">
<g opacity="0.2">
<path opacity="0.2" d="M113.626 155.746C113.134 151.934 111.376 148.177 108.305 145.869C109.953 148.877 111.626 151.94 112.361 155.295C113.17 158.979 112.574 161.335 112.209 165.092L112.562 166.943C113.602 163.247 114.119 159.557 113.626 155.746Z" fill="black"/>
</g>
</g>
<path d="M85.6704 152.676C85.6583 152.695 85.4819 152.609 85.1778 152.433C84.8738 152.262 84.4359 151.994 83.9129 151.647C82.8609 150.959 81.4561 149.936 80.0027 148.676C78.5493 147.416 77.333 146.173 76.4999 145.23C76.0803 144.761 75.758 144.371 75.5391 144.091C75.3262 143.811 75.2107 143.652 75.2289 143.64C75.2654 143.61 75.7884 144.182 76.6641 145.077C77.5337 145.972 78.7682 147.184 80.2095 148.432C81.6507 149.681 83.0251 150.722 84.0406 151.459C85.0562 152.201 85.6947 152.634 85.6704 152.676Z" fill="#263238"/>
<path d="M167.694 91.6818C167.827 92.102 168.004 92.5099 168.229 92.8935C167.554 92.4551 166.83 92.1385 166.027 91.9802C164.799 91.7305 163.467 91.8158 162.16 91.9376C162.123 91.9437 162.081 91.9437 162.044 91.9497C162.877 93.3563 163.905 94.5376 165.158 95.2317C165.419 95.3779 165.693 95.4996 165.973 95.6032C165.723 95.731 165.474 95.8711 165.231 96.0111C163.601 96.9793 161.491 99.1592 160.457 100.2C162.847 100.474 165.182 100.249 167.371 99.5184C167.505 99.4758 167.639 99.4271 167.773 99.3784C167.627 99.7315 167.517 100.097 167.438 100.48C167.189 101.71 167.274 103.044 167.396 104.353C167.402 104.39 167.402 104.432 167.408 104.469C168.813 103.635 169.992 102.606 170.68 101.351C170.996 100.779 171.215 100.152 171.33 99.4941C171.464 99.7985 171.622 100.091 171.799 100.365C172.48 101.4 173.507 102.228 174.687 102.88C174.687 102.849 174.681 102.813 174.681 102.782C174.614 101.662 174.517 100.535 174.182 99.5001C173.848 98.4711 173.264 97.6125 172.498 96.8271C172.024 96.3338 171.756 96.1999 170.898 95.4814C170.886 94.3671 170.953 94.0748 170.874 93.3928C170.753 92.3029 170.455 91.3043 169.877 90.397C169.293 89.4776 168.478 88.686 167.657 87.9249C167.633 87.9005 167.609 87.8823 167.584 87.8579C167.341 89.1792 167.323 90.5006 167.694 91.6818Z" fill="#B2CAF2"/>
<path d="M174.627 93.3022C174.657 93.3631 172.583 94.5626 169.987 95.9814C167.39 97.4062 165.262 98.5083 165.231 98.4474C165.201 98.3865 167.275 97.187 169.871 95.7683C172.462 94.3495 174.596 93.2413 174.627 93.3022Z" fill="#263238"/>
<path d="M169.658 96.0422C169.725 96.0544 169.682 96.5598 169.561 97.1687C169.445 97.7776 169.293 98.2647 169.226 98.2525C169.16 98.2403 169.202 97.735 169.324 97.1261C169.445 96.5111 169.591 96.03 169.658 96.0422Z" fill="#263238"/>
<path d="M168.703 96.675C168.667 96.7298 168.332 96.5654 167.925 96.3766C167.517 96.1878 167.177 96.0417 167.195 95.9808C167.207 95.9199 167.596 95.9626 168.028 96.1574C168.46 96.3523 168.746 96.6202 168.703 96.675Z" fill="#263238"/>
<path d="M141.284 135.413C141.284 135.413 149.7 135.365 149.22 126.42C149.22 126.42 140.469 127.352 141.284 135.413Z" fill="#455A64"/>
<path d="M150.867 124.344C150.928 124.399 149.39 126.262 147.425 128.509C145.461 130.756 143.825 132.534 143.764 132.479C143.704 132.424 145.242 130.561 147.206 128.314C149.171 126.067 150.807 124.289 150.867 124.344Z" fill="#263238"/>
<path d="M143.613 130.585C143.595 130.506 144.057 130.348 144.641 130.238C145.224 130.123 145.711 130.098 145.729 130.177C145.747 130.257 145.285 130.415 144.701 130.525C144.111 130.64 143.625 130.665 143.613 130.585Z" fill="#263238"/>
<path d="M147.596 128.034C147.675 128.04 147.718 128.563 147.681 129.203C147.645 129.842 147.554 130.36 147.468 130.354C147.389 130.348 147.347 129.824 147.383 129.185C147.42 128.545 147.511 128.028 147.596 128.034Z" fill="#263238"/>
<path d="M54.8989 138.331C54.8989 138.331 60.6214 144.511 66.885 138.117C66.885 138.117 60.293 132.284 54.8989 138.331Z" fill="#455A64"/>
<path d="M69.5242 137.935C69.5242 138.014 67.1099 138.136 64.1301 138.209C61.1503 138.276 58.7361 138.27 58.73 138.185C58.73 138.106 61.1442 137.984 64.124 137.911C67.1099 137.844 69.5242 137.856 69.5242 137.935Z" fill="#263238"/>
<path d="M60.0314 136.79C60.0801 136.723 60.5057 136.961 60.9861 137.314C61.4666 137.667 61.8132 138.008 61.7645 138.075C61.7159 138.142 61.2902 137.904 60.8098 137.551C60.3294 137.198 59.9828 136.857 60.0314 136.79Z" fill="#263238"/>
<path d="M64.5987 138.008C64.6534 138.069 64.2886 138.452 63.796 138.86C63.3034 139.268 62.8595 139.548 62.8048 139.482C62.75 139.421 63.1149 139.037 63.6075 138.629C64.1061 138.221 64.5501 137.947 64.5987 138.008Z" fill="#263238"/>
<path d="M142.414 178.481C142.414 178.481 147.973 175.729 144.774 169.962C144.78 169.962 139.282 173.403 142.414 178.481Z" fill="#455A64"/>
<path d="M145.205 168.057C145.266 168.075 144.847 169.804 144.269 171.929C143.691 174.055 143.18 175.759 143.12 175.741C143.059 175.723 143.478 173.994 144.056 171.869C144.634 169.75 145.145 168.039 145.205 168.057Z" fill="#263238"/>
<path d="M142.401 174.529C142.365 174.481 142.62 174.231 142.973 173.963C143.326 173.701 143.636 173.525 143.672 173.574C143.709 173.622 143.453 173.872 143.101 174.14C142.754 174.408 142.438 174.578 142.401 174.529Z" fill="#263238"/>
<path d="M144.221 171.558C144.275 171.534 144.47 171.868 144.652 172.301C144.835 172.733 144.938 173.111 144.884 173.129C144.829 173.147 144.634 172.818 144.452 172.386C144.269 171.954 144.166 171.576 144.221 171.558Z" fill="#263238"/>
<path d="M26.4756 159.264C26.4756 159.264 27.8621 165.658 34.5758 163.861C34.5758 163.861 32.4717 157.352 26.4756 159.264Z" fill="#B2CAF2"/>
<path d="M36.4189 164.787C36.4007 164.817 34.7466 163.928 32.7276 162.796C30.7086 161.663 29.0849 160.719 29.1032 160.683C29.1214 160.652 30.7755 161.541 32.7945 162.674C34.8135 163.807 36.4372 164.756 36.4189 164.787Z" fill="#263238"/>
<path d="M30.5194 160.262C30.5559 160.25 30.7262 160.579 30.9086 161.011C31.0911 161.437 31.2066 161.797 31.1701 161.809C31.1336 161.821 30.9633 161.492 30.7809 161.06C30.5985 160.633 30.4829 160.274 30.5194 160.262Z" fill="#263238"/>
<path d="M33.0919 162.887C33.098 162.923 32.7027 163.015 32.2102 163.094C31.7176 163.173 31.3162 163.204 31.3101 163.167C31.304 163.13 31.6993 163.039 32.1919 162.96C32.6845 162.881 33.0858 162.85 33.0919 162.887Z" fill="#263238"/>
</g>
</svg>
