<svg width="161" height="50" viewBox="0 0 161 50" fill="none" xmlns="http://www.w3.org/2000/svg">
<path d="M34.5315 26.8313C34.5466 27.8994 34.5391 27.3881 34.505 27.9524C34.4974 28.0888 34.4481 28.6948 34.4065 29.1039C34.3875 29.2819 34.2891 29.6682 34.2323 29.8386C33.6831 31.6188 30.0167 35.0087 26.623 35.5125C26.2594 35.5693 25.9564 35.592 25.4829 35.6185C25.3276 35.6261 25.1761 35.6299 25.0208 35.6299C24.8655 35.6299 24.7102 35.6261 24.5587 35.6185C18.9417 35.3837 14.4156 31.0848 14.1807 25.4678C14.1732 25.3125 14.1694 25.161 14.1694 25.0057C14.1694 24.8504 14.1732 24.6951 14.1807 24.5398C14.4156 18.9228 18.9266 14.4118 24.5436 14.177C24.6951 14.1694 24.8504 14.1656 25.0057 14.1656C25.161 14.1656 25.3163 14.1694 25.4678 14.177C29.1985 13.9346 32.1036 10.8363 32.0998 7.09416C32.0998 3.17401 28.9221 0 25.0057 0C21.1575 0 18.0251 3.06037 17.9115 6.88205C17.9153 6.94265 17.9153 7.01083 17.9153 7.07143C17.9153 7.14718 17.9153 7.22294 17.9115 7.2949C17.7941 13.1051 13.1089 17.7903 7.29869 17.9077C7.22673 17.9077 7.15097 17.9115 7.07522 17.9115C7.01083 17.9115 6.94644 17.9115 6.88584 17.9077C3.06416 18.0176 0 21.1499 0 24.9981C0 28.7478 2.91266 31.8233 6.60177 32.0771C6.76464 32.0695 6.93129 32.0658 7.10173 32.0658C7.26839 32.0658 7.43126 32.0695 7.59791 32.0771C13.1922 32.3271 17.6805 36.8154 17.9267 42.4097C17.938 42.5725 17.938 42.7392 17.938 42.9021C17.938 42.9589 17.938 43.0157 17.938 43.0687C17.9305 43.3679 17.9456 43.6709 17.9911 43.9701C18.5024 47.3828 21.4491 50 25.0057 50C28.3615 50 31.1719 47.6744 31.9105 44.5459C32.0241 44.08 32.0544 43.599 32.043 43.1217C32.0392 43.0384 32.0392 42.9551 32.0392 42.8717C32.0392 42.6369 32.0506 42.4021 32.0658 42.171C32.1074 41.5006 32.2135 40.8378 32.3763 40.1826C33.2513 36.7548 35.7587 33.9823 39.0236 32.7399C40.0348 32.3536 41.0954 32.1226 42.1748 32.0582C42.4059 32.043 42.6445 32.0354 42.8755 32.0354C42.9589 32.0354 43.0422 32.0354 43.1255 32.0392C43.6028 32.0506 44.0838 32.0203 44.5534 31.9105C47.682 31.1719 50.0076 28.3577 50.0076 25.0057C50.0076 21.0855 46.8298 17.9115 42.9096 17.9115C40.9817 17.9115 39.1334 18.6918 37.8002 20.0856C37.6411 20.2939 37.4706 20.4909 37.2888 20.6765C35.0125 23.0134 31.3423 23.2634 28.7705 21.256C28.5812 21.1045 28.3956 20.9492 28.2251 20.7749C27.282 20.0553 26.0927 19.6917 24.8049 19.6917C22.3051 19.6917 19.7068 22.3619 19.7068 25.2367C19.7068 27.9524 21.6196 31.1378 24.9981 31.1378C26.2101 31.1378 27.1835 31.0545 28.0888 30.3803C28.3615 30.1757 29.5546 29.3273 29.744 28.3804C29.8311 27.9524 29.4788 27.2555 29.013 27.2745C28.8804 27.282 28.7971 27.3426 28.4297 27.335C27.6002 27.3199 27.3729 27.1646 27.1457 26.8692C26.926 26.5851 26.8616 25.8049 27.1684 25.4299C27.4752 25.0549 27.8767 25.0587 28.3994 25.0587H31.7135H33.2248C33.4179 25.0587 33.8914 25.089 34.1868 25.3807C34.5959 25.7708 34.5239 26.3995 34.5315 26.8313Z" fill="#F27167"/>
<path d="M55.8859 25.2289C55.8859 27.9749 57.9918 30.0808 60.6469 30.0808C61.4726 30.0808 62.4157 29.8346 63.0748 29.4256V27.0166C63.0748 26.778 62.8778 26.5849 62.643 26.5849H60.6318C60.2152 26.5849 59.8781 26.2478 59.8781 25.8349V25.4221C59.8781 25.0054 60.2152 24.6683 60.6318 24.6683H64.5444C64.961 24.6683 65.2981 25.0054 65.2981 25.4221V29.8233C65.2981 30.2209 65.1731 30.5012 64.855 30.7398C63.7149 31.5466 62.2377 32.0466 60.6507 32.0466C56.6813 32.0466 53.6323 29.0771 53.6323 25.2365C53.6323 21.3996 56.6813 18.4302 60.6507 18.4302C62.0711 18.4302 63.3475 18.7976 64.4573 19.4718C64.8701 19.7369 64.9193 20.1119 64.6542 20.5171L64.3739 20.9489C64.1126 21.3542 63.7641 21.4299 63.3664 21.1913C62.5483 20.7141 61.7188 20.3808 60.6469 20.3808C57.9918 20.3732 55.8859 22.4791 55.8859 25.2289Z" fill="#003DA6"/>
<path d="M77.1454 26.9409C77.1454 29.7816 74.8691 32.039 71.7822 32.039C68.6953 32.039 66.4189 29.7816 66.4189 26.9409C66.4189 24.1002 68.6953 21.8428 71.7822 21.8428C74.8653 21.8428 77.1454 24.1002 77.1454 26.9409ZM74.9638 26.9409C74.9638 25.1531 73.5737 23.7631 71.786 23.7631C69.9982 23.7631 68.6044 25.1569 68.6044 26.9409C68.6044 28.7286 69.9982 30.1224 71.786 30.1224C73.5699 30.1187 74.9638 28.7248 74.9638 26.9409Z" fill="#003DA6"/>
<path d="M88.8076 26.9409C88.8076 29.7816 86.5313 32.039 83.4482 32.039C80.3613 32.039 78.085 29.7816 78.085 26.9409C78.085 24.1002 80.3613 21.8428 83.4482 21.8428C86.5313 21.8428 88.8076 24.1002 88.8076 26.9409ZM86.626 26.9409C86.626 25.1531 85.2321 23.7631 83.4482 23.7631C81.6604 23.7631 80.2704 25.1569 80.2704 26.9409C80.2704 28.7286 81.6642 30.1224 83.4482 30.1224C85.2321 30.1187 86.626 28.7248 86.626 26.9409Z" fill="#003DA6"/>
<path d="M97.9699 23.1194V18.8319C97.9699 18.3433 98.2351 18.0781 98.7237 18.0781H99.36C99.8486 18.0781 100.11 18.3433 100.11 18.8319V31.0582C100.11 31.5468 99.8486 31.8081 99.36 31.8081H98.7237C98.2351 31.8081 97.9699 31.5468 97.9699 31.0582V30.759C97.1064 31.6263 95.9777 32.0392 94.7353 32.0392C91.8378 32.0392 89.7471 29.706 89.7471 26.9449C89.7471 24.1799 91.8378 21.8468 94.7353 21.8468C95.9777 21.843 97.1064 22.2558 97.9699 23.1194ZM97.9699 27.21V26.6911C97.9699 25.1079 96.72 23.7747 95.1368 23.7595C95.08 23.7595 95.0232 23.7595 94.9664 23.7633C93.2468 23.839 91.8833 25.32 91.9325 27.0396C91.9818 28.7781 93.3566 30.1189 95.1103 30.1189C95.1747 30.1189 95.2353 30.1151 95.2997 30.1151C96.8109 30.0318 97.9699 28.725 97.9699 27.21Z" fill="#003DA6"/>
<path d="M115.109 25.3542C115.109 29.3615 112.598 31.8158 108.628 31.8158H104.825C104.42 31.8158 104.087 31.4863 104.087 31.0773V19.6312C104.087 19.2221 104.416 18.8926 104.825 18.8926H108.632C112.598 18.8926 115.109 21.3469 115.109 25.3542ZM106.269 29.6039C106.269 29.7668 106.397 29.8955 106.56 29.8955H108.632C111.124 29.8955 112.897 28.4941 112.897 25.3542C112.897 22.2143 111.124 20.8129 108.632 20.8129H106.56C106.397 20.8129 106.269 20.9417 106.269 21.1045V29.6039Z" fill="#F27167"/>
<path d="M126.562 27.0319C126.562 29.8233 124.328 32.039 121.297 32.039C118.267 32.039 116.033 29.8233 116.033 27.0319C116.033 24.2442 118.267 22.0322 121.297 22.0322C124.324 22.0322 126.562 24.248 126.562 27.0319ZM124.415 27.0319C124.415 25.2782 123.047 23.9109 121.294 23.9109C119.54 23.9109 118.173 25.2782 118.173 27.0319C118.173 28.7855 119.54 30.1528 121.294 30.1528C123.051 30.1528 124.415 28.7855 124.415 27.0319Z" fill="#F27167"/>
<path d="M127.392 27.0319C127.392 24.2442 129.626 22.0322 132.656 22.0322C133.774 22.0322 134.758 22.3277 135.573 22.8352C135.978 23.0852 136.024 23.4526 135.766 23.8503L135.489 24.2631C135.221 24.6608 134.88 24.7176 134.463 24.4563C133.929 24.1306 133.327 23.9109 132.656 23.9109C130.903 23.9109 129.535 25.2782 129.535 27.0319C129.535 28.7893 130.903 30.1528 132.656 30.1528C133.349 30.1528 133.986 29.9218 134.543 29.562C134.936 29.3044 135.281 29.3158 135.577 29.6832L135.891 30.0809C136.186 30.4596 136.186 30.8194 135.846 31.0694C134.971 31.6868 133.891 32.039 132.664 32.039C129.622 32.039 127.392 29.8233 127.392 27.0319Z" fill="#F27167"/>
<path d="M142.179 30.1946H142.251C142.739 30.1832 143.008 30.4332 143.008 30.9142V31.2627C143.008 31.7248 142.842 31.9937 142.501 32.0202C142.334 32.0316 142.16 32.0391 141.993 32.0391C139.501 32.0391 138.372 31.0051 138.372 28.6606V24.1003H137.524C137.115 24.1003 136.785 23.7708 136.785 23.3618V22.9944C136.785 22.5891 137.115 22.2558 137.524 22.2558H138.069C138.236 22.2558 138.372 22.1194 138.372 21.9528V20.3809C138.372 19.9188 138.615 19.6423 139.077 19.6083L139.664 19.612C140.152 19.5666 140.478 19.7749 140.478 20.2597V22.2558H142.156C142.561 22.2558 142.895 22.5853 142.895 22.9944V23.3618C142.895 23.7708 142.561 24.1003 142.156 24.1003H140.747C140.599 24.1003 140.474 24.2215 140.474 24.3731V28.6455C140.482 29.7098 140.925 30.1946 142.179 30.1946Z" fill="#F27167"/>
<path d="M153.86 27.0322C153.86 29.8199 151.625 32.0356 148.599 32.0356C145.569 32.0356 143.334 29.8199 143.334 27.0284C143.334 24.2408 145.569 22.0288 148.599 22.0288C151.625 22.0326 153.86 24.2483 153.86 27.0322ZM151.716 27.0322C151.716 25.2786 150.352 23.9112 148.595 23.9112C146.838 23.9112 145.474 25.2786 145.474 27.0284C145.474 28.7859 146.841 30.1532 148.595 30.1532C150.352 30.1532 151.716 28.7897 151.716 27.0322Z" fill="#F27167"/>
<path d="M157.071 26.6417V31.077C157.071 31.4861 156.742 31.8156 156.333 31.8156H155.704C155.299 31.8156 154.965 31.4861 154.965 31.077V22.9905C154.965 22.5852 155.295 22.2519 155.704 22.2519H156.333C156.742 22.2519 157.071 22.5814 157.071 22.9905V23.4715C157.791 22.6231 158.677 22.0322 159.878 22.0322C159.954 22.0322 160.033 22.0322 160.109 22.0398C160.548 22.0739 160.673 22.2065 160.669 22.8806L160.658 23.3086C160.613 23.8086 160.31 23.9639 159.813 23.926C159.741 23.9184 159.673 23.9147 159.601 23.9147C159.192 23.9184 158.787 24.0245 158.435 24.2328C157.575 24.7138 157.071 25.6532 157.071 26.6417Z" fill="#F27167"/>
</svg>
